# ProBuilder 5.2.4
# https://unity3d.com/unity/features/worldbuilding/probuilder
# 2.06.2026 18:29:58

mtllib ./LeafwithStick.mtl
o LeafwithStick

g LeafwithStick
v -0.25 0.01999998 0.54
v -0.285 0.00999999 0.5100002
v -0.285 0.01999998 0.5100002
v -0.25 0.02999997 0.54
v -0.3 0.00999999 0.5
v -0.3 0.01999998 0.5
v -0.25 0 -0.226687
v -0.25 0.00999999 -0.226687
v -0.265 0.00999999 -0.226687
v -0.265 0 -0.226687
v -0.285 0.00999999 0
v -0.4 0.01999998 0.01999998
v -0.4 0.00999999 0.01999998
v -0.285 0 0
v -0.2 0.00999999 0.5
v -0.215 0.00999999 0.5100002
v -0.215 0.01999998 0.5100002
v -0.2 0.01999998 0.5
v -0.1 0.00999999 0.01999998
v -0.1 0.01999998 0.01999998
v -0.215 0.00999999 0
v -0.215 0 0
v -0.235 0.00999999 -0.226687
v -0.235 0 -0.226687
v -0.4 0.00999999 0.375
v -0.46 0 0.25
v -0.46 0.00999999 0.25
v -0.4 0.01999998 0.375
v -0.1 0.00999999 0.375
v -0.03999996 0.00999999 0.25
v -0.03999996 0 0.25
v -0.1 0 0.375
v -0.295 0 0.25
v -0.295 0 0.375
v -0.25 0 0.25
v -0.25 0 0.375
v -0.295 -0.00999999 0.25
v -0.25 -0.00999999 0.25
v -0.205 0 0.25
v -0.205 0 0.375
v -0.205 -0.00999999 0.25
v -0.48 0.00999999 0.125
v -0.48 0.01999998 0.125
v -0.01999998 0.01999998 0.125
v -0.01999998 0.00999999 0.125
v -0.295 -0.00999999 0.125
v -0.25 0.00999999 0
v -0.25 -0.00999999 0.125
v -0.295 -0.01999998 0.125
v -0.25 -0.01999998 0.125
v -0.25 0 0
v -0.205 -0.00999999 0.125
v -0.205 -0.01999998 0.125
v -0.225 0.00999999 -0.1233435
v -0.225 0 -0.1233435
v -0.25 0.00999999 -0.1233435
v -0.275 0.00999999 -0.1233435
v -0.25 0 -0.1233435
v -0.275 0 -0.1233435
v -0.35 0.00999999 0.4375
v -0.35 0.01999998 0.4375
v -0.15 0.00999999 0.4375
v -0.15 0 0.4375
v -0.25 0 0.4474998
v -0.29 0 0.4425001
v -0.21 0 0.4425001
v -0.1177129 0.04412392 -0.2267035
v -0.2177118 -0.1290795 -0.2267045
v -0.2909188 0.1441242 -0.2267035
v -0.3909176 -0.02907927 -0.2267045
v 0.3925847 0.9279877 -3.563424
v 0.4312266 0.9949175 -3.542723
v 0.2193788 1.027988 -3.563424
v 0.2580207 1.094918 -3.542723
v 0.2575948 0.6941777 -2.787669
v 0.3541863 0.8614794 -2.735904
v 0.08438896 0.794178 -2.787669
v 0.1809804 0.9614797 -2.735904
v -0.1177115 0.04412651 -0.9325964
v -0.2177169 -0.1290883 -0.9325897
v -0.2909173 0.1441267 -0.9325964
v -0.3909228 -0.02908809 -0.9325897
v -0.0409233 0.177128 -1.912377
v -0.2141291 0.2771282 -1.912377
v 0.0556682 0.3444298 -1.860612
v -0.1175376 0.44443 -1.860612
v 0.1083325 0.4356472 -2.350019
v -0.06487337 0.5356475 -2.350019
v 0.03172468 0.7029606 -2.298261
v 0.2049305 0.6029603 -2.298261
v 0.1515007 0.5104169 -2.477213
v -0.02170516 0.6104172 -2.477213
v 0.4354178 1.002177 -1.553576
v 0.2622119 1.102177 -1.553576
v 0.3053736 1.176935 -1.680762
v 0.4785795 1.076935 -1.680762
v 0.07488634 0.7777189 -2.425447
v 0.2480922 0.6777186 -2.425447
v -0.6958728 -0.738301 -0.9287145
v -0.6803495 -0.7126117 -0.9651157
v -0.6887157 -0.7077847 -0.9625263
v -0.704239 -0.733474 -0.926125
v -0.6787114 -0.7020154 -0.9796017
v -0.6870809 -0.6971865 -0.9770123
v -0.295797 -0.08398333 -0.9338942
v -0.3041631 -0.07915621 -0.9313048
v -0.3075247 -0.0772119 -0.9457952
v -0.2991652 -0.08205042 -0.948377
v -0.4253526 -0.2709432 -0.9651119
v -0.4694922 -0.2685531 -1.073605
v -0.4611264 -0.2733806 -1.076195
v -0.4169865 -0.2757703 -0.9677014
v -0.6562988 -0.7149532 -0.8830114
v -0.66466 -0.7216762 -0.8974982
v -0.6730294 -0.7168472 -0.8949091
v -0.6646646 -0.7101258 -0.880421
v -0.3938876 -0.3122085 -0.7864129
v -0.4022538 -0.3073815 -0.7838235
v -0.4096631 -0.2800078 -0.8974946
v -0.401297 -0.2848349 -0.9000839
v -0.3008013 -0.08110017 -0.9168136
v -0.2924355 -0.08592768 -0.9194038
v -0.638631 -0.5808283 -1.07619
v -0.5812109 -0.469632 -1.136738
v -0.5895771 -0.464805 -1.134148
v -0.6469902 -0.5759892 -1.073607
v -0.5713856 -0.6196447 -0.7864158
v -0.4954392 -0.5191606 -0.7284576
v -0.4870731 -0.5239877 -0.731047
v -0.5630195 -0.6244718 -0.7890052
v -0.5442302 -0.4909906 -0.9773567
v -0.6067269 -0.5992383 -0.97736
v -0.5341421 -0.4968099 -0.9338923
v -0.596639 -0.605058 -0.9338964
v -0.5358642 -0.4958178 -0.9799461
v -0.5257759 -0.501637 -0.9364817
v -0.5240539 -0.5026292 -0.8904279
v -0.5865574 -0.6108888 -0.8904244
v -0.5156946 -0.5074681 -0.8930106
v -0.5315571 -0.353958 -1.153471
v -0.5399228 -0.3491303 -1.150881
v -0.4368185 -0.4086618 -0.7065535
v -0.4284524 -0.413489 -0.709143
v -0.4733608 -0.3875585 -0.9799504
v -0.4175079 -0.2754755 -0.9313032
v -0.4632792 -0.3933893 -0.9364784
v -0.4650013 -0.392397 -0.9825323
v -0.4549131 -0.3982164 -0.9390678
v -0.4091417 -0.2803026 -0.9338927
v -0.453191 -0.3992085 -0.8930141
v -0.4448251 -0.404036 -0.8956043
v -0.3502342 -0.1718934 -0.9071535
v -0.3418681 -0.1767204 -0.909743
v -0.3558325 -0.1686504 -0.9313074
v -0.3614375 -0.1654191 -0.9554534
v -0.347473 -0.173489 -0.933889
v -0.3530714 -0.1702462 -0.9580429
v -0.6586697 -0.6414154 -1.0279
v -0.6670356 -0.6365878 -1.02531
v -0.6138439 -0.6673056 -0.8347096
v -0.6054777 -0.6721327 -0.837299
v -0.6328903 -0.6678473 -0.9338948
v -0.6393552 -0.6583387 -0.9725326
v -0.6214288 -0.6687016 -0.8952517
v -0.4132707 -0.2477962 -2.489622
v -0.3828649 -0.2151361 -2.504937
v -0.391527 -0.210135 -2.504937
v -0.4219295 -0.2427971 -2.489622
v -0.3747848 -0.2011409 -2.512927
v -0.3834469 -0.1961398 -2.512927
v -0.06396274 0.3172231 -2.106281
v -0.07262155 0.3222222 -2.106281
v -0.06887381 0.3287135 -2.119269
v -0.060215 0.3237144 -2.119269
v -0.1620326 0.1673575 -2.249932
v -0.1506022 0.2071599 -2.359528
v -0.1419401 0.2021589 -2.359528
v -0.1533738 0.1623583 -2.249932
v -0.3997875 -0.244447 -2.426322
v -0.4003654 -0.2454479 -2.444314
v -0.4090275 -0.2404469 -2.444314
v -0.4084496 -0.2394459 -2.426322
v -0.2169412 0.07225269 -2.099719
v -0.2256033 0.07725376 -2.099719
v -0.1795333 0.1370453 -2.18931
v -0.1708745 0.1320462 -2.18931
v -0.07636948 0.3157306 -2.093293
v -0.06771067 0.3107314 -2.093293
v -0.2956622 -0.06409621 -2.537025
v -0.2178725 0.05064303 -2.526492
v -0.2265313 0.05564219 -2.526492
v -0.3043243 -0.05909514 -2.537025
v -0.3706568 -0.193991 -2.277223
v -0.3315346 -0.1262293 -2.162758
v -0.3228758 -0.1312284 -2.162758
v -0.361998 -0.1989901 -2.277223
v -0.2591242 -0.02080715 -2.383595
v -0.3132508 -0.1145574 -2.446095
v -0.270374 -0.04029244 -2.344624
v -0.3245007 -0.1340429 -2.407124
v -0.2504654 -0.02580628 -2.383595
v -0.2617152 -0.04529157 -2.344624
v -0.2816238 -0.05977768 -2.305653
v -0.3357505 -0.153528 -2.368153
v -0.272965 -0.06477684 -2.305653
v -0.1674054 0.1580515 -2.481312
v -0.1760675 0.1630526 -2.481312
v -0.2910692 -0.03613666 -2.082938
v -0.2824071 -0.04113773 -2.082938
v -0.1963387 0.0679442 -2.321095
v -0.1707795 0.1522074 -2.219624
v -0.2075886 0.0484587 -2.282124
v -0.1876766 0.06294313 -2.321095
v -0.1989264 0.04345763 -2.282124
v -0.1621207 0.1472082 -2.219624
v -0.2188384 0.02897343 -2.243153
v -0.2101763 0.02397236 -2.243153
v -0.1236191 0.2338918 -2.136304
v -0.1149603 0.2288926 -2.136304
v -0.1173685 0.2447182 -2.157956
v -0.1111244 0.2555333 -2.179599
v -0.1087096 0.239719 -2.157956
v -0.1024655 0.2505342 -2.179599
v -0.3352203 -0.1326131 -2.52498
v -0.3438824 -0.1276121 -2.52498
v -0.3852256 -0.2192249 -2.351769
v -0.3765668 -0.2242241 -2.351769
v -0.3558964 -0.1884217 -2.443372
v -0.3437318 -0.1673521 -2.475512
v -0.3637285 -0.2019876 -2.406234
v 0.5767865 1.466014 -2.508244
v 0.5754607 1.46252 -2.461229
v 0.566352 1.466061 -2.463347
v 0.5676849 1.469568 -2.51037
v 0.5721608 1.464564 -2.443626
v 0.5630493 1.468107 -2.445744
v 0.28099 0.9150434 -2.064258
v 0.2718816 0.9185848 -2.066375
v 0.2726752 0.927726 -2.054509
v 0.2817772 0.9241735 -2.052383
v 0.3665782 1.100724 -2.168707
v 0.3717421 1.188511 -2.091302
v 0.3808505 1.184969 -2.089184
v 0.37568 1.097172 -2.16658
v 0.5668694 1.403641 -2.522746
v 0.5717627 1.419875 -2.516618
v 0.5626512 1.423419 -2.518735
v 0.5577608 1.407182 -2.524866
v 0.3649883 1.002206 -2.326557
v 0.3558801 1.005748 -2.328675
v 0.362874 1.058069 -2.224087
v 0.3719826 1.054528 -2.221968
v 0.2710879 0.9094432 -2.078242
v 0.2801962 0.9059017 -2.076124
v 0.5262449 1.4368 -2.292797
v 0.487327 1.381134 -2.171506
v 0.4782251 1.384687 -2.173632
v 0.517143 1.440353 -2.294923
v 0.5103829 1.254038 -2.53017
v 0.4560196 1.128818 -2.505955
v 0.4651212 1.125265 -2.503829
v 0.5194913 1.250496 -2.528052
v 0.4786055 1.280617 -2.302063
v 0.5298035 1.369294 -2.373762
v 0.4762275 1.253205 -2.337671
v 0.5274255 1.341883 -2.409369
v 0.4877138 1.277075 -2.299945
v 0.4853358 1.249664 -2.335553
v 0.4738494 1.225794 -2.37328
v 0.5250409 1.31446 -2.44497
v 0.4829514 1.222241 -2.371153
v 0.4280821 1.308189 -2.086107
v 0.4189735 1.31173 -2.088225
v 0.3946581 1.031501 -2.452202
v 0.4037597 1.027948 -2.450076
v 0.4365157 1.188397 -2.228247
v 0.3647228 1.079391 -2.196393
v 0.4341379 1.160986 -2.263854
v 0.4456243 1.184856 -2.226128
v 0.4432463 1.157445 -2.261736
v 0.3738312 1.075849 -2.194275
v 0.4317599 1.133575 -2.299463
v 0.4408619 1.130022 -2.297336
v 0.312886 0.9766672 -2.145432
v 0.3219944 0.9731256 -2.143314
v 0.314209 0.9918981 -2.125651
v 0.3155317 1.007128 -2.105871
v 0.3233173 0.9883565 -2.123533
v 0.3246337 1.003576 -2.103745
v 0.5492013 1.450683 -2.368211
v 0.5400927 1.454224 -2.37033
v 0.5386308 1.328843 -2.526463
v 0.5477328 1.325291 -2.524337
v 0.5571178 1.393312 -2.450952
v 0.5571828 1.414131 -2.416432
v 0.5529564 1.365398 -2.479734
v 0.5565808 1.470499 -0.9997681
v 0.5705295 1.427513 -1.013288
v 0.5613455 1.42575 -1.009756
v 0.5473901 1.468725 -0.996228
v 0.5732123 1.409797 -1.015199
v 0.5640248 1.408021 -1.011659
v 0.404465 1.084246 -1.644655
v 0.395281 1.082484 -1.641123
v 0.40018 1.069836 -1.634703
v 0.4093675 1.071612 -1.638244
v 0.4571284 1.168237 -1.437571
v 0.4899704 1.079712 -1.36821
v 0.4991545 1.081475 -1.371742
v 0.4663125 1.169999 -1.441103
v 0.5405308 1.494068 -1.057964
v 0.5476562 1.486512 -1.04323
v 0.5384721 1.48475 -1.039698
v 0.5313468 1.492306 -1.054432
v 0.4011139 1.334317 -1.500053
v 0.3919232 1.332543 -1.496513
v 0.4342484 1.227225 -1.467505
v 0.4434392 1.228999 -1.471045
v 0.3903752 1.09512 -1.647535
v 0.3995659 1.096894 -1.651075
v 0.5780956 1.26196 -1.076414
v 0.5790948 1.149615 -1.15828
v 0.5699106 1.147853 -1.154748
v 0.5689116 1.260197 -1.072882
v 0.4800552 1.514802 -1.204724
v 0.4326511 1.501818 -1.334375
v 0.4418352 1.50358 -1.337908
v 0.4892393 1.516564 -1.208257
v 0.5251686 1.288673 -1.228848
v 0.5529667 1.352224 -1.124859
v 0.5104681 1.326603 -1.248098
v 0.5382594 1.390143 -1.144102
v 0.5343593 1.290446 -1.232388
v 0.5196522 1.328366 -1.25163
v 0.4957579 1.364525 -1.26734
v 0.5235558 1.428076 -1.163352
v 0.5049419 1.366287 -1.270873
v 0.5486469 1.067436 -1.250178
v 0.5394628 1.065674 -1.246645
v 0.3891348 1.453354 -1.443382
v 0.3983155 1.455119 -1.446915
v 0.5065615 1.226895 -1.336376
v 0.4456852 1.197726 -1.452534
v 0.4918543 1.264814 -1.355619
v 0.5157456 1.228658 -1.339908
v 0.501035 1.266579 -1.359151
v 0.4548757 1.199499 -1.456075
v 0.4771439 1.302736 -1.374862
v 0.4863347 1.30451 -1.378402
v 0.4100874 1.156088 -1.565838
v 0.419278 1.157861 -1.569378
v 0.41826 1.135018 -1.555147
v 0.4264296 1.113951 -1.544456
v 0.4274474 1.136794 -1.558687
v 0.4356202 1.115725 -1.547996
v 0.5756538 1.335878 -1.045807
v 0.5664631 1.334104 -1.042267
v 0.5102912 1.504436 -1.131345
v 0.5194753 1.506198 -1.134877
v 0.5543797 1.427006 -1.083789
v 0.5663383 1.39075 -1.07084
v 0.5402014 1.458181 -1.105061

vt -0.25 0.01999998
vt -0.285 0.00999999
vt -0.285 0.01999998
vt -0.25 0.02999997
vt -0.3 0.00999999
vt -0.3 0.01999998
vt 0.25 0
vt 0.25 0.00999999
vt 0.265 0.00999999
vt 0.265 0
vt 0.285 0.00999999
vt 0.4 0.01999998
vt 0.4 0.00999999
vt 0.285 0
vt -0.2000001 0.00999999
vt -0.215 0.00999999
vt -0.215 0.01999998
vt -0.2000001 0.01999998
vt 0.1 0.00999999
vt 0.1 0.01999998
vt 0.215 0.00999999
vt 0.215 0
vt 0.235 0.00999999
vt 0.235 0
vt 0.2484656 0.00999999
vt 0.1116872 0
vt 0.1116872 0.00999999
vt 0.2484656 0.01999998
vt -0.3880084 0.00999999
vt -0.25123 0.00999999
vt -0.25123 0
vt -0.3880084 0
vt 0.4597626 0.2504359
vt 0.2949571 0.250035
vt 0.2949571 0.3749738
vt 0.3996008 0.3756555
vt 0.2499637 0.250011
vt 0.2499637 0.3749498
vt -0.2949994 0.3748932
vt -0.295019 0.2496791
vt -0.4599991 0.2499419
vt -0.3999797 0.375153
vt -0.2499995 0.3748909
vt -0.2500191 0.2496768
vt 0.2049702 0.249987
vt 0.2049702 0.3749258
vt 0.03982362 0.2502118
vt 0.09981496 0.3751826
vt -0.2049997 0.3748887
vt -0.2050193 0.2496746
vt -0.09999983 0.3748834
vt -0.03999989 0.2499209
vt -0.01392783 0.00999999
vt -0.01392783 0.01999998
vt -0.09242895 0.00999999
vt -0.09242895 0.01999998
vt -0.125615 0.01999998
vt -0.125615 0.00999999
vt -0.04711387 0.01999998
vt -0.04711387 0.00999999
vt 0.3996008 0.02082929
vt 0.2951276 0.1247834
vt 0.4795892 0.1258206
vt 0.2497931 0.0004462302
vt 0.2501342 0.1247593
vt -0.2950386 0.124465
vt -0.4799795 0.125238
vt -0.2849994 1.423256E-05
vt -0.3999796 0.02026807
vt -0.2500387 0.1244628
vt -0.2499995 1.24847E-05
vt 0.2147983 0.0004275558
vt 0.2051408 0.1247353
vt 0.09964444 0.02066923
vt 0.01965602 0.1255752
vt -0.2050389 0.1244605
vt -0.2149996 1.073685E-05
vt -0.01998033 0.1252151
vt -0.09998022 0.02025309
vt 0.0190414 0
vt 0.0190414 0.00999999
vt 0.1427858 0.00999999
vt 0.1427858 0
vt 0.2466089 0.00999999
vt 0.2466089 0
vt 0.25 -0.1233435
vt 0.225 -0.1233435
vt 0.25 -0.226687
vt 0.235 -0.226687
vt 0.275 -0.1233435
vt 0.265 -0.226687
vt -0.25 0
vt -0.215 0
vt -0.225 -0.1233435
vt -0.25 -0.1233435
vt -0.235 -0.226687
vt -0.25 -0.226687
vt 0.02524092 0.00999999
vt 0.02524092 0
vt -0.09850351 0
vt -0.09850351 0.00999999
vt -0.2023266 0
vt -0.2023266 0.00999999
vt -0.275 -0.1233435
vt -0.265 -0.226687
vt 0.3964074 0.00999999
vt 0.3224365 0.00999999
vt 0.3224365 0.01999998
vt 0.3964074 0.01999998
vt -0.5359502 0.00999999
vt -0.5359502 0.01999998
vt -0.4619793 0.00999999
vt -0.4619793 0
vt 0.2499637 0.447414
vt 0.2899578 0.4424382
vt 0.2494521 0.5408075
vt 0.2846175 0.5105283
vt -0.2899994 0.4423711
vt -0.2499995 0.4473672
vt -0.2849798 0.5101037
vt -0.2499603 0.5403466
vt 0.2099695 0.4423955
vt 0.2146277 0.510491
vt 0.1498077 0.4376787
vt 0.1996299 0.5004876
vt -0.2099996 0.4423671
vt -0.21498 0.5101002
vt -0.1499998 0.4373657
vt -0.1999801 0.5001025
vt 0.3913011 0.3495641
vt 0.2847256 0.351237
vt 0.2798998 0.4175736
vt 0.3430425 0.4134183
vt 0.2803063 0.4878646
vt 0.2947838 0.4772725
vt -0.2986155 0.495748
vt -0.283752 0.5058812
vt -0.2873603 0.4377359
vt -0.3481604 0.432905
vt -0.2923148 0.3704126
vt -0.3977053 0.3700621
vt -0.7374602 -2.458692E-07
vt -0.8374597 -4.321337E-07
vt -0.73746 0.1000005
vt -0.8374596 0.1000003
vt 0.3449219 1.34483E-06
vt 0.3049193 9.723008E-07
vt 0.3449227 0.09999906
vt 0.3049201 0.09999868
vt -0.3619307 -0.007499933
vt -0.2619325 -0.007499814
vt -0.3319352 -0.4170974
vt -0.2919315 -0.4171014
vt 0.02738678 0.0999999
vt 0.02738678 -1.192093E-07
vt -0.3833088 0.0999999
vt -0.3833088 0
vt 0.02008207 0
vt 0.02008207 0.0999999
vt 0.4307776 0
vt 0.4307776 0.0999999
vt 0.2619325 -0.007499814
vt 0.3619307 -0.007499933
vt 0.2919314 -0.4171015
vt 0.3319352 -0.4170975
vt -0.4973675 0.9930692
vt -0.5939707 1.018954
vt -0.4060296 1.333995
vt -0.5026275 1.359874
vt -0.8305027 0.1000001
vt -0.8305027 0
vt -1.183448 0.1
vt -1.183448 -2.980232E-08
vt 0.830503 0
vt 0.830503 0.1000001
vt 1.183448 -2.980232E-08
vt 1.183448 0.1
vt 0.5939707 1.018954
vt 0.4973677 0.9930693
vt 0.5026273 1.359874
vt 0.4060296 1.333995
vt -0.1152908 -0.9471108
vt -0.1291518 -1.900455
vt -0.3289521 -1.89755
vt -0.3150911 -0.9442059
vt 0.1350386 -1.864181
vt 0.1114685 -0.9329998
vt 0.3229981 -0.9276456
vt 0.3465682 -1.858827
vt -0.9563588 0.0191789
vt -0.9660507 -0.1815119
vt -1.924035 0.2204017
vt -1.863148 0.4117513
vt 1.906513 0.2290127
vt 0.9497097 -0.1749874
vt 0.9395165 0.02548384
vt 1.845157 0.4200195
vt -0.1291009 -1.896952
vt -0.140932 -2.316684
vt -0.3406054 -2.311056
vt -0.3287743 -1.891324
vt 0.1349097 -1.859093
vt 0.3346906 -1.854492
vt 0.3448441 -2.29538
vt 0.1450632 -2.299981
vt -2.283539 0.7333395
vt -1.863198 0.4128456
vt -1.924765 0.2227835
vt -2.345098 0.543264
vt 1.90729 0.2312422
vt 1.84534 0.4211597
vt 2.264904 0.7425004
vt 2.326847 0.5525694
vt -0.1407572 -2.310457
vt -0.1443023 -2.436866
vt -0.3439768 -2.431266
vt -0.3404316 -2.304857
vt -0.1441285 -2.430668
vt -0.1525901 -2.730207
vt -0.3522623 -2.724567
vt -0.3438007 -2.425028
vt -0.5337826 0
vt -0.5337804 0.1000017
vt -0.4569179 0.1
vt -0.4569201 -1.66893E-06
vt 0.3457239 -2.402129
vt 0.3787903 -2.729212
vt 0.1570283 -2.751631
vt 0.1239618 -2.424548
vt -2.345594 0.5431442
vt -2.467466 0.6358823
vt -2.406021 0.8260214
vt -2.284157 0.7332968
vt -2.46806 0.6358387
vt -2.766061 0.8636244
vt -2.70452 1.053708
vt -2.406518 0.8259225
vt 2.265557 0.7424479
vt 2.38718 0.8354225
vt 2.449001 0.6454147
vt 2.327371 0.5524266
vt 2.387704 0.8353047
vt 2.685146 1.063694
vt 2.74707 0.8737506
vt 2.449628 0.6453614
vt -0.09277366 0
vt -0.09277366 0.1
vt 0.3451349 0
vt 0.3451349 0.1
vt 0.3624611 0.2499971
vt 0.3372265 0.1774001
vt 0.0434556 0.5500001
vt 0.01822102 0.4774031
vt 0.1241276 0.1
vt 0.1241276 0
vt -0.3137809 0.1
vt -0.3137809 0
vt -0.3372265 0.1774001
vt -0.3624611 0.2499972
vt -0.01822114 0.4774031
vt -0.04345572 0.5500001
vt -0.1960378 -1.000779
vt -0.1962355 -1.037031
vt -0.2037123 -1.035189
vt -0.2035145 -0.9989368
vt -0.1953376 -1.036087
vt -0.2003571 -1.049955
vt -0.2092565 -1.047566
vt -0.2042335 -1.033698
vt 0.2499998 0.009999216
vt 0.2650055 0.0099985
vt 0.2650002 7.152557E-07
vt 0.2175681 -0.9672188
vt 0.2564338 -1.07588
vt 0.2469216 -1.0784
vt 0.2080558 -0.9697379
vt -0.1737966 -0.9529548
vt -0.1776508 -0.9688218
vt -0.1868321 -0.9668417
vt -0.1829744 -0.9509735
vt -0.1772664 -0.9682693
vt -0.1961302 -1.00236
vt -0.2043775 -1.000227
vt -0.1855168 -0.9661363
vt 0.1691805 -0.7886274
vt 0.1786893 -0.7860207
vt 0.1995988 -0.8995814
vt 0.19009 -0.9021879
vt 0.2349998 0.009999275
vt 0.2499994 0.01000017
vt -0.616395 -0.8455849
vt -0.6955302 -0.7350622
vt -0.6872522 -0.7299197
vt -0.6081266 -0.8404303
vt -0.07867426 -0.9662245
vt -0.04499403 -0.8375512
vt -0.03587049 -0.8401796
vt -0.06955075 -0.9688529
vt -1.194833 -0.6464446
vt -1.034271 -0.6538641
vt -1.039036 -0.7778265
vt -1.142013 -0.7730677
vt -1.026507 -0.6516858
vt -0.9816244 -0.6536542
vt -0.9871172 -0.7782931
vt -1.031999 -0.7763244
vt 1.045758 -0.7766131
vt 1.039093 -0.6531157
vt 1.200003 -0.644048
vt 1.148507 -0.7712799
vt 1.029042 -0.6490806
vt 1.033934 -0.7743087
vt 0.9899499 -0.7763222
vt 0.9850563 -0.6510937
vt -0.982265 -0.6536276
vt -0.9373827 -0.655596
vt -0.9428686 -0.7802486
vt -0.9877578 -0.7782667
vt -0.9376117 -0.6576234
vt -0.7731494 -0.6652157
vt -0.8383909 -0.7873061
vt -0.9432587 -0.7823685
vt 0.9847772 -0.6511172
vt 0.9456787 -0.7783726
vt 0.9407859 -0.6531443
vt 0.841177 -0.7862924
vt 0.7761409 -0.6650751
vt 0.9391401 -0.6563171
vt 0.9449258 -0.7812276
vt -0.6979055 -0.7328202
vt -0.7349598 -0.6133417
vt -0.7261172 -0.6095111
vt -0.6890627 -0.7289902
vt -0.7376287 -0.6083266
vt -0.7014722 -0.5075162
vt -0.6937847 -0.5094827
vt -0.7299411 -0.610293
vt -0.03517845 -0.8407168
vt -0.04421872 -0.8368539
vt -0.005987376 -0.7163873
vt 0.003052831 -0.7202504
vt -0.005088158 -0.7142504
vt 0.06636326 -0.6444888
vt 0.07230809 -0.6496465
vt 0.0008566044 -0.7194082
vt -1.118743 -0.4060636
vt -1.004583 -0.3904211
vt -1.017105 -0.5129692
vt -1.200983 -0.5051148
vt -1.026686 -0.5299752
vt -1.032599 -0.653457
vt -1.192144 -0.6452683
vt -1.208536 -0.5221121
vt -1.004414 -0.4025535
vt -0.9677223 -0.403827
vt -0.9744123 -0.527671
vt -1.02159 -0.5260288
vt -0.9772682 -0.5285106
vt -1.025887 -0.6515154
vt -1.020935 -0.5263836
vt 1.195903 -0.6400949
vt 1.037636 -0.650309
vt 1.029749 -0.5304382
vt 1.208215 -0.5176399
vt 1.024245 -0.5123586
vt 1.006425 -0.393525
vt 1.119065 -0.4036711
vt 1.204572 -0.4968175
vt 1.005218 -0.4000313
vt 1.024799 -0.5224037
vt 0.9802913 -0.5256932
vt 0.9705973 -0.402596
vt 1.024415 -0.5239379
vt -0.9703312 -0.4041115
vt -0.933206 -0.4053444
vt -0.9295102 -0.5295607
vt -0.9772384 -0.5279836
vt -0.9330265 -0.5304523
vt -0.9379849 -0.6555706
vt -0.9816456 -0.6534573
vt -0.9766871 -0.5283391
vt -0.9324645 -0.4057967
vt -0.8179798 -0.4310406
vt -0.7433235 -0.5393121
vt -0.9304355 -0.5315537
vt -0.7458634 -0.5394826
vt -0.7732291 -0.6631002
vt -0.9373952 -0.6542791
vt -0.932974 -0.530441
vt 0.9709132 -0.401624
vt 0.9805157 -0.5245078
vt 0.9358281 -0.5277116
vt 0.9361527 -0.4041219
vt 0.9410537 -0.6532298
vt 0.9361675 -0.527988
vt 0.9406707 -0.6538891
vt 0.7753676 -0.6617734
vt 0.7488172 -0.5392042
vt 0.9352245 -0.5288163
vt 0.7483175 -0.5374862
vt 0.8226714 -0.4293465
vt 0.9367217 -0.4035125
vt 0.9354599 -0.5295916
vt 0.4122993 -0.5680242
vt 0.403515 -0.5640869
vt 0.448908 -0.4505746
vt 0.4576923 -0.4545119
vt 0.4500111 -0.4493222
vt 0.4889057 -0.3547007
vt 0.4975786 -0.3587441
vt 0.458684 -0.4533651
vt -0.935947 -0.3976532
vt -0.9710366 -0.395846
vt -0.9645187 -0.2728347
vt -0.939451 -0.2741332
vt -0.9635276 -0.2727475
vt -0.9580102 -0.1696807
vt -0.942919 -0.1704519
vt -0.9383746 -0.2740378
vt -0.9719698 -0.3958958
vt -1.006947 -0.3940787
vt -0.9904996 -0.271581
vt -0.9655188 -0.2728728
vt -0.974713 -0.1689347
vt -0.959699 -0.1697135
vt -0.965132 -0.2727901
vt 0.9726723 -0.3953058
vt 0.9383013 -0.3974304
vt 0.9410512 -0.274017
vt 0.9655991 -0.2725057
vt 0.940589 -0.2738012
vt 0.9445267 -0.17026
vt 0.9592658 -0.1693529
vt 0.9651498 -0.2722988
vt -0.2906287 -0.6356916
vt -0.2998468 -0.6391623
vt -0.3417989 -0.5238188
vt -0.3325809 -0.5203481
vt -0.3427818 -0.5231793
vt -0.3770339 -0.4262481
vt -0.3678291 -0.4228359
vt -0.3335711 -0.519778
vt 1.008596 -0.3935272
vt 0.9741396 -0.3956214
vt 0.9671255 -0.2727208
vt 0.9917411 -0.2712174
vt 0.9613204 -0.1694721
vt 0.9761031 -0.1685961
vt -0.5117902 -0.9591782
vt -0.562113 -0.9051859
vt -0.5551826 -0.898977
vt -0.5048577 -0.9529668
vt -0.5636472 -0.9024371
vt -0.6139631 -0.848455
vt -0.6070433 -0.842237
vt -0.5567166 -0.8962281
vt -0.1003797 -1.104444
vt -0.1088068 -1.102825
vt -0.09077245 -1.035688
vt -0.08234537 -1.037306
vt -0.0892272 -1.036615
vt -0.07980084 -0.9661572
vt -0.07116485 -0.9677677
vt -0.08059114 -1.038225
vt -1.033449 -0.776755
vt -0.9887651 -0.7787412
vt -0.9919034 -0.8509979
vt -1.031409 -0.8442434
vt -0.9867518 -0.8512866
vt -0.9905317 -0.944181
vt -1.027576 -0.911628
vt -1.030374 -0.8440232
vt 1.035018 -0.7745394
vt 1.033426 -0.8419091
vt 0.9941877 -0.8489354
vt 0.9906001 -0.7768441
vt 1.035369 -0.8421262
vt 1.031749 -0.9101179
vt 0.9972031 -0.9419705
vt 0.9959722 -0.8475471
vt -0.987594 -0.7802029
vt -0.9513271 -0.8493165
vt -0.9910372 -0.8523005
vt -0.9488763 -0.8477358
vt -0.9530325 -0.9143643
vt -0.9870722 -0.9444677
vt -0.9881091 -0.8524259
vt -0.9434848 -0.7806667
vt -0.8384849 -0.785702
vt -0.8907446 -0.845818
vt -0.9516924 -0.8478475
vt -0.8905525 -0.8454664
vt -0.9410019 -0.9061387
vt -0.9562371 -0.9153948
vt -0.9515271 -0.8472517
vt 0.989587 -0.7780967
vt 0.9931024 -0.8502368
vt 0.9533185 -0.8472782
vt 0.9451045 -0.7803636
vt 0.9925724 -0.8494763
vt 0.9944918 -0.94262
vt 0.9600438 -0.9128261
vt 0.9537297 -0.8456733
vt 0.9454488 -0.7818387
vt 0.9531156 -0.8490608
vt 0.8935279 -0.8466231
vt 0.8415212 -0.7863156
vt 0.9533036 -0.8480867
vt 0.9600469 -0.9156086
vt 0.9450381 -0.9062708
vt 0.8942571 -0.8449612
vt -1.150903 -0.7637761
vt -1.050218 -0.76908
vt -1.047517 -0.8349051
vt -1.106454 -0.8281739
vt -1.035307 -0.8381379
vt -1.039224 -0.9051968
vt -1.053195 -0.8940416
vt -1.099017 -0.8300132
vt 1.059581 -0.8900228
vt 1.045619 -0.9007847
vt 1.048858 -0.8317469
vt 1.105938 -0.8250648
vt 1.048256 -0.832648
vt 1.04914 -0.7663253
vt 1.151336 -0.7598534
vt 1.107058 -0.8240635
vt -0.2230514 -2.514367
vt -0.2090767 -2.527128
vt -0.2134012 -2.528075
vt -0.2273742 -2.515313
vt -0.2110634 -2.525606
vt -0.2116083 -2.536305
vt -0.2177261 -2.535477
vt -0.2171811 -2.524778
vt 0.25 0.01000094
vt 0.225443 -2.249428
vt 0.2373762 -2.359055
vt 0.2279643 -2.359271
vt 0.2160347 -2.249644
vt -0.2077603 -2.451369
vt -0.207715 -2.469401
vt -0.2177097 -2.469426
vt -0.217755 -2.451394
vt -0.2174073 -2.515251
vt 0.2223314 -2.099945
vt 0.2323199 -2.099663
vt 0.2248494 -2.189187
vt 0.2148647 -2.189468
vt 0.235 0.01000082
vt 0.2349994 0
vt -2.056235 -0.4576577
vt -2.081634 -0.330147
vt -2.072675 -0.3285203
vt -2.047272 -0.4560304
vt 0.867195 -1.06745
vt 0.8419673 -0.952312
vt 0.8502697 -0.9504929
vt 0.8754973 -1.065631
vt -2.537127 0.05918191
vt -2.397812 -0.03014836
vt -2.465568 -0.1351444
vt -2.554914 -0.07785948
vt -2.39734 -0.03074014
vt -2.359827 -0.05521661
vt -2.427486 -0.1600699
vt -2.465 -0.1355933
vt 2.46447 -0.1315933
vt 2.396051 -0.02665015
vt 2.534775 0.06310488
vt 2.553278 -0.07467614
vt 2.396714 -0.025683
vt 2.465261 -0.1305904
vt 2.427631 -0.1551981
vt 2.359084 -0.05029045
vt -2.322143 -0.07966875
vt -2.389802 -0.184522
vt -2.322884 -0.07759339
vt -2.185969 -0.1679347
vt -2.303475 -0.2397575
vt -2.390725 -0.182067
vt 2.390004 -0.1797239
vt 2.321458 -0.07481624
vt 2.302885 -0.236188
vt 2.184861 -0.1648192
vt 2.322074 -0.07397778
vt 2.390476 -0.1788116
vt -2.085907 -0.3266578
vt -2.067576 -0.2088608
vt -2.058649 -0.2087811
vt -2.076983 -0.3265781
vt -2.067437 -0.2086537
vt -1.970305 -0.1414963
vt -1.970248 -0.1415781
vt 0.8513637 -0.9536228
vt 0.842354 -0.9528785
vt 0.8329984 -0.8347052
vt 0.8420115 -0.8354498
vt 0.8350332 -0.8310642
vt 0.8989502 -0.7219623
vt 0.9070084 -0.7269231
vt 0.8430914 -0.8360251
vt -2.362092 0.2180337
vt -2.254107 0.1735307
vt -2.329111 0.07358909
vt -2.485765 0.1739343
vt -2.328856 0.0736072
vt -2.397589 -0.03122163
vt -2.536209 0.0577094
vt -2.487609 0.1736912
vt -2.253903 0.1729127
vt -2.225458 0.1542134
vt -2.292413 0.04965106
vt -2.291487 0.04992249
vt -2.397509 -0.03070995
vt -2.329243 0.0743982
vt 2.535754 0.06349282
vt 2.395947 -0.02538832
vt 2.328366 0.07841938
vt 2.48537 0.1797853
vt 2.327692 0.0792572
vt 2.253816 0.1802248
vt 2.361963 0.2238188
vt 2.485431 0.178276
vt 2.25363 0.1778464
vt 2.328061 0.07785501
vt 2.290438 0.05446966
vt 2.224372 0.1596639
vt 2.328159 0.0793058
vt 2.290529 0.05469803
vt -2.224509 0.1538928
vt -2.196146 0.1351791
vt -2.254841 0.02520914
vt -2.291304 0.04925942
vt -2.253803 0.02547019
vt -2.291558 0.0499457
vt -2.200062 0.1320242
vt -2.117104 0.0524842
vt -2.109081 -0.07853046
vt -2.26148 0.02260618
vt -2.10236 -0.07568321
vt -2.188246 -0.1676854
vt -2.322604 -0.07672536
vt -2.256009 0.02713063
vt 2.224401 0.1587829
vt 2.290434 0.05333924
vt 2.252774 0.02994458
vt 2.195107 0.1405792
vt 2.252902 0.03017222
vt 2.321755 -0.07345487
vt 2.185902 -0.1642777
vt 2.101349 -0.07286695
vt 2.253787 0.03082442
vt 2.111244 -0.07453501
vt 2.119549 0.056647
vt 2.201893 0.1360423
vt 2.26351 0.02575019
vt 1.534577 -0.4003304
vt 1.525807 -0.3996936
vt 1.519871 -0.2845869
vt 1.528642 -0.2852237
vt 1.522867 -0.2825931
vt 1.51891 -0.1859025
vt 1.527575 -0.1867968
vt 1.531533 -0.2834873
vt -2.19564 0.1523193
vt -2.22458 0.1715995
vt -2.157152 0.2745574
vt -2.136482 0.2607901
vt -2.100814 0.3608596
vt -2.088421 0.3526043
vt -2.136628 0.2608301
vt -2.224761 0.1714983
vt -2.253715 0.1907665
vt -2.177975 0.2882223
vt -2.157299 0.2744669
vt -2.178098 0.2882632
vt -2.113317 0.3690364
vt 2.223626 0.1716295
vt 2.194439 0.1524941
vt 2.135514 0.2610927
vt 2.15636 0.2747566
vt 2.135479 0.2610088
vt 2.087456 0.3528652
vt 2.099965 0.3610563
vt -1.315646 -0.5427532
vt -1.324606 -0.5425569
vt -1.315531 -0.4296439
vt -1.306572 -0.4298401
vt -1.318668 -0.4280261
vt -1.309361 -0.3340278
vt -1.300488 -0.3342822
vt -1.309796 -0.4282805
vt 2.252758 0.1908395
vt 2.177167 0.2884753
vt 2.112452 0.369286
vt -1.995279 -0.6059236
vt -2.021824 -0.5343736
vt -2.01347 -0.530594
vt -1.986924 -0.602144
vt -2.025453 -0.5323849
vt -2.051989 -0.4608457
vt -2.043634 -0.4570666
vt -2.017098 -0.5286058
vt 0.9213769 -1.167637
vt 0.916127 -1.170423
vt 0.8938537 -1.115766
vt 0.8991016 -1.112982
vt 0.8970017 -1.120561
vt 0.8681024 -1.06295
vt 0.8729362 -1.060525
vt 0.9018354 -1.118136
vt -2.464818 -0.1354567
vt -2.42727 -0.1599315
vt -2.466542 -0.2207388
vt -2.497208 -0.194791
vt -2.46729 -0.2210958
vt -2.520277 -0.3002104
vt -2.531963 -0.2558646
vt -2.497772 -0.1958863
vt 2.465258 -0.1304998
vt 2.497585 -0.1899063
vt 2.466803 -0.215798
vt 2.427585 -0.1549049
vt 2.496539 -0.1895103
vt 2.530276 -0.2481779
vt 2.51844 -0.2934283
vt 2.466328 -0.2153355
vt -2.427515 -0.1600333
vt -2.389791 -0.1843686
vt -2.430402 -0.238414
vt -2.43092 -0.2371464
vt -2.473554 -0.291081
vt -2.519569 -0.2975967
vt -2.466309 -0.219346
vt -2.391535 -0.1818216
vt -2.304101 -0.2386018
vt -2.378695 -0.2645856
vt -2.431909 -0.2359069
vt -2.37953 -0.2677314
vt -2.455823 -0.290936
vt -2.473675 -0.2903645
vt -2.430809 -0.2360232
vt 2.467063 -0.2160379
vt 2.430876 -0.2335272
vt 2.467032 -0.2156124
vt 2.51889 -0.2935846
vt 2.472615 -0.2868613
vt 2.430901 -0.2332886
vt 2.390656 -0.1787868
vt 2.431434 -0.2327039
vt 2.378575 -0.2611485
vt 2.302905 -0.2358899
vt 2.472443 -0.2874494
vt 2.454485 -0.2874817
vt 2.377961 -0.2621862
vt -2.557441 -0.04877831
vt -2.468242 -0.1062622
vt -2.500015 -0.1648511
vt -2.550348 -0.1280339
vt -2.499855 -0.1684096
vt -2.53608 -0.2267124
vt -2.542086 -0.2098881
vt -2.548292 -0.13008
vt 2.540866 -0.2065065
vt 2.533959 -0.2231606
vt 2.500229 -0.1637595
vt 2.548283 -0.1268323
vt 2.499684 -0.1634664
vt 2.466556 -0.1044666
vt 2.554668 -0.04663373
vt 2.547903 -0.1258909
vt -0.3037145 -2.382448
vt -0.3029678 -2.335566
vt -0.2934425 -2.337824
vt -0.2941917 -2.384714
vt -0.303062 -2.337844
vt -0.3069103 -2.320427
vt -0.2972376 -2.318284
vt -0.2933922 -2.335703
vt 0.2624567 -2.158048
vt 0.3087526 -2.084284
vt 0.312011 -2.08892
vt 0.2657137 -2.162686
vt -0.2766658 -2.40308
vt -0.2832134 -2.397086
vt -0.2759886 -2.394241
vt -0.2694426 -2.400237
vt -0.2777437 -2.398856
vt -0.3021045 -2.385862
vt -0.2997963 -2.379562
vt -0.2754287 -2.392555
vt 0.229367 -2.32464
vt 0.2148964 -2.318507
vt 0.2424905 -2.21602
vt 0.2569619 -2.222152
vt -2.247311 1.208468
vt -2.121602 1.167053
vt -2.125187 1.16058
vt -2.250896 1.201995
vt 1.762268 0.3497416
vt 1.698271 0.2365239
vt 1.689641 0.2430235
vt 1.753645 0.3562535
vt -2.112888 1.547356
vt -2.244577 1.462419
vt -2.308408 1.562331
vt -2.223948 1.616805
vt -2.244043 1.459893
vt -2.28107 1.435775
vt -2.346481 1.540026
vt -2.309454 1.564144
vt 2.304512 1.571849
vt 2.243457 1.469577
vt 2.107641 1.549083
vt 2.218021 1.622974
vt 2.238394 1.465385
vt 2.305589 1.568728
vt 2.343429 1.545426
vt 2.276236 1.442083
vt -2.279713 1.437091
vt -2.316742 1.412974
vt -2.382146 1.517212
vt -2.345124 1.541343
vt -2.31325 1.417669
vt -2.44989 1.33043
vt -2.466187 1.465579
vt -2.378998 1.521123
vt 2.274059 1.442644
vt 2.341254 1.545987
vt 2.379088 1.522672
vt 2.311893 1.419329
vt 2.459581 1.472615
vt 2.445926 1.338062
vt 2.307183 1.42141
vt 2.37155 1.526074
vt -2.122092 1.161569
vt -2.017534 1.095318
vt -2.022272 1.088027
vt -2.126843 1.154286
vt -2.017539 1.086349
vt -1.993514 0.9616227
vt -2.002391 0.9604973
vt -2.026416 1.085223
vt 1.695978 0.2386237
vt 1.701083 0.2304306
vt 1.616525 0.1542923
vt 1.611419 0.1624856
vt 1.616272 0.1477654
vt 1.516896 0.1666015
vt 1.518485 0.1743429
vt 1.617852 0.1555083
vt -2.042922 1.312055
vt -2.119945 1.234307
vt -2.175732 1.338117
vt -2.034103 1.437287
vt -2.182079 1.356099
vt -2.243961 1.456731
vt -2.114286 1.540889
vt -2.035055 1.453166
vt -2.122748 1.241124
vt -2.150357 1.221495
vt -2.211616 1.328379
vt -2.17611 1.353596
vt -2.21248 1.331557
vt -2.280039 1.434669
vt -2.242345 1.458178
vt -2.174788 1.355066
vt 2.103563 1.545833
vt 2.23719 1.466799
vt 2.181614 1.364061
vt 2.03028 1.452137
vt 2.170593 1.351295
vt 2.126687 1.240644
vt 2.040935 1.310561
vt 2.017732 1.436214
vt 2.118258 1.24448
vt 2.167315 1.358516
vt 2.205709 1.337291
vt 2.148119 1.22797
vt 2.169234 1.36095
vt 2.236429 1.464293
vt 2.274271 1.440991
vt 2.207076 1.337648
vt -2.150464 1.22348
vt -2.178129 1.203765
vt -2.247312 1.305443
vt -2.211742 1.330788
vt -2.24815 1.308755
vt -2.315709 1.411867
vt -2.278015 1.435377
vt -2.210456 1.332264
vt -2.182022 1.20354
vt -2.28721 1.158602
vt -2.406523 1.204869
vt -2.253111 1.305899
vt -2.400804 1.211033
vt -2.448715 1.327036
vt -2.311794 1.41358
vt -2.24531 1.31049
vt 2.146011 1.226749
vt 2.203148 1.335819
vt 2.241354 1.314592
vt 2.175731 1.210248
vt 2.2049 1.338209
vt 2.272095 1.441552
vt 2.309929 1.418237
vt 2.242734 1.314894
vt 2.304713 1.419768
vt 2.442914 1.333334
vt 2.396614 1.217713
vt 2.239945 1.313955
vt 2.401693 1.212261
vt 2.283453 1.164509
vt 2.177809 1.207493
vt 2.246999 1.311439
vt 1.910218 0.5968753
vt 1.914947 0.5884178
vt 1.822202 0.5243794
vt 1.817473 0.5328366
vt 1.822539 0.5163574
vt 1.744096 0.4653774
vt 1.739742 0.4739947
vt 1.818186 0.5249747
vt -2.16969 1.219666
vt -2.140835 1.238483
vt -2.077013 1.134641
vt -2.097622 1.121199
vt -2.076473 1.133543
vt -2.022937 1.046307
vt -2.035321 1.038214
vt -2.097115 1.12006
vt -2.141989 1.237233
vt -2.113081 1.255974
vt -2.057252 1.147061
vt -2.077903 1.133682
vt -2.056637 1.146009
vt -2.011093 1.053727
vt -2.02351 1.045683
vt -2.077332 1.132608
vt 2.136723 1.239701
vt 2.166531 1.22216
vt 2.095392 1.122794
vt 2.074101 1.135326
vt 2.093994 1.122238
vt 2.032754 1.039749
vt 2.019974 1.047311
vt 2.072693 1.134837
vt -1.676827 0.4682578
vt -1.670564 0.4738394
vt -1.588264 0.3975222
vt -1.594527 0.3919405
vt -1.591092 0.3932282
vt -1.522443 0.32845
vt -1.528764 0.3230747
vt -1.597412 0.3878529
vt 2.108997 1.257264
vt 2.138818 1.239596
vt 2.075577 1.135328
vt 2.054271 1.147936
vt 2.074195 1.134674
vt 2.020851 1.047272
vt 2.008065 1.054892
vt 2.052888 1.147377
vt -2.401465 1.225908
vt -2.324579 1.222731
vt -2.326023 1.216198
vt -2.402908 1.219373
vt -2.324648 1.217133
vt -2.247768 1.213951
vt -2.249222 1.207422
vt -2.326092 1.210603
vt 1.789415 0.5057563
vt 1.798165 0.5053568
vt 1.781419 0.4310559
vt 1.772668 0.4314433
vt 1.783125 0.4285407
vt 1.758719 0.3545785
vt 1.74999 0.3568165
vt 1.774392 0.4307674
vt -2.309938 1.565614
vt -2.346735 1.541663
vt -2.384443 1.601717
vt -2.349133 1.618864
vt -2.387078 1.605074
vt -2.44177 1.678266
vt -2.393488 1.670055
vt -2.349466 1.619308
vt 2.306994 1.56995
vt 2.345716 1.623569
vt 2.38129 1.60687
vt 2.344131 1.546477
vt 2.347077 1.627293
vt 2.390257 1.678828
vt 2.436492 1.683386
vt 2.381501 1.608108
vt -2.346183 1.542937
vt -2.383311 1.519397
vt -2.41397 1.578161
vt -2.383539 1.603233
vt -2.412631 1.578347
vt -2.451593 1.632894
vt -2.443853 1.676405
vt -2.384706 1.605032
vt -2.38416 1.521034
vt -2.470734 1.465472
vt -2.46259 1.54365
vt -2.415098 1.579895
vt -2.46082 1.541617
vt -2.459103 1.618211
vt -2.45278 1.634313
vt -2.412941 1.578701
vt 2.343215 1.547835
vt 2.380601 1.608072
vt 2.410915 1.582894
vt 2.380214 1.524172
vt 2.382094 1.609736
vt 2.435719 1.683606
vt 2.446146 1.640143
vt 2.411483 1.583981
vt 2.380529 1.528834
vt 2.412622 1.5854
vt 2.457751 1.549242
vt 2.464189 1.472558
vt 2.411844 1.586774
vt 2.44703 1.642446
vt 2.453344 1.626469
vt 2.456863 1.54966
vt -2.212291 1.64428
vt -2.294062 1.594282
vt -2.32974 1.642669
vt -2.280021 1.669185
vt -2.337976 1.651463
vt -2.373457 1.701967
vt -2.356321 1.699496
vt -2.284378 1.671379
vt 2.354503 1.70256
vt 2.371645 1.70228
vt 2.331434 1.650354
vt 2.281684 1.680659
vt 2.327898 1.648321
vt 2.291801 1.596481
vt 2.208047 1.647725
vt 2.277119 1.673979
vt -0.3159573 -0.8715395
vt -0.2800401 -0.8932863
vt -0.2834092 -0.8987132
vt -0.3193237 -0.8769774
vt -0.2850541 -0.8899556
vt -0.2687957 -0.8967122
vt -0.2678695 -0.8989468
vt -0.2841396 -0.8921839
vt 0.2649994 0.01000297
vt 0.2227704 -1.436375
vt 0.1519058 -1.362412
vt 0.1554114 -1.361661
vt 0.226276 -1.435624
vt -0.3472602 -0.9318779
vt -0.3363359 -0.9182924
vt -0.3290791 -0.9225039
vt -0.3400035 -0.9360894
vt -0.3371708 -0.9180607
vt -0.3217791 -0.8779826
vt -0.3130148 -0.8791642
vt -0.328417 -0.9192477
vt 0.3719996 -1.490856
vt 0.3696515 -1.494546
vt 0.2737237 -1.464489
vt 0.2760719 -1.4608
vt 0.2350072 0.01000154
vt -1.212515 1.204245
vt -1.286047 1.085766
vt -1.293927 1.091182
vt -1.220394 1.209661
vt 1.045122 1.057917
vt 1.072888 0.9873596
vt 1.064929 0.9871349
vt 1.037163 1.057693
vt -1.078451 1.337417
vt -1.173535 1.436411
vt -1.075992 1.498291
vt -1.015009 1.434798
vt -1.165379 1.435556
vt -1.192294 1.460971
vt -1.092254 1.522922
vt -1.065344 1.497514
vt 1.059311 1.49927
vt 1.169841 1.457975
vt 1.095716 1.342025
vt 1.011589 1.425391
vt 1.173697 1.44387
vt 1.064343 1.488243
vt 1.081531 1.525818
vt 1.190884 1.481445
vt -1.185968 1.46126
vt -1.21288 1.486666
vt -1.11285 1.548625
vt -1.085932 1.523214
vt -1.197786 1.490454
vt -1.288466 1.575145
vt -1.166828 1.602799
vt -1.109077 1.548742
vt 1.194333 1.469625
vt 1.084981 1.514
vt 1.102174 1.551586
vt 1.211523 1.507202
vt 1.146159 1.609408
vt 1.279428 1.618452
vt 1.215731 1.493818
vt 1.10518 1.530246
vt -1.285199 1.085557
vt -1.349144 0.9883887
vt -1.357185 0.9927961
vt -1.29324 1.089964
vt -1.351589 0.9872534
vt -1.434937 0.9731206
vt -1.435976 0.9794058
vt -1.352627 0.9935386
vt 1.06517 0.9906521
vt 1.074514 0.9891778
vt 1.091383 0.8943508
vt 1.082042 0.8958246
vt 1.093313 0.8961092
vt 1.117446 0.7679644
vt 1.112816 0.7686614
vt 1.08869 0.8967999
vt -1.302927 1.251957
vt -1.382656 1.316281
vt -1.289206 1.380615
vt -1.183955 1.257485
vt -1.28133 1.373771
vt -1.183828 1.434182
vt -1.094276 1.329019
vt -1.178136 1.254657
vt -1.381327 1.30757
vt -1.402177 1.331586
vt -1.306244 1.402676
vt -1.279435 1.371794
vt -1.300716 1.401306
vt -1.198525 1.459495
vt -1.171954 1.436958
vt -1.274151 1.378775
vt 1.093688 1.324853
vt 1.173147 1.443396
vt 1.279733 1.395736
vt 1.191223 1.261499
vt 1.278501 1.387006
vt 1.386348 1.339477
vt 1.313691 1.266059
vt 1.188305 1.253447
vt 1.384574 1.316595
vt 1.280369 1.375752
vt 1.303309 1.412626
vt 1.402418 1.34528
vt 1.28255 1.38718
vt 1.173206 1.431567
vt 1.190394 1.469142
vt 1.299741 1.424757
vt -1.397158 1.327566
vt -1.418153 1.351208
vt -1.327068 1.42834
vt -1.300078 1.397948
vt -1.321305 1.426997
vt -1.219114 1.485185
vt -1.192549 1.462654
vt -1.294739 1.404466
vt -1.407359 1.346745
vt -1.450924 1.422679
vt -1.414853 1.513739
vt -1.320122 1.404779
vt -1.39947 1.523151
vt -1.304065 1.571409
vt -1.213619 1.49225
vt -1.295736 1.433418
vt 1.401062 1.336644
vt 1.301233 1.401639
vt 1.3235 1.438464
vt 1.41838 1.365284
vt 1.193842 1.457318
vt 1.211032 1.494896
vt 1.320385 1.450517
vt 1.216172 1.471029
vt 1.281104 1.58224
vt 1.394069 1.564074
vt 1.322087 1.438233
vt 1.402013 1.528483
vt 1.450372 1.443049
vt 1.420755 1.360088
vt 1.327853 1.404195
vt 1.388913 0.9415271
vt 1.399746 0.9444987
vt 1.455534 0.849582
vt 1.444701 0.8466103
vt 1.45816 0.8495359
vt 1.503846 0.7687633
vt 1.492538 0.7662799
vt 1.446852 0.8470524
vt -1.414001 1.357748
vt -1.392644 1.338179
vt -1.494003 1.277015
vt -1.509256 1.290992
vt -1.497697 1.276464
vt -1.583428 1.225107
vt -1.59265 1.23348
vt -1.51307 1.290424
vt -1.397657 1.337547
vt -1.376522 1.317949
vt -1.48265 1.262534
vt -1.497748 1.276535
vt -1.486187 1.261989
vt -1.576653 1.216385
vt -1.585762 1.22479
vt -1.501362 1.27599
vt 1.396469 1.33583
vt 1.411509 1.36529
vt 1.511867 1.304468
vt 1.501126 1.283428
vt 1.512185 1.297786
vt 1.595471 1.244343
vt 1.588909 1.231657
vt 1.501254 1.276652
vt -1.278775 0.7742715
vt -1.271252 0.7706545
vt -1.31771 0.6827948
vt -1.325241 0.6864156
vt -1.316064 0.6817325
vt -1.355303 0.6092463
vt -1.362808 0.6128659
vt -1.323571 0.685353
vt 1.380142 1.315397
vt 1.395735 1.345092
vt 1.500386 1.290154
vt 1.489249 1.268945
vt 1.500992 1.283335
vt 1.588573 1.235705
vt 1.581703 1.222941
vt 1.489535 1.262051
vt -1.157374 1.354575
vt -1.185522 1.280908
vt -1.19435 1.284078
vt -1.166201 1.357742
vt -1.18512 1.279795
vt -1.213282 1.206124
vt -1.222092 1.209294
vt -1.193942 1.282961
vt 1.003098 1.097951
vt 1.006875 1.102084
vt 1.033259 1.081953
vt 1.029483 1.07782
vt 1.028903 1.080112
vt 1.046379 1.057718
vt 1.041834 1.055973
vt 1.024359 1.078366
vt -1.059891 1.49924
vt -1.086141 1.524613
vt -1.029834 1.560208
vt -1.010381 1.535195
vt -1.025229 1.553174
vt -0.9400108 1.58875
vt -0.9490567 1.564194
vt -1.008062 1.536549
vt 1.061261 1.500273
vt 1.007799 1.532193
vt 1.023391 1.562673
vt 1.083459 1.532192
vt 1.008899 1.536474
vt 0.9509251 1.559505
vt 0.9365175 1.595356
vt 1.019452 1.568151
vt -1.084338 1.523753
vt -1.106555 1.555785
vt -1.048303 1.580824
vt -1.024423 1.554471
vt -1.044613 1.59067
vt -0.978728 1.600459
vt -0.9383174 1.581191
vt -1.027084 1.562695
vt -1.101288 1.549397
vt -1.151945 1.606395
vt -1.080046 1.600698
vt -1.046949 1.569407
vt -1.072851 1.615902
vt -0.9969672 1.595449
vt -0.9824157 1.588027
vt -1.047117 1.581356
vt 1.081381 1.526075
vt 1.02183 1.557472
vt 1.046267 1.583027
vt 1.104254 1.557262
vt 1.02151 1.563366
vt 0.9379144 1.594091
vt 0.9810586 1.608464
vt 1.043726 1.589832
vt 1.095339 1.549675
vt 1.046607 1.581345
vt 1.083561 1.612094
vt 1.154057 1.607957
vt 1.04085 1.579959
vt 0.9835021 1.607018
vt 0.9995132 1.611078
vt 1.077221 1.61125
vt -0.9905272 1.437208
vt -1.051107 1.506866
vt -1.000953 1.543873
vt -0.9683521 1.501154
vt -0.9956084 1.536396
vt -0.9359865 1.566539
vt -0.9372253 1.552851
vt -0.9647239 1.494689
vt 0.9370971 1.560218
vt 0.934298 1.574787
vt 0.9914646 1.549725
vt 0.9711923 1.502309
vt 0.9929305 1.546248
vt 1.048739 1.516963
vt 0.9977495 1.443467
vt 0.9677188 1.501867

vn -0.6507884 0 0.7592592
vn -0.5547094 0 0.8320442
vn 0 0 -1
vn -0.171341 0 -0.9852118
vn 0.5547094 0 0.8320442
vn 0.6507884 0 0.7592592
vn 0.171341 0 -0.9852118
vn -0.9015232 0 0.4327308
vn 0.9015229 0 0.4327314
vn 0.1225044 0.9834338 -0.0830312
vn 0.060495 0.9981685 0
vn 0.1845138 0.9686991 -0.1660624
vn 0 1 0
vn -0.07718907 -0.9913957 0.1018896
vn -0.06030304 -0.9950012 0.07960002
vn -0.0940751 -0.9877902 0.1241791
vn 0 -0.9968153 0.07974515
vn -0.07763924 0.9966217 -0.01451269
vn -0.06046949 0.997748 -0.02902538
vn -0.09480899 0.9954955 0
vn 0.03023474 -0.9972817 0.05438526
vn 0.06046949 -0.997748 0.02902538
vn -0.9874406 0 0.1579908
vn -0.7954316 0 -0.6060434
vn 0.9874406 0 0.1579904
vn 0.7954316 0 -0.6060434
vn 0.1364569 0.9796915 0.1434547
vn 0.1140201 0.9795377 0.1658475
vn 0.1588936 0.9798453 0.1210619
vn 0.1595742 0.984042 -0.07872329
vn 0.1099604 0.9898809 -0.004360627
vn 0.06034659 0.9957199 0.07000203
vn 0 0.9874407 0.1579904
vn 0 0.9968153 -0.07974515
vn -0.06034659 -0.9957199 -0.07000203
vn -0.1099604 -0.9898809 0.004360627
vn -0.1595742 -0.984042 0.07872329
vn -0.1364569 -0.9796915 -0.1434547
vn -0.1140201 -0.9795377 -0.1658475
vn -0.1588936 -0.9798453 -0.1210619
vn 0 -0.9874407 -0.1579904
vn -0.1286197 0.9825886 0.1220398
vn -0.09945199 0.9921531 0.07577298
vn -0.1577875 0.9730241 0.1683067
vn -0.1598436 0.9857033 0.05328124
vn -0.1100733 0.9903523 -0.01315939
vn -0.06030301 0.9950012 -0.07960002
vn 0.06030301 -0.9950012 0.07960002
vn 0.1100733 -0.9903523 0.01315939
vn 0.1598436 -0.9857033 -0.05328124
vn 0.1286197 -0.9825886 -0.1220398
vn 0.09945199 -0.9921531 -0.07577298
vn 0.1577875 -0.9730241 -0.1683067
vn 0.9967296 0 -0.0808092
vn 0.995351 0 -0.09631474
vn 0 -1 0
vn -0.9967296 0 -0.0808092
vn -0.995351 0 -0.09631474
vn -0.7808684 0 0.6246956
vn 0.7808688 0 0.6246951
vn 0.01422103 0.9543282 -0.2974187
vn -0.007348108 0.9511974 -0.3084955
vn 0.03579018 0.9574589 -0.2863419
vn -0.01848152 -0.9888352 0.1478627
vn 0.03958518 -0.9807891 0.1790924
vn 0.09765188 -0.9727429 0.2103221
vn -0.03579018 0.9574589 -0.2863419
vn -0.01422103 0.9543282 -0.2974187
vn 0.007348108 0.9511974 -0.3084955
vn -0.1299586 0.9893991 -0.04394014
vn -0.09453744 0.9926443 -0.07562997
vn -0.1653797 0.9861539 -0.01225032
vn -0.1809478 0.9382458 -0.2948775
vn -0.1877697 0.9373482 -0.2933789
vn -0.1945915 0.9364508 -0.2918803
vn -0.03958518 -0.9807891 0.1790924
vn -0.09765188 -0.9727429 0.2103221
vn 0.01848152 -0.9888352 0.1478627
vn 0.05810089 -0.984216 0.1610637
vn 0.1021225 -0.9829074 0.1531801
vn 0.01407925 -0.9855246 0.1689472
vn 0.1850501 0.9715146 -0.1480401
vn 0.2514776 0.9596723 -0.08579428
vn 0.3179051 0.94783 -0.02354847
vn 0.2596881 0.9229242 -0.2758543
vn 0.1945915 0.9364508 -0.2918803
vn 0.3247848 0.9093977 -0.2598282
vn -0.1381001 -0.9788711 0.1462212
vn -0.1021225 -0.9829074 0.1531801
vn -0.1740776 -0.9748349 0.1392623
vn -0.1653795 -0.9861539 0.0122503
vn -0.1299585 -0.9893991 0.04394012
vn -0.0945374 -0.9926444 0.07562993
vn -2.431442E-06 -4.360402E-06 1
vn 0.1293645 0.2240663 -0.9659498
vn 0.8660259 -0.4999993 -6.497036E-08
vn -0.472219 -0.8179086 -0.3286862
vn 0.4911238 0.8506527 0.1875832
vn -0.8660259 0.4999993 1.428896E-07
vn 0.4999992 0.8660259 4.215355E-06
vn -0.4999992 -0.8660259 1.447478E-05
vn -0.4703105 -0.8146036 -0.339454
vn 0.4683701 0.8112428 0.3500208
vn -0.4130603 -0.7154432 -0.5634911
vn 0.4130568 0.7154371 0.5635015
vn -0.4136969 -0.7165455 -0.5616205
vn -0.4127947 -0.7149825 -0.5642699
vn 0.413709 0.7165664 0.5615847
vn 0.4127948 0.7149828 0.5642695
vn -0.4251373 -0.7363607 0.5263376
vn 0.4251373 0.7363606 -0.5263377
vn -0.5253903 -0.5733479 -0.6286789
vn -0.540213 -0.6489455 -0.5357609
vn 0.500277 0.865865 -0.0003305913
vn 0.5007288 0.8656037 -0.0009244633
vn 0.4539734 0.8755273 -0.1654089
vn -0.2913799 -0.7924168 0.5358856
vn -0.2335194 -0.7418481 0.6285937
vn -0.2334905 -0.74188 0.6285668
vn 0.5308044 0.8311662 0.1655581
vn -0.4184338 -0.2580915 -0.8708053
vn -0.01412292 -0.4915555 0.8707317
vn -0.7536938 0.5310073 0.3728556
vn -0.8214303 0.4742424 0.3167751
vn -0.6859574 0.5877723 0.4289362
vn -0.8365201 0.4829552 0.2588212
vn 0.7610763 -0.5570527 -0.3311498
vn 0.7790228 -0.5416752 -0.3157714
vn 0.7431297 -0.5724304 -0.3465281
vn 0.7939848 -0.5504809 -0.2579903
vn -0.8438352 0.5039475 0.1829546
vn -0.8336739 0.5148361 0.1998286
vn -0.8539966 0.4930589 0.1660807
vn 0.8138285 -0.5326571 -0.2289154
vn 0.8336743 -0.5148336 -0.199834
vn -0.3004438 -0.008998582 -0.9537571
vn -0.3004172 -0.009008676 -0.9537654
vn 0.1245058 0.6279378 -0.7682399
vn 0.1244962 0.6279426 -0.7682375
vn 0.1425005 -0.2646598 0.9537551
vn 0.1424989 -0.2646592 0.9537555
vn 0.481275 0.4219401 0.7683365
vn -0.8606764 0.3312494 0.3853627
vn -0.8767779 0.3146804 0.3636437
vn -0.8445749 0.3478183 0.4070818
vn -0.7480341 0.5227885 0.4088241
vn -0.8012212 0.4676299 0.3624104
vn -0.8544083 0.4124713 0.3159966
vn -0.9050127 0.3400764 0.2555386
vn -0.9049988 0.3400819 0.2555806
vn -0.9050267 0.3400709 0.2554966
vn -0.7939892 0.5504848 0.2579685
vn 0.8544084 -0.4124717 -0.3159959
vn 0.8012279 -0.4676248 -0.3624046
vn 0.7480474 -0.5227779 -0.4088134
vn 0.8606711 -0.3312804 -0.385349
vn 0.8767662 -0.3147189 -0.3636386
vn 0.844576 -0.3478419 -0.4070594
vn 0.9049983 -0.3400824 -0.255582
vn -0.9118072 0.3854996 0.1300695
vn -0.8901483 0.4263925 0.1607029
vn -0.933466 0.3446068 0.09943604
vn -0.8870217 0.4506059 0.1007319
vn -0.8465376 0.5039447 0.1500067
vn -0.8060535 0.5572835 0.1992814
vn 0.8060513 -0.5572862 -0.1992825
vn 0.8465365 -0.5039461 -0.150007
vn 0.8870217 -0.4506061 -0.1007315
vn 0.911807 -0.3854998 -0.1300697
vn 0.8901479 -0.4263931 -0.1607036
vn 0.9334661 -0.3446064 -0.09943579
vn 0.2639008 -0.05905065 0.9627405
vn 0.2713452 -0.04544504 0.9614086
vn -0.8364995 0.4829772 0.2588468
vn 0.8365152 -0.4829525 -0.2588423
vn 0.8364946 -0.4829782 -0.2588605
vn -0.1831414 0.1990441 -0.9627256
vn -0.1747071 0.2121106 -0.9615021
vn -0.1743232 0.2119369 -0.9616102
vn -0.1750911 0.2122844 -0.961394
vn -0.4873175 -0.4399813 -0.7542799
vn -0.4872454 -0.4400136 -0.7543077
vn -0.4875988 -0.4398371 -0.7541822
vn -0.137127 -0.6422825 0.7541018
vn -0.6464158 0.7166208 0.2607774
vn -0.6430971 0.7274822 0.2391563
vn -0.6497344 0.7057594 0.2823984
vn 0.7490965 -0.6032345 -0.2737928
vn 0.7397699 -0.6338992 -0.2156482
vn 0.7304434 -0.6645639 -0.1575037
vn -0.6657527 0.7150447 0.2132705
vn -0.6527927 0.7203215 0.2332462
vn -0.6398326 0.7255983 0.2532219
vn -0.8348173 0.5326976 0.130556
vn -0.8137522 0.5571203 0.1656032
vn -0.8558825 0.5082749 0.09550887
vn -0.6779426 0.7319576 0.068058
vn -0.6794726 0.731108 0.06122461
vn -0.6810026 0.7302583 0.05439122
vn 0.7220311 -0.6236457 -0.2921021
vn 0.6866623 -0.6392943 -0.3461181
vn 0.7573999 -0.6079971 -0.2380861
vn 0.7558098 -0.6223575 -0.1985253
vn 0.7685457 -0.6205921 -0.1555726
vn 0.7430739 -0.624123 -0.241478
vn -0.6971848 0.573479 0.4301804
vn -0.7035137 0.5052456 0.4912893
vn -0.7098427 0.4370121 0.5523982
vn -0.5758926 0.6510281 0.4897311
vn -0.5937827 0.6798509 0.4303776
vn -0.5580024 0.6222053 0.5490846
vn 0.7148119 -0.5815187 -0.386672
vn 0.7227889 -0.5941735 -0.3528941
vn 0.706835 -0.5688638 -0.42045
vn 0.7817404 -0.4654814 -0.4149808
vn 0.7765485 -0.4990778 -0.3816076
vn 0.7713565 -0.5326743 -0.3482344
vn -0.1660873 -0.2876716 -0.9432179
vn -0.2215971 -0.3838174 -0.8964257
vn 0.4330522 0.7500737 0.4998552
vn 0.4694381 0.8130916 0.3442528
vn -0.4989716 -0.8642441 0.06410597
vn -0.4914536 -0.8512225 0.1841026
vn 0.3837807 0.664728 0.6409752
vn 0.03798272 0.06578805 -0.9971104
vn -0.412776 -0.7149529 0.564321
vn -0.8463434 0.5009527 0.1476124
vn -0.8795613 0.4728934 0.05238022
vn -0.8131255 0.5290118 0.2428445
vn 0.8337582 -0.5386851 -0.117774
vn 0.8423095 -0.531083 -0.0920082
vn 0.825207 -0.5462872 -0.1435397
vn 0.8287438 -0.5582064 -0.03986528
vn -0.83741 0.5428088 -0.05997144
vn -0.8363935 0.5468214 -0.0378456
vn -0.8384264 0.5387961 -0.08209728
vn 0.8325683 -0.5525146 -0.001009187
vn 0.8363934 -0.5468215 0.03784546
vn 0.1784509 0.3090862 -0.9341419
vn 0.4612857 0.7989704 -0.3858262
vn -0.3152657 -0.5460586 0.7761621
vn 0.06356156 0.1100919 0.991887
vn -0.9446672 0.3231749 0.04645101
vn -0.9486201 0.3160211 0.01583343
vn -0.9407143 0.3303288 0.0770686
vn -0.8580168 0.48196 0.1775438
vn -0.8828696 0.4505884 0.09739196
vn -0.9077225 0.4192168 0.01724007
vn -0.9235561 0.3752426 -0.07897545
vn -0.8287442 0.5582059 0.03986662
vn 0.9077113 -0.4192404 -0.01725527
vn 0.8828565 -0.4506109 -0.09740683
vn 0.8580018 -0.4819813 -0.1775584
vn 0.944669 -0.3231703 -0.04643215
vn 0.9486238 -0.3160118 -0.0157957
vn 0.9407143 -0.3303288 -0.0770686
vn 0.9235647 -0.3752183 0.0789901
vn -0.9235501 0.3752511 -0.0790047
vn -0.8716332 0.4554665 -0.1724119
vn -0.8671761 0.4823065 -0.1240408
vn -0.8760903 0.4286265 -0.2207829
vn -0.8367655 0.5220868 -0.1650724
vn -0.8244647 0.5526921 -0.08874616
vn -0.8121638 0.5832973 -0.01241991
vn 0.9235604 -0.3752252 0.07900812
vn 0.8121487 -0.5833187 0.01240465
vn 0.8244513 -0.5527145 0.08873115
vn 0.8367538 -0.5221102 0.1650577
vn 0.8716385 -0.4554583 0.1723955
vn 0.8671783 -0.4823146 0.1239944
vn 0.8760988 -0.4286022 0.2207966
vn -0.2141568 -0.370931 0.90363
vn -0.2071276 -0.358756 0.9101606
vn 0.2841794 0.4922138 -0.8227805
vn 0.2905295 0.5032155 -0.8138592
vn -0.07529354 -0.1304123 -0.9885968
vn -0.4657252 -0.8066597 0.3638684
vn -0.4656892 -0.8065993 0.3640484
vn -0.7012476 0.6940576 0.1610595
vn -0.6883673 0.7101153 0.1479417
vn -0.7141278 0.6779999 0.1741772
vn 0.796959 -0.597302 -0.08992583
vn 0.7619435 -0.6418536 -0.05525551
vn 0.7269279 -0.6864052 -0.02058518
vn -0.6962314 0.7090017 0.112154
vn -0.6941192 0.7064064 0.1363521
vn -0.6920071 0.703811 0.1605501
vn -0.8053477 0.583906 -0.09056289
vn -0.8032916 0.5939537 -0.04406499
vn -0.8074039 0.5738583 -0.1370608
vn -0.63965 0.7686111 -0.009212416
vn -0.6378226 0.7699882 -0.01584858
vn -0.6359952 0.7713653 -0.02248475
vn 0.7817428 -0.6075572 -0.1238397
vn 0.7757664 -0.6018073 -0.1897748
vn 0.7877192 -0.6133071 -0.05790458
vn 0.768121 -0.6380256 -0.03024006
vn 0.7594046 -0.6505117 0.01179764
vn 0.7768374 -0.6255394 -0.07227775
vn -0.8235219 0.5166467 0.2342818
vn -0.8568193 0.435302 0.2606733
vn -0.8901168 0.3539574 0.2870649
vn -0.7447519 0.5559062 0.362819
vn -0.733249 0.6028703 0.3144732
vn -0.7562548 0.5089421 0.4111649
vn 0.8189495 -0.5392976 -0.1926703
vn 0.8104374 -0.5621068 -0.1650066
vn 0.8274615 -0.5164884 -0.2203341
vn 0.8900658 -0.4306858 -0.1493068
vn 0.8703072 -0.4713933 -0.1344865
vn 0.8505485 -0.5121009 -0.1196662
vn 0.3457173 0.9349748 0.07938068
vn 0.345095 0.9352171 0.0792358
vn 0.3463395 0.9347324 0.07952556
vn 0.3698663 0.9282881 -0.03847206
vn 0.3698019 0.9283113 -0.03853206
vn -0.4099654 -0.7094169 0.5732846
vn -0.4092343 -0.7093772 0.5738565
vn -0.4106964 -0.7094566 0.5727127
vn -0.3955372 -0.5942299 0.700315
vn -0.3948357 -0.5944039 0.7005628
vn -0.3941343 -0.5945778 0.7008106
vn 0.3111349 0.2521879 -0.9162949
vn 0.2768022 0.1422056 -0.9503461
vn 0.2773952 0.142232 -0.9501694
vn 0.2762093 0.1421791 -0.9505228
vn -0.4122764 -0.8034624 0.4295071
vn 0.2254487 0.8560131 0.4652038
vn 0.129454 -0.2421525 -0.9615632
vn 0.1297019 -0.2422704 -0.9615
vn 0.1299499 -0.2423883 -0.9614369
vn -0.9361393 0.2150051 -0.2578024
vn -0.9122739 0.3168945 -0.2594883
vn -0.9600047 0.1131157 -0.2561166
vn -0.9107424 0.3544041 -0.2120046
vn 0.9487178 -0.2320443 0.2128266
vn 0.9419799 -0.2594202 0.2130141
vn 0.9554557 -0.2046683 0.2126391
vn 0.9405028 -0.296702 0.1655974
vn -0.910742 0.3544093 -0.2119975
vn -0.909507 0.3901995 -0.141543
vn -0.9173853 0.3698413 -0.1470425
vn -0.9016288 0.4105578 -0.1360436
vn 0.9289434 -0.3332714 0.1563233
vn 0.9173831 -0.3698462 0.1470446
vn 0.116972 0.7136101 0.6907084
vn 0.1171322 0.7135251 0.6907691
vn -0.2059996 0.05456641 0.9770296
vn -0.2060292 0.05458065 0.9770225
vn 0.01254362 -0.4895054 -0.8719101
vn 0.01252603 -0.4894954 -0.8719159
vn -0.2910495 -0.9142135 -0.2819641
vn -0.2906033 -0.9143991 -0.2818221
vn -0.2901572 -0.9145847 -0.2816801
vn -0.8407061 0.3658496 -0.3979467
vn -0.8302026 0.3953633 -0.3930031
vn -0.8512095 0.3363359 -0.4028903
vn -0.9368876 0.1956865 -0.2897385
vn -0.9091272 0.2807294 -0.294371
vn -0.8813669 0.3657722 -0.2990035
vn -0.8345978 0.4620048 -0.2999965
vn -0.8346087 0.4619631 -0.3000306
vn -0.9405033 0.2966989 -0.1655998
vn 0.8813638 -0.3657805 0.2990025
vn 0.9091263 -0.2807318 0.2943696
vn 0.9368889 -0.1956832 0.2897367
vn 0.8407081 -0.3658406 0.3979518
vn 0.830209 -0.3953432 0.3930101
vn 0.8512072 -0.336338 0.4028935
vn 0.8346007 -0.4620203 0.299965
vn 0.8346063 -0.4619986 0.2999828
vn -0.8346168 0.4619867 -0.299972
vn -0.838106 0.5131587 -0.1765423
vn -0.8672914 0.4659835 -0.1751145
vn -0.8089206 0.5603339 -0.1779701
vn -0.8674523 0.4845007 -0.1130738
vn -0.9015281 0.4086972 -0.1153309
vn -0.935604 0.3328937 -0.1175881
vn 0.9356039 -0.3328944 0.1175868
vn 0.901528 -0.4086978 0.1153299
vn 0.867452 -0.4845013 0.113073
vn 0.8380972 -0.5131705 0.1765492
vn 0.867285 -0.465994 0.1751182
vn 0.8089094 -0.5603469 0.1779803
vn -0.08572775 -0.6645859 -0.7422777
vn -0.09204499 -0.674712 -0.7323192
vn 0.9107459 -0.3543724 0.2120426
vn 0.9107335 -0.3544318 0.2119966
vn 0.01957969 0.5498978 0.8350025
vn 0.01956505 0.5499047 0.8349983
vn 0.01311527 0.5380849 0.8427887
vn 0.2969654 0.9189354 0.2595557
vn 0.2970278 0.9189087 0.2595792
vn 0.297861 0.9185852 0.2597692
vn 0.2969369 0.9189827 0.2594211
vn 0.2144673 -0.03256921 -0.976188
vn 0.2148689 -0.0326178 -0.976098
vn 0.2152704 -0.03266639 -0.976008
vn -0.9917142 0.1185455 -0.04304484
vn -0.9922604 0.1227156 -0.01897744
vn -0.9911681 0.1143753 -0.06711222
vn 0.9621097 -0.2342844 0.1394838
vn 0.9645034 -0.2446579 0.07389778
vn 0.966897 -0.2550315 0.008311783
vn -0.9873895 0.1579652 -0.01044145
vn -0.9902099 0.1359052 -0.02046999
vn -0.9930303 0.1138451 -0.03049853
vn -0.9122052 0.3986587 -0.08175936
vn -0.9300082 0.3557605 -0.09229958
vn -0.8944023 0.4415569 -0.07121915
vn -0.9657197 0.2335133 0.1133887
vn -0.9639171 0.2384435 0.1181452
vn -0.9621146 0.2433738 0.1229016
vn 0.9686869 -0.1963937 0.1365927
vn 0.9772218 -0.1359732 0.1629378
vn 0.960152 -0.2568142 0.1102476
vn 0.9592472 -0.2700077 0.07021591
vn 0.9524794 -0.302023 0.03956145
vn 0.9660149 -0.2379923 0.1008704
vn -0.9552295 0.1265334 -0.2674433
vn -0.9224588 0.126029 -0.3532091
vn -0.889688 0.1255246 -0.4389748
vn -0.9672582 -0.02679686 -0.2429318
vn -0.9826997 0.006286987 -0.1850993
vn -0.9518168 -0.0598807 -0.3007642
vn 0.9586829 -0.1591457 0.2328821
vn 0.9633144 -0.1776026 0.2012031
vn 0.9540514 -0.1406887 0.2645611
vn 0.9118993 -0.2400418 0.3328958
vn 0.9259611 -0.2402891 0.2873811
vn 0.9400229 -0.2405363 0.2418664
vn 0.3815278 -0.1624776 0.9099656
vn 0.3812487 -0.1625313 0.9100732
vn 0.3663769 -0.0445602 0.9293989
vn 0.3666829 -0.04467285 0.9292728
vn 0.366071 -0.04444755 0.9295249
vn -0.2223535 -0.5084008 -0.831918
vn -0.1632222 -0.6452923 -0.7462952
vn 0.004016857 0.8905951 0.4547794
vn -0.04382329 0.9344511 0.3533844
vn -0.04424913 0.9344344 0.3533756
vn -0.04339746 0.9344677 0.3533931
vn -0.2751066 -0.3564907 -0.8928778
vn 0.3904192 -0.5399196 0.7456941
vn -0.1979406 0.9798755 -0.02575807
vn -0.9618322 -0.1128319 0.2262469
vn -0.9366319 -0.1254876 0.3270681
vn -0.9870325 -0.1001762 0.1254256
vn -0.9185816 -0.1767382 0.3535129
vn -0.9186297 -0.1766602 0.353427
vn 0.9585463 0.1619985 -0.2327037
vn 0.9513862 0.1655342 -0.259736
vn 0.9657064 0.1584627 -0.2056715
vn 0.9333505 0.2168256 -0.286083
vn -0.8933105 -0.24897 0.3735012
vn -0.9031877 -0.2420742 0.3544744
vn -0.8834333 -0.2558658 0.392528
vn 0.9182684 0.2294142 -0.3203079
vn 0.9031879 0.2420744 -0.3544738
vn 0.3573709 -0.7519144 0.5539953
vn 0.1247778 -0.978569 -0.1638087
vn -0.2872167 0.912576 -0.2910525
vn -0.2873335 0.9125603 -0.2909867
vn -0.3945414 0.3622693 -0.8444514
vn -0.3950832 0.362206 -0.8442251
vn -0.9126052 0.01476827 0.4073445
vn -0.9001574 0.007274523 0.435504
vn -0.9250531 0.02226202 0.3791851
vn -0.9735625 -0.0794955 0.2141412
vn -0.9461619 -0.08453783 0.2993289
vn -0.9187613 -0.08958016 0.3845166
vn -0.8718406 -0.09434848 0.4806166
vn -0.9333382 -0.2167834 0.2861551
vn -0.9334286 -0.216625 0.2859803
vn 0.9187806 0.08953412 -0.3844813
vn 0.9461664 0.08449697 -0.2993415
vn 0.9735521 0.07945983 -0.2142017
vn 0.9126052 -0.01476864 -0.4073446
vn 0.9001577 -0.007275069 -0.4355033
vn 0.9250527 -0.02226221 -0.3791858
vn 0.8719 0.09427786 -0.4805228
vn 0.871941 0.09421105 -0.4804614
vn -0.8719288 -0.09418958 0.4804879
vn -0.8333768 -0.2200257 0.5039859
vn -0.8619261 -0.220656 0.4565023
vn -0.8048273 -0.2193954 0.5514695
vn -0.8413649 -0.281823 0.4611734
vn -0.876662 -0.2744815 0.3862841
vn -0.9119592 -0.2671401 0.3113946
vn 0.9334307 0.2166197 -0.2859776
vn 0.9119731 0.267185 -0.3113153
vn 0.8766499 0.2745341 -0.3862608
vn 0.8413267 0.2818832 -0.4612063
vn 0.8333853 0.220085 -0.5039355
vn 0.861981 0.2207155 -0.45637
vn 0.8047897 0.2194544 -0.551501
vn -0.3442055 0.7988381 -0.4933359
vn -0.3471866 0.7898068 -0.5056349
vn -0.9184806 -0.1769705 0.3536591
vn -0.9184324 -0.1770616 0.3537388
vn -0.9186813 -0.1764859 0.3533798
vn 0.9185835 0.1767103 -0.3535221
vn 0.9186141 0.1766225 -0.3534863
vn 0.9186823 0.1764936 -0.3533736
vn 0.3072896 -0.8811839 0.3592881
vn 0.3077683 -0.8811086 0.3590626
vn 0.308247 -0.8810334 0.3588371
vn 0.3044972 -0.8877027 0.3453481
vn 0.3046275 -0.8876829 0.3452843
vn 0.9185 0.1768761 -0.3536561
vn 0.3945476 -0.3403968 0.8535
vn 0.3944619 -0.3404025 0.8535373
vn 0.3946332 -0.3403911 0.8534627
vn 0.3941049 -0.3405083 0.8536599
vn 0.3937452 -0.3405322 0.8538164
vn -0.1158595 0.9757701 0.1856052
vn -0.9473814 -0.307936 0.08391459
vn -0.9398904 -0.3312821 0.08281374
vn -0.9548723 -0.2845898 0.08501543
vn 0.9472432 0.2343363 -0.2186708
vn 0.9278389 0.2976921 -0.214681
vn 0.9084347 0.361048 -0.2106912
vn -0.931528 -0.3448336 0.1155227
vn -0.9381669 -0.3317184 0.0959516
vn -0.9448058 -0.3186033 0.07638049
vn -0.8761021 -0.3067966 0.3688444
vn -0.8977321 -0.2936144 0.3284321
vn -0.854472 -0.3199789 0.4092569
vn -0.8682286 -0.4683386 0.1638237
vn -0.8648536 -0.4731494 0.1676565
vn -0.8614786 -0.4779603 0.1714894
vn 0.9537089 0.230987 -0.1807934
vn 0.9722045 0.1965575 -0.1272147
vn 0.9352133 0.2654164 -0.234372
vn 0.9208533 0.304956 -0.2388155
vn 0.9035232 0.337789 -0.2637127
vn 0.9381834 0.272123 -0.2139182
vn -0.9857939 -0.09110752 0.141102
vn -0.9827871 -0.001362376 0.1602995
vn -0.9797803 0.08838277 0.179497
vn -0.9939671 -0.08453174 -0.01418633
vn -0.9886775 -0.1499688 0.005117362
vn -0.9992566 -0.01909473 -0.03349003
vn 0.9767256 0.1312098 -0.1655808
vn 0.9701757 0.1659711 -0.1766711
vn 0.9832754 0.0964485 -0.1544905
vn 0.9626109 0.04128215 -0.2677239
vn 0.9610629 0.08775462 -0.2576704
vn 0.959515 0.1342271 -0.2476169

usemtl Green_Grass
f 4/4/1 3/3/1 2/2/1 1/1/1
f 3/3/2 6/6/2 5/5/2 2/2/2
f 10/10/3 9/9/3 8/8/3 7/7/3
f 13/13/4 12/12/4 11/11/4 14/14/4
f 18/18/5 17/17/5 16/16/5 15/15/5
f 17/17/6 4/4/6 1/1/6 16/16/6
f 22/22/7 21/21/7 20/20/7 19/19/7
f 7/7/3 8/8/3 23/23/3 24/24/3
f 28/28/8 27/27/8 26/26/8 25/25/8
f 31/31/9 30/30/9 29/29/9 32/32/9
f 28/36/12 34/35/10 33/34/11 27/33/10
f 34/35/13 36/38/13 35/37/13 33/34/13
f 37/40/15 34/39/14 25/42/16 26/41/14
f 38/44/17 36/43/17 34/39/17 37/40/17
f 36/38/13 40/46/13 39/45/13 35/37/13
f 40/46/20 29/48/18 30/47/19 39/45/18
f 41/50/17 40/49/17 36/43/17 38/44/17
f 31/52/22 32/51/21 40/49/17 41/50/21
f 27/27/23 43/54/23 42/53/23 26/26/23
f 43/54/24 12/56/24 13/55/24 42/53/24
f 45/58/25 44/57/25 30/30/25 31/31/25
f 19/60/26 20/59/26 44/57/26 45/58/26
f 43/63/29 46/62/27 11/14/28 12/61/27
f 27/33/32 33/34/31 46/62/30 43/63/31
f 46/62/33 48/65/33 47/64/33 11/14/33
f 33/34/34 35/37/34 48/65/34 46/62/34
f 49/66/37 37/40/36 26/41/35 42/67/36
f 14/68/39 49/66/38 42/67/40 13/69/38
f 51/71/41 50/70/41 49/66/41 14/68/41
f 50/70/17 38/44/17 37/40/17 49/66/17
f 48/65/33 52/73/33 21/72/33 47/64/33
f 35/37/34 39/45/34 52/73/34 48/65/34
f 52/73/44 44/75/42 20/74/43 21/72/42
f 39/45/47 30/47/46 44/75/45 52/73/46
f 22/77/41 53/76/41 50/70/41 51/71/41
f 53/76/17 41/50/17 38/44/17 50/70/17
f 45/78/50 31/52/49 41/50/48 53/76/49
f 19/79/52 45/78/51 53/76/53 22/77/51
f 55/83/54 54/82/54 21/81/54 22/80/54
f 24/85/55 23/84/55 54/82/55 55/83/55
f 47/7/13 21/22/13 54/87/13 56/86/13
f 56/86/13 54/87/13 23/89/13 8/88/13
f 11/14/13 47/7/13 56/86/13 57/90/13
f 57/90/13 56/86/13 8/88/13 9/91/13
f 55/94/56 22/93/56 51/92/56 58/95/56
f 24/96/56 55/94/56 58/95/56 7/97/56
f 11/98/57 57/101/57 59/100/57 14/99/57
f 57/101/58 9/103/58 10/102/58 59/100/58
f 58/95/56 51/92/56 14/68/56 59/104/56
f 7/97/56 58/95/56 59/104/56 10/105/56
f 6/109/59 61/108/59 60/107/59 5/106/59
f 61/108/59 28/28/59 25/25/59 60/107/59
f 15/110/60 63/113/60 62/112/60 18/111/60
f 63/113/60 32/32/60 29/29/60 62/112/60
f 65/115/13 64/114/13 36/38/13 34/35/13
f 3/117/61 4/116/62 64/114/61 65/115/63
f 65/118/56 34/39/56 36/43/56 64/119/56
f 2/120/65 65/118/64 64/119/65 1/121/66
f 66/122/13 40/46/13 36/38/13 64/114/13
f 17/123/68 66/122/67 64/114/68 4/116/69
f 62/124/70 29/48/71 40/46/70 66/122/72
f 18/125/74 62/124/73 66/122/74 17/123/75
f 64/119/56 36/43/56 40/49/56 66/126/56
f 1/121/77 64/119/76 66/126/78 16/127/76
f 66/126/56 40/49/56 32/51/56 63/128/56
f 16/127/80 66/126/79 63/128/81 15/129/79
f 61/133/83 65/132/84 34/131/83 28/130/82
f 6/135/85 3/134/86 65/132/85 61/133/87
f 5/136/88 60/139/90 65/138/88 2/137/89
f 60/139/92 25/141/93 34/140/92 65/138/91
f 102/265/112 101/264/112 100/263/112 99/262/112
f 101/269/113 104/268/113 103/267/113 100/266/113
f 108/272/115 107/271/114 106/270/100 105/7/114
f 111/275/116 110/274/116 109/273/116 112/276/116
f 116/280/117 115/279/117 114/278/117 113/277/117
f 115/284/118 102/283/118 99/282/119 114/281/118
f 120/288/120 119/287/120 118/286/120 117/285/120
f 105/7/100 106/290/100 121/289/100 122/24/100
f 126/294/121 125/293/121 124/292/121 123/291/121
f 129/297/122 128/296/122 127/295/122 130/298/122
f 126/302/125 132/301/123 131/300/124 125/299/123
f 132/306/126 134/305/126 133/304/126 131/303/126
f 135/308/128 132/307/127 123/310/129 124/309/127
f 136/314/130 134/313/130 132/312/130 135/311/130
f 134/318/126 138/317/126 137/316/126 133/315/126
f 138/322/133 127/321/131 128/320/132 137/319/131
f 139/325/130 138/324/130 134/313/130 136/323/130
f 129/327/135 130/326/134 138/329/130 139/328/134
f 125/333/137 141/332/136 140/331/136 124/330/136
f 141/337/138 110/336/138 111/335/139 140/334/138
f 143/341/141 142/340/140 128/339/140 129/338/140
f 117/344/142 118/343/142 142/342/142 143/345/142
f 141/349/145 144/348/143 109/347/144 110/346/143
f 125/352/148 131/351/147 144/350/146 141/353/147
f 144/357/151 146/356/149 145/355/150 109/354/149
f 131/359/152 133/315/152 146/358/152 144/360/152
f 147/363/155 135/362/154 124/361/153 140/364/154
f 112/366/157 147/365/156 140/368/158 111/367/156
f 149/372/159 148/371/159 147/370/159 112/369/159
f 148/371/130 136/314/130 135/311/130 147/373/130
f 146/377/150 150/376/150 119/375/150 145/374/150
f 133/380/152 137/379/152 150/378/152 146/381/152
f 150/385/162 142/384/160 118/383/161 119/382/160
f 137/388/165 128/387/164 142/386/163 150/389/164
f 120/393/159 151/392/159 148/391/159 149/390/159
f 151/395/130 139/394/130 136/314/130 148/371/130
f 143/398/168 129/397/167 139/396/166 151/399/167
f 117/401/170 143/400/169 151/403/171 120/402/169
f 153/407/172 152/406/172 119/405/172 120/404/172
f 122/410/173 121/409/173 152/408/173 153/411/173
f 145/413/126 119/412/126 152/415/126 154/414/126
f 154/416/126 152/419/126 121/418/174 106/417/126
f 109/421/126 145/420/126 154/423/126 155/422/126
f 155/422/126 154/426/126 106/425/126 107/424/126
f 153/429/175 120/428/175 149/427/175 156/430/175
f 122/432/176 153/431/175 156/434/175 105/433/175
f 109/435/177 155/438/177 157/437/177 112/436/177
f 155/442/180 107/441/178 108/440/179 157/439/178
f 156/445/175 149/444/175 112/443/175 157/446/175
f 105/447/176 156/445/175 157/446/175 108/448/175
f 104/452/182 159/451/181 158/450/181 103/449/181
f 159/456/181 126/455/181 123/454/183 158/453/181
f 113/457/184 161/460/184 160/459/184 116/458/184
f 161/464/184 130/463/184 127/462/184 160/461/184
f 163/468/126 162/467/126 134/466/126 132/465/126
f 101/471/185 102/470/186 162/469/185 163/472/187
f 163/474/175 132/473/175 134/476/175 162/475/175
f 100/478/189 163/477/188 162/480/189 99/479/190
f 164/482/126 138/322/126 134/481/126 162/483/126
f 115/485/192 164/484/191 162/487/192 102/486/193
f 160/490/194 127/489/195 138/488/194 164/491/196
f 116/493/198 160/492/197 164/495/198 115/494/199
f 162/497/175 134/496/175 138/499/175 164/498/175
f 99/501/201 162/500/200 164/503/202 114/502/200
f 164/505/175 138/504/175 130/507/175 161/506/175
f 114/509/204 164/508/203 161/511/205 113/510/203
f 159/515/207 163/514/208 132/513/207 126/512/206
f 104/518/209 101/517/210 163/516/209 159/519/211
f 103/520/212 158/523/214 163/522/212 100/521/213
f 158/527/216 123/526/217 132/525/216 163/524/215
f 168/531/218 167/530/218 166/529/218 165/528/218
f 167/535/219 170/534/219 169/533/219 166/532/219
f 174/10/220 173/271/220 172/536/220 171/64/220
f 177/539/221 176/538/221 175/537/221 178/540/221
f 182/544/222 181/543/222 180/542/222 179/541/222
f 181/543/223 168/531/223 165/545/223 180/542/223
f 186/549/224 185/548/224 184/547/224 183/546/224
f 171/64/220 172/8/220 187/550/220 188/551/220
f 192/555/225 191/554/225 190/553/225 189/552/225
f 195/558/226 194/557/226 193/556/226 196/559/226
f 192/563/229 198/562/227 197/561/228 191/560/227
f 198/567/99 200/566/99 199/565/99 197/564/99
f 201/569/231 198/568/230 189/571/232 190/570/230
f 202/575/233 200/574/233 198/573/233 201/572/233
f 200/566/99 204/577/99 203/576/99 199/565/99
f 204/581/236 193/580/234 194/579/235 203/578/234
f 205/583/233 204/582/233 200/574/233 202/575/233
f 195/585/238 196/584/237 204/587/233 205/586/237
f 191/591/239 207/590/239 206/589/239 190/588/239
f 207/592/240 176/594/240 177/593/240 206/592/240
f 209/598/241 208/597/241 194/596/241 195/595/241
f 183/601/242 184/600/242 208/599/242 209/602/242
f 207/606/245 210/605/243 175/604/244 176/603/243
f 191/609/248 197/608/247 210/607/246 207/610/247
f 210/607/249 212/613/249 211/612/249 175/611/249
f 197/615/250 199/565/250 212/614/250 210/616/250
f 213/619/253 201/618/252 190/617/251 206/620/252
f 178/622/255 213/621/254 206/624/256 177/623/254
f 215/628/257 214/627/257 213/626/257 178/625/257
f 214/630/233 202/575/233 201/572/233 213/629/233
f 212/634/249 216/633/249 185/632/258 211/631/249
f 199/565/250 203/576/250 216/635/250 212/636/250
f 216/640/261 208/639/259 184/638/260 185/637/259
f 203/643/264 194/642/263 208/641/262 216/644/263
f 186/648/265 217/647/265 214/646/257 215/645/265
f 217/649/233 205/583/233 202/575/233 214/630/233
f 209/652/268 195/651/267 205/650/266 217/653/267
f 183/655/270 209/654/269 217/657/271 186/656/269
f 219/661/272 218/660/272 185/659/272 186/658/272
f 188/664/273 187/663/273 218/662/273 219/665/273
f 211/667/99 185/666/99 218/669/99 220/668/99
f 220/668/99 218/672/99 187/671/99 172/670/99
f 175/674/99 211/673/99 220/676/99 221/675/99
f 221/677/99 220/668/99 172/670/99 173/678/99
f 219/681/96 186/680/96 215/679/96 222/682/96
f 188/684/96 219/683/96 222/682/96 171/685/96
f 175/686/274 221/689/274 223/688/274 178/687/274
f 221/693/275 173/692/275 174/691/275 223/690/275
f 222/682/96 215/679/96 178/694/96 223/695/96
f 171/685/96 222/682/96 223/695/96 174/696/96
f 170/700/276 225/699/276 224/698/276 169/697/276
f 225/704/276 192/703/276 189/702/276 224/701/276
f 179/705/277 227/708/277 226/707/277 182/706/277
f 227/712/278 196/711/278 193/710/278 226/709/278
f 229/716/99 228/715/99 200/714/99 198/713/99
f 167/719/279 168/718/280 228/717/279 229/720/281
f 229/722/96 198/721/96 200/724/96 228/723/96
f 166/726/283 229/725/282 228/728/283 165/727/284
f 230/731/99 204/730/99 200/729/99 228/715/99
f 181/733/286 230/732/285 228/735/286 168/734/287
f 226/738/288 193/737/289 204/736/288 230/739/290
f 182/741/292 226/740/291 230/743/292 181/742/293
f 228/744/96 200/574/96 204/582/96 230/745/96
f 165/747/295 228/746/294 230/749/296 180/748/294
f 230/751/96 204/750/96 196/753/96 227/752/96
f 180/754/298 230/749/297 227/756/299 179/755/297
f 225/760/301 229/759/302 198/758/301 192/757/300
f 170/763/303 167/762/304 229/761/303 225/764/305
f 169/765/306 224/768/308 229/767/306 166/766/307
f 224/772/310 189/771/311 198/770/310 229/769/309
f 234/776/314 233/775/312 232/774/313 231/773/312
f 233/780/316 236/779/315 235/778/315 232/777/315
f 240/272/319 239/271/317 238/270/318 237/64/317
f 243/783/322 242/782/321 241/781/320 244/784/321
f 248/788/323 247/787/323 246/786/323 245/785/323
f 247/792/326 234/791/324 231/790/325 246/789/324
f 252/796/327 251/795/327 250/794/327 249/793/327
f 237/7/318 238/8/318 253/289/318 254/24/318
f 258/800/328 257/799/328 256/798/328 255/797/328
f 261/803/331 260/802/330 259/801/329 262/804/330
f 258/808/334 264/807/332 263/806/333 257/805/332
f 264/812/335 266/811/335 265/810/335 263/809/335
f 267/814/337 264/813/336 255/816/338 256/815/336
f 268/820/339 266/819/339 264/818/339 267/817/339
f 266/824/340 270/823/340 269/822/340 265/821/340
f 270/828/343 259/827/341 260/826/342 269/825/341
f 271/832/339 270/831/339 266/830/339 268/829/339
f 261/834/345 262/833/344 270/836/339 271/835/344
f 257/840/347 273/839/346 272/838/346 256/837/346
f 273/844/349 242/843/348 243/842/348 272/841/348
f 275/848/351 274/847/350 260/846/350 261/845/350
f 249/851/354 250/850/353 274/849/352 275/852/353
f 273/856/357 276/855/355 241/854/356 242/853/355
f 257/859/360 263/858/359 276/857/358 273/860/359
f 276/864/361 278/863/361 277/862/362 241/861/361
f 263/867/363 265/866/363 278/865/363 276/868/363
f 279/871/366 267/870/365 256/869/364 272/872/365
f 244/874/368 279/873/367 272/876/369 243/875/367
f 281/880/371 280/879/370 279/878/370 244/877/370
f 280/884/339 268/883/339 267/882/339 279/881/339
f 278/888/361 282/887/361 251/886/372 277/885/361
f 265/891/363 269/890/363 282/889/363 278/892/363
f 282/896/375 274/895/373 250/894/374 251/893/373
f 269/899/378 260/898/377 274/897/376 282/900/377
f 252/904/371 283/903/371 280/902/370 281/901/371
f 283/908/339 271/907/339 268/906/339 280/905/339
f 275/911/381 261/910/380 271/909/379 283/912/380
f 249/914/383 275/913/382 283/916/384 252/915/382
f 285/920/385 284/919/385 251/918/385 252/917/385
f 254/923/386 253/922/386 284/921/386 285/924/386
f 277/926/335 251/925/335 284/928/340 286/927/335
f 286/929/340 284/932/335 253/931/335 238/930/335
f 241/934/335 277/933/335 286/936/340 287/935/335
f 287/937/335 286/940/335 238/939/335 239/938/335
f 285/943/388 252/942/387 281/941/387 288/944/387
f 254/946/387 285/945/387 288/948/388 237/947/387
f 241/949/389 287/952/390 289/951/390 244/950/390
f 287/956/391 239/955/391 240/954/391 289/953/391
f 288/959/388 281/958/387 244/957/387 289/960/387
f 237/962/387 288/961/387 289/964/387 240/963/387
f 236/968/393 291/967/392 290/966/392 235/965/392
f 291/972/395 258/971/393 255/970/394 290/969/393
f 245/973/396 293/976/397 292/975/398 248/974/397
f 293/980/398 262/979/397 259/978/396 292/977/397
f 295/984/335 294/983/335 266/982/335 264/981/340
f 233/987/399 234/986/400 294/985/399 295/988/401
f 295/990/387 264/989/388 266/992/387 294/991/387
f 232/994/403 295/993/402 294/996/403 231/995/404
f 296/999/335 270/998/335 266/997/335 294/1000/335
f 247/1002/406 296/1001/405 294/1004/406 234/1003/407
f 292/1007/408 259/1006/409 270/1005/408 296/1008/410
f 248/1010/412 292/1009/411 296/1012/412 247/1011/413
f 294/1014/387 266/1013/387 270/1016/387 296/1015/387
f 231/1018/415 294/1017/414 296/1020/416 246/1019/414
f 296/1022/387 270/1021/387 262/1024/387 293/1023/387
f 246/1026/418 296/1025/417 293/1028/419 245/1027/417
f 291/1032/421 295/1031/422 264/1030/421 258/1029/420
f 236/1035/423 233/1034/424 295/1033/423 291/1036/425
f 235/1037/426 290/1040/428 295/1039/426 232/1038/427
f 290/1044/430 255/1043/431 264/1042/430 295/1041/429
f 300/1048/432 299/1047/432 298/1046/433 297/1045/432
f 299/1052/436 302/1051/434 301/1050/435 298/1049/434
f 306/10/437 305/1053/437 304/270/437 303/64/437
f 309/1056/438 308/1055/438 307/1054/438 310/1057/438
f 314/1061/439 313/1060/439 312/1059/439 311/1058/439
f 313/1065/442 300/1064/440 297/1063/441 312/1062/440
f 318/1069/443 317/1068/443 316/1067/443 315/1066/443
f 303/7/437 304/8/437 319/1070/437 320/24/437
f 324/1074/444 323/1073/444 322/1072/444 321/1071/444
f 327/1077/445 326/1076/445 325/1075/445 328/1078/445
f 324/1082/448 330/1081/446 329/1080/447 323/1079/446
f 330/1086/449 332/1085/449 331/1084/450 329/1083/449
f 333/1088/452 330/1087/451 321/1090/453 322/1089/451
f 334/1094/454 332/1093/454 330/1092/454 333/1091/454
f 332/1098/450 336/1097/449 335/1096/449 331/1095/449
f 336/1102/457 325/1101/455 326/1100/456 335/1099/455
f 337/1106/454 336/1105/454 332/1104/454 334/1103/454
f 327/1108/459 328/1107/458 336/1110/454 337/1109/458
f 323/1114/460 339/1113/460 338/1112/460 322/1111/460
f 339/1118/461 308/1117/461 309/1116/461 338/1115/461
f 341/1122/463 340/1121/462 326/1120/462 327/1119/462
f 315/1125/465 316/1124/464 340/1123/464 341/1126/464
f 339/1130/468 342/1129/466 307/1128/467 308/1127/466
f 323/1133/471 329/1132/470 342/1131/469 339/1134/470
f 342/1138/472 344/1137/472 343/1136/472 307/1135/472
f 329/1141/474 331/1140/473 344/1139/473 342/1142/473
f 345/1145/477 333/1144/476 322/1143/475 338/1146/476
f 310/1148/479 345/1147/478 338/1150/480 309/1149/478
f 347/1154/482 346/1153/481 345/1152/481 310/1151/481
f 346/1158/454 334/1157/454 333/1156/454 345/1155/454
f 344/1162/472 348/1161/472 317/1160/483 343/1159/472
f 331/1165/473 335/1164/473 348/1163/473 344/1166/473
f 348/1170/486 340/1169/484 316/1168/485 317/1167/484
f 335/1173/489 326/1172/488 340/1171/487 348/1174/488
f 318/1178/482 349/1177/482 346/1176/482 347/1175/482
f 349/1181/490 337/1180/454 334/1179/454 346/1153/454
f 341/1184/493 327/1183/492 337/1182/491 349/1185/492
f 315/1187/495 341/1186/494 349/1189/496 318/1188/494
f 351/1193/497 350/1192/497 317/1191/497 318/1190/497
f 320/1196/498 319/1195/498 350/1194/498 351/1197/498
f 343/1199/449 317/1198/449 350/1201/449 352/1200/449
f 352/1202/449 350/1205/499 319/1204/500 304/1203/499
f 307/1207/499 343/1206/449 352/1209/449 353/1208/449
f 353/1210/449 352/1213/450 304/1212/501 305/1211/450
f 351/1216/502 318/1215/502 347/1214/502 354/1217/502
f 320/1219/504 351/1218/503 354/1221/502 303/1220/503
f 307/1222/505 353/1225/506 355/1224/507 310/1223/506
f 353/1229/508 305/1228/508 306/1227/509 355/1226/508
f 354/1232/502 347/1231/502 310/1230/503 355/1233/502
f 303/1235/510 354/1234/510 355/1237/502 306/1236/510
f 302/1241/513 357/1240/511 356/1239/512 301/1238/511
f 357/1245/512 324/1244/514 321/1243/515 356/1242/514
f 311/1246/516 359/1249/516 358/1248/516 314/1247/516
f 359/1253/516 328/1252/516 325/1251/516 358/1250/516
f 361/1257/449 360/1256/449 332/1255/449 330/1254/449
f 299/1260/517 300/1259/518 360/1258/517 361/1261/519
f 361/1263/502 330/1262/502 332/1265/502 360/1264/502
f 298/1267/521 361/1266/520 360/1269/521 297/1268/522
f 362/1272/449 336/1271/449 332/1270/449 360/1273/450
f 313/1275/524 362/1274/523 360/1277/524 300/1276/525
f 358/1280/526 325/1279/527 336/1278/526 362/1281/528
f 314/1283/530 358/1282/529 362/1285/530 313/1284/531
f 360/1287/503 332/1286/502 336/1289/502 362/1288/502
f 297/1291/533 360/1290/532 362/1293/534 312/1292/532
f 362/1295/502 336/1294/502 328/1297/502 359/1296/502
f 312/1299/536 362/1298/535 359/1301/537 311/1300/535
f 357/1305/539 361/1304/540 330/1303/539 324/1302/538
f 302/1308/541 299/1307/542 361/1306/541 357/1309/543
f 301/1310/544 356/1313/546 361/1312/544 298/1311/545
f 356/1317/548 321/1316/549 330/1315/548 361/1314/547

usemtl agac_govde
f 69/144/94 70/145/94 68/143/94 67/142/94
f 73/148/95 74/149/95 72/147/95 71/146/95
f 71/152/96 72/153/96 76/151/96 75/150/96
f 73/156/97 71/157/97 75/155/97 77/154/97
f 72/160/98 74/161/98 78/159/98 76/158/98
f 74/164/99 73/165/99 77/163/99 78/162/99
f 67/168/96 68/169/96 80/167/96 79/166/96
f 69/172/100 67/173/100 79/171/100 81/170/100
f 68/176/101 70/177/101 82/175/101 80/174/101
f 70/180/99 69/181/99 81/179/99 82/178/99
f 82/185/102 84/184/102 83/183/102 80/182/102
f 85/186/103 86/189/103 81/188/103 79/187/103
f 82/191/99 81/190/99 86/193/99 84/192/99
f 83/194/96 85/197/96 79/196/96 80/195/96
f 84/201/104 88/200/104 87/199/104 83/198/104
f 85/202/105 90/205/105 89/204/105 86/203/105
f 86/207/99 89/206/99 88/209/99 84/208/99
f 83/210/96 87/213/96 90/212/96 85/211/96
f 88/217/106 92/216/106 91/215/106 87/214/106
f 92/221/107 77/220/107 75/219/107 91/218/107
f 96/225/108 95/224/108 94/223/108 93/222/108
f 76/228/109 78/227/109 97/226/109 98/229/109
f 89/233/99 97/232/99 92/231/99 88/230/99
f 97/237/99 78/236/99 77/235/99 92/234/99
f 87/241/96 91/240/96 98/239/96 90/238/96
f 91/245/96 75/244/96 76/243/96 98/242/96
f 93/248/110 94/249/110 89/247/110 90/246/110
f 94/252/99 95/253/99 97/251/99 89/250/99
f 95/256/111 96/257/111 98/255/111 97/254/111
f 96/260/96 93/261/96 90/259/96 98/258/96

