# ProBuilder 5.2.4
# https://unity3d.com/unity/features/worldbuilding/probuilder
# 2.06.2026 18:00:09

mtllib ./LogRootLong.mtl
o LogRootLong

g LogRoot
v -0.02089885 -1.218526 0.5589203
v 0.6993203 -0.99831 0.5754861
v 0.4969403 -0.6809765 -0.09193911
v -0.002619071 -0.8337244 -0.103429
v 1.152425 -0.3967735 0.593852
v 0.8112197 -0.2637428 -0.07920054
v 1.165339 0.3563167 0.606996
v 0.8201786 0.258624 -0.07008649
v 0.733135 0.9733065 0.6098989
v 0.5203944 0.6865762 -0.06806746
v 0.02089783 1.218526 0.6014578
v 0.02637214 0.8566671 -0.07392185
v -0.6993223 0.9983103 0.584892
v -0.4731852 0.7039192 -0.08541171
v -1.152425 0.3967735 0.5665342
v -0.7874666 0.2866855 -0.09815028
v -1.165339 -0.3563167 0.5533821
v -0.7964246 -0.2356812 -0.1072724
v 0.662186 0.2157652 -0.5392731
v 0.6550697 -0.1991499 -0.5465222
v -0.7331361 -0.9733065 0.5504792
v -0.4966393 -0.6636335 -0.1092834
v 0.590794 -0.177658 -0.5196828
v 0.5971947 0.1955661 -0.5131635
v 0.3829935 0.5013499 -0.5117283
v 0.3662351 -0.4757832 -0.5287806
v 0.03000782 0.6228883 -0.5159124
v 0.009293444 -0.5849298 -0.5369946
v -0.3269348 0.5137419 -0.5241182
v -0.3436932 -0.4633914 -0.5411786
v -0.5514938 0.2156166 -0.5332242
v -0.5578945 -0.1576076 -0.5397353
v 0.405433 -0.5305701 -0.5566336
v 0.008626513 -0.6518921 -0.5657639
v -0.383781 -0.5167943 -0.5704101
v -0.6219046 -0.1768602 -0.5688127
v -0.6147894 0.2380549 -0.5615717
v -0.3651516 0.5694752 -0.5514522
v 0.03165386 0.690797 -0.5423301
v 0.4240624 0.5556993 -0.5376757
v 0.1473359 -0.9002206 -0.5971765
v 0.4414462 -0.8102868 -0.5904058
v 0.4631914 -1.060213 -0.605723
v 0.5051056 -1.129101 -0.3928728
v 0.5092704 -0.9217711 -0.2459778
v 0.1390013 -1.034985 -0.2544999
v 0.2814396 -1.11578 -0.6098989
v 0.2762887 -1.199071 -0.3981352
v 0.02083206 -0.3862484 -3.124785
v 0.02016449 -0.4532116 -3.153554
v 0.3042679 -0.3663376 -3.147013
v 0.2650719 -0.3115509 -3.11916
v 0.4829865 -0.1290634 -3.139773
v 0.4187126 -0.1075714 -3.112933
v 0.4880829 0.1679985 -3.134583
v 0.4230919 0.1477997 -3.108473
v 0.3176117 0.4113762 -3.133444
v 0.2765427 0.3570263 -3.107497
v 0.03666687 0.5080807 -3.136769
v 0.03501892 0.4401714 -3.110352
v -0.2474289 0.4212162 -3.143299
v -0.2092094 0.3654835 -3.115965
v -0.4261589 0.1839535 -3.15055
v -0.3628654 0.1615154 -3.122202
v -0.4312553 -0.1131065 -3.155734
v -0.3672447 -0.09385375 -3.126657
v -0.2607765 -0.3565014 -3.156886
v -0.2206917 -0.3030975 -3.127654

vt 0.2634951 0.7471927
vt 0.263496 0.6105998
vt 0.1265145 0.6315234
vt 0.126514 0.7262672
vt 0.231149 0.5000934
vt 0.1040781 0.5548747
vt 0.6745579 0.853933
vt 0.7036029 0.7242994
vt 0.5672045 0.7102926
vt 0.5470585 0.8002106
vt 0.7036024 0.5962254
vt 0.5672051 0.6214589
vt 0.6745576 0.5186312
vt 0.5470592 0.5676377
vt 0.5951068 0.01935651
vt 0.4616628 0.04851708
vt 0.5004167 0.1278422
vt 0.5929759 0.1076155
vt 0.7679078 0.01935649
vt 0.7382953 0.09557288
vt 0.8748122 0.1205356
vt 0.8953513 0.06767129
vt 0.7382968 0.2230006
vt 0.8748133 0.2089235
vt 0.4776664 0.7002611
vt 0.4616628 0.7716826
vt 0.7679084 0.3529671
vt 0.895352 0.2990702
vt 0.2311461 0.8576985
vt 0.1040761 0.8029159
vt 0.3458701 0.06156606
vt 0.2211531 0.01935647
vt 0.09643601 0.06156576
vt 0.01935652 0.172072
vt 0.4229497 0.1720721
vt 0.01935652 0.3086649
vt 0.4229498 0.3086651
vt 0.09643613 0.4191709
vt 0.3458706 0.419171
vt 0.2211531 0.4613803
vt 0.6805028 0.3149627
vt 0.6874329 0.2486899
vt 0.6534897 0.1913473
vt 0.6353457 0.3648546
vt 0.591638 0.1648384
vt 0.5692106 0.3793081
vt 0.5255027 0.1792915
vt 0.5073588 0.3527991
vt 0.4803457 0.2291837
vt 0.4734155 0.2954562
vt 0.01935652 0.5803831
vt 0.03717963 0.6412666
vt 0.0371781 0.7165224
vt 0.01935653 0.777406
vt 0.9806436 0.2702652
vt 0.9643294 0.1986594
vt 0.9643294 0.128453
vt 0.9806436 0.0864611
vt 0.5195673 0.169835
vt 0.5930882 0.1537703
vt 0.4616628 0.5869485
vt 0.477666 0.629698
vt 0.5681565 0.3921887
vt 0.5894682 0.439323
vt 0.6439617 0.4274137
vt 0.6416776 0.3761236
vt 0.7526956 0.5689685
vt 0.7636634 0.6128513
vt 0.8041332 0.6128504
vt 0.8181834 0.5689692
vt 0.3022091 0.6335502
vt 0.315151 0.6842847
vt 0.3806359 0.6842857
vt 0.3905611 0.6335502
vt 0.7423159 0.5186312
vt 0.8306703 0.5186312
vt 0.3926843 0.5000933
vt 0.3440609 0.5113337
vt 0.3440609 0.5815569
vt 0.3926843 0.5948371
vt 0.7792142 0.3916802
vt 0.7382954 0.396143
vt 0.7382953 0.4306127
vt 0.7792142 0.4350767
vt 0.3022101 0.5236312
vt 0.3022091 0.5670277
vt 0.3297307 0.7286321
vt 0.3701992 0.7286313
vt 0.610388 0.4799182
vt 0.6440633 0.4725606
vt 0.6918776 0.3206598
vt 0.699582 0.2469839
vt 0.6618479 0.1832371
vt 0.469367 0.2252992
vt 0.4616628 0.2989747
vt 0.4993969 0.3627215
vt 0.4975404 -0.1685295
vt 0.4915142 0.2047577
vt 3.091477 -0.1047649
vt 3.087354 0.1506474
vt -0.5101447 0.2386008
vt -0.5333039 -0.1757954
vt -3.103701 0.3163197
vt -3.120289 0.01962078
vt -0.1951556 -0.5235477
vt 0.2198564 -0.5188888
vt -0.1308717 -3.117107
vt 0.166249 -3.113767
vt 0.507827 -0.1563383
vt 0.4869898 0.2164268
vt 3.094813 0.03906761
vt 3.080547 0.2941327
vt 0.4824393 -0.1865225
vt 0.4931994 0.1866699
vt 3.07796 -0.2542461
vt 3.085316 0.001092679
vt -0.515162 0.2259946
vt -0.5218639 -0.1889906
vt -3.111002 0.1718841
vt -3.115801 -0.1252261
vt -0.1632949 -0.4831456
vt 0.209962 -0.4749208
vt -0.09380519 -3.080968
vt 0.1615879 -3.075341
vt -0.5170489 0.2068406
vt -0.505082 -0.20803
vt -3.109165 0.02125056
vt -3.100603 -0.2757634
vt -0.1748556 -0.4754069
vt 0.1984679 -0.4712138
vt -0.1105061 -3.075481
vt 0.1449284 -3.072619
vt -0.2312765 -0.4969071
vt 0.1836611 -0.5060502
vt -0.18291 -3.097327
vt 0.1141685 -3.103872
vt -0.479566 0.1689705
vt -0.4639199 -0.2040485
vt -3.075559 -0.007086752
vt -3.064849 -0.2623096
vt -0.2195796 -0.4928479
vt 0.1954334 -0.4975124
vt -0.1660344 -3.094253
vt 0.1310879 -3.097586
vt -0.4722251 0.2055879
vt -0.4791565 -0.1676836
vt -3.073368 0.1578155
vt -3.07811 -0.09758807
vt 0.4847611 -0.2257871
vt 0.5021541 0.1888912
vt 3.08569 -0.2840567
vt 3.098146 0.01282587
vt -0.4667458 0.2370741
vt -0.4951936 -0.1351876
vt -3.065171 0.3245896
vt -3.084637 0.06988793
vt 0.5016524 -0.1881207
vt 0.4939452 0.2268471
vt 3.100606 -0.1180253
vt 3.095088 0.1790744
vt -0.2102083 -0.4869788
vt 0.1630476 -0.4952141
vt -0.1617873 -3.084079
vt 0.09361954 -3.089717
vt 0.5195594 -0.1542387
vt 0.4879375 0.2595972
vt 3.109003 0.05083423
vt 3.086363 0.3471098
vt -0.1987585 -0.4948896
vt 0.1745659 -0.4990851
vt -0.1451455 -3.089768
vt 0.1102909 -3.092644
vt -0.1833464 -0.5193239
vt 0.2315921 -0.51017
vt -0.1139256 -3.113827
vt 0.183163 -3.10727

vn 0.2667832 -0.8365098 -0.478621
vn 0.7137829 -0.5234469 -0.4653143
vn 0.8913211 -0.007375536 -0.4533127
vn 0.7315851 0.5145873 -0.4471949
vn 0.2955878 0.8430612 -0.4493058
vn -0.2501371 0.8525864 -0.4588332
vn -0.6971346 0.5395254 -0.4721395
vn -0.8746749 0.0234547 -0.4841423
vn 0.947953 -0.0107022 -0.3182304
vn -0.7149358 -0.4985126 -0.4902571
vn -0.2789431 -0.8269832 -0.4881491
vn -0.0177567 -0.01714404 0.9996954
vn 0.01776934 0.01714942 -0.9996951
vn 0.7585485 -0.5612653 -0.331037
vn -0.3005163 -0.8850876 -0.3554008
vn -0.7656523 -0.5346628 -0.3576483
vn -0.9360671 0.02218208 -0.3511216
vn -0.7466613 0.5727471 -0.3383159
vn -0.2697859 0.9067311 -0.3241208
vn 0.3124002 0.8965689 -0.3139592
vn 0.7775412 0.5461383 -0.3117091
vn -0.01328198 0.1181754 -0.9929039
vn 0.9820833 0.09540887 -0.1625104
vn -0.8657893 -0.4581592 -0.2012437
vn 0.9787618 0.1436689 -0.1462348
vn 0.1422532 -0.5282292 0.8371009
vn 0.2816679 -0.8952521 -0.3452346
vn 0.1567187 -0.5730525 0.8043942
vn -0.8341889 -0.5060013 -0.2192978
vn -0.834197 -0.505985 -0.2193047
vn 0.004148643 0.06150651 -0.998098
vn 0.004135669 0.06148098 -0.9980997
vn -0.09931987 0.3935946 -0.9139031
vn -0.2993182 0.2535247 -0.9198553
vn -0.3787566 0.0226579 -0.9252189
vn -0.3072515 -0.2108735 -0.9279703
vn -0.1122176 -0.3578467 -0.9270129
vn -0.1122456 -0.3578876 -0.9269937
vn 0.131939 -0.3621212 -0.9227461
vn 0.3319213 -0.2220148 -0.9168084
vn 0.4113573 0.00884694 -0.9114313
vn 0.3398553 0.2423529 -0.9087152
vn 0.1448183 0.3893059 -0.9096531
vn 0.9971601 -0.01837521 0.07303542
vn -0.8169399 -0.5719166 -0.07430097
vn -0.3238562 -0.9432192 -0.07385617
vn 0.816941 0.5719159 0.074294
vn 0.7957305 -0.6015284 0.07054549
vn -0.99716 0.01837458 -0.07303609
vn 0.2903181 -0.9545262 0.06778731
vn -0.7957307 0.6015275 -0.07055102
vn -0.3255495 -0.9432327 0.06579965
vn -0.3254946 -0.9432521 0.06579275
vn -0.2902876 0.9545357 -0.06778517
vn -0.8171448 -0.5727158 0.06535335
vn 0.3255186 0.9432439 -0.06579309
vn 0.3254898 0.9432535 -0.06579731
vn -0.9976501 0.01594555 0.06663253
vn 0.8171443 0.572716 -0.06535795
vn -0.797859 0.5988674 0.06912919
vn 0.9976501 -0.0159468 -0.06663319
vn -0.293173 0.9533525 0.07189281
vn 0.7978603 -0.5988659 -0.06912843
vn 0.3238849 0.943209 0.07386041
vn 0.2931409 -0.9533627 -0.07188849

usemtl agac_govde
f 5/33/12 7/32/12 9/31/12
f 9/31/12 2/34/12 5/33/12
f 9/31/12 11/35/12 2/34/12
f 15/39/12 17/40/12 21/38/12
f 25/43/13 24/42/13 23/41/13
f 23/41/13 26/44/13 25/43/13
f 26/44/13 27/45/13 25/43/13
f 30/48/13 32/50/13 31/49/13
f 3/3/1 2/2/1 1/1/1
f 1/1/1 4/4/1 3/3/1
f 6/6/2 5/5/2 2/2/2
f 2/2/2 3/3/2 6/6/2
f 8/9/3 7/8/3 5/7/3
f 5/7/3 6/10/3 8/9/3
f 10/12/4 9/11/4 7/8/4
f 7/8/4 8/9/4 10/12/4
f 12/14/5 11/13/5 9/11/5
f 9/11/5 10/12/5 12/14/5
f 14/17/6 13/16/6 11/15/6
f 11/15/6 12/18/6 14/17/6
f 16/21/7 15/20/7 13/19/7
f 13/19/7 14/22/7 16/21/7
f 18/24/8 17/23/8 15/20/8
f 15/20/8 16/21/8 18/24/8
f 20/26/9 19/25/9 8/9/9
f 8/9/9 6/10/9 20/26/9
f 22/28/10 21/27/10 17/23/10
f 17/23/10 18/24/10 22/28/10
f 4/4/11 1/1/11 21/29/11
f 21/29/11 22/30/11 4/4/11
f 13/37/12 1/36/12 2/34/12
f 2/34/12 11/35/12 13/37/12
f 15/39/12 21/38/12 1/36/12
f 1/36/12 13/37/12 15/39/12
f 27/45/13 26/44/13 28/46/13
f 28/46/13 29/47/13 27/45/13
f 29/47/13 28/46/13 30/48/13
f 30/48/13 31/49/13 29/47/13
f 33/52/14 20/51/14 6/6/14
f 6/6/14 3/3/14 33/52/14
f 35/54/15 34/53/15 4/4/15
f 4/4/15 22/30/15 35/54/15
f 36/56/16 35/55/16 22/28/16
f 22/28/16 18/24/16 36/56/16
f 37/57/17 36/56/17 18/24/17
f 18/24/17 16/21/17 37/57/17
f 38/58/18 37/57/18 16/21/18
f 16/21/18 14/22/18 38/58/18
f 39/60/19 38/59/19 14/17/19
f 14/17/19 12/18/19 39/60/19
f 40/62/20 39/61/20 12/14/20
f 12/14/20 10/12/20 40/62/20
f 19/25/21 40/62/21 10/12/21
f 10/12/21 8/9/21 19/25/21
f 42/65/22 41/64/22 34/63/22
f 34/63/22 33/66/22 42/65/22
f 44/69/23 43/68/23 42/67/23
f 42/67/23 45/70/23 44/69/23
f 41/73/24 46/72/24 4/71/24
f 4/71/24 34/74/24 41/73/24
f 45/70/25 42/67/25 33/75/25
f 33/75/25 3/76/25 45/70/25
f 46/79/26 45/78/26 3/77/26
f 3/77/26 4/80/26 46/79/26
f 47/83/27 43/82/27 44/81/27
f 44/81/27 48/84/27 47/83/27
f 48/86/28 44/85/28 45/78/28
f 45/78/28 46/79/28 48/86/28
f 47/88/29 48/87/30 46/72/29
f 46/72/29 41/73/29 47/88/29
f 43/90/31 47/89/32 41/64/31
f 41/64/31 42/65/31 43/90/31
f 51/66/33 50/63/33 49/46/33
f 49/46/33 52/44/33 51/66/33
f 53/91/34 51/66/34 52/44/34
f 52/44/34 54/41/34 53/91/34
f 55/92/35 53/91/35 54/41/35
f 54/41/35 56/42/35 55/92/35
f 57/93/36 55/92/36 56/42/36
f 56/42/36 58/43/36 57/93/36
f 59/60/37 57/93/37 58/43/37
f 58/43/37 60/45/38 59/60/37
f 61/59/39 59/60/39 60/45/39
f 60/45/39 62/47/39 61/59/39
f 63/94/40 61/59/40 62/47/40
f 62/47/40 64/49/40 63/94/40
f 65/95/41 63/94/41 64/49/41
f 64/49/41 66/50/41 65/95/41
f 67/96/42 65/95/42 66/50/42
f 66/50/42 68/48/42 67/96/42
f 50/63/43 67/96/43 68/48/43
f 68/48/43 49/46/43 50/63/43
f 64/100/44 31/98/44 32/97/44
f 32/97/44 66/99/44 64/100/44
f 67/104/45 35/102/45 36/101/45
f 36/101/45 65/103/45 67/104/45
f 50/108/46 34/106/46 35/105/46
f 35/105/46 67/107/46 50/108/46
f 66/112/47 32/110/47 30/109/47
f 30/109/47 68/111/47 66/112/47
f 62/116/48 29/114/48 31/113/48
f 31/113/48 64/115/48 62/116/48
f 65/120/49 36/118/49 37/117/49
f 37/117/49 63/119/49 65/120/49
f 60/124/50 27/122/50 29/121/50
f 29/121/50 62/123/50 60/124/50
f 63/128/51 37/126/51 38/125/51
f 38/125/51 61/127/51 63/128/51
f 58/132/53 25/130/52 27/129/52
f 27/129/52 60/131/52 58/132/53
f 61/136/54 38/134/54 39/133/54
f 39/133/54 59/135/54 61/136/54
f 56/140/55 24/138/55 25/137/55
f 25/137/55 58/139/55 56/140/55
f 59/144/57 39/142/57 40/141/56
f 40/141/56 57/143/57 59/144/57
f 54/148/58 23/146/58 24/145/58
f 24/145/58 56/147/58 54/148/58
f 57/152/59 40/150/59 19/149/59
f 19/149/59 55/151/59 57/152/59
f 52/156/60 26/154/60 23/153/60
f 23/153/60 54/155/60 52/156/60
f 55/160/61 19/158/61 20/157/61
f 20/157/61 53/159/61 55/160/61
f 49/164/62 28/162/62 26/161/62
f 26/161/62 52/163/62 49/164/62
f 53/168/63 20/166/63 33/165/63
f 33/165/63 51/167/63 53/168/63
f 68/172/64 30/170/64 28/169/64
f 28/169/64 49/171/64 68/172/64
f 51/176/65 33/174/65 34/173/65
f 34/173/65 50/175/65 51/176/65

