# ProBuilder 5.2.4
# https://unity3d.com/unity/features/worldbuilding/probuilder
# 2.06.2026 16:55:08

mtllib ./Tree_RootECombiner.mtl
o Tree_RootECombiner

g Tree_RootECombiner
v 6.90416 -6.678694 10.53311
v 6.959267 -7.220473 10.77349
v 6.676445 -6.517729 10.94812
v 6.731552 -7.0595 11.1885
v 6.808479 -7.780402 10.90793
v 6.580765 -7.619429 11.32294
v 4.309486 -8.000761 9.622266
v 4.254379 -7.45899 9.381894
v 4.081779 -7.839796 10.03728
v 4.026665 -7.298018 9.796908
v 6.65155 -6.237555 10.22341
v 6.423836 -6.07659 10.63842
v 6.474747 -8.273245 10.91597
v 6.24704 -8.112272 11.33099
v 6.008888 -8.623968 10.7964
v 5.781181 -8.462996 11.21142
v 6.239883 -5.964217 9.891522
v 6.012177 -5.803244 10.30654
v 5.481812 -8.779173 10.5674
v 5.254105 -8.618208 10.98242
v 5.731834 -5.900282 9.587974
v 5.504128 -5.73931 10.00299
v 5.204765 -6.055494 9.358981
v 4.977058 -5.894522 9.773995
v 4.97377 -8.715239 10.26386
v 4.746063 -8.554274 10.67888
v 4.738899 -6.40621 9.239408
v 4.511192 -6.245245 9.654422
v 4.562103 -8.4419 9.93197
v 4.334389 -8.280935 10.34698
v 4.405167 -6.899054 9.247451
v 4.17746 -6.738089 9.662465

vt -6.909413 -9.193251
vt -7.107917 -9.754442
vt -7.380789 -9.026518
vt -7.579295 -9.587703
vt -5.67881 -5.943639
vt -5.871559 -6.506825
vt -6.151869 -5.78173
vt -6.34462 -6.344916
vt 7.108109 -9.754366
vt 6.909605 -9.193182
vt 7.579487 -9.587633
vt 7.380986 -9.026441
vt -8.248551 -10.33354
vt -8.485724 -10.87951
vt -8.707151 -10.13433
vt -8.944318 -10.68029
vt -4.218378 -1.333846
vt -4.434108 -1.888641
vt -4.684388 -1.152639
vt -4.900116 -1.70743
vt 1.507376 3.912712
vt 0.9288229 3.772697
vt 1.38977 4.398685
vt 0.8112162 4.25867
vt -8.510872 9.87114
vt -9.005 10.20306
vt -8.232068 10.28619
vt -8.726195 10.61811
vt 5.105453 6.166945
vt 4.565378 5.916636
vt 4.895203 6.620593
vt 4.355126 6.370278
vt -7.068957 8.390067
vt -7.576154 8.701668
vt -6.807225 8.816091
vt -7.314421 9.127693
vt -4.565258 5.916552
vt -5.105328 6.16686
vt -4.355009 6.370198
vt -4.895079 6.620506
vt 7.57612 8.701757
vt 7.06893 8.390162
vt 7.31439 9.127779
vt 6.8072 8.816185
vt -0.9289674 3.77288
vt -1.507522 3.912896
vt -0.8113525 4.258846
vt -1.389911 4.398866
vt 9.004958 10.20307
vt 8.510829 9.871154
vt 8.726159 10.61813
vt 8.232024 10.28621
vt 8.485807 -10.8795
vt 8.248637 -10.33353
vt 8.944407 -10.68028
vt 8.707234 -10.13431
vt 4.434348 -1.888597
vt 4.218623 -1.3338
vt 4.900356 -1.707398
vt 4.684631 -1.152601
vt 5.871649 -6.50684
vt 5.678897 -5.943646
vt 6.344712 -6.344931
vt 6.151956 -5.781744

vn 0.8854435 0.2607483 0.3847078
vn 0.8534715 -0.1073973 0.5099532
vn -0.8854516 -0.2607445 -0.3846921
vn 0.7826198 0.5891919 0.2008959
vn 0.691562 -0.459197 0.5575662
vn 0.4243823 -0.7410797 0.5202889
vn 0.5606446 0.827946 -0.01352709
vn 0.5606473 0.8279447 -0.01349964
vn 0.09256636 -0.9101485 0.4038083
vn 0.2533207 0.9406464 -0.2258607
vn -0.09257793 0.9101449 -0.403814
vn -0.2533157 -0.9406508 0.2258479
vn -0.4243739 0.7410927 -0.5202773
vn -0.560639 -0.8279501 0.01351655
vn -0.7826158 -0.5891988 -0.200891
vn -0.6915712 0.4592031 -0.5575499
vn -0.8534744 0.1073942 -0.5099489

usemtl agac_govde
f 3/3/1 4/4/1 2/2/1 1/1/1
f 4/7/2 6/8/2 5/6/2 2/5/2
f 9/11/3 10/12/3 8/10/3 7/9/3
f 12/15/4 3/16/4 1/14/4 11/13/4
f 6/19/5 14/20/5 13/18/5 5/17/5
f 14/23/6 16/24/6 15/22/6 13/21/6
f 18/27/7 12/28/8 11/26/7 17/25/7
f 16/31/9 20/32/9 19/30/9 15/29/9
f 22/35/10 18/36/10 17/34/10 21/33/10
f 24/39/11 22/40/11 21/38/11 23/37/11
f 20/43/12 26/44/12 25/42/12 19/41/12
f 28/47/13 24/48/13 23/46/13 27/45/13
f 26/51/14 30/52/14 29/50/14 25/49/14
f 30/55/15 9/56/15 7/54/15 29/53/15
f 32/59/16 28/60/16 27/58/16 31/57/16
f 10/63/17 32/64/17 31/62/17 8/61/17

