# ProBuilder 5.2.4
# https://unity3d.com/unity/features/worldbuilding/probuilder
# 2.06.2026 13:36:49

mtllib ./TreeTopA.mtl
o TreeTopA

g TreeTopA
v 4.328176 4.05078 0.7428393
v 6.019265 2.329964 0.9629087
v 3.780823 2.025361 2.117783
v 7.136645 3.340322 -2.847482
v 7.556371 1.928572 -1.228424
v 6.039551 4.254799 -0.9046674
v 7.229334 -1.515323 -3.94856
v 7.610851 -0.925484 -1.875616
v 7.811737 0.9735868 -3.61448
v 5.170856 -0.2827716 1.703632
v 6.920599 0.0914923 0.2004571
v 6.107418 -2.288036 -0.08427954
v 3.868976 -2.592654 1.070592
v 6.182185 -3.217304 -2.599058
v 5.876385 -2.788293 -4.516803
v 6.758785 -0.1803637 -5.233279
v 6.704304 2.673704 -4.586084
v -0.235409 0.7761983 -3.303858
v -1.469282 -3.368084 -5.217582
v 2.994975 -1.785087 -5.032094
v -4.228399 0.7761983 -4.914849
v -1.469282 4.920481 -5.217581
v 2.994975 3.337483 -5.032093
v -7.458825 3.337493 -5.021383
v -6.696196 0.7761983 -2.373158
v -7.458825 -1.785097 -5.264285
v -5.731308 -3.581352 -3.0325
v -4.699722 -5.929452 -5.264285
v -2.231935 -5.92941 -2.809802
v -0.2354095 -7.512444 -5.264285
v 4.228903 -5.929452 -5.264285
v 4.991483 -3.368098 -2.507814
v 6.988007 -1.785097 -5.264285
v 6.55788 0.7761983 -2.836275
v 6.988007 3.337494 -5.264286
v -4.115319 8.065379 -2.115009
v -2.895988 7.34179 0.1325687
v -5.465353 5.692937 -0.5835748
v 1.446024 8.518664 -2.604549
v 0.3703853 7.677393 0.000756979
v -1.381746 9.085755 -2.355173
v 1.574831 4.746336 1.375962
v -1.130439 5.558878 1.644091
v 3.086332 6.567447 -0.9378109
v -3.709274 4.174692 1.524585
v -5.498973 2.677151 0.2532461
v -0.94555 2.552876 2.253105
v 0.2425158 9.092234 -4.195272
v -3.023432 8.743728 -4.092577
v -5.544556 6.570911 -3.168773
v -6.357844 3.4038 -1.776752
v -7.544966 2.036427 -5.626307
v -8.42075 -0.06218064 -5.284764
v -7.127126 -1.763739 -4.881254
v -7.800313 4.429422 -5.489728
v -4.704108 -4.595004 -0.1137835
v -6.071192 -1.561908 0.9902537
v -3.108727 -2.186346 1.681053
v -8.658131 -1.485212 -3.258596
v -8.291109 0.232177 -0.9907222
v -7.161714 -3.826808 -1.522078
v -7.602574 6.156384 -3.607301
v -7.670673 4.723762 -1.195684
v -8.926731 2.512588 -3.497463
v -2.996166 7.76947 -0.6780053
v -5.067296 5.705692 0.6586146
v -5.537372 7.932449 -2.058681
v -4.121919 1.834923 2.064553
v -6.636427 2.314064 0.8040037
v -2.104827 5.081279 1.349412
v -5.819874 7.816212 -4.455076
v -7.444227 -3.943119 -3.767736
v -5.24373 -5.730896 -1.912727
v -5.337843 5.62712 -5.194369
v -6.527532 1.942355 -3.793397
v -2.175193 -6.652117 -2.386322
v -3.418515 -6.560508 -0.6661979
v -1.234839 -6.192945 -0.4515884
v -5.953693 -5.291956 -2.873572
v -5.591239 -5.676871 -1.028582
v -4.197777 -6.469853 -2.883292
v -6.768415 -2.169337 0.06805563
v -6.070117 -3.841455 0.7004514
v -6.925982 -3.884511 -1.395892
v -3.493453 -1.599566 2.373374
v -4.193362 -3.590715 2.13146
v -5.45151 -1.664614 1.643427
v -0.8506016 -4.712177 1.165355
v -2.574538 -5.306077 1.31833
v -2.009688 -3.223143 2.346079
v -4.550931 -5.311787 0.7770036
v -4.216851 -0.4059311 1.826666
v -6.084631 -0.6409518 0.3814592
v -6.943015 -1.920584 -1.58036
v -6.464134 -3.756007 -3.3094
v -4.830891 -5.44622 -4.145288
v 0.05902216 -4.83092 -0.3616772
v 6.249808 -1.638179 -3.809662
v 6.567722 -3.106325 -4.619872
v 6.875616 -0.6335133 -2.580039
v 6.69516 -0.8588942 -0.4968574
v 6.085921 -3.003779 0.4125311
v 4.975146 -0.3305154 1.4526
v 6.171339 -5.065906 -3.96724
v 5.778028 -5.476581 -1.627294
v 7.160548 -3.065182 -2.217228
v 1.678915 -7.31273 -3.238301
v 3.210522 -6.889214 -1.098344
v 4.169065 -6.804468 -3.887793
v -0.2768115 -4.868214 1.091117
v 1.961863 -5.32758 1.310082
v 0.4343793 -6.758089 -0.8382827
v 4.42388 -5.063182 0.617945
v 3.708707 -2.888103 2.20219
v 0.9325653 -2.756965 2.462263
v 1.344916 6.7142 -0.6802993
v 2.693961 6.678496 0.4333854
v 1.101854 5.918921 0.9292237
v 4.407034 6.469363 -1.970467
v 4.454116 6.467986 -0.3904233
v 2.842958 7.043044 -1.463165
v 6.186867 3.804069 -0.3385406
v 5.500268 4.901376 0.5687925
v 5.712356 5.371734 -1.223721
v 4.224771 2.401623 1.960237
v 4.386686 4.143646 1.985442
v 5.581851 2.94156 1.048124
v 1.39363 4.470894 2.015152
v 2.668729 5.269573 1.928906
v 2.794584 3.384062 2.481285
v 4.090126 5.742799 1.151567
v 4.869594 1.675879 1.197513
v 5.975783 2.421177 -0.2313738
v 0.3779255 6.000328 -0.4777426
v 0.3408368 4.571463 0.9982042
v 1.02942 -6.806784 -6.395057
v 2.139622 -7.034835 -6.279075
v 2.52306 -6.24218 -5.370403
v 0.0668087 -7.342474 -6.68561
v -2.383303 -6.15373 -4.915439
v -3.068269 -6.580283 -3.808711
v -1.922448 -7.168854 -5.742017
v 2.956186 -6.03094 -1.379478
v 1.972145 -7.521945 -1.593026
v 1.458551 -6.134531 -0.02422392
v 2.741802 -7.554113 -5.026329
v 1.838327 -8.318986 -3.771115
v 3.302931 -6.966204 -3.1948
v -0.7846897 -8.077502 -5.717971
v -0.2344775 -8.626624 -4.177649
v 1.108699 -8.226999 -5.724548
v -2.749848 -6.877809 -2.498587
v -1.381752 -8.019718 -2.250817
v -2.123804 -7.771621 -4.259131
v -0.406119 -6.012316 0.3231661
v -0.01474786 -7.377705 -0.6390895
v -1.895357 -6.632306 -0.6820173
v 0.4652767 -8.342671 -2.35638
v -1.568301 -5.130174 -0.02275243
v -2.933001 -5.801578 -1.624148
v 3.504321 -6.363432 -4.67768
v 3.63959 -5.584726 -2.493116
v 2.493768 -4.996156 -0.5598103
v 0.5045116 -4.822534 0.3837827
v -0.8308483 -6.739954 -6.028196
v 0.7486871 -6.833581 -4.943395
v -2.657555 5.307104 1.620458
v -1.838773 4.821213 3.129708
v -3.564105 3.714006 2.648817
v 1.076893 5.611485 1.291731
v 0.3546002 5.04657 3.041196
v -0.8219578 5.992288 1.459187
v 1.163386 3.078363 3.964648
v -0.6532048 3.623985 4.144698
v 2.178361 4.30124 2.410947
v -2.384896 2.694502 4.064448
v 2.124294 4.916255 0.732311
v 0.2687359 5.996638 0.223558
v -1.924352 5.762616 0.2925172
v -3.617289 4.303567 0.9128537
v -2.86596 -2.246925 3.504769
v -3.783958 -0.6629035 4.24613
v -1.794659 -0.9890131 4.710002
v -5.521091 -0.6228492 1.393023
v -5.274635 0.2740505 2.915903
v -4.516245 -1.845738 2.559097
v -4.812284 3.367944 1.158867
v -4.858011 2.619763 2.77827
v -5.701456 1.464986 1.232624
v -1.719075 4.210371 3.125892
v -3.109841 3.132572 4.023434
v -3.425498 4.295487 2.198767
v -2.475019 1.111078 4.967523
v -4.163514 1.361308 4.121063
v -1.12054 2.806475 4.487306
v -1.88007 4.750882 1.851379
v -3.615199 4.234782 0.5895846
v -5.361689 0.1203235 0.03244805
v -4.705953 -1.906481 0.9499177
v -1.35476 -4.575712 1.438271
v -2.189652 -4.514196 2.593337
v -0.7233119 -4.267377 2.737448
v -3.892028 -3.662363 1.111083
v -3.64864 -3.920833 2.349996
v -2.712928 -4.453321 1.104555
v -4.439114 -1.56552 3.086389
v -3.970207 -2.688348 3.511044
v -4.544921 -2.717261 2.103347
v -2.239973 -1.182918 4.634412
v -2.709963 -2.519977 4.471967
v -3.554812 -1.226598 4.144252
v -0.4652961 -3.27304 3.823226
v -1.622921 -3.671844 3.925949
v -1.243625 -2.273151 4.616084
v -2.950072 -3.675678 3.562448
v -0.1760516 -2.120286 3.958875
v -2.725737 -0.3813907 4.267298
v -3.979953 -0.5392072 3.296839
v -4.556359 -1.398482 1.979476
v -4.23479 -2.630971 0.8184237
v 0.1455172 -3.352776 2.797823
v 1.964338 -0.6921009 4.484778
v 2.685901 -2.146258 4.378118
v 0.9914999 -2.066219 4.536851
v 4.508664 -0.9077431 2.73077
v 4.136818 -2.216861 3.28581
v 3.458864 -0.5852506 3.920609
v 4.188953 -3.475466 0.612644
v 3.948898 -3.72612 2.040816
v 4.79271 -2.254337 1.680753
v 1.447029 -4.846802 1.057548
v 2.381836 -4.588312 2.363656
v 2.966877 -4.536586 0.6611339
v 0.253364 -3.354807 3.699981
v 1.619725 -3.635178 3.833625
v 0.6874353 -4.50828 2.522384
v 3.122402 -3.473804 3.411183
v -0.4254355 -3.594207 2.541161
v 4.430883 -2.279448 0.2143137
v 4.618804 -0.7701831 1.459313
v -0.2375145 -2.084942 3.78616
v 3.012263 2.611296 3.539506
v 4.147831 1.455766 3.687283
v 2.644715 1.251225 4.462782
v 4.898153 2.134223 1.128602
v 5.18 1.186231 2.2158
v 4.161453 2.748295 2.433203
v 4.960394 -1.126349 0.3892269
v 5.216584 -0.7302713 1.78121
v 5.351478 0.5449569 0.6135612
v 2.219174 -0.3986897 4.511275
v 3.578124 -0.2986892 4.184679
v 2.703909 -1.849778 3.759592
v 4.753078 -0.04737043 3.175296
v 4.207026 -1.645226 2.984095
v 4.257233 -2.269231 1.295418
v 3.956107 3.036407 1.145442
v 2.938176 3.303905 2.627098
v 1.008997 4.399786 2.583867
v 1.914883 4.37581 3.331708
v 0.8457811 3.865754 3.664664
v 3.065214 4.235377 1.717518
v 3.096828 4.234452 2.778519
v 2.014934 4.620604 2.058172
v 4.260373 2.445629 2.813359
v 3.79932 3.182472 3.422634
v 3.941738 3.498318 2.218959
v 2.942824 1.503885 4.356991
v 3.051549 2.673655 4.373916
v 3.854104 1.866453 3.744505
v 1.041709 2.893403 4.393867
v 1.897939 3.429716 4.335952
v 1.982451 2.163594 4.706875
v 2.852409 3.747489 3.813968
v 3.375823 1.016547 3.844821
v 4.118629 1.517015 2.885321
v 4.143535 2.4765 1.894221
v 3.44104 3.528484 1.250104
v 0.3596624 3.92042 2.719885
v 0.3347569 2.960935 3.710984
v 2.099002 -4.185484 2.587021
v 1.432687 -5.147663 2.483551
v 1.141462 -4.301775 3.328333
v 1.861989 -5.068411 0.5449931
v 1.288281 -5.602522 1.26075
v 2.278482 -4.735082 1.585645
v -0.4831705 -5.416471 0.08504334
v -0.09015989 -5.807106 0.9904001
v 0.7637201 -5.49639 0.1282987
v -1.69558 -4.748662 1.8428
v -0.7976961 -5.478687 2.046113
v -1.330363 -5.270694 0.8778523
v -0.07899821 -4.248443 3.480725
v 0.1455868 -5.097697 2.978287
v -1.088928 -4.632801 2.890893
v 0.4149085 -5.667943 2.036616
v -0.9450315 -3.167606 3.239122
v -1.78734 -4.081348 2.307774
v -1.932693 -4.524244 1.08075
v -1.226106 -4.840697 0.0208165
v 2.382762 -4.305082 0.7286135
v 2.528115 -3.862187 1.955637
v 1.821527 -3.545733 3.015571
v 0.433414 -2.963022 3.509473
v 2.476233 -1.993543 4.22832
v 1.944542 -1.869656 5.093722
v 2.696044 -0.9657609 4.81798
v 0.4874856 -2.806336 4.039828
v 0.7845438 -2.372503 5.04297
v 1.591405 -2.685826 4.135847
v 0.001740456 -1.436579 5.572475
v 1.089222 -1.420405 5.675715
v -0.3414242 -2.280748 4.681585
v 1.874962 -0.6125623 5.629701
v 0.6719606 -0.3384653 5.910208
v -0.4540074 -0.2467034 5.548826
v -0.9908916 -1.664136 4.230611
v -0.2054142 -2.607587 3.719057
v 2.827166 -1.278838 3.822581
v 0.995931 -2.876995 3.427339
v 1.282604 2.171936 5.308777
v 2.058609 1.46493 5.733873
v 0.9147134 1.298865 5.999857
v 3.015144 1.743718 4.097905
v 3.035666 1.210769 4.971123
v 2.254174 2.238278 4.766531
v 3.318451 -0.5605338 3.96364
v 3.213944 -0.1436264 4.892204
v 3.47513 0.6336252 4.005932
v 1.773369 -1.556457 5.09153
v 2.347072 -0.7265476 5.60618
v 2.720917 -1.307617 4.559918
v 0.6829953 0.1423175 6.130275
v 1.650141 0.2686172 6.14752
v 1.203176 -0.8926193 5.872163
v 2.616468 0.424095 5.662161
v 0.2762947 -0.5749938 5.659088
v 0.9855766 -1.569442 5.133012
v 1.954935 -1.824059 4.360726
v 2.814109 -1.241596 3.637215
v 2.347363 2.30432 3.843829
v 0.05341613 3.183388 4.123847
v 0.520457 3.294274 4.78616
v -0.2383945 2.905538 4.868793
v 1.598505 3.123288 3.936236
v 1.420718 3.222452 4.646628
v 0.8170424 3.351572 3.932494
v 2.260516 2.071747 5.068875
v 1.809836 2.604375 5.312372
v 2.118998 2.719659 4.505199
v 1.124583 1.481943 5.956511
v 1.150069 2.294197 5.863365
v 1.835778 1.733409 5.675453
v -0.2073267 2.317324 5.491377
v 0.3564579 2.735706 5.550278
v 0.3912184 1.905458 5.946001
v 1.08128 2.967522 5.341847
v -0.1659095 1.637106 5.569158
v 0.6300704 1.206505 5.891006
v 1.528863 1.127871 5.746007
v 2.187163 1.431236 5.189548
v 2.353521 2.00073 4.434173
v -0.5550293 2.255185 4.903412
v -1.088741 0.4859044 5.870712
v -1.734886 1.155921 5.809553
v -0.7947898 1.405455 5.900571
v -2.516922 0.163382 4.864966
v -2.54025 0.9433737 5.183225
v -1.887227 0.168804 5.547217
v -1.525102 2.84661 3.905542
v -1.991371 2.543499 4.654464
v -2.302229 2.413958 3.678239
v -0.6143328 2.237626 5.42071
v -1.409783 2.154384 5.497341
v -1.051274 2.793037 4.745477
v -2.203287 1.806068 5.255114
v -2.698764 1.800936 4.469346
v -2.90528 0.8503307 4.262887
v -0.2847061 2.485989 4.756245
v -1.162526 -0.1100356 5.60118
v -0.4614873 0.6368217 5.792869
v -0.1261907 1.628423 5.470125
v -0.4072294 -0.6042809 5.433854
v -0.5232491 -0.1336479 5.776958
v -0.6469815 0.3496691 5.422715
v -0.5440326 -1.193518 5.501087
v -1.089785 -1.50128 5.328693
v -1.910556 -1.066169 5.41343
v -1.124283 -0.6941792 5.858099
v -2.203283 -1.566922 3.946284
v -2.521444 -1.097488 4.569683
v -1.694276 -1.775087 4.694342
v -1.177248 0.281403 5.885905
v -1.902808 -0.00848572 5.698636
v -1.693402 0.9907351 5.454891
v -2.501594 -0.3492445 5.119857
v -2.479672 0.6187394 5.010222
v -2.873174 -0.0561666 4.320489
v -2.726182 -0.7766179 3.650961
v -0.8749808 0.9076779 5.527763
v -0.2933681 -0.2337276 5.650324
v -0.8952637 -0.5705537 5.82568
v -1.130746 -0.5546509 5.4452
v -0.1317253 -0.7754873 5.796364
v 0.3148642 -2.132209 4.780741
v -0.1844876 -2.275905 5.209552
v 0.3116491 -1.81203 5.400469
v -0.8376224 -2.39825 4.283977
v -0.8550649 -2.403217 4.892354
v -0.1968083 -2.42704 4.479308
v -1.800747 -1.626759 4.912331
v -1.421171 -1.949749 5.261688
v -1.444353 -2.147058 4.571503
v -1.243518 -0.8838986 5.797447
v -1.100474 -1.542172 5.807152
v -1.678911 -1.239831 5.446249
v 0.03623939 -1.314409 5.818592
v -0.3389864 -1.755791 5.785384
v -0.6043408 -1.078295 5.998071
v -0.805743 -2.094712 5.486079
v -1.564571 -0.692444 5.50377
v -1.883998 -1.094599 4.953594
v -1.731534 -1.623411 4.385299
v -0.4018873 -2.281815 3.986647
v 0.4343832 -1.228957 5.427029
v 0.08826947 -0.9559871 5.458274
v -1.767031 2.37225 4.782547
v -1.569335 3.013558 4.723217
v -1.263721 2.601563 5.207614
v 0.2097926 3.336924 4.355811
v -0.4073966 3.580575 4.47239
v -0.08021235 3.559076 3.802511
v -0.5873262 2.783661 5.294995
v -0.8570945 3.209031 5.006898
v -0.1017784 3.168581 4.956786
v -1.103024 3.474139 4.466945
v -0.8510172 3.637635 3.867046
v -1.569129 3.287203 4.022064
v -1.264007 3.319983 3.372718
v -1.960274 2.641621 4.208358
v -0.07009673 2.606254 5.153069
v 0.37546 2.98802 4.622426
v 0.3782549 3.255288 3.918853
v -1.504614 2.07056 5.028276
v -0.7882111 2.25582 5.308087
v -0.4231203 2.351226 5.07811
v 0.8768671 -0.1437089 5.916721
v 0.4907403 0.2003825 6.348446
v 1.095085 0.4860096 6.122689
v -0.3942022 -0.291887 5.826155
v -0.2512829 0.1141235 6.256481
v 0.259258 -0.3831127 5.945707
v -1.001598 0.9514585 5.773265
v -0.6082985 0.8449383 6.225393
v -0.8478684 0.2601179 5.884197
v -0.1059294 1.868085 5.831142
v -0.08692908 1.382876 6.298145
v -0.6754332 1.530207 5.864318
v 1.034358 1.18783 6.077239
v 0.5902157 0.9841734 6.390251
v 0.5174139 1.668507 6.072388
v 0.007749319 0.7021478 6.449476
v 0.9668498 1.591564 5.687901
v 0.2881811 1.990027 5.607379
v -0.4528999 1.903921 5.508182
v -0.9733287 1.366135 5.428198
v -1.074318 0.5820853 5.397978
v -0.7173004 -0.1487327 5.429066
v -0.03863215 -0.5471964 5.509588
v 0.7024488 -0.4610893 5.608786
v 1.323867 0.8607461 5.718988
v -0.03234649 1.822217 5.343616
v -6.682907 -2.757081 -2.04857
v -7.436986 -3.479724 -2.899385
v -7.695226 -1.598384 -2.559452
v -5.184716 -5.66323 -3.255563
v -6.478549 -5.145209 -3.60176
v -6.015815 -4.450805 -2.444237
v -5.200911 -5.284015 -5.366629
v -6.488068 -4.922313 -4.842604
v -5.19056 -5.961233 -4.398703
v -6.709111 -2.143491 -5.464378
v -7.452388 -3.119068 -4.907132
v -6.040737 -3.867249 -5.692848
v -7.941396 -0.7552798 -3.442443
v -8.071123 -2.245175 -3.709081
v -7.710629 -1.237727 -4.567204
v -7.478259 -3.942935 -4.018601
v -6.676284 -0.9426039 -5.162621
v -5.703305 -2.600139 -5.863678
v -4.724442 -4.395435 -5.797835
v -4.113587 -5.642752 -4.990236
v -4.104068 -5.865649 -3.749387
v -4.699521 -4.978995 -2.549204
v -2.352663 -6.71617 -3.32761
v -3.633584 -5.584997 -2.632857
v -3.739964 -6.053226 -4.529186
v -1.435479 -6.500303 -6.201712
v -0.4219285 -6.907909 -5.953079
v 0.02654326 -6.29584 -5.120229
v -4.692021 -5.435044 -5.417385
v -4.378315 -6.402777 -6.067096
v -3.232375 -6.157679 -6.149839
v -4.528859 -4.769299 -2.152267
v -5.390552 -5.268012 -2.7109
v -5.038074 -5.048097 -3.796993
v -2.436035 -6.822521 -6.589407
v -5.506837 -5.809008 -4.585638
v -4.073868 -4.986431 -1.158963
v -3.457403 -7.448469 -5.903153
v -3.142262 -8.176109 -4.53568
v -1.669941 -7.902369 -5.647732
v -5.350832 -6.243543 -3.440609
v -4.268325 -7.564337 -3.059592
v -4.789239 -7.051939 -4.853498
v -3.147803 -6.036207 -0.7195913
v -2.955603 -7.311606 -1.499089
v -4.617234 -6.295047 -1.784923
v -2.5502 -8.166149 -2.896936
v -1.128164 -8.261496 -3.899353
v -0.03078926 -7.59374 -4.820562
v -1.009417 -7.702498 -2.029985
v -1.358315 -6.433208 -0.7553124
v 0.8947553 -6.626328 -4.401142
v -1.813888 -6.591721 -5.01624
v 0.2952409 9.067918 -6.598727
v -1.224973 9.565872 -5.350182
v -2.119334 7.805076 -5.338372
v 5.187348 6.460414 -5.746629
v 4.841733 8.343754 -5.616438
v 3.062097 8.363188 -6.425199
v 1.995058 9.965695 -5.869755
v 6.227717 5.319555 -4.686983
v 3.406627 9.293949 -4.504453
v 2.699974 8.249843 -1.846854
v 0.6373942 9.802473 -3.831534
v 5.817003 4.311029 -2.473829
v 4.091539 5.242903 -0.8697008
v 5.266252 7.248804 -3.225764
v 1.445335 5.996507 -0.1766762
v -0.5165489 7.860753 -1.297499
v -2.034054 8.729893 -3.298431
v -3.588427 7.296986 -4.256173
v 5.349267 3.608129 -4.538457
v 3.53214 5.920439 -4.417283
v 0.671478 7.498968 -4.79093
v 6.030614 3.387206 -5.519281
v 5.99271 4.443483 -5.890882
v 5.163605 4.990854 -5.359504
v 3.847751 5.743803 -1.201298
v 4.002492 6.724517 -1.764816
v 4.290101 5.364296 -0.252027
v 6.750129 2.544826 -5.352139
v 4.86673 6.996471 -2.580198
v 6.485399 6.367466 -2.366292
v 5.302434 6.292051 -0.9689658
v 6.342162 5.598506 -5.220246
v 7.262428 5.503994 -3.938476
v 5.664254 6.729677 -4.082837
v 7.630765 2.368306 -4.303678
v 8.019844 3.605344 -3.399736
v 7.34203 4.033917 -5.083841
v 6.951753 1.76985 -1.097146
v 7.710936 3.295358 -1.494583
v 7.64722 1.758888 -2.672377
v 5.610116 4.800031 0.05101657
v 6.799977 5.019768 -0.8473988
v 6.527974 3.219933 -0.09725356
v 7.595105 4.915571 -2.332486
v 5.04752 3.465638 0.2867171
v 5.985469 1.753698 -0.3543472
v 6.745663 0.8824246 -1.930365
v 7.037738 1.184605 -3.839349
v 5.054761 6.155424 -5.249818
v 4.294567 7.026697 -3.673801
v 2.137005 -6.1875 -5.346513
v 1.807124 -7.030233 -4.99803
v 2.749521 -6.092203 -5.643334
v 3.857496 -6.18301 -2.47139
v 4.89165 -6.635663 -3.206485
v 3.094874 -7.326955 -3.330554
v 6.510253 -3.951225 -2.830726
v 6.390565 -5.258541 -3.412791
v 5.390737 -5.127174 -2.403205
v 6.57347 -3.732734 -4.963548
v 6.427722 -5.130117 -4.666424
v 7.022664 -3.725415 -3.870945
v 3.959782 -5.829482 -5.922401
v 4.951772 -6.427866 -5.234923
v 5.488016 -4.790951 -5.685295
v 2.526407 -7.60936 -4.402091
v 4.027415 -7.385437 -4.334662
v 3.154996 -7.119158 -5.358999
v 5.564803 -6.4133 -4.189507
v 4.237191 -4.702869 -5.848722
v 5.701897 -3.392907 -5.535748
v 6.584171 -2.662678 -4.40902
v 6.547014 -2.791104 -3.155383
v 2.652241 -6.428428 -2.617665
v 1.769966 -7.158658 -3.744393
v 3.231849 -4.984836 -5.772029
v 5.69488 -2.966063 -4.858267
v 6.229341 -2.646837 -3.783967
v -2.225637 7.625104 -5.75644
v -1.772789 8.47893 -5.676622
v -2.938983 7.484519 -6.158596
v -3.35282 8.442342 -2.708814
v -4.473054 8.842765 -3.340852
v -2.687871 9.276838 -3.929399
v -6.183546 6.510149 -2.075781
v -6.081797 7.637769 -2.959139
v -4.91813 7.61211 -2.133672
v -6.674299 5.844879 -4.054983
v -6.370252 7.246736 -4.122478
v -6.902888 6.126173 -2.930603
v -4.146883 7.365901 -5.91126
v -4.939789 8.210053 -5.223188
v -5.673324 6.588359 -5.179365
v -2.318056 9.252875 -5.118414
v -3.790077 9.225188 -4.744113
v -3.154607 8.644124 -5.811741
v -5.338323 8.493207 -4.114177
v -4.537457 6.266574 -5.775076
v -5.957652 5.290307 -4.67256
v -6.657103 4.928618 -3.272164
v -6.368647 5.319653 -2.108821
v -5.202453 6.314064 -1.626848
v -3.603979 7.532009 -2.010368
v -2.183784 8.508276 -3.112884
v -1.484333 8.869965 -4.51328
v -1.713859 8.270078 -4.93788
v 1.559362 -5.379508 -6.374498
v 4.805216 -3.220378 -6.04617
v 1.772622 -6.228147 -6.1538
v 5.303424 -3.835345 -5.887676
v 5.700133 0.7261452 -5.871318
v 6.499418 0.8984056 -5.757584
v -2.168674 -5.717176 -6.618093
v -5.264913 -2.787989 -6.052492
v -5.944694 -3.389197 -5.728526
v -2.507766 -6.360426 -6.447203
v -6.645138 0.7761983 -5.899003
v -5.232522 4.462078 -6.073894
v -5.916619 4.880488 -5.689856
v -7.22395 0.7661589 -5.641517
v -2.192377 7.349187 -6.665558
v 1.38232 7.022879 -6.393574
v 1.85621 7.782617 -6.104505
v -0.235409 9.064842 -5.264285
v -2.469105 7.911961 -6.458945
v -4.699722 7.481849 -5.021383
v 4.783872 4.755852 -6.034214
v 5.309594 5.402851 -5.856022
v 4.228904 7.481849 -5.264286
v 1.752861 -6.071966 -6.314893
v -2.428872 -6.285128 -6.614467
v 1.705393 -5.855846 -6.413404
v -2.336726 -6.136442 -6.705678
v 1.637445 -5.612686 -6.434335
v -2.245357 -5.937004 -6.706952
v 6.354566 0.8478289 -5.851062
v 5.252337 -3.710668 -6.026515
v 6.151802 0.7973318 -5.905501
v 5.139718 -3.550018 -6.105389
v 5.921995 0.7546021 -5.912614
v 4.982709 -3.377851 -6.112291
v -5.745065 -3.336966 -5.91153
v -7.120035 0.7700008 -5.787936
v -5.545776 -3.204369 -6.03736
v -6.973546 0.7732579 -5.888286
v -5.37717 -3.011594 -6.08686
v -6.806784 0.7754341 -5.927286
v -5.725268 4.860902 -5.889286
v -2.40681 7.843053 -6.625329
v -5.528068 4.774509 -6.032301
v -2.332345 7.711906 -6.723021
v -5.355038 4.63446 -6.097127
v -2.257046 7.538482 -6.737147
v 1.790985 7.632568 -6.285915
v 5.254522 5.271104 -6.006063
v 1.678021 7.435495 -6.404552
v 5.135273 5.101883 -6.092615
v 1.534518 7.221401 -6.442358
v 4.970003 4.92095 -6.1025
v -0.2933693 -0.2337341 5.370002
v -0.1317253 -0.7754974 5.516043
v -0.1317253 -0.8337249 5.516041
v -0.1317253 -0.8337173 5.796363
v -2.075161 -1.182914 4.634412
v -1.078812 -2.273147 4.616083
v 1.163387 2.928276 3.964647
v -0.6532059 3.4739 4.144697

vt 0.181819 0.314921
vt 0.2272735 0.3936515
vt 0.272728 0.314921
vt 0 0.314921
vt 0.045455 0.3936515
vt 0.0909095 0.314921
vt 0.727273 0.314921
vt 0.7727275 0.3936515
vt 0.818182 0.314921
vt 0.4090915 0.3936515
vt 0.454546 0.472382
vt 0.5000005 0.3936515
vt 0.454546 0.314921
vt 0.5909095 0.3936515
vt 0.636364 0.472382
vt 0.6818185 0.3936515
vt 0.636364 0.314921
vt 0.818182 0.472382
vt 0.8636365 0.3936515
vt 0.909091 0.314921
vt 0.09091 0.472382
vt 0.1363645 0.3936515
vt 0.272728 0.472382
vt 0.3181825 0.3936515
vt 0.6818185 0.236191
vt 0.7727275 0.236191
vt 0.8636365 0.236191
vt 0.181819 0
vt 0.1363645 0.0787305
vt 0.2272735 0.0787305
vt 0.909091 0
vt 0.8636365 0.0787305
vt 0.9545455 0.0787305
vt 0.727273 0
vt 0.6818185 0.0787305
vt 0.7727275 0.0787305
vt 0.545455 0
vt 0.5000005 0.0787305
vt 0.5909095 0.0787305
vt 0.045455 0.236191
vt 0.1363645 0.236191
vt 0.2272735 0.236191
vt 0.3181825 0.236191
vt 0.363637 0.314921
vt 0.9545455 0.236191
vt 0.4090915 0.236191
vt 0.3181825 0.0787305
vt 0.4090915 0.0787305
vt 0.363637 0
vt 0.545455 0.314921
vt 0.5909095 0.236191
vt 0.818182 0.157461
vt 0.909091 0.157461
vt 0.727273 0.157461
vt 0.636364 0.157461
vt 0.5000005 0.236191
vt 0.272728 0.157461
vt 0.363637 0.157461
vt 0.454546 0.157461
vt 0.545455 0.157461
vt 0.1805024 0.1425076
vt 0.272728 0.1416395
vt 0.1805103 0.1804831
vt 0.2695517 0.1782638
vt 0.3628452 0.1422755
vt 0.3659513 0.1780641
vt 0.09962657 0.1423633
vt 0.9021935 0.145144
vt 0.9912834 0.1423633
vt 0.9047166 0.1874139
vt 1.000462 0.1789088
vt 0.08824836 0.1771845
vt 0.818182 0.1466771
vt 0.7316414 0.1460586
vt 0.7325978 0.1842345
vt 0.8191236 0.1761533
vt 0.636364 0.1445199
vt 0.5509527 0.1431368
vt 0.5447527 0.1830222
vt 0.6367262 0.1765909
vt 0.454546 0.1408978
vt 0.4575202 0.1799774
vt 0.181083 0.1704948
vt 0.08979574 0.1683344
vt 0.182449 0.157461
vt 0.09326488 0.157461
vt 0.1813323 0.1480299
vt 0.09650108 0.1476752
vt 0.3649886 0.167781
vt 0.2707996 0.1678009
vt 0.3632338 0.1484568
vt 0.2727536 0.1480256
vt 0.9063982 0.1732135
vt 0.8189629 0.1651504
vt 0.9080572 0.157461
vt 0.8188353 0.157461
vt 0.9042944 0.1497767
vt 0.8182373 0.1506442
vt 0.7305236 0.1718428
vt 0.6359607 0.1689574
vt 0.7285604 0.157461
vt 0.6349909 0.157461
vt 0.7306107 0.1502211
vt 0.6363996 0.1490169
vt 0.5450904 0.1721135
vt 0.4562147 0.1687506
vt 0.5449823 0.157461
vt 0.4542701 0.157461
vt 0.5485155 0.148278
vt 0.4544111 0.1474101
vt 1.000448 0.1705818
vt 1 0.157461
vt 0.994432 0.1477435
vt -5.650321 -0.1400767
vt -5.796363 -0.7054363
vt -5.369998 -0.1400834
vt -5.516041 -0.7054468
vt -5.516043 -0.7754974
vt -5.796364 -0.7754873
vt -5.516041 -0.8337249
vt -5.796363 -0.8337173
vt -1.43127 2.584048
vt -1.368936 1.620208
vt -0.8330209 1.987738
vt -2.239988 -1.104865
vt -1.243639 -2.195253
vt -2.075176 -1.104862
vt -1.078826 -2.195249
vt 4.941407 0.1195163
vt 4.713965 -0.511273
vt 4.418067 -0.05930871
vt 0.7666836 3.078385
vt -1.058808 3.624007
vt 0.7666848 2.928298
vt -1.058809 3.473922

vn 0.3582005 0.4561899 0.8146062
vn 0.8296912 0.5091489 0.2288664
vn 0.8005612 0.4740198 0.3447964
vn 0.9215857 -0.1763652 -0.2926759
vn 0.9702486 -0.2111321 -0.1184947
vn 0.556113 -0.3858097 0.7240205
vn 0.6571088 -0.306944 0.6884719
vn 0.4551172 -0.4646753 0.759569
vn 0.8315382 -0.3370072 0.4415545
vn 0.7906201 -0.5663335 0.2327793
vn 0.8200508 -0.5469576 0.1132772
vn 0.8494815 -0.5275817 -0.006224877
vn 0.9661173 -0.03254426 0.224844
vn 0.9381713 -0.05942489 0.3410326
vn 0.9940633 -0.005663633 0.1086555
vn 0.9121364 0.3186503 -0.1804253
vn 0.9609373 0.2766541 -0.007883525
vn 0.8223636 0.1436087 0.5505403
vn 0.7714313 0.4388908 0.4607263
vn 0.5216241 0.5912719 0.6150658
vn 0.5476829 0.05581035 0.8241632
vn 0.6511788 0.003705021 0.7589153
vn 0.444187 0.1079157 0.8894112
vn 0.7173415 -0.6467639 -0.259071
vn 0.8729228 -0.1415983 -0.4668572
vn 0.7745411 0.1539068 -0.6135135
vn 0.8633355 0.3606466 -0.352967
vn 0.6472848 -0.3976662 -0.6502953
vn -0.1211734 0.445655 -0.886966
vn -0.1092357 0.4138659 -0.9029801
vn 0.3566762 0.3020412 -0.884055
vn 0.2995865 0.2661648 -0.9132394
vn 0.3566763 -0.3020411 -0.884055
vn 0.2995866 -0.2661647 -0.9132394
vn -0.1211733 -0.445655 -0.886966
vn -0.1092356 -0.4138656 -0.9029803
vn -0.9640428 -0.01258705 0.2654487
vn -0.908702 -0.1350646 0.3593556
vn -0.8533611 -0.2575422 0.4532625
vn -0.409756 -0.7973436 0.4119908
vn -0.5027189 -0.701276 0.5054559
vn -0.3167931 -0.8934112 0.3185257
vn 0.8005974 -0.5329975 0.2737835
vn 0.8236001 -0.4086625 0.3618482
vn 0.8466027 -0.2843276 0.4499129
vn -0.8165041 -0.5435873 0.1945097
vn 0.9846686 -5.918325E-08 0.1744358
vn -0.384014 1.033646E-07 -0.9184196
vn -0.4717277 1.040331E-07 -0.8817443
vn -0.6692681 0.6185322 0.3682152
vn -0.5602683 0.6501302 0.5132545
vn 0.2115029 0.9299924 0.2834722
vn 0.2139765 0.9002952 0.379055
vn 0.3460007 0.507219 0.7780287
vn 0.2303341 0.4893029 0.8411474
vn 0.4616672 0.5251351 0.7149101
vn 0.4658279 0.7676164 0.4401926
vn -0.03302407 0.6270851 0.7782504
vn -0.06373544 0.8349938 0.5465556
vn -0.1731027 0.8463974 0.48798
vn -0.28247 0.857801 0.4294044
vn -0.3877621 0.4492206 0.7955112
vn -0.2785496 0.4454975 0.8508479
vn -0.4969746 0.4529437 0.7401745
vn -0.7854476 0.1661061 0.5670671
vn -0.674751 0.2043117 0.7092022
vn -0.1458237 0.1878191 0.9713184
vn 0.2090292 0.9596897 0.1878895
vn -0.108523 0.9897989 -0.09230893
vn -0.3361801 0.9321952 0.1341457
vn -0.7782679 0.5869341 0.223176
vn -0.9448656 0.3001622 0.1308877
vn -0.8961441 0.1279005 0.4249322
vn -0.6731734 0.72944 -0.1214699
vn 0.06195643 -0.1854609 -0.9806966
vn -0.1011023 -0.2967646 -0.9272977
vn -0.3868068 0.01135321 -0.9220909
vn -0.4171799 -0.4663538 0.7646259
vn -0.2908798 -0.4402955 0.8494286
vn -0.8833694 -0.2936155 0.3653059
vn -0.819934 -0.2905059 0.4763846
vn -0.9226514 0.3348637 -0.01420918
vn -0.9234025 0.3408832 0.1764267
vn -0.1819221 0.6495595 0.7210442
vn -0.2994594 0.7119232 0.6352082
vn -0.2787538 0.2638537 0.9138694
vn -0.4022748 0.2241628 0.8876519
vn -0.1552328 0.3035445 0.940087
vn -0.06438485 0.5871958 0.8068803
vn -0.6267636 0.3204188 0.7102811
vn -0.6107954 0.5573489 0.5623977
vn -0.677829 0.5700043 0.4437467
vn -0.7448626 0.5826598 0.3250957
vn -0.8613713 0.1405375 0.4723329
vn -0.802532 0.1373496 0.5805839
vn -0.9202105 0.1437254 0.3640819
vn -0.9806191 -0.06497238 0.01527274
vn -0.978493 -0.05384418 0.199129
vn -0.6938059 -0.06672136 0.7170647
vn -0.7564986 -0.2873964 0.5874633
vn -0.54348 -0.4924122 0.6798232
vn -0.3533998 -0.08915703 0.9231358
vn -0.451529 -0.02298584 0.8919603
vn -0.2552706 -0.1553282 0.9543113
vn -0.6697747 0.7413184 0.04299974
vn -0.9219002 0.3288442 -0.2048451
vn -0.9059413 0.1064396 -0.409806
vn -0.9827453 -0.07610058 -0.1685835
vn -0.7817699 -0.5888627 0.1288492
vn -0.8771774 -0.4610229 0.1342306
vn -0.6863623 -0.7167025 0.1234678
vn -0.5224215 -0.6414862 0.5617573
vn -0.7163134 0.5500367 -0.4293655
vn -0.03799658 0.3122118 -0.9492524
vn 0.02455715 0.1891197 -0.9716302
vn 0.08711087 0.06602755 -0.9940081
vn -0.8664042 -0.3551961 -0.3509694
vn -0.2641611 -0.4080684 -0.8738988
vn 0.8280312 -0.2123419 -0.4705323
vn 0.7817122 -0.4256757 -0.4557701
vn 0.8743502 0.0009918251 -0.4852945
vn 0.1486121 -0.975965 0.1593954
vn -0.5561982 -0.8286121 -0.0636042
vn -0.4726165 -0.8722345 0.01784241
vn -0.9463475 -0.116662 0.2385385
vn -0.8982788 -0.2346109 0.3715549
vn -0.3486434 0.1085229 0.925552
vn -0.3495583 0.009048433 0.9368709
vn 0.2405661 -0.4811711 0.8429723
vn -0.1143469 -0.5077406 0.8434695
vn -0.2143615 -0.5761724 0.7887171
vn -0.01433234 -0.4393087 0.8982219
vn -0.08209805 -0.09171256 0.9923955
vn -0.4937497 -0.4721336 0.7302747
vn -0.5813821 -0.1786379 0.7937779
vn -0.6679782 -0.1234625 0.7232149
vn -0.7545744 -0.06828702 0.6526518
vn -0.7046437 -0.5677797 0.4075539
vn -0.6214685 -0.6169798 0.4828176
vn -0.7878188 -0.5185795 0.3322902
vn -0.8516273 -0.4796996 -0.1034572
vn -0.8049421 -0.5923464 0.03455362
vn -0.4017849 -0.8246115 0.398227
vn -0.3890347 -0.9158568 0.09928902
vn -0.08729689 -0.9961317 -0.01004784
vn -0.02984382 -0.8316193 0.5383633
vn -0.1549194 -0.8039986 0.5740961
vn 0.09523179 -0.8592401 0.5026306
vn 0.473641 -0.6866999 0.5163152
vn 0.3073242 -0.7370379 0.6019361
vn -0.3477284 0.2079973 0.9142331
vn -0.5767989 0.4683547 0.6692884
vn -0.7816382 0.2308827 0.5794263
vn -0.9944161 0.001286974 0.1055221
vn -0.9711588 -0.03063292 -0.2364576
vn -0.8983126 -0.3670527 -0.241468
vn -0.5199533 -0.7720903 -0.3654109
vn 0.6399579 -0.6363618 0.4306943
vn -0.9133346 0.3771106 0.1536476
vn -0.7104924 -0.4003342 -0.5787341
vn 0.543868 0.4926644 -0.6793301
vn 0.7566129 0.06110141 0.6510019
vn 0.6774838 -0.000532249 0.7249089
vn 0.9047527 -0.3750769 -0.08260776
vn 0.8723082 -0.4850749 0.06148842
vn 0.09210159 -0.976778 0.1273942
vn 0.210472 -0.976669 0.04265263
vn -0.2138587 -0.7361044 0.6421953
vn 0.1325103 -0.7913557 0.5818191
vn 0.253149 -0.7465366 0.6153038
vn 0.01187155 -0.8361749 0.5483344
vn -0.02626883 -0.9768871 0.2121357
vn 0.5008227 -0.7457448 0.4393646
vn 0.4997887 -0.8537871 0.1458043
vn 0.5773731 -0.8045592 0.06166376
vn 0.6549575 -0.7553314 -0.02247676
vn 0.7693926 -0.4531608 0.4332168
vn 0.6929108 -0.5081967 0.511479
vn 0.8458745 -0.398125 0.3549547
vn 0.9532908 0.01475103 0.238963
vn 0.9201374 -0.1009402 0.3783626
vn 0.5479489 -0.3672563 0.7515816
vn 0.5983547 -0.06216591 0.798816
vn 0.1758128 -0.4435768 0.8687036
vn 0.2836093 -0.5018983 0.8171071
vn 0.06801632 -0.3852552 0.9203001
vn -0.1796494 -0.4613562 0.8688363
vn 0.9371971 -0.2650789 -0.2267039
vn 0.9676483 0.07756349 -0.2400848
vn 0.9864441 0.1304422 0.0995634
vn -0.4083537 0.8337098 0.3502761
vn -0.296189 0.8733109 0.3867818
vn 0.3416606 0.9397768 -0.009361865
vn 0.2749683 0.9485508 0.09550702
vn 0.8972891 0.3892111 0.2082954
vn 0.5906677 -0.1589091 0.7847519
vn 0.5743772 -0.06519269 0.8159907
vn -0.1063315 0.2730066 0.9561177
vn 0.2236949 0.3857622 0.8851353
vn 0.2901929 0.4842273 0.8254163
vn 0.1571968 0.287297 0.9448543
vn 0.3157474 -0.04306213 0.9478656
vn 0.5599978 0.462341 0.6874905
vn 0.7184588 0.1933271 0.6681628
vn 0.7931466 0.1725802 0.5706242
vn 0.8678344 0.1518334 0.4730856
vn 0.6564239 0.6549495 0.3537589
vn 0.5873901 0.6701036 0.4537995
vn 0.7254578 0.6397954 0.2537183
vn 0.6497223 0.7599416 -0.01869804
vn 0.3160706 0.8276218 0.4638336
vn 0.2082761 0.9573247 0.2003759
vn -0.1212447 0.9765007 0.178174
vn -0.000441134 0.7214054 0.6796252
vn 0.1325291 0.7203287 0.6808543
vn -0.1334113 0.722482 0.678396
vn -0.452494 0.4620619 0.7377141
vn -0.2834009 0.5381672 0.7937632
vn 0.6069583 -0.2526256 0.7535131
vn 0.8125476 -0.4081383 0.4161604
vn 0.934857 -0.1167128 0.3352917
vn -0.5205185 0.7941088 0.3137703
vn -0.7778573 0.4611735 0.4269156
vn -0.621587 0.3859566 0.6816651
vn 0.2139347 0.6896219 -0.691848
vn 0.3755754 0.5998756 -0.6817688
vn 0.1508944 0.2478972 -0.9569628
vn -0.8554299 0.03253341 -0.5168958
vn 0.6303488 -0.3770393 0.6677528
vn 0.6037511 -0.4886733 0.6298277
vn 0.7610133 -0.628768 -0.03132293
vn 0.6713347 -0.7404629 0.03200542
vn -0.06934734 -0.8574152 -0.4744088
vn -0.07589012 -0.9474841 -0.3106678
vn -0.6493918 -0.7459543 0.1477921
vn -0.3575413 -0.4382743 0.800043
vn -0.2569446 -0.6048515 0.7537467
vn -0.2208684 -0.819664 0.5138358
vn -0.12757 -0.8794755 0.4585289
vn -0.3141669 -0.7598524 0.5691427
vn -0.6998897 -0.5744687 0.4068566
vn -0.6310524 -0.6719383 0.3876491
vn -0.2850392 -0.9372903 0.1255059
vn -0.1566788 -0.9649264 0.210639
vn -0.4133997 -0.9096541 0.04037275
vn -0.4866145 -0.8139365 -0.2760168
vn -0.3993272 -0.8993669 -0.1779805
vn 0.1462148 -0.9832338 -0.001462333
vn 0.1257137 -0.9864416 0.1054947
vn 0.1667159 -0.9800261 -0.1084193
vn 0.4769012 -0.776343 -0.3672744
vn 0.4473435 -0.8698276 -0.2080475
vn 0.4684467 -0.8254605 0.2732852
vn 0.3309767 -0.8925503 0.3062817
vn 0.6059168 -0.7583707 0.2402887
vn 0.7877784 -0.4658885 0.3905021
vn 0.7294335 -0.5413141 0.4182174
vn 0.235038 -0.752 0.6032515
vn 0.1895817 -0.832405 0.520731
vn 0.2804943 -0.671595 0.6857719
vn 0.1435048 -0.3639107 0.898312
vn 0.1181338 -0.5491836 0.82731
vn -0.458138 -0.2716972 0.8463393
vn -0.7242892 -0.1387243 0.6753967
vn -0.7687271 -0.4769991 0.4260641
vn -0.7979211 -0.5128011 -0.3167917
vn -0.5739018 -0.7285061 -0.3740531
vn -0.06280456 -0.7673464 -0.6381498
vn 0.2387979 -0.5716333 -0.784991
vn 0.5064589 -0.6828584 -0.5265014
vn 0.8506918 -0.5170731 -0.09465127
vn 0.8461232 -0.3904629 0.3627869
vn 0.6569466 -0.2654053 0.7056779
vn 0.4306723 0.03269114 0.9019161
vn 0.1688758 -0.1786378 0.9693139
vn -0.4020602 -0.5233198 -0.7513214
vn -0.3702693 0.3754425 -0.8496726
vn -0.2484612 0.5072575 -0.8041599
vn -0.126653 0.6390725 -0.7586471
vn 0.7805669 -0.3477989 -0.5193756
vn 0.5372162 0.5101293 -0.6716896
vn -0.2068402 0.1087737 0.9723094
vn -0.1423189 0.9715872 -0.009587429
vn 0.04108485 0.9988073 0.02638301
vn -0.3257226 0.9443671 -0.04555787
vn 0.5452961 0.7535286 0.3454923
vn 0.6247646 0.7394408 0.2507918
vn 0.5187743 0.8505955 -0.08579362
vn -0.2740439 -0.5333626 0.8002652
vn -0.8594981 -0.3673273 0.3554344
vn -0.7981889 -0.3636383 0.4638312
vn -0.8902315 0.4225605 0.1700893
vn -0.2168571 0.8459383 0.476799
vn -0.2595568 0.7934136 0.5505679
vn -0.2732962 0.331332 0.8932215
vn -0.3958302 0.2836098 0.8734323
vn -0.1507622 0.3790542 0.9130108
vn -0.05816642 0.6820922 0.7289492
vn -0.6067467 0.3988349 0.6875967
vn -0.5568981 0.6533992 0.5127709
vn -0.6153868 0.6655908 0.4034422
vn -0.6738757 0.6777822 0.2941135
vn -0.8558478 0.1795462 0.4693445
vn -0.797632 0.1755253 0.5770391
vn -0.9140637 0.1835671 0.36165
vn -0.9792296 -0.08341592 0.01533758
vn -0.9775677 -0.06916692 0.1989407
vn -0.6927991 -0.08566546 0.7160243
vn -0.7368796 -0.3599494 0.5722281
vn -0.5049576 -0.588263 0.6316364
vn -0.3523663 -0.1138571 0.9193426
vn -0.4514506 -0.02954982 0.8918067
vn -0.253282 -0.1981643 0.9468786
vn -0.1741575 0.8984631 0.4030302
vn -0.2832318 0.9590474 -0.002789853
vn -0.5745373 0.8176469 0.03688532
vn -0.9808916 -0.09766492 -0.1682656
vn -0.8193986 -0.5609944 0.117776
vn -0.8443476 -0.4223913 -0.3296403
vn 0.3872129 -0.3554421 0.8283724
vn 0.5338596 -0.2297132 0.8137725
vn 0.8191097 -0.2653722 0.5085636
vn 0.0919555 -0.02738157 0.9953866
vn -0.3850647 -0.7114826 0.5549697
vn 0.3448644 0.1026881 0.9330186
vn -0.3407757 -0.3557798 0.8483905
vn -0.5562712 -0.6868607 0.4677442
vn -0.5019025 -0.2502037 0.8279445
vn -0.7802274 -0.3373507 0.5267254
vn 0.2424586 -0.3811537 0.8921522
vn 0.2357988 -0.0322699 0.9712659
vn 0.5592134 0.807649 0.09152396
vn 0.6912356 0.7208243 0.05104639
vn 0.4271912 0.8944738 0.1320015
vn 0.9321002 0.3083986 0.04651434
vn 0.6808646 0.6846234 -0.1838434
vn 0.9669117 0.2275857 -0.1152674
vn 0.8500352 0.304468 -0.4298132
vn 0.7120069 0.609305 -0.3489895
vn 0.9786435 -0.1594358 -0.1297577
vn 0.5938194 -0.3547347 0.7113789
vn 0.5752399 -0.470327 0.669247
vn 0.6635439 -0.7476828 -0.02607735
vn 0.6331598 -0.7580856 0.09430081
vn -0.04610364 -0.924327 -0.3788063
vn -0.707226 -0.6917062 0.1065356
vn -0.644301 -0.7477086 0.1606487
vn -0.2605717 -0.541709 0.7991582
vn -0.2233786 -0.7934446 0.5503308
vn -0.1310695 -0.8641711 0.4858284
vn -0.3156877 -0.7227181 0.6148332
vn -0.6899073 -0.545261 0.4596048
vn -0.6255094 -0.6485379 0.4337471
vn -0.1495243 -0.9681209 0.2009587
vn -0.398313 -0.9170662 0.01833875
vn -0.3836171 -0.9089917 -0.1051168
vn -0.3689212 -0.9009172 -0.2285723
vn 0.1556665 -0.9787496 -0.0530456
vn 0.1336045 -0.9887658 0.06702228
vn 0.1777285 -0.9687334 -0.1731135
vn 0.4396761 -0.8522294 -0.2835312
vn 0.3291131 -0.8970835 0.2948319
vn 0.6027755 -0.7684885 0.214679
vn 0.7807457 -0.4708668 0.3983673
vn 0.7206593 -0.5451261 0.4283545
vn 0.2164238 -0.7281706 0.6365882
vn 0.1783003 -0.8182555 0.5465043
vn 0.2545474 -0.6380857 0.7266721
vn 0.08687698 -0.490142 0.8673023
vn -0.5673356 -0.1343149 0.7995753
vn -0.4500559 -0.164409 0.8777354
vn -0.6846154 -0.1042207 0.7214152
vn -0.7543051 -0.4419842 0.4854625
vn -0.770151 -0.6357038 0.05242253
vn -0.5291581 -0.7308708 -0.431068
vn 0.898016 -0.3984285 -0.09063707
vn 0.8328033 -0.5287334 -0.16395
vn 0.9632288 -0.2681235 -0.01732415
vn 0.8408321 -0.3966074 0.3683801
vn 0.6123989 -0.2391424 0.7535108
vn 0.3580351 0.06331565 0.9315588
vn 0.239305 -0.003447533 0.9608885
vn 0.1205748 -0.07021072 0.9902182
vn -0.9378779 -0.2757227 0.210623
vn -0.2004224 0.05802302 0.9779899
vn 0.8247627 -0.3876447 0.368215
vn 0.7303864 -0.4506725 0.5132543
vn 0.0677781 -0.9228888 0.3790548
vn -0.1767447 -0.588004 0.7780289
vn -0.07188231 -0.5360073 0.8411475
vn -0.2816071 -0.6400006 0.7149103
vn -0.2923891 -0.8829848 0.345492
vn -0.2123755 -0.8724262 0.4401922
vn 0.2207816 -0.5878617 0.7782507
vn 0.312822 -0.7768009 0.5465555
vn 0.4205296 -0.7546577 0.4879798
vn 0.5282373 -0.7325146 0.4294041
vn 0.5052788 -0.3112095 0.7955116
vn 0.4000374 -0.3406281 0.8508482
vn 0.6105202 -0.2817909 0.7401749
vn 0.195718 -0.1350368 0.9713185
vn -0.1997751 -0.1719196 0.9554317
vn -0.0880824 -0.2433212 0.965938
vn -0.3114678 -0.1005181 0.9449254
vn -0.7276835 -0.6742195 0.1261145
vn -0.3724026 -0.8935434 0.2507918
vn 0.919139 -0.3246168 0.2231757
vn -0.2378031 -0.9675171 -0.08579234
vn 0.1002529 0.5912068 0.8002648
vn 0.7085166 0.6096481 0.3554342
vn 0.651181 0.5876238 0.4638311
vn 0.9762599 -0.134113 0.1700889
vn 0.4621041 -0.7410118 0.476799
vn 0.4869561 -0.6780476 0.550568
vn -0.1578621 -0.3082659 0.9178919
vn 0.01343997 -0.2355998 0.9717572
vn 0.3605657 -0.2333753 0.8932215
vn 0.4629778 -0.1508896 0.8734322
vn 0.2581535 -0.315861 0.9130108
vn 0.1543656 -0.6881552 0.6979484
vn 0.2613558 -0.6327131 0.7289495
vn 0.6988379 -0.1970697 0.6875966
vn 0.7281602 -0.4548063 0.5127709
vn 0.7876007 -0.4487731 0.4034421
vn 0.8470412 -0.4427398 0.2941134
vn 0.8701212 0.08718568 0.4693446
vn 0.8134075 0.07344531 0.577039
vn 0.9268349 0.1009261 0.3616503
vn 0.9110833 0.3610397 0.1989411
vn 0.6346195 0.2908052 0.716024
vn 0.5938454 0.5655994 0.572228
vn 0.303821 0.7132519 0.6316364
vn 0.301558 0.2149151 0.9193425
vn 0.4214697 0.1644516 0.8918066
vn 0.1816462 0.2653787 0.9468784
vn -0.03317691 0.1185537 0.9923933
vn -0.3291642 -0.380932 0.8640265
vn -0.3722252 -0.6273437 0.6840236
vn 0.04737541 -0.7435972 0.6669473
vn 0.4372521 -0.803976 0.40303
vn 0.5595266 -0.8288077 -0.002790201
vn 0.794558 -0.6060669 0.03688499
vn 0.6118252 0.7821757 0.1177758
vn -0.4362946 0.8855734 0.1593953
vn 0.2801172 0.9578564 -0.06360401
vn 0.1872665 0.9742128 0.01784236
vn 0.8669826 0.3968937 0.238539
vn 0.7855514 0.4948294 0.3715548
vn 0.3651385 0.001784671 0.9255521
vn 0.3359824 0.09689459 0.9368711
vn -0.4764472 0.2219725 0.828372
vn -0.3745957 0.3861042 0.8429719
vn -0.04425934 0.5185722 0.8434693
vn 0.03043196 0.614003 0.7887168
vn -0.1189507 0.4231413 0.8982217
vn -0.01163902 0.00446583 0.9921505
vn 0.05058311 0.1122166 0.9923955
vn 0.3281927 0.5991569 0.7302744
vn 0.5003347 0.3458065 0.7937778
vn 0.5995471 0.3193457 0.7232144
vn 0.6987596 0.2928848 0.6526511
vn 0.5003756 0.754003 0.4075541
vn 0.4062284 0.7757998 0.482818
vn 0.5945227 0.7322062 0.3322903
vn 0.5885791 0.8077009 0.03455402
vn 0.1341154 0.9074294 0.3982273
vn 0.09441569 0.9905692 0.09928873
vn -0.2174783 0.9760134 -0.01004817
vn -0.2225898 0.8018322 0.5383635
vn -0.09501082 0.8132567 0.5740963
vn -0.3501688 0.7904078 0.5026305
vn -0.6588396 0.5116863 0.5163155
vn -0.5154778 0.6098816 0.601936
vn -0.5782987 0.05784079 0.8137721
vn -0.4681778 -0.2271781 0.8539319
vn -0.07386115 -0.1032849 0.9919056
vn 0.3942946 -0.09332525 0.9142331
vn 0.6912728 -0.2723868 0.6692887
vn 0.8148708 0.01584307 0.5794261
vn 0.9484139 0.298958 0.1055232
vn -0.8022014 0.4134909 0.430695
vn 0.109836 -0.4122815 0.9044114
vn 0.9845651 -0.08380765 0.1536484
vn -0.8610051 0.005727756 0.508564
vn 0.02255786 -0.03939582 0.9911898
vn -0.09593155 -0.001654749 0.9953865
vn -0.7028704 -0.2866495 0.6510032
vn -0.6460387 -0.2040052 0.7249095
vn -0.3826652 0.9034077 0.1273938
vn -0.4954805 0.8675712 0.04265229
vn 0.1523253 0.7945309 0.5549699
vn -0.01832676 0.766322 0.6421953
vn -0.3652151 0.7144371 0.5818195
vn -0.4666963 0.6352915 0.6153042
vn -0.2637338 0.7935827 0.5483348
vn -0.2698499 0.9392442 0.2121352
vn -0.7183923 0.6114279 0.2925842
vn -0.7025779 0.5597709 0.4393641
vn -0.7342067 0.6630849 0.1458043
vn -0.8702958 0.1997637 0.4332164
vn -0.813996 0.2753194 0.5114781
vn -0.9265957 0.124208 0.3549547
vn -0.9076831 -0.18153 0.3783626
vn -0.6332505 0.1847135 0.7515815
vn -0.5892069 -0.1213609 0.7988159
vn -0.2555985 -0.2912708 0.9164099
vn -0.297778 -0.2020026 0.9330184
vn -0.3015136 0.3698112 0.8687035
vn -0.4218865 0.3928713 0.8171071
vn -0.1811406 0.3467511 0.9202998
vn 0.217479 0.4420528 0.8483902
vn 0.0319982 0.4940645 0.8688363
vn 0.3229774 0.8227397 0.4677446
vn -0.213419 -0.380539 0.8998014
vn 0.1410473 -0.07713688 0.9869932
vn 0.5137936 0.1034613 0.8516524
vn 0.4029598 0.3900411 0.827944
vn 0.2113752 -0.4243875 0.8804634
vn 0.6419926 0.5571405 0.5267257
vn 0.9698374 0.2436715 -0.006294216
vn 0.8605472 -0.1440456 0.4885788
vn -0.2037787 -0.543039 0.814606
vn -0.6372885 -0.7358557 0.2288662
vn -0.620122 -0.693572 0.3447961
vn -0.185849 0.3978422 0.8773003
vn -0.3462065 0.2901811 0.8921525
vn -0.6466339 0.1999367 0.7240208
vn -0.719111 0.09426241 0.6884722
vn -0.5741569 0.305611 0.7595695
vn -0.8944787 0.07026789 0.4415542
vn -0.930871 -0.2606167 0.2248437
vn -0.9123433 -0.2265539 0.3410325
vn -0.9493988 -0.2946796 0.108655
vn -0.8325949 -0.5538263 -0.007883685
vn -0.7406485 -0.3851567 0.5505399
vn -0.6029553 -0.6512883 0.460726
vn -0.3188011 -0.7211515 0.6150661
vn -0.5052852 -0.2185355 0.8241634
vn -0.6196821 -0.2001034 0.7589155
vn -0.3908884 -0.2369677 0.8894114
vn -0.04127966 -0.03016497 0.9797245
vn -0.2345397 -0.04041614 0.971266
vn -0.02549151 0.5055033 0.862448
vn 0.3483994 -0.2425044 0.9054333
vn 0.1519804 -0.01991381 0.9881829
vn 0.3547181 0.3292275 0.875091
vn -0.4031915 0.8693177 0.2858728
vn 0.1143793 0.2902406 0.9500936
vn 0.12688 0.3396395 0.930355
vn 0.5459978 -0.7431595 0.386782
vn -0.04203082 -0.9990724 -0.009361775
vn 0.02419884 -0.9873046 0.09550724
vn -0.7955202 -0.5753853 0.04651443
vn -0.7379377 -0.6419196 0.208296
vn -0.6110821 -0.02680935 0.7847521
vn -0.5672611 -0.1112364 0.815991
vn 0.2486899 -0.0458385 0.9479061
vn 0.1837832 -0.2281727 0.9561176
vn -0.09680881 -0.4352928 0.8851354
vn -0.1304809 -0.549238 0.8254165
vn -0.06313676 -0.3213477 0.9448542
vn -0.2784702 0.06495626 0.9501333
vn -0.3140168 -0.05426174 0.9478656
vn -0.3943067 -0.6098189 0.6874905
vn -0.6265817 -0.4011904 0.6681629
vn -0.704048 -0.4039574 0.5706245
vn -0.7815143 -0.4067245 0.4730862
vn -0.4280913 -0.8225504 0.3537589
vn -0.3577036 -0.8161584 0.4537992
vn -0.498479 -0.8289425 0.2537186
vn -0.3900079 -0.9206216 -0.01869795
vn -0.05149065 -0.8844249 0.4638334
vn 0.09042849 -0.9755368 0.2003763
vn 0.4103651 -0.8943458 0.1781745
vn 0.2181914 -0.6876179 0.6796254
vn 0.09109991 -0.726731 0.6808546
vn 0.3452829 -0.6485047 0.6783962
vn 0.5708671 -0.303912 0.7377141
vn 0.432636 -0.4275113 0.7937633
vn 0.3135965 0.1364957 0.9396947
vn 0.1393808 0.3890383 0.9106164
vn -0.2429237 0.1841743 0.9524011
vn -0.6549031 0.0576177 0.7535133
vn -0.8978468 0.1438143 0.4161594
vn -0.9264776 -0.170936 0.3352911
vn -0.8531027 -0.5088511 -0.1152671
vn 0.0490027 -0.9523257 -0.3011222
vn 0.7090983 -0.1803126 0.6816649
vn -0.4534645 0.4338346 0.7785612
vn -0.9811179 -0.1434251 -0.1297575
vn 0.6557369 0.2339787 0.7178184
vn 0.6182019 0.7858294 -0.01727603
vn -0.6732011 0.1589294 0.7113788
vn -0.6903823 0.2747376 0.669247
vn 0.4654274 0.8729281 0.1065354
vn 0.3885319 0.9073229 0.1606488
vn 0.2187068 0.4605681 0.8381637
vn 0.08489051 0.5950956 0.7991588
vn -0.02655917 0.8238608 0.5503311
vn -0.1359121 0.8634224 0.4858289
vn 0.08279377 0.7842992 0.6148334
vn 0.493124 0.7280862 0.4596055
vn 0.4005536 0.8071057 0.4337477
vn -0.02340097 0.9813087 0.1096486
vn -0.1496975 0.9680942 0.2009582
vn 0.1028956 0.9945231 0.01833894
vn -0.4438599 0.8860989 -0.05304625
vn -0.4258507 0.9023077 0.06702171
vn -0.461869 0.86989 -0.1731142
vn -0.6956015 0.6532801 0.2547558
vn -0.584563 0.7558836 0.2948325
vn -0.80664 0.5506766 0.2146792
vn -0.8515979 0.3021495 0.4283535
vn -0.426141 0.6288685 0.6365883
vn -0.41699 0.7262588 0.5465049
vn -0.435292 0.531478 0.7266719
vn -0.1899781 0.261133 0.9263865
vn -0.2307823 0.44105 0.867303
vn 0.352523 0.3260407 0.8771687
vn 0.6202745 0.28942 0.7290374
vn 0.5856943 0.6490667 0.4854633
vn 0.5423228 0.8385332 0.05242209
vn -0.65602 0.04312119 0.7535107
vn -0.3202021 -0.1695255 0.9320578
vn -0.1491739 0.08121587 0.98547
vn 0.8108929 0.5459769 0.2106228
vn 0.2421895 -0.06816611 0.9678314
vn 0.4694698 -0.774487 0.4239906
vn 0.4848365 -0.4190953 0.767654
vn -0.223044 -0.670975 0.7071379
vn -0.130521 -0.6141789 0.7682618
vn -0.8456141 -0.1095883 0.4888878
vn -0.760451 -0.06542615 0.646091
vn -0.3770348 0.694829 0.6041801
vn -0.3425546 0.6445066 0.6835698
vn 0.4771796 0.5200593 0.6814043
vn 0.3848554 0.4221759 0.8207642
vn 0.06280759 0.3226732 0.9350153
vn -0.005451688 0.2162845 0.9763151
vn 0.1310669 0.4290618 0.8937156
vn -0.001685552 0.7623777 0.6350557
vn -0.05753351 0.6911411 0.7204261
vn -0.3027466 0.1665096 0.9384131
vn -0.4901825 0.3682426 0.7900117
vn -0.5897918 0.3259522 0.7282708
vn -0.6894011 0.2836617 0.66653
vn -0.4612042 -0.1887962 0.8582793
vn -0.3669872 -0.1401608 0.9196061
vn -0.5554213 -0.2374316 0.7969526
vn -0.6229386 -0.5654079 0.5082772
vn -0.5410277 -0.5145892 0.665197
vn -0.08654847 -0.2760491 0.9572389
vn -0.03799796 -0.5573828 0.8293857
vn 0.2950703 -0.6809788 0.6627047
vn 0.2739874 -0.6175631 0.7372562
vn 0.2614634 -0.08397704 0.9523136
vn 0.1342888 -0.06976576 0.9884833
vn 0.388638 -0.09818832 0.9161439
vn 0.6803617 0.1041444 0.6990963
vn 0.5417953 0.1009187 0.8344299
vn 0.5695039 0.6179428 0.5420443
vn 0.4424555 0.8247581 0.3521468
vn 0.0541624 0.8336142 0.5496851
vn -0.4115151 0.7451513 0.5247903
vn -0.7150287 0.6560183 0.241607
vn -0.9307772 -0.1537504 0.3316846
vn -0.8929893 -0.430681 0.1307058
vn -0.7048495 -0.6162266 0.3513573
vn -0.06825942 -0.904928 0.3870906
vn -0.2052273 -0.8615572 0.4643285
vn 0.06870845 -0.9482987 0.3098527
vn 0.3161532 -0.7443944 0.5881532
vn 0.8189282 0.1073701 0.5637627
vn -0.1459797 0.9537807 0.2626641
vn -0.03188376 0.860385 -0.5086464
vn -0.5129242 -0.851299 0.1104482
vn 0.8528484 0.4292766 0.2972729
vn -0.6290751 -0.2210088 0.7452649
vn -0.7617131 -0.2082398 0.5738333
vn -0.313168 -0.6606237 0.6664196
vn -0.4315033 -0.6870191 0.584645
vn -0.2460483 -0.7816278 -0.5442417
vn -0.4201024 -0.7456571 -0.5172132
vn -0.4491482 -0.05653084 -0.887441
vn -0.520018 -0.08903859 -0.8495018
vn -0.9591562 0.1286057 -0.2519523
vn -0.921487 -0.2710726 -0.278175
vn -0.9007518 -0.0455978 -0.4319341
vn -0.7707102 0.002446393 -0.5990448
vn -0.6406687 0.05049059 -0.7661555
vn -0.689382 -0.3894494 -0.580954
vn -0.7900836 -0.4378642 -0.4290022
vn -0.5886803 -0.3410347 -0.7329057
vn -0.3248003 -0.3882369 -0.8499351
vn -0.4419779 -0.4417573 -0.7807087
vn -0.7445037 -0.6580715 -0.1124997
vn -0.5897319 -0.7956517 -0.1384008
vn -0.502045 -0.8379068 0.04658223
vn -0.4143581 -0.8801619 0.2315653
vn -0.6817086 -0.5691241 0.4192815
vn -0.7847865 -0.5618995 0.2614938
vn -0.5786306 -0.5763487 0.5770692
vn -0.5075707 -0.3805006 0.7730403
vn -0.9179713 -0.3533956 0.1801115
vn -0.8943511 -0.1954708 0.4024019
vn -0.9549586 0.03032177 0.2951861
vn -0.5330472 0.2198694 -0.8170178
vn -0.3782784 -0.0240231 -0.9253801
vn -0.1194422 -0.101347 -0.987655
vn -0.2076227 -0.3347165 -0.9191614
vn -0.07199419 -0.8175984 -0.5712703
vn -0.0656794 -0.9654889 0.2520265
vn -0.1948328 -0.6342283 0.7481942
vn 0.1360655 -0.4906276 -0.8606804
vn 0.5727515 0.7877747 -0.2266421
vn 0.5412581 0.8079574 -0.2298588
vn 0.4120739 0.6140446 -0.67316
vn -0.1700806 0.5106846 -0.8427775
vn -0.1614515 0.4609037 -0.8707281
vn -0.5059497 0.8624998 0.01044191
vn 0.3032067 0.1835714 -0.9350761
vn -0.742696 0.1902822 -0.6420244
vn -0.6451048 0.6294948 0.4331006
vn -0.1163193 -0.7846671 -0.5803891
vn -0.1630012 -0.8860813 -0.4339246
vn -0.8247553 -0.5564763 -0.009429453
vn -0.7792556 -0.6248811 0.04779413
vn -0.5016882 -0.335419 0.7734836
vn -0.4416394 -0.5153956 0.7343854
vn -0.4205927 -0.7602323 0.476933
vn -0.3352588 -0.8439688 0.4187101
vn -0.5059266 -0.6764958 0.5351558
vn -0.8229265 -0.42885 0.3512801
vn -0.7750307 -0.5409986 0.3265699
vn -0.3386327 -0.9321702 0.1280104
vn -0.5519223 -0.8303418 -0.07690511
vn -0.5219065 -0.8204373 -0.197418
vn -0.4918906 -0.8105329 -0.3179309
vn -0.01278001 -0.9881011 -0.09213832
vn -0.04994757 -0.9984607 0.02411416
vn 0.02438756 -0.9777415 -0.2083908
vn 0.3673699 -0.8051734 -0.4275736
vn 0.3136237 -0.9062882 -0.2833406
vn 0.1309885 -0.9520799 0.2763799
vn 0.010924 -0.7785263 0.6132649
vn -0.03171661 -0.8568375 0.5146101
vn 0.05356462 -0.7002151 0.7119197
vn -0.1007385 -0.5298482 0.8420883
vn -0.5617371 -0.1554424 0.8125817
vn -0.7632151 0.007851572 0.6460968
vn -0.8708223 -0.3167014 0.3759903
vn -0.8702549 -0.4880714 -0.06665304
vn -0.8054286 -0.3642471 -0.4675563
vn -0.5954987 -0.6069521 -0.5262989
vn -0.06963745 -0.6832529 -0.7268536
vn 0.2326043 -0.54023 -0.8087316
vn 0.4211162 -0.7040585 -0.5718066
vn -0.9895685 -0.1099345 0.09310472
vn -0.7792131 0.6134075 -0.128679
vn -0.7078702 0.6608765 -0.2168842
vn -0.6365274 0.7083456 -0.3050894
vn -0.318789 -0.4143932 -0.8524387
vn -0.1528224 0.4111229 -0.8986787
vn 0.09732459 0.6273882 -0.7726008
vn 0.7170324 -0.458307 -0.525185
vn 0.5097647 0.82814 -0.2330754
vn 0.5868002 0.8069239 -0.06737392
vn 0.3769844 0.9169507 0.05897307
vn 0.4791366 0.872712 0.09381841
vn 0.2748322 0.9611894 0.02412773
vn -0.5543121 0.2762856 -0.7851143
vn -0.5927178 0.29605 -0.7467973
vn 0.4110369 0.1377253 -0.9011551
vn -0.1900743 0.8101555 -0.5545447
vn 0.7936746 0.1856954 -0.5793081
vn 0.2448829 0.9095987 0.3203727
vn 0.2604961 0.8730318 0.4122587
vn 0.8288434 0.270512 0.4497953
vn 0.7311554 0.2945695 0.6153378
vn 0.4471973 0.4536933 0.7592716
vn 0.3413015 0.4296278 0.8360223
vn 0.553093 0.4777588 0.6825208
vn 0.584654 0.7336669 0.3231576
vn 0.5188156 0.7397045 0.4285645
vn 0.07132526 0.5680147 0.819922
vn 0.008504088 0.7918616 0.6106414
vn -0.1078793 0.8060154 0.5684884
vn -0.2242627 0.8201691 0.5263354
vn 0.9265314 0.2464546 0.2842528
vn 0.9045471 0.425013 0.03403648
vn 0.6504924 0.7276292 0.2177508
vn 0.2292696 0.9461656 0.2284868
vn -0.1236849 0.9923173 -0.002921288
vn -0.3180668 0.9152005 0.2474702
vn 0.4991209 0.8616235 -0.0921049
vn 0.3603637 0.5105457 -0.7806928
vn 0.2614442 0.464279 -0.8372388
vn 0.1625248 0.4180123 -0.8937848
vn -0.6860837 0.7270688 0.02569393
vn -0.6311235 0.3158144 -0.7084804
vn 0.482206 -0.3183407 -0.8161719
vn -0.3039786 -0.6384603 -0.7055649
vn -0.3475538 -0.6344193 -0.690448
vn -0.2604034 -0.6425014 -0.7206817
vn -0.0536391 -0.7556754 -0.6446718
vn -0.1545978 -0.7618573 -0.6290255
vn 0.04731964 -0.7494937 -0.6603182
vn -0.5100414 -0.3598751 -0.7812475
vn -0.6409124 -0.2751087 -0.7166217
vn -0.5828094 -0.122012 -0.7836685
vn -0.750172 0.414431 0.5152562
vn -0.1737719 -0.3323592 -0.9270064
vn 0.1901544 0.9101173 0.3464764
vn 0.3085515 0.8993592 0.3097564
vn 0.5865707 0.7214966 -0.3679369
vn 0.598698 0.7514803 -0.24762
vn 0.8325099 -0.09623517 -0.5135661
vn 0.9261518 -0.01594815 -0.3768137
vn 0.8239276 -0.4203069 0.3666898
vn 0.8628523 -0.3295606 0.3832437
vn 0.4071659 0.1540178 0.8791862
vn 0.5543275 0.2474328 0.7946686
vn 0.8013515 0.2207246 0.539845
vn 0.8528091 0.2866997 0.4364858
vn 0.7498939 0.1547494 0.6432043
vn 0.6638137 -0.2772261 0.683385
vn 0.751594 -0.2112368 0.6248882
vn 0.969107 0.1643773 0.1838799
vn 0.9801991 -0.1444615 0.1354277
vn 0.9738603 -0.1889557 0.01922835
vn 0.9675215 -0.2334499 -0.09697096
vn 0.9230584 0.3171981 -0.1798477
vn 0.9330173 0.3541839 -0.06350227
vn 0.9130995 0.2802123 -0.2961931
vn 0.650615 0.3597291 -0.6429456
vn 0.7469134 0.4333567 -0.5043038
vn 0.7925028 0.6070789 0.05826377
vn 0.6108254 0.7814642 -0.1273032
vn 0.2749076 0.9559468 -0.02382178
vn 0.3592202 0.9329175 0.02501591
vn 0.6390768 0.6275065 0.4244206
vn 0.73866 0.5728422 0.355293
vn 0.5394936 0.6821707 0.4935482
vn 0.2411935 0.5700678 0.7611321
vn 0.4261291 0.5687941 0.7034823
vn 0.2600043 0.06060284 0.9637038
vn 0.2056859 -0.2423521 0.9481344
vn 0.5760335 -0.3432153 0.7418818
vn 0.7850029 -0.5110531 0.350136
vn 0.6936986 -0.7202224 -0.007870562
vn 0.8441095 -0.49942 -0.1950866
vn 0.738868 -0.1765222 -0.6503184
vn 0.5028492 -0.0443443 -0.8632359
vn 0.5543166 0.2861015 -0.7815875
vn 0.1975376 0.8224505 -0.507885
vn 0.3415842 0.7602853 -0.5525274
vn 0.05349109 0.8846157 -0.4632427
vn 0.190595 0.9789761 -0.07265946
vn 0.07175732 0.9208754 0.3831963
vn -0.1762544 0.7150728 0.6764653
vn 0.05625785 0.5713415 0.818782
vn 0.6008357 -0.5342618 -0.5946098
vn 0.2113087 0.4421864 -0.8716764
vn -0.5247066 0.03108466 -0.8507153
vn -0.1882152 0.9740899 0.1253954
vn -0.3991379 -0.2125787 -0.8919076
vn -0.3314231 -0.2826388 -0.8948585
vn 0.2098453 -0.6727549 0.7094828
vn 0.2630069 -0.7782317 0.5272932
vn 0.6387028 -0.3610157 0.6795045
vn 0.9111187 -0.1744288 -0.3734131
vn 0.9171447 -0.2793158 -0.1927045
vn 0.3760676 -0.3583038 -0.8545125
vn -0.0234708 -0.8645414 -0.4583024
vn 0.1533317 -0.9167349 -0.368899
vn 0.5299342 -0.7933158 -0.2996998
vn 0.341153 -0.7973568 -0.4978321
vn 0.2981289 -0.6568415 -0.6576729
vn 0.2551048 -0.5163263 -0.8175137
vn 0.6482401 -0.4993999 -0.5429645
vn 0.6877351 -0.6092244 -0.394799
vn 0.608745 -0.3895754 -0.6911299
vn 0.6148964 -0.107279 -0.7674676
vn 0.6795881 -0.219705 -0.6999213
vn 0.8235192 -0.5662923 -0.03360298
vn 0.9231707 -0.3842029 -0.01199589
vn 0.8862544 -0.07601306 0.420067
vn 0.8886963 -0.2519254 0.383083
vn 0.6182883 -0.6029217 0.4675796
vn 0.6670584 -0.6806888 0.3028131
vn 0.5695181 -0.5251547 0.6323462
vn 0.3274808 -0.5262331 0.7847515
vn 0.516211 -0.8407474 0.1633102
vn 0.3161684 -0.8837087 0.3451036
vn 0.1369475 -0.9733623 0.1838782
vn -0.2002733 -0.8123478 -0.5477058
vn -0.2637083 -0.3526989 -0.8978093
vn -0.1470984 -0.3174519 -0.9367958
vn 0.1333459 0.05865546 -0.9889798
vn 0.1317264 0.03235887 -0.9907578
vn 0.1349654 0.08495206 -0.9872019
vn 0.5502048 0.005147052 -0.8350139
vn 0.9084664 0.1851092 -0.3747311
vn 0.9094071 0.4101485 0.06897072
vn 0.8838125 0.09989931 0.4570509
vn 0.02885362 -0.6125162 0.7899313
vn -0.2960975 -0.6789174 0.6718612
vn -0.2616237 -0.7920793 0.5154727
vn -0.2271498 -0.9052411 0.3590842
vn -0.1489619 0.01499799 -0.97751
vn -0.2484352 0.124 -0.9606789
vn -0.04948863 -0.09400405 -0.994341
vn 0.6060784 0.3611878 -0.7086694
vn -0.0192431 0.8458271 -0.53311
vn -0.1315985 0.9009327 -0.3479141
vn -0.2439539 0.9560384 -0.1627183
vn 0.5104167 -0.1923609 -0.8381361
vn -0.01795906 0.8299074 0.5576122
vn -0.09736723 0.8989846 0.3676976
vn -0.3895434 0.4876459 0.7675092
vn -0.4664981 0.5711755 0.67538
vn -0.9628026 0.01995977 -0.2007331
vn -0.9505959 0.1945258 -0.2419238
vn -0.4795843 0.1285134 -0.8636924
vn -0.5065668 0.206512 -0.8371039
vn -0.1531613 0.8268416 -0.5411789
vn -0.5173787 0.7660118 -0.3815038
vn -0.3707306 0.7051328 -0.6044391
vn -0.3700223 0.5293698 -0.7319198
vn -0.369314 0.3536068 -0.8594006
vn -0.7020512 0.4423051 -0.5252771
vn -0.7038497 0.5853831 -0.4023957
vn -0.7002527 0.2992271 -0.6481584
vn -0.7420456 0.00978937 -0.6541295
vn -0.7838978 0.1409048 -0.6046901
vn -0.7699955 0.6376202 -0.0233992
vn -0.8768511 0.477376 0.05695904
vn -0.8266903 0.4539341 0.258522
vn -0.7765296 0.4304923 0.460085
vn -0.4695296 0.7575141 0.4124801
vn -0.5433326 0.802982 0.2449684
vn -0.3957267 0.7120462 0.5799919
vn -0.08292475 0.6662301 0.7360314
vn -0.1293789 0.7178317 0.6840897
vn -0.4108426 0.9104337 0.0481557
vn -0.1767754 0.9680618 0.177783
vn -0.02596974 0.9992644 -0.02821607
vn 0.1396134 0.4759622 -0.8458822
vn 0.1504005 0.6458315 -0.7485195
vn 0.1288263 0.3060929 -0.9432449
vn -0.2064247 0.09525222 -0.962424
vn -0.2174094 0.2423882 -0.9455057
vn -0.4526017 0.05051478 -0.8902808
vn -0.5009364 -0.2173591 -0.8377456
vn -0.7001935 -0.1213261 -0.7035688
vn -0.9750093 -0.1546063 -0.1595424
vn -0.9068288 -0.2767833 0.3178876
vn -0.7836201 0.1048442 0.6123294
vn -0.3125886 0.4041164 0.8596385
vn -0.06390851 0.3750826 0.9247858
vn -0.0364706 0.6146285 0.7879732
vn 0.1701841 0.767814 0.6176561
vn 0.4701746 0.7688271 0.4334059
vn 0.4146124 0.8487523 0.2631819
vn 0.3590503 0.9286774 0.09295791
vn -0.1954399 -0.05188374 -0.9793423
vn -0.4094357 0.03836136 0.9115322
vn 0.6009321 0.7007222 -0.3845375
vn 0.9541636 -0.2593141 -0.1494261
vn -0.1796796 0.4063467 -0.8958781
vn 0.3532527 -0.4287814 -0.83148
vn -0.4030641 0.1315254 -0.9056713
vn 0.4355688 -0.08542122 -0.8960932
vn 0.5730296 -0.04271071 -0.7999001
vn 0.7655895 -0.5096909 -0.3925402
vn 0.01002593 0.5098594 -0.8601993
vn 0.2564473 0.4374937 -0.8618783
vn -0.5728794 -0.4089735 -0.7015284
vn -0.4957799 -0.3852239 -0.7783346
vn 0.07216972 -0.6416883 -0.7635625
vn 0.1789692 -0.7238029 -0.6410269
vn -0.322164 -0.9085581 -0.2659558
vn 0.3707961 0.1828022 -0.9105458
vn 0.3706249 -0.1852268 -0.9101254
vn -0.5194899 0.1551961 -0.8402645
vn -0.3869194 -0.09992141 -0.9166838
vn -0.9043369 0.02021599 -0.4263405
vn 0.2498632 -0.439882 -0.8625962
vn 0.01917965 -0.5077758 -0.8612757
vn 0.1838285 0.7210877 -0.642805
vn 0.08188835 0.6362585 -0.7671176
vn -0.5450599 0.4385875 -0.7145283
vn -0.6228868 0.4525437 -0.6271615
vn -0.3356787 0.9084553 -0.2490561
vn -0.4050459 -0.1286894 -0.9051944
vn 0.4716254 0.1054449 -0.8754718
vn 0.4326056 0.09467636 -0.8965985
vn 0.6892453 0.1564151 -0.7074427
vn -0.1776602 -0.4084899 -0.895306
vn 0.3497767 0.4201462 -0.8373371
vn 0.765589 0.5096906 -0.3925418
vn 0.2857687 -0.8059175 -0.5184913
vn -0.09729807 0.3820767 -0.9189943
vn 0.7104905 -1.971454E-07 -0.7037069
vn -0.2963003 1.026961E-07 -0.9550949
vn -0.649979 -0.4327232 -0.6247223
vn 0.2424969 0.2302884 -0.9424238
vn -0.7007137 0.4664999 -0.5397947
vn 0.242497 -0.2302883 -0.9424238
vn 0.2857686 0.8059168 -0.5184924
vn -0.09729791 -0.3820762 -0.9189945
vn 0.806477 0.1229122 -0.5783489
vn 0.5653247 0.2182994 -0.795458
vn 0.9553769 0.01346512 -0.2950827
vn 0.07064896 -0.8149625 -0.5435459
vn 0.08626027 -0.7099859 -0.6989129
vn 0.05503765 -0.9199392 -0.3881789
vn 0.09094767 -0.4799096 -0.8725911
vn 0.093535 -0.3958589 -0.9135354
vn 0.08756474 -0.5597622 -0.8240137
vn 0.07506482 -0.05264095 -0.9957159
vn 0.07526277 -0.06462243 -0.9950675
vn 0.07486686 -0.04065947 -0.9963643
vn 0.03717721 0.3123812 -0.9476688
vn 0.03941294 0.2607305 -0.9646068
vn 0.03494148 0.3640319 -0.9307308
vn 0.7239886 -0.156693 -0.6717796
vn 0.3995305 -0.05653514 -0.914975
vn 0.7086272 -0.1523649 -0.6889358
vn 0.8472695 -0.2005479 -0.4918484
vn 0.2631938 -0.01692152 -0.9645946
vn 0.3785942 -0.05113833 -0.924149
vn 0.04892445 0.0357198 -0.997797
vn 0.02290757 0.04305497 -0.9988101
vn 0.07494134 0.02838464 -0.9967839
vn -0.228073 0.0966056 -0.9681169
vn -0.1930803 0.08708324 -0.9773108
vn -0.2630657 0.106128 -0.958923
vn -0.7184201 -0.2124784 -0.6623636
vn -0.5320216 -0.1554486 -0.8323393
vn -0.7012406 -0.2060851 -0.6824885
vn -0.7904695 -0.2314776 -0.5670768
vn -0.2906534 -0.06844939 -0.9543769
vn -0.4559737 -0.1269157 -0.8808975
vn 0.04692619 0.06080096 -0.9970462
vn -0.1309918 -0.007841055 -0.9913524
vn 0.1229551 0.090175 -0.9883069
vn 0.1469764 0.09801601 -0.9842717
vn -0.6155665 0.554396 -0.5538239
vn -0.5954639 0.5092564 -0.621354
vn -0.6356692 0.5995356 -0.4862939
vn -0.4720979 0.3218817 -0.8205327
vn -0.4649552 0.3109222 -0.8289415
vn -0.4792406 0.3328411 -0.812124
vn -0.2434732 0.04158888 -0.9668142
vn -0.2833118 0.09184556 -0.9546198
vn -0.2036346 -0.008667788 -0.9790086
vn 0.03312875 -0.2404159 -0.9638613
vn -0.03922895 -0.1607981 -0.9862074
vn 0.1054865 -0.3200338 -0.9415153
vn 0.4548857 0.5893379 -0.6675376
vn 0.4596286 0.5961168 -0.6583208
vn 0.4501428 0.5825591 -0.6767543
vn 0.291518 0.3163757 -0.9015679
vn 0.3157738 0.349928 -0.8819509
vn 0.2672623 0.2828234 -0.921185
vn 0.1130958 0.02896501 -0.9914695
vn 0.1478181 0.07506013 -0.9861621
vn 0.07837349 -0.0171301 -0.9967769
vn -0.06715513 -0.2482698 -0.9651265
vn -0.03757579 -0.2112061 -0.976719
vn -0.09673447 -0.2853335 -0.953534
vn 0.4535965 -0.5931007 -0.6647233
vn 0.4462856 -0.5779619 -0.6832197
vn 0.4609074 -0.6082394 -0.6462269
vn 0.2832684 -0.3045463 -0.9083521
vn 0.2640469 -0.2695684 -0.9260735
vn 0.3024899 -0.3395242 -0.8906308
vn 0.09975062 -0.01069865 -0.9949549
vn -0.04470807 0.2117466 -0.9763014
vn 0.06629792 0.03963208 -0.9970124
vn 0.1230757 -0.05091939 -0.9910901
vn -0.09692493 0.2904688 -0.9519629
vn -0.07835383 0.2600752 -0.9624041
vn 0.8528316 0.1951214 -0.4843614
vn 0.7044879 0.1608644 -0.6912449
vn 0.3793979 0.0555759 -0.9127926
vn 0.506321 0.08225451 -0.8584133
vn 0.2524749 0.02889729 -0.9671718
vn 0.06236698 -0.03000624 -0.9972766
vn 0.08739184 -0.02541845 -0.9958497
vn 0.03734213 -0.03459404 -0.9987035
vn -0.2180936 -0.09144329 -0.9704449
vn -0.2642689 -0.0988699 -0.9593679
vn -0.1719183 -0.08401668 -0.981522
vn -0.5777683 -0.5069925 -0.6301167
vn -0.6182786 -0.5652543 -0.5460944
vn -0.537258 -0.4487306 -0.714139
vn -0.4123059 -0.2532044 -0.8751522
vn -0.2405199 -0.04858457 -0.9694275
vn -0.3686255 -0.1978582 -0.9082772
vn -0.3998621 -0.2387838 -0.8849252
vn 0.02609124 0.2245098 -0.9741225
vn -0.165034 0.03716081 -0.9855876
vn 0.1402649 0.3286099 -0.9339921
vn 0.05227508 0.2510086 -0.9665723
vn -0.7430083 0.2343573 -0.6211431
vn -0.7914588 0.2560934 -0.5549856
vn -0.6945576 0.2126212 -0.6873006
vn -0.5457652 0.1668687 -0.8209592
vn -0.5592505 0.172851 -0.8107783
vn -0.5322798 0.1608864 -0.83114
vn -0.2627302 0.05808001 -0.9623204
vn -0.2280454 0.04297962 -0.9727014
vn -0.2974151 0.07318041 -0.9519395
vn 0.127381 -0.09361332 -0.9862225
vn 0.1717794 -0.1122737 -0.9787167
vn 0.08298257 -0.07495291 -0.9937283
vn 0.07576521 0.8428504 -0.5044244
vn 0.07556532 0.9309443 -0.357257
vn 0.07596508 0.7547566 -0.6515918
vn 0.0995411 0.5523531 -0.8220661
vn 0.1045373 0.6316 -0.7682144
vn 0.09454492 0.4731062 -0.8759177
vn 0.0867034 0.1174603 -0.9892851
vn 0.08679777 0.1182636 -0.9891814
vn 0.08660904 0.1166571 -0.9893887
vn 0.04594273 -0.3084131 -0.9494962
vn 0.04028714 -0.3413799 -0.9390616
vn 0.05159833 -0.2754465 -0.9599307
vn 0.9590325 -0.2274724 -0.1688578
vn 0.7822699 -0.3767742 0.4960796
vn 0.9556674 -0.2762574 -0.1018902
vn 0.8569961 -0.1749307 -0.4847237
vn 0.8766943 -0.2201041 -0.4277397
vn 0.9200147 -0.2760039 -0.2781993
vn -0.1465044 0.2985527 -0.9430815
vn 0.4787785 0.1721103 -0.8609002
vn -0.7111755 0.3014778 -0.635091
vn 0.9602305 -0.08575228 0.2657141
vn 0.9852747 -0.1310697 -0.1097931
vn 0.797214 -0.02811343 0.6030418
vn 0.9582569 0.2859086 -1.062546E-05
vn 1 0 0
vn 0.04410503 -0.5466199 0.8362185
vn 3.20886E-06 -0.01680594 0.9998588
vn -0.8204156 0.3977374 0.4107595
vn 0.09862924 -5.539795E-06 0.9951243

usemtl agac_tepe
f 3/3/1 2/2/1 1/1/1
f 8/16/9 11/15/9 12/14/9
f 2/22/18 11/21/18 5/5/18
f 1/1/20 2/22/20 6/6/20
f 7/7/24 14/17/24 15/25/24
f 17/27/26 9/9/26 16/26/26
f 16/26/28 7/7/28 15/25/28
f 28/45/46 27/20/46 26/27/46
f 35/46/47 34/44/47 33/43/47
f 39/50/57 40/12/57 44/13/57
f 37/16/58 43/15/58 40/14/58
f 47/22/67 43/21/67 45/5/67
f 49/25/69 41/17/69 48/51/69
f 36/7/70 41/17/70 49/25/70
f 51/27/72 38/9/72 50/26/72
f 50/26/74 36/7/74 49/25/74
f 53/27/77 55/26/77 52/52/77
f 63/16/90 69/15/90 66/14/90
f 57/22/99 69/21/99 60/5/99
f 62/7/105 67/17/105 71/25/105
f 53/27/107 64/9/107 55/26/107
f 56/1/112 61/6/112 73/41/112
f 55/26/113 62/7/113 71/25/113
f 72/45/117 59/20/117 53/27/117
f 78/3/122 77/2/122 76/1/122
f 90/13/129 89/10/129 88/44/129
f 85/50/133 86/12/133 90/13/133
f 83/16/134 91/15/134 86/14/134
f 77/22/143 91/21/143 80/5/143
f 76/1/145 77/22/145 81/6/145
f 93/25/152 87/17/152 92/51/152
f 82/7/153 87/17/153 93/25/153
f 95/27/155 84/9/155 94/26/155
f 81/6/157 79/4/157 96/40/157
f 94/26/159 82/7/159 93/25/159
f 96/45/160 79/20/160 95/27/160
f 100/27/161 99/26/161 98/52/161
f 112/13/168 111/10/168 110/44/168
f 105/16/173 113/15/173 108/14/173
f 114/22/182 113/21/182 102/5/182
f 110/44/187 111/24/187 115/3/187
f 100/27/189 106/9/189 99/26/189
f 124/9/195 123/8/195 122/7/195
f 130/13/198 129/10/198 128/44/198
f 125/50/202 126/12/202 130/13/202
f 123/16/203 131/15/203 126/14/203
f 119/20/210 120/19/210 124/9/210
f 117/22/211 131/21/211 120/5/211
f 116/1/213 117/22/213 121/6/213
f 133/25/220 127/17/220 132/51/220
f 122/7/221 127/17/221 133/25/221
f 135/43/223 118/3/223 134/42/223
f 137/27/227 139/26/227 136/52/227
f 142/25/228 141/51/228 140/55/228
f 154/17/235 153/14/235 152/50/235
f 160/56/264 157/13/264 159/46/264
f 142/25/266 154/17/266 141/51/266
f 137/27/269 151/9/269 139/26/269
f 164/43/274 145/3/274 163/42/274
f 139/26/276 149/7/276 142/25/276
f 161/45/280 146/20/280 137/27/280
f 159/46/282 155/44/282 164/43/282
f 168/16/58 174/15/58 171/14/58
f 179/25/69 172/17/69 178/51/69
f 167/7/70 172/17/70 179/25/70
f 178/51/288 170/50/288 177/56/288
f 180/26/74 167/7/74 179/25/74
f 183/3/289 182/2/289 181/1/289
f 189/9/292 188/8/292 187/7/292
f 190/50/298 191/12/298 195/13/298
f 188/16/299 194/15/299 191/14/299
f 182/22/308 194/21/308 185/5/308
f 181/1/310 182/22/310 186/6/310
f 197/25/315 192/17/315 196/51/315
f 187/7/316 192/17/316 197/25/316
f 186/6/318 184/4/318 199/40/318
f 199/45/319 184/20/319 198/27/319
f 202/3/122 201/2/122 200/1/122
f 209/50/133 210/12/133 214/13/133
f 207/16/134 215/15/134 210/14/134
f 201/22/143 215/21/143 204/5/143
f 200/1/145 201/22/145 205/6/145
f 218/25/152 211/17/152 217/51/152
f 206/7/153 211/17/153 218/25/153
f 220/27/155 208/9/155 219/26/155
f 219/26/159 206/7/159 218/25/159
f 216/46/322 212/44/322 221/43/322
f 224/3/323 223/2/323 222/1/323
f 229/16/173 237/15/173 232/14/173
f 223/22/182 237/21/182 226/5/182
f 222/1/325 223/22/325 227/6/325
f 240/27/189 230/9/189 239/26/189
f 238/46/329 234/44/329 241/43/329
f 244/3/1 243/2/1 242/1/1
f 250/9/5 249/8/5 248/7/5
f 253/13/330 252/10/330 251/44/330
f 249/16/9 254/15/9 255/14/9
f 245/20/17 246/19/17 250/9/17
f 243/22/18 254/21/18 246/5/18
f 242/1/20 243/22/20 247/6/20
f 251/44/331 252/24/331 244/3/331
f 273/13/198 272/10/198 271/44/198
f 268/50/202 269/12/202 273/13/202
f 266/16/203 274/15/203 269/14/203
f 260/22/211 274/21/211 263/5/211
f 259/1/213 260/22/213 264/6/213
f 276/25/220 270/17/220 275/51/220
f 265/7/221 270/17/221 276/25/221
f 278/27/338 267/9/338 277/26/338
f 277/26/340 265/7/340 276/25/340
f 289/9/345 288/8/345 287/7/345
f 295/13/348 294/10/348 293/44/348
f 288/16/354 296/15/354 291/14/354
f 284/20/361 285/19/361 289/9/361
f 282/22/362 296/21/362 285/5/362
f 293/44/369 294/24/369 283/3/369
f 287/7/375 292/17/375 300/25/375
f 299/51/384 290/50/384 298/56/384
f 297/46/385 293/44/385 304/43/385
f 310/17/388 309/14/388 308/50/388
f 306/16/394 312/15/394 309/14/394
f 315/22/401 312/21/401 314/5/401
f 318/56/405 313/13/405 317/46/405
f 320/51/408 308/50/408 318/56/408
f 323/3/409 322/2/409 321/1/409
f 329/9/412 328/8/412 327/7/412
f 328/16/422 336/15/422 331/14/422
f 324/20/429 325/19/429 329/9/429
f 322/22/430 336/21/430 325/5/430
f 321/1/432 322/22/432 326/6/432
f 333/44/436 334/24/436 323/3/436
f 338/56/438 335/13/438 337/46/438
f 340/25/441 332/17/441 339/51/441
f 327/7/442 332/17/442 340/25/442
f 326/6/443 324/4/443 341/40/443
f 344/3/444 343/2/444 342/1/444
f 349/16/458 357/15/458 352/14/458
f 345/20/465 346/19/465 350/9/465
f 343/22/466 357/21/466 346/5/466
f 342/1/468 343/22/468 347/6/468
f 359/56/475 356/13/475 358/46/475
f 361/25/478 353/17/478 360/51/478
f 348/7/479 353/17/479 361/25/479
f 360/51/482 351/50/482 359/56/482
f 362/26/483 348/7/483 361/25/483
f 358/46/484 354/44/484 363/43/484
f 367/20/503 368/19/503 378/9/503
f 365/22/504 376/21/504 368/5/504
f 382/43/516 366/3/516 381/42/516
f 381/42/518 364/1/518 380/41/518
f 379/46/519 373/44/519 382/43/519
f 385/58/520 384/43/520 383/57/520
f 384/43/521 386/42/521 383/57/521
f 389/3/522 388/2/522 387/1/522
f 398/16/530 396/15/530 397/14/530
f 390/20/534 391/19/534 399/9/534
f 388/22/535 396/21/535 391/5/535
f 387/1/537 388/22/537 392/6/537
f 384/43/544 389/3/544 386/42/544
f 400/46/546 393/44/546 384/43/546
f 403/60/547 402/56/547 401/59/547
f 407/3/550 406/2/550 405/1/550
f 412/16/564 420/15/564 415/14/564
f 408/20/571 409/19/571 413/9/571
f 406/22/572 420/21/572 409/5/572
f 405/1/574 406/22/574 410/6/574
f 422/25/584 416/17/584 421/51/584
f 411/7/585 416/17/585 422/25/585
f 410/6/587 408/4/587 424/40/587
f 421/51/589 414/50/589 402/56/589
f 423/26/590 411/7/590 422/25/590
f 404/46/591 417/44/591 425/43/591
f 426/58/592 404/46/592 425/43/592
f 427/1/613 428/22/613 440/6/613
f 442/56/620 435/13/620 441/46/620
f 445/43/624 429/3/624 444/42/624
f 443/51/626 430/50/626 442/56/626
f 441/46/627 433/44/627 445/43/627
f 446/58/628 441/46/628 445/43/628
f 449/3/629 448/2/629 447/1/629
f 454/16/643 462/15/643 457/14/643
f 448/22/652 462/21/652 451/5/652
f 464/56/662 461/13/662 463/46/662
f 466/25/665 458/17/665 465/51/665
f 468/27/667 455/9/667 467/26/667
f 465/51/674 456/50/674 464/56/674
f 472/60/675 465/51/675 464/56/675
f 469/45/676 450/20/676 468/27/676
f 463/46/677 459/44/677 471/43/677
f 487/13/686 486/10/686 485/44/686
f 483/12/687 488/11/687 486/10/687
f 477/19/696 488/18/696 480/8/696
f 473/1/703 474/22/703 478/6/703
f 486/24/704 488/23/704 474/2/704
f 485/44/706 486/24/706 475/3/706
f 482/50/707 487/13/707 489/56/707
f 491/25/709 484/17/709 490/51/709
f 476/20/712 481/9/712 493/27/712
f 492/26/714 479/7/714 491/25/714
f 500/53/717 499/27/717 498/52/717
f 506/60/720 505/56/720 504/59/720
f 499/27/721 507/26/721 498/52/721
f 502/25/722 508/51/722 501/55/722
f 505/56/723 509/46/723 504/59/723
f 511/16/735 519/15/735 514/14/735
f 522/22/744 519/21/744 520/5/744
f 516/44/748 517/24/748 523/3/748
f 505/56/750 518/13/750 509/46/750
f 502/25/753 515/17/753 508/51/753
f 510/7/754 515/17/754 502/25/754
f 499/27/756 512/9/756 507/26/756
f 508/51/758 513/50/758 505/56/758
f 507/26/762 510/7/762 502/25/762
f 498/52/764 507/26/764 503/54/764
f 524/45/765 521/20/765 499/27/765
f 501/55/767 506/60/767 497/39/767
f 531/60/773 530/56/773 529/59/773
f 527/25/774 532/51/774 526/55/774
f 530/56/775 533/46/775 529/59/775
f 541/16/785 540/15/785 535/14/785
f 530/56/790 539/13/790 533/46/790
f 527/25/793 536/17/793 532/51/793
f 542/7/794 536/17/794 527/25/794
f 532/51/795 534/50/795 530/56/795
f 543/26/799 542/7/799 527/25/799
f 529/59/801 533/46/801 544/58/801
f 545/48/808 529/59/808 544/58/808
f 552/43/811 551/42/811 550/57/811
f 548/27/812 553/26/812 547/52/812
f 561/16/828 569/15/828 564/14/828
f 555/22/837 569/21/837 558/5/837
f 571/56/847 568/13/847 570/46/847
f 573/25/850 565/17/850 572/51/850
f 560/7/851 565/17/851 573/25/851
f 548/27/853 562/9/853 553/26/853
f 552/43/860 556/3/860 551/42/860
f 553/26/862 560/7/862 573/25/862
f 574/45/863 557/20/863 548/27/863
f 551/42/865 554/1/865 575/41/865
f 584/6/870 583/5/870 582/4/870
f 590/17/873 589/14/873 588/50/873
f 589/12/876 594/11/876 592/10/876
f 583/19/885 594/18/885 586/8/885
f 579/1/892 580/22/892 584/6/892
f 592/24/893 594/23/893 580/2/893
f 591/44/895 592/24/895 581/3/895
f 588/50/898 593/13/898 578/56/898
f 587/9/903 585/7/903 597/26/903
f 598/27/904 587/9/904 597/26/904
f 581/3/906 579/1/906 599/42/906
f 597/26/913 585/7/913 596/25/913
f 606/56/917 605/46/917 604/59/917
f 621/13/926 620/10/926 619/44/926
f 617/12/927 622/11/927 620/10/927
f 611/19/936 622/18/936 614/8/936
f 620/24/945 622/23/945 608/2/945
f 619/44/947 620/24/947 609/3/947
f 624/25/954 618/17/954 623/51/954
f 626/27/957 615/9/957 625/26/957
f 610/20/958 615/9/958 626/27/958
f 628/41/960 612/6/960 627/40/960
f 609/3/962 607/1/962 629/42/962
f 627/45/967 610/20/967 626/27/967
f 605/46/968 619/44/968 630/43/968
f 631/58/969 605/46/969 630/43/969
f 633/62/970 632/61/970 20/30/970
f 635/64/971 31/42/971 634/63/971
f 20/47/972 636/65/972 633/62/972
f 33/43/975 31/42/975 635/64/975
f 632/61/976 638/67/976 19/29/976
f 638/69/977 639/68/977 19/33/977
f 30/41/982 28/40/982 641/72/982
f 639/68/983 642/73/983 21/32/983
f 642/73/984 643/74/984 21/36/984
f 645/76/985 24/26/985 644/75/985
f 640/70/986 26/27/986 645/76/986
f 26/27/987 24/26/987 645/76/987
f 643/74/988 646/77/988 22/35/988
f 646/77/989 647/78/989 22/39/989
f 651/25/994 649/51/994 650/80/994
f 23/48/995 652/81/995 636/65/995
f 647/78/999 652/81/999 23/38/999
f 648/79/1000 654/56/1000 653/82/1000
f 654/56/1001 35/46/1001 653/82/1001
f 68/24/1012 58/3/1013 56/1/1012
f 73/41/1014 68/24/1012 56/1/1012
f 658/86/1018 657/85/1019 655/83/1018
f 656/84/1020 658/86/1018 655/83/1018
f 635/64/1030 662/90/1029 637/66/1027
f 664/57/1032 663/58/1031 661/89/1028
f 645/76/1042 668/94/1041 640/70/1039
f 642/73/1048 639/68/1047 671/97/1045
f 657/85/1082 659/87/1081 664/57/1079
f 632/61/1084 633/62/1083 666/92/1080
f 661/89/1086 680/106/1085 653/82/998
f 667/93/1102 669/95/1101 656/111/1099
f 639/68/1106 638/69/1105 660/113/1103
f 70/13/1133 68/10/1132 73/41/1131
f 54/53/1136 65/50/1135 72/45/1134
f 67/17/1137 65/50/1138 54/53/1137
f 75/32/1139 67/17/1137 54/53/1137
f 71/25/1140 67/17/1141 75/36/1140
f 74/54/1142 71/25/1140 75/36/1140
f 389/122/1145 387/123/1145 386/124/1145
f 466/131/1147 453/130/1147 458/129/1147
f 2/22/19 5/5/3 4/4/2
f 4/4/2 6/6/3 2/22/19
f 9/9/4 8/8/5 7/7/4
f 7/7/4 16/26/25 9/9/4
f 12/12/6 11/11/7 10/10/6
f 10/10/6 13/13/8 12/12/6
f 7/7/12 8/16/11 12/14/10
f 12/14/10 14/17/11 7/7/12
f 5/19/13 11/18/14 8/8/13
f 8/8/13 9/9/15 5/19/13
f 4/20/16 5/19/17 9/9/16
f 9/9/16 17/27/27 4/20/16
f 10/24/21 11/23/22 2/2/21
f 2/2/21 3/3/23 10/24/21
f 632/61/1003 19/29/30 18/28/29
f 18/28/29 20/30/30 632/61/1003
f 639/68/1007 21/32/32 18/31/31
f 18/31/31 19/33/32 639/68/1007
f 643/74/1009 22/35/34 18/34/33
f 18/34/33 21/36/34 643/74/1009
f 647/78/1011 23/38/36 18/37/35
f 18/37/35 22/39/36 647/78/1011
f 27/20/39 25/9/38 24/26/37
f 24/26/37 26/27/38 27/20/39
f 29/6/40 27/4/41 28/40/40
f 28/40/40 30/41/42 29/6/40
f 34/44/45 32/3/44 31/42/43
f 31/42/43 33/43/44 34/44/45
f 20/47/48 18/49/49 23/48/48
f 23/48/48 636/65/1005 20/47/48
f 38/9/50 37/8/51 36/7/50
f 36/7/50 50/26/71 38/9/50
f 41/17/52 40/14/53 39/50/52
f 39/50/52 48/51/68 41/17/52
f 40/12/54 43/11/55 42/10/54
f 42/10/54 44/13/56 40/12/54
f 36/7/61 37/16/60 40/14/59
f 40/14/59 41/17/60 36/7/61
f 45/19/62 43/18/63 37/8/62
f 37/8/62 38/9/64 45/19/62
f 46/20/65 45/19/66 38/9/65
f 38/9/65 51/27/73 46/20/65
f 72/45/118 53/27/76 52/52/75
f 52/52/75 54/53/76 72/45/118
f 56/1/78 58/3/79 57/2/78
f 57/2/78 61/6/101 56/1/78
f 57/22/100 60/5/81 59/4/80
f 59/4/80 61/6/81 57/22/100
f 64/9/82 63/8/83 62/7/82
f 62/7/82 55/26/106 64/9/82
f 65/50/84 67/17/85 66/14/84
f 66/14/84 70/13/89 65/50/84
f 66/12/86 69/11/87 68/10/86
f 68/10/86 70/13/88 66/12/86
f 62/7/93 63/16/92 66/14/91
f 66/14/91 67/17/92 62/7/93
f 60/19/94 69/18/95 63/8/94
f 63/8/94 64/9/96 60/19/94
f 59/20/97 60/19/98 64/9/97
f 64/9/97 53/27/108 59/20/97
f 68/24/102 69/23/103 57/2/102
f 57/2/102 58/3/104 68/24/102
f 61/6/109 59/4/110 72/40/109
f 72/40/109 73/41/111 61/6/109
f 52/52/116 55/26/115 71/25/114
f 71/25/114 74/54/115 52/52/116
f 52/52/119 74/54/120 75/36/119
f 75/36/119 54/53/121 52/52/119
f 77/22/144 80/5/124 79/4/123
f 79/4/123 81/6/124 77/22/144
f 84/9/125 83/8/126 82/7/125
f 82/7/125 94/26/154 84/9/125
f 87/17/127 86/14/128 85/50/127
f 85/50/127 92/51/151 87/17/127
f 86/12/130 91/11/131 89/10/130
f 89/10/130 90/13/132 86/12/130
f 82/7/137 83/16/136 86/14/135
f 86/14/135 87/17/136 82/7/137
f 80/19/138 91/18/139 83/8/138
f 83/8/138 84/9/140 80/19/138
f 79/20/141 80/19/142 84/9/141
f 84/9/141 95/27/156 79/20/141
f 89/24/146 91/23/147 77/2/146
f 77/2/146 78/3/148 89/24/146
f 88/44/149 89/24/150 78/3/149
f 78/3/149 97/43/158 88/44/149
f 114/22/183 102/5/163 101/4/162
f 101/4/162 103/6/163 114/22/183
f 106/9/164 105/8/165 104/7/164
f 104/7/164 99/26/188 106/9/164
f 107/50/166 109/17/167 108/14/166
f 108/14/166 112/13/172 107/50/166
f 108/12/169 113/11/170 111/10/169
f 111/10/169 112/13/171 108/12/169
f 104/7/176 105/16/175 108/14/174
f 108/14/174 109/17/175 104/7/176
f 102/19/177 113/18/178 105/8/177
f 105/8/177 106/9/179 102/19/177
f 101/20/180 102/19/181 106/9/180
f 106/9/180 100/27/190 101/20/180
f 111/24/184 113/23/185 114/2/184
f 114/2/184 115/3/186 111/24/184
f 118/3/191 117/2/192 116/1/191
f 116/1/191 134/42/222 118/3/191
f 117/22/212 120/5/194 119/4/193
f 119/4/193 121/6/194 117/22/212
f 127/17/196 126/14/197 125/50/196
f 125/50/196 132/51/219 127/17/196
f 126/12/199 131/11/200 129/10/199
f 129/10/199 130/13/201 126/12/199
f 122/7/206 123/16/205 126/14/204
f 126/14/204 127/17/205 122/7/206
f 120/19/207 131/18/208 123/8/207
f 123/8/207 124/9/209 120/19/207
f 129/24/214 131/23/215 117/2/214
f 117/2/214 118/3/216 129/24/214
f 128/44/217 129/24/218 118/3/217
f 118/3/217 135/43/224 128/44/217
f 161/45/281 137/27/226 136/52/225
f 136/52/225 138/53/226 161/45/281
f 145/3/229 144/2/230 143/1/229
f 143/1/229 163/42/273 145/3/229
f 148/6/231 147/5/232 146/4/231
f 146/4/231 161/40/271 148/6/231
f 151/9/233 150/8/234 149/7/233
f 149/7/233 139/26/268 151/9/233
f 157/13/236 156/10/237 155/44/236
f 155/44/236 159/46/263 157/13/236
f 153/12/238 158/11/239 156/10/238
f 156/10/238 157/13/240 153/12/238
f 152/50/241 153/12/242 157/13/241
f 157/13/241 160/56/265 152/50/241
f 150/16/243 158/15/244 153/14/243
f 153/14/243 154/17/245 150/16/243
f 149/7/246 150/16/247 154/17/246
f 154/17/246 142/25/267 149/7/246
f 147/19/248 158/18/249 150/8/248
f 150/8/248 151/9/250 147/19/248
f 146/20/251 147/19/252 151/9/251
f 151/9/251 137/27/270 146/20/251
f 144/22/253 158/21/254 147/5/253
f 147/5/253 148/6/255 144/22/253
f 143/1/256 144/22/257 148/6/256
f 148/6/256 162/41/272 143/1/256
f 156/24/258 158/23/259 144/2/258
f 144/2/258 145/3/260 156/24/258
f 155/44/261 156/24/262 145/3/261
f 145/3/261 164/43/275 155/44/261
f 136/52/279 139/26/278 142/25/277
f 142/25/277 165/54/278 136/52/279
f 136/52/283 165/54/284 166/36/283
f 166/36/283 138/53/285 136/52/283
f 169/9/50 168/8/51 167/7/50
f 167/7/50 180/26/71 169/9/50
f 172/17/52 171/14/53 170/50/52
f 170/50/52 178/51/68 172/17/52
f 171/12/54 174/11/55 173/10/54
f 173/10/54 175/13/56 171/12/54
f 170/50/286 171/12/57 175/13/286
f 175/13/286 177/56/287 170/50/286
f 167/7/61 168/16/60 171/14/59
f 171/14/59 172/17/60 167/7/61
f 176/19/62 174/18/63 168/8/62
f 168/8/62 169/9/64 176/19/62
f 182/22/309 185/5/291 184/4/290
f 184/4/290 186/6/291 182/22/309
f 192/17/293 191/14/294 190/50/293
f 190/50/293 196/51/314 192/17/293
f 191/12/295 194/11/296 193/10/295
f 193/10/295 195/13/297 191/12/295
f 187/7/302 188/16/301 191/14/300
f 191/14/300 192/17/301 187/7/302
f 185/19/303 194/18/304 188/8/303
f 188/8/303 189/9/305 185/19/303
f 184/20/306 185/19/307 189/9/306
f 189/9/306 198/27/317 184/20/306
f 193/24/311 194/23/312 182/2/311
f 182/2/311 183/3/313 193/24/311
f 201/22/144 204/5/124 203/4/123
f 203/4/123 205/6/124 201/22/144
f 208/9/125 207/8/126 206/7/125
f 206/7/125 219/26/154 208/9/125
f 211/17/127 210/14/128 209/50/127
f 209/50/127 217/51/151 211/17/127
f 214/13/320 213/10/129 212/44/320
f 212/44/320 216/46/321 214/13/320
f 210/12/130 215/11/131 213/10/130
f 213/10/130 214/13/132 210/12/130
f 206/7/137 207/16/136 210/14/135
f 210/14/135 211/17/136 206/7/137
f 204/19/138 215/18/139 207/8/138
f 207/8/138 208/9/140 204/19/138
f 203/20/141 204/19/142 208/9/141
f 208/9/141 220/27/156 203/20/141
f 213/24/146 215/23/147 201/2/146
f 201/2/146 202/3/148 213/24/146
f 212/44/149 213/24/150 202/3/149
f 202/3/149 221/43/158 212/44/149
f 223/22/183 226/5/163 225/4/162
f 225/4/162 227/6/163 223/22/183
f 230/9/164 229/8/165 228/7/164
f 228/7/164 239/26/188 230/9/164
f 231/50/166 233/17/167 232/14/166
f 232/14/166 236/13/172 231/50/166
f 236/13/324 235/10/168 234/44/324
f 234/44/324 238/46/327 236/13/324
f 232/12/169 237/11/170 235/10/169
f 235/10/169 236/13/171 232/12/169
f 228/7/176 229/16/175 232/14/174
f 232/14/174 233/17/175 228/7/176
f 226/19/177 237/18/178 229/8/177
f 229/8/177 230/9/179 226/19/177
f 225/20/180 226/19/181 230/9/180
f 230/9/180 240/27/190 225/20/180
f 235/24/184 237/23/185 223/2/184
f 223/2/184 224/3/186 235/24/184
f 234/44/326 235/24/187 224/3/326
f 224/3/326 241/43/328 234/44/326
f 243/22/19 246/5/3 245/4/2
f 245/4/2 247/6/3 243/22/19
f 255/12/6 254/11/7 252/10/6
f 252/10/6 253/13/8 255/12/6
f 248/7/12 249/16/11 255/14/10
f 255/14/10 256/17/11 248/7/12
f 246/19/13 254/18/14 249/8/13
f 249/8/13 250/9/15 246/19/13
f 252/24/21 254/23/22 243/2/21
f 243/2/21 244/3/23 252/24/21
f 247/6/332 245/4/333 257/40/332
f 257/40/332 258/41/334 247/6/332
f 261/3/191 260/2/192 259/1/191
f 259/1/191 279/42/222 261/3/191
f 260/22/212 263/5/194 262/4/193
f 262/4/193 264/6/194 260/22/212
f 267/9/335 266/8/195 265/7/335
f 265/7/335 277/26/337 267/9/335
f 270/17/196 269/14/197 268/50/196
f 268/50/196 275/51/219 270/17/196
f 269/12/199 274/11/200 272/10/199
f 272/10/199 273/13/201 269/12/199
f 265/7/206 266/16/205 269/14/204
f 269/14/204 270/17/205 265/7/206
f 263/19/207 274/18/208 266/8/207
f 266/8/207 267/9/209 263/19/207
f 262/20/336 263/19/210 267/9/336
f 267/9/336 278/27/339 262/20/336
f 272/24/214 274/23/215 260/2/214
f 260/2/214 261/3/216 272/24/214
f 271/44/217 272/24/218 261/3/217
f 261/3/217 280/43/224 271/44/217
f 283/3/341 282/2/342 281/1/341
f 281/1/341 303/42/380 283/3/341
f 282/22/363 285/5/344 284/4/343
f 284/4/343 286/6/344 282/22/363
f 292/17/346 291/14/347 290/50/346
f 290/50/346 299/51/374 292/17/346
f 291/12/349 296/11/350 294/10/349
f 294/10/349 295/13/351 291/12/349
f 290/50/352 291/12/353 295/13/352
f 295/13/352 298/56/373 290/50/352
f 287/7/357 288/16/356 291/14/355
f 291/14/355 292/17/356 287/7/357
f 285/19/358 296/18/359 288/8/358
f 288/8/358 289/9/360 285/19/358
f 281/1/364 282/22/365 286/6/364
f 286/6/364 302/41/379 281/1/364
f 294/24/366 296/23/367 282/2/366
f 282/2/366 283/3/368 294/24/366
f 295/13/370 293/44/371 297/46/370
f 297/46/370 298/56/372 295/13/370
f 286/6/376 284/4/377 301/40/376
f 301/40/376 302/41/378 286/6/376
f 293/44/383 283/3/382 303/42/381
f 303/42/381 304/43/382 293/44/383
f 307/9/386 306/8/387 305/7/386
f 305/7/386 319/26/407 307/9/386
f 309/12/389 312/11/390 311/10/389
f 311/10/389 313/13/391 309/12/389
f 308/50/392 309/12/393 313/13/392
f 313/13/392 318/56/406 308/50/392
f 305/7/397 306/16/396 309/14/395
f 309/14/395 310/17/396 305/7/397
f 314/19/398 312/18/399 306/8/398
f 306/8/398 307/9/400 314/19/398
f 311/24/402 312/23/403 315/2/402
f 315/2/402 316/3/404 311/24/402
f 322/22/431 325/5/411 324/4/410
f 324/4/410 326/6/411 322/22/431
f 332/17/413 331/14/414 330/50/413
f 330/50/413 339/51/440 332/17/413
f 335/13/415 334/10/416 333/44/415
f 333/44/415 337/46/437 335/13/415
f 331/12/417 336/11/418 334/10/417
f 334/10/417 335/13/419 331/12/417
f 330/50/420 331/12/421 335/13/420
f 335/13/420 338/56/439 330/50/420
f 327/7/425 328/16/424 331/14/423
f 331/14/423 332/17/424 327/7/425
f 325/19/426 336/18/427 328/8/426
f 328/8/426 329/9/428 325/19/426
f 334/24/433 336/23/434 322/2/433
f 322/2/433 323/3/435 334/24/433
f 343/22/467 346/5/446 345/4/445
f 345/4/445 347/6/446 343/22/467
f 350/9/447 349/8/448 348/7/447
f 348/7/447 362/26/480 350/9/447
f 353/17/449 352/14/450 351/50/449
f 351/50/449 360/51/477 353/17/449
f 356/13/451 355/10/452 354/44/451
f 354/44/451 358/46/474 356/13/451
f 352/12/453 357/11/454 355/10/453
f 355/10/453 356/13/455 352/12/453
f 351/50/456 352/12/457 356/13/456
f 356/13/456 359/56/476 351/50/456
f 348/7/461 349/16/460 352/14/459
f 352/14/459 353/17/460 348/7/461
f 346/19/462 357/18/463 349/8/462
f 349/8/462 350/9/464 346/19/462
f 355/24/469 357/23/470 343/2/469
f 343/2/469 344/3/471 355/24/469
f 354/44/472 355/24/473 344/3/472
f 344/3/472 363/43/481 354/44/472
f 366/3/485 365/2/486 364/1/485
f 364/1/485 381/42/515 366/3/485
f 365/22/505 368/5/488 367/4/487
f 367/4/487 369/6/488 365/22/505
f 370/50/489 372/17/490 371/14/489
f 371/14/489 375/13/496 370/50/489
f 375/13/491 374/10/492 373/44/491
f 373/44/491 379/46/513 375/13/491
f 371/12/493 376/11/494 374/10/493
f 374/10/493 375/13/495 371/12/493
f 377/16/497 376/15/498 371/14/497
f 371/14/497 372/17/499 377/16/497
f 368/19/500 376/18/501 377/8/500
f 377/8/500 378/9/502 368/19/500
f 364/1/506 365/22/507 369/6/506
f 369/6/506 380/41/514 364/1/506
f 374/24/508 376/23/509 365/2/508
f 365/2/508 366/3/510 374/24/508
f 373/44/511 374/24/512 366/3/511
f 366/3/511 382/43/517 373/44/511
f 388/22/536 391/5/524 390/4/523
f 390/4/523 392/6/524 388/22/536
f 395/13/525 394/10/526 393/44/525
f 393/44/525 400/46/543 395/13/525
f 397/12/527 396/11/528 394/10/527
f 394/10/527 395/13/529 397/12/527
f 391/19/531 396/18/532 398/8/531
f 398/8/531 399/9/533 391/19/531
f 394/24/538 396/23/539 388/2/538
f 388/2/538 389/3/540 394/24/538
f 393/44/541 394/24/542 389/3/541
f 389/3/541 384/43/545 393/44/541
f 419/13/581 404/46/549 401/59/548
f 401/59/548 402/56/549 419/13/581
f 406/22/573 409/5/552 408/4/551
f 408/4/551 410/6/552 406/22/573
f 413/9/553 412/8/554 411/7/553
f 411/7/553 423/26/586 413/9/553
f 416/17/555 415/14/556 414/50/555
f 414/50/555 421/51/583 416/17/555
f 419/13/557 418/10/558 417/44/557
f 417/44/557 404/46/580 419/13/557
f 415/12/559 420/11/560 418/10/559
f 418/10/559 419/13/561 415/12/559
f 414/50/562 415/12/563 419/13/562
f 419/13/562 402/56/582 414/50/562
f 411/7/567 412/16/566 415/14/565
f 415/14/565 416/17/566 411/7/567
f 409/19/568 420/18/569 412/8/568
f 412/8/568 413/9/570 409/19/568
f 418/24/575 420/23/576 406/2/575
f 406/2/575 407/3/577 418/24/575
f 417/44/578 418/24/579 407/3/578
f 407/3/578 425/43/588 417/44/578
f 429/3/593 428/2/594 427/1/593
f 427/1/593 444/42/623 429/3/593
f 432/17/595 431/14/596 430/50/595
f 430/50/595 443/51/622 432/17/595
f 435/13/597 434/10/598 433/44/597
f 433/44/597 441/46/619 435/13/597
f 431/12/599 436/11/600 434/10/599
f 434/10/599 435/13/601 431/12/599
f 430/50/602 431/12/603 435/13/602
f 435/13/602 442/56/621 430/50/602
f 437/16/604 436/15/605 431/14/604
f 431/14/604 432/17/606 437/16/604
f 438/19/607 436/18/608 437/8/607
f 437/8/607 439/9/609 438/19/607
f 428/22/610 436/21/611 438/5/610
f 438/5/610 440/6/612 428/22/610
f 434/24/614 436/23/615 428/2/614
f 428/2/614 429/3/616 434/24/614
f 433/44/617 434/24/618 429/3/617
f 429/3/617 445/43/625 433/44/617
f 448/22/653 451/5/631 450/4/630
f 450/4/630 452/6/631 448/22/653
f 455/9/632 454/8/633 453/7/632
f 453/7/632 467/26/666 455/9/632
f 458/17/634 457/14/635 456/50/634
f 456/50/634 465/51/664 458/17/634
f 461/13/636 460/10/637 459/44/636
f 459/44/636 463/46/661 461/13/636
f 457/12/638 462/11/639 460/10/638
f 460/10/638 461/13/640 457/12/638
f 456/50/641 457/12/642 461/13/641
f 461/13/641 464/56/663 456/50/641
f 453/7/646 454/16/645 457/14/644
f 457/14/644 458/17/645 453/7/646
f 451/19/647 462/18/648 454/8/647
f 454/8/647 455/9/649 451/19/647
f 450/20/650 451/19/651 455/9/650
f 455/9/650 468/27/668 450/20/650
f 447/1/654 448/22/655 452/6/654
f 452/6/654 470/41/672 447/1/654
f 460/24/656 462/23/657 448/2/656
f 448/2/656 449/3/658 460/24/656
f 459/44/659 460/24/660 449/3/659
f 449/3/659 471/43/673 459/44/659
f 452/6/669 450/4/670 469/40/669
f 469/40/669 470/41/671 452/6/669
f 486/24/705 474/2/679 473/1/678
f 473/1/678 475/3/679 486/24/705
f 478/6/680 477/5/681 476/4/680
f 476/4/680 494/40/713 478/6/680
f 481/9/682 480/8/683 479/7/682
f 479/7/682 492/26/711 481/9/682
f 484/17/684 483/14/685 482/50/684
f 482/50/684 490/51/708 484/17/684
f 482/50/690 483/12/689 486/10/688
f 486/10/688 487/13/689 482/50/690
f 480/16/691 488/15/692 483/14/691
f 483/14/691 484/17/693 480/16/691
f 479/7/694 480/16/695 484/17/694
f 484/17/694 491/25/710 479/7/694
f 476/20/699 477/19/698 480/8/697
f 480/8/697 481/9/698 476/20/699
f 474/22/700 488/21/701 477/5/700
f 477/5/700 478/6/702 474/22/700
f 506/60/766 496/38/716 495/37/715
f 495/37/715 497/39/716 506/60/766
f 507/26/763 502/25/719 501/55/718
f 501/55/718 503/54/719 507/26/763
f 512/9/724 511/8/725 510/7/724
f 510/7/724 507/26/755 512/9/724
f 515/17/726 514/14/727 513/50/726
f 513/50/726 508/51/752 515/17/726
f 518/13/728 517/10/729 516/44/728
f 516/44/728 509/46/749 518/13/728
f 514/12/730 519/11/731 517/10/730
f 517/10/730 518/13/732 514/12/730
f 513/50/733 514/12/734 518/13/733
f 518/13/733 505/56/751 513/50/733
f 510/7/738 511/16/737 514/14/736
f 514/14/736 515/17/737 510/7/738
f 520/19/739 519/18/740 511/8/739
f 511/8/739 512/9/741 520/19/739
f 521/20/742 520/19/743 512/9/742
f 512/9/742 499/27/757 521/20/742
f 517/24/745 519/23/746 522/2/745
f 522/2/745 523/3/747 517/24/745
f 501/55/761 508/51/760 505/56/759
f 505/56/759 506/60/760 501/55/761
f 503/54/768 501/55/769 497/35/768
f 497/35/768 525/36/770 503/54/768
f 543/26/800 527/25/772 526/55/771
f 526/55/771 528/54/772 543/26/800
f 536/17/776 535/14/777 534/50/776
f 534/50/776 532/51/792 536/17/776
f 539/13/778 538/10/779 537/44/778
f 537/44/778 533/46/789 539/13/778
f 535/12/780 540/11/781 538/10/780
f 538/10/780 539/13/782 535/12/780
f 534/50/783 535/12/784 539/13/783
f 539/13/783 530/56/791 534/50/783
f 542/7/788 541/16/787 535/14/786
f 535/14/786 536/17/787 542/7/788
f 526/55/798 532/51/797 530/56/796
f 530/56/796 531/60/797 526/55/798
f 531/60/802 529/59/803 545/38/802
f 545/38/802 546/39/804 531/60/802
f 526/55/805 531/60/806 546/39/805
f 546/39/805 528/54/807 526/55/805
f 574/45/864 548/27/810 547/52/809
f 547/52/809 549/53/810 574/45/864
f 556/3/813 555/2/814 554/1/813
f 554/1/813 551/42/859 556/3/813
f 555/22/838 558/5/816 557/4/815
f 557/4/815 559/6/816 555/22/838
f 562/9/817 561/8/818 560/7/817
f 560/7/817 553/26/852 562/9/817
f 565/17/819 564/14/820 563/50/819
f 563/50/819 572/51/849 565/17/819
f 568/13/821 567/10/822 566/44/821
f 566/44/821 570/46/846 568/13/821
f 564/12/823 569/11/824 567/10/823
f 567/10/823 568/13/825 564/12/823
f 563/50/826 564/12/827 568/13/826
f 568/13/826 571/56/848 563/50/826
f 560/7/831 561/16/830 564/14/829
f 564/14/829 565/17/830 560/7/831
f 558/19/832 569/18/833 561/8/832
f 561/8/832 562/9/834 558/19/832
f 557/20/835 558/19/836 562/9/835
f 562/9/835 548/27/854 557/20/835
f 554/1/839 555/22/840 559/6/839
f 559/6/839 575/41/858 554/1/839
f 567/24/841 569/23/842 555/2/841
f 555/2/841 556/3/843 567/24/841
f 566/44/844 567/24/845 556/3/844
f 556/3/844 552/43/861 566/44/844
f 559/6/855 557/4/856 574/40/855
f 574/40/855 575/41/857 559/6/855
f 593/13/897 577/46/867 576/59/866
f 576/59/866 578/56/867 593/13/897
f 592/24/894 580/2/869 579/1/868
f 579/1/868 581/3/869 592/24/894
f 583/19/886 586/8/872 585/7/871
f 585/7/871 587/9/872 583/19/886
f 593/13/874 592/10/875 591/44/874
f 591/44/874 577/46/896 593/13/874
f 588/50/879 589/12/878 592/10/877
f 592/10/877 593/13/878 588/50/879
f 586/16/880 594/15/881 589/14/880
f 589/14/880 590/17/882 586/16/880
f 585/7/883 586/16/884 590/17/883
f 590/17/883 596/25/902 585/7/883
f 582/20/887 583/19/888 587/9/887
f 587/9/887 598/27/905 582/20/887
f 580/22/889 594/21/890 583/5/889
f 583/5/889 584/6/891 580/22/889
f 590/17/899 588/50/900 595/51/899
f 595/51/899 596/25/901 590/17/899
f 591/44/909 581/3/908 599/42/907
f 599/42/907 600/43/908 591/44/909
f 595/51/910 588/50/911 578/56/910
f 578/56/910 601/60/912 595/51/910
f 603/52/916 597/26/915 596/25/914
f 596/25/914 602/54/915 603/52/916
f 620/24/946 608/2/919 607/1/918
f 607/1/918 609/3/919 620/24/946
f 612/6/920 611/5/921 610/4/920
f 610/4/920 627/40/959 612/6/920
f 615/9/922 614/8/923 613/7/922
f 613/7/922 625/26/956 615/9/922
f 618/17/924 617/14/925 616/50/924
f 616/50/924 623/51/953 618/17/924
f 616/50/930 617/12/929 620/10/928
f 620/10/928 621/13/929 616/50/930
f 614/16/931 622/15/932 617/14/931
f 617/14/931 618/17/933 614/16/931
f 613/7/934 614/16/935 618/17/934
f 618/17/934 624/25/955 613/7/934
f 610/20/939 611/19/938 614/8/937
f 614/8/937 615/9/938 610/20/939
f 608/22/940 622/21/941 611/5/940
f 611/5/940 612/6/942 608/22/940
f 607/1/943 608/22/944 612/6/943
f 612/6/943 628/41/961 607/1/943
f 621/13/948 619/44/949 605/46/948
f 605/46/948 606/56/950 621/13/948
f 616/50/951 621/13/952 606/56/951
f 606/56/951 623/51/966 616/50/951
f 619/44/965 609/3/964 629/42/963
f 629/42/963 630/43/964 619/44/965
f 35/46/1004 33/43/974 635/64/973
f 635/64/973 637/66/974 35/46/1004
f 640/70/978 641/71/979 28/45/978
f 28/45/978 26/27/1006 640/70/978
f 31/42/1002 30/41/981 641/72/980
f 641/72/980 634/63/981 31/42/1002
f 648/79/990 650/80/991 649/51/990
f 649/51/990 654/56/1010 648/79/990
f 24/26/1008 651/25/993 650/80/992
f 650/80/992 644/75/993 24/26/1008
f 653/82/998 35/46/997 637/66/996
f 637/66/996 661/89/1086 653/82/998
f 656/84/1015 655/83/1016 634/63/1015
f 634/63/1015 641/72/1017 656/84/1015
f 660/88/1021 659/87/1022 657/85/1021
f 657/85/1021 658/86/1023 660/88/1021
f 638/67/1024 632/61/1025 659/87/1024
f 659/87/1024 660/88/1026 638/67/1024
f 664/57/1032 661/89/1028 637/66/1027
f 637/66/1027 662/90/1029 664/57/1032
f 666/92/1033 665/91/1034 663/58/1033
f 663/58/1033 664/57/1035 666/92/1033
f 633/62/1036 636/65/1037 665/91/1036
f 665/91/1036 666/92/1038 633/62/1036
f 670/96/1044 667/93/1040 640/70/1039
f 640/70/1039 668/94/1041 670/96/1044
f 672/98/1046 669/95/1043 667/93/1040
f 667/93/1040 670/96/1044 672/98/1046
f 642/73/1048 671/97/1045 669/95/1043
f 669/95/1043 672/98/1046 642/73/1048
f 674/100/1049 673/99/1050 644/75/1049
f 644/75/1049 650/80/1051 674/100/1049
f 676/102/1052 675/101/1053 673/99/1052
f 673/99/1052 674/100/1054 676/102/1052
f 678/104/1055 677/103/1056 675/101/1055
f 675/101/1055 676/102/1057 678/104/1055
f 646/77/1058 643/74/1059 677/103/1058
f 677/103/1058 678/104/1060 646/77/1058
f 680/106/1061 679/105/1062 648/79/1061
f 648/79/1061 653/82/1063 680/106/1061
f 682/108/1064 681/107/1065 679/105/1064
f 679/105/1064 680/106/1066 682/108/1064
f 684/110/1067 683/109/1068 681/107/1067
f 681/107/1067 682/108/1069 684/110/1067
f 652/81/1070 647/78/1071 683/109/1070
f 683/109/1070 684/110/1072 652/81/1070
f 655/83/1073 662/90/1074 635/64/1073
f 635/64/1073 634/63/1075 655/83/1073
f 657/85/1076 664/57/1077 662/90/1076
f 662/90/1076 655/83/1078 657/85/1076
f 632/61/1084 666/92/1080 664/57/1079
f 664/57/1079 659/87/1081 632/61/1084
f 663/58/1087 682/108/1088 680/106/1087
f 680/106/1087 661/89/1089 663/58/1087
f 665/91/1090 684/110/1091 682/108/1090
f 682/108/1090 663/58/1092 665/91/1090
f 636/65/1093 652/81/1094 684/110/1093
f 684/110/1093 665/91/1095 636/65/1093
f 667/93/1096 656/111/1097 641/71/1096
f 641/71/1096 640/70/1098 667/93/1096
f 671/97/1104 658/112/1100 656/111/1099
f 656/111/1099 669/95/1101 671/97/1104
f 639/68/1106 660/113/1103 658/112/1100
f 658/112/1100 671/97/1104 639/68/1106
f 673/99/1107 668/94/1108 645/76/1107
f 645/76/1107 644/75/1109 673/99/1107
f 675/101/1110 670/96/1111 668/94/1110
f 668/94/1110 673/99/1112 675/101/1110
f 677/103/1113 672/98/1114 670/96/1113
f 670/96/1113 675/101/1115 677/103/1113
f 643/74/1116 642/73/1117 672/98/1116
f 672/98/1116 677/103/1118 643/74/1116
f 679/105/1119 674/100/1120 650/80/1119
f 650/80/1119 648/79/1121 679/105/1119
f 681/107/1122 676/102/1123 674/100/1122
f 674/100/1122 679/105/1124 681/107/1122
f 683/109/1125 678/104/1126 676/102/1125
f 676/102/1125 681/107/1127 683/109/1125
f 647/78/1128 646/77/1129 678/104/1128
f 678/104/1128 683/109/1130 647/78/1128
f 65/50/1135 70/13/1133 73/41/1131
f 73/41/1131 72/40/1134 65/50/1135
f 685/116/1143 401/114/1143 404/115/1143
f 404/115/1143 686/117/1143 685/116/1143
f 687/120/1144 686/118/1144 404/119/1144
f 404/119/1144 688/121/1144 687/120/1144
f 689/127/1146 209/125/1146 214/126/1146
f 214/126/1146 690/128/1146 689/127/1146
f 691/134/1148 173/132/1148 174/133/1148
f 174/133/1148 692/135/1148 691/134/1148

