# ProBuilder 5.2.4
# https://unity3d.com/unity/features/worldbuilding/probuilder
# 28.05.2026 01:51:47

mtllib ./Broadwood-4x20.mtl
o Broadwood-4x20

g Broadwood-4x20
v 0.775 -19.375 3.5
v 0.225 -19.375 3.5
v 0.775 0.625 3.5
v 0.225 0.625 3.5
v 0.225 -19.375 -0.5
v 0.225 0.625 -0.5
v 0.775 -19.375 -0.5
v 0.775 0.625 -0.5

vt 0.775 -19.375
vt 0.225 -19.375
vt 0.775 0.625
vt 0.225 0.625
vt 3.5 -19.375
vt -0.5 -19.375
vt 3.5 0.625
vt -0.5 0.625
vt -0.225 -19.375
vt -0.775 -19.375
vt -0.225 0.625
vt -0.775 0.625
vt 0.5 -19.375
vt -3.5 -19.375
vt 0.5 0.625
vt -3.5 0.625
vt -0.775 3.5
vt -0.225 3.5
vt -0.775 -0.5
vt -0.225 -0.5
vt 0.775 -0.5
vt 0.225 -0.5
vt 0.775 3.5
vt 0.225 3.5

vn 0 0 1
vn -1 0 0
vn 0 0 -1
vn 1 0 0
vn 0 1 0
vn 0 -1 0

usemtl Grey
f 3/3/1 4/4/1 2/2/1 1/1/1
f 4/7/2 6/8/2 5/6/2 2/5/2
f 6/11/3 8/12/3 7/10/3 5/9/3
f 8/15/4 3/16/4 1/14/4 7/13/4
f 8/19/5 6/20/5 4/18/5 3/17/5
f 1/23/6 2/24/6 5/22/6 7/21/6

