# ProBuilder 5.2.4
# https://unity3d.com/unity/features/worldbuilding/probuilder
# 28.05.2026 01:47:08

mtllib ./Broadwood(BrokenRight).mtl
o Broadwood(BrokenRight)

g Broadwood(BrokenRight)
v 0.7750037 0.625 3.749995
v 0.2250005 0.625 3.749995
v 0.775 0.625 0
v 0.225 0.625 0
v 0.7750032 -4.756847 -5.377039E-06
v 0.2250001 -4.756847 -9.126172E-06
v 0.7750034 -3.564559 1.748484
v 0.2250003 -3.564559 1.748484
v 0.2250005 -0.7491293 3.617621
v 0.7750037 -0.7491293 3.617621
v 0.2250001 -0.7491293 -9.126172E-06
v 0.7750032 -0.7491293 -1.562341E-06
v 0.2250004 -2.293075 2.398871
v 0.7750035 -2.293075 2.398871
v 0.2250001 -2.293075 -2.057026E-05
v 0.7750032 -2.293075 -5.377039E-06

vt -0.7750037 3.749995
vt -0.2250005 3.749995
vt -0.775 0
vt -0.225 0
vt 0.7750253 -2.679919
vt 0.2250222 -2.679923
vt 0.77502 -0.5636089
vt 0.2250169 -0.5636103
vt 0.2249995 0.7665238
vt 0.2249995 2.078163
vt 0.7750026 2.078163
vt 0.7750026 0.7665238
vt -9.097153E-06 -0.7491293
vt 2.901798E-08 0.625
vt 3.749995 0.625
vt 3.617621 -0.7491293
vt -0.7750032 -0.7491293
vt -0.775 0.625
vt -0.225 0.625
vt -0.2250001 -0.7491293
vt -3.617621 -0.7491299
vt -3.749995 0.6249994
vt -1.001955E-07 0.6249994
vt 0.775003 -2.562495
vt 0.2249998 -2.562495
vt 0.2249997 -1.136861
vt 0.7750028 -1.136861
vt 2.398871 -2.293075
vt -2.054125E-05 -2.293075
vt 1.748484 -3.564559
vt -9.097153E-06 -4.756847
vt -0.2250001 -2.293075
vt -0.7750032 -2.293075
vt -0.2250001 -4.756847
vt -0.7750032 -4.756847
vt -2.398871 -2.293075
vt -1.748484 -3.56456

vn 0 1 0
vn -3.840323E-06 -0.8261974 0.5633808
vn 4.314883E-07 -0.09588896 0.995392
vn -1 -7.590931E-08 1.194521E-07
vn 1.375234E-05 1.137E-06 -1
vn 1 1.218626E-06 -5.586372E-07
vn 0 -0.4553981 0.8902879
vn 0 -0.6195961 0.7849209

usemtl Grey
f 3/3/1 4/4/1 2/2/1 1/1/1
f 7/7/2 8/8/2 6/6/2 5/5/2
f 1/11/3 2/10/3 9/9/3 10/12/3
f 4/14/4 11/13/4 9/16/4 2/15/4
f 12/17/5 11/20/5 4/19/5 3/18/5
f 1/22/6 10/21/6 12/13/6 3/23/6
f 13/26/7 8/25/7 7/24/7 14/27/7
f 9/9/8 13/26/8 14/27/8 10/12/8
f 9/16/4 11/13/4 15/29/4 13/28/4
f 13/28/4 15/29/4 6/31/4 8/30/4
f 12/17/5 16/33/5 15/32/5 11/20/5
f 16/33/5 5/35/5 6/34/5 15/32/5
f 14/36/6 16/29/6 12/13/6 10/21/6
f 7/37/6 5/31/6 16/29/6 14/36/6

