# ProBuilder 5.2.4
# https://unity3d.com/unity/features/worldbuilding/probuilder
# 28.05.2026 01:47:16

mtllib ./Broadwood(BrokenLeft).mtl
o Broadwood(BrokenLeft)

g Broadwood(BrokenLeft)
v 0.7750042 0.625 3.750006
v 0.2250011 0.625 3.750006
v 0.775 0.625 0
v 0.225 0.625 0
v 0.7750037 -4.77745 -2.102421E-06
v 0.2250006 -4.77745 -2.036855E-06
v 0.775004 -3.564559 1.748301
v 0.2250008 -3.564559 1.748301
v 0.225001 -1.372176 3.345953
v 0.7750041 -1.372176 3.345953
v 0.2250006 -1.372176 1.777842E-06
v 0.7750037 -1.372176 1.712277E-06
v 0.2250009 -2.293075 2.398688
v 0.775004 -2.293075 2.398687
v 0.2250006 -2.293075 1.777842E-06
v 0.7750037 -2.293075 1.712277E-06

vt -0.7750042 3.750006
vt -0.2250011 3.750006
vt -0.775 0
vt -0.225 0
vt 0.7750033 -2.723208
vt 0.2250002 -2.723208
vt 0.7750037 -0.5953771
vt 0.2250005 -0.595377
vt 0.2250004 0.3653294
vt 0.2250004 2.317442
vt 0.7750035 2.317442
vt 0.7750035 0.3653295
vt 1.817597E-06 -1.372176
vt 3.975419E-08 0.625
vt 3.750006 0.625
vt 3.345953 -1.372176
vt -0.7750037 -1.372176
vt -0.775 0.625
vt -0.225 0.625
vt -0.2250006 -1.372176
vt -3.345953 -1.372177
vt -3.750006 0.6249995
vt -9.652361E-08 0.6249995
vt 0.7750036 -2.321121
vt 0.2250005 -2.321121
vt 0.2250005 -0.8931685
vt 0.7750036 -0.8931686
vt 2.398688 -2.293075
vt 1.817597E-06 -2.293075
vt 1.748301 -3.564559
vt -1.997101E-06 -4.77745
vt -0.2250006 -2.293075
vt -0.7750037 -2.293075
vt -0.2250006 -4.77745
vt -0.7750037 -4.77745
vt -2.398687 -2.293075
vt -1.748301 -3.564559

vn 0 1 0
vn 6.795079E-08 -0.821636 0.5700126
vn 0 -0.1982946 0.9801425
vn -1 -3.208278E-07 1.202442E-07
vn -1.192093E-07 -8.573492E-07 -1
vn 1 1.039334E-06 -6.266053E-07
vn 1.929636E-07 -0.4553981 0.8902879
vn 1.510822E-07 -0.7170154 0.6970572

usemtl Grey
f 3/3/1 4/4/1 2/2/1 1/1/1
f 7/7/2 8/8/2 6/6/2 5/5/2
f 1/11/3 2/10/3 9/9/3 10/12/3
f 4/14/4 11/13/4 9/16/4 2/15/4
f 12/17/5 11/20/5 4/19/5 3/18/5
f 1/22/6 10/21/6 12/13/6 3/23/6
f 13/26/7 8/25/7 7/24/7 14/27/7
f 10/12/8 9/9/8 13/26/8 14/27/8
f 11/13/4 15/29/4 13/28/4 9/16/4
f 15/29/4 6/31/4 8/30/4 13/28/4
f 12/17/5 16/33/5 15/32/5 11/20/5
f 16/33/5 5/35/5 6/34/5 15/32/5
f 14/36/6 16/29/6 12/13/6 10/21/6
f 7/37/6 5/31/6 16/29/6 14/36/6

