# ProBuilder 5.2.4
# https://unity3d.com/unity/features/worldbuilding/probuilder
# 3.06.2026 17:46:59

mtllib ./DirtA.mtl
o DirtA

g DirtA (1)
v -0.5 0 1.1
v -0.5 0 0.55
v -0.5 0.1 0.55
v -0.5 0.1 1.1
v -0.5 0.1409118 0.55
v -0.5 0.1409118 1.1
v 0.5999999 0 1.1
v 0.5999999 0.1 1.1
v 0.4000001 0.1 0.55
v 0.4000001 0 0.55
v 0.4000001 0.128387 1.1
v 0.2000003 0.1550103 0.55
v -0.5 0 1.65
v -0.5 0.1 1.65
v -0.5 0.1409118 1.65
v 0.3 0 1.65
v 0.3 0.1 1.65
v 0.1000001 0.1216986 1.65
v -0.5 0 2.2
v -0.5 0 1.925
v -0.5 0.1 1.925
v -0.5 0.1 2.265672
v -0.5 0.1409118 1.925
v -0.5 0.1409118 2.2
v 0 0 2.4
v -0.0999999 0.1 2.2
v 0 0.1 1.925
v 0 0 1.925
v -0.0999999 0.1200773 2.1
v -0.0999999 0.1409118 1.925
v -0.5 0 0.275
v -0.5 0.1 0.275
v -0.5 0.1409118 0.2750001
v -0.5 0 0
v -0.5 0.1 0
v -0.5 0.1409118 0
v 0.8000001 0.1 0.2750001
v 0.8000001 0 0.2750001
v 0.6000001 0.1409118 0.2750001
v 0.9000001 0.1 0
v 0.9000001 0 0
v 0.8000001 0.1409118 0
v -0.375 0.1522424 0.55
v -0.375 0.124194 1.1
v -0.25 0.1409118 0.55
v -0.25 0.1409118 1.1
v -0.375 0 1.1
v -0.375 0 0.55
v -0.25 0 1.1
v -0.25 0 0.55
v -0.375 0.1409118 1.65
v -0.25 0.1782365 1.65
v -0.375 0 1.65
v -0.25 0 1.65
v -0.375 0.1409118 1.925
v -0.25 0.09447129 1.925
v -0.375 0.1409118 2.032853
v -0.2548435 0.1409118 2.1
v -0.375 0 2.5
v -0.375 0 1.925
v -0.25 0 2.3
v -0.25 0 1.925
v -0.375 0.1409118 0
v -0.375 0.1409118 0.2750001
v -0.25 0.1409118 0
v -0.25 0.1045951 0.2750001
v -0.375 0 0.275
v -0.25 0 0.275
v -0.375 0 0
v -0.25 0 0
v -0.375 0.1 2.2
v -0.25 0.1 2.2
v -0.25 0.1 0
v -0.375 0.1 0
v -0.125 0.1409118 0.55
v -0.125 0.09329268 1.1
v -0.125 0 1.1
v -0.125 0 0.55
v -0.125 0.1409118 1.65
v -0.125 0 1.65
v -0.125 0.1409118 1.925
v -0.1634665 0.1293702 2.1
v -0.125 0 2.3
v -0.125 0 1.925
v -0.125 0.1409118 0
v -0.125 0.1863835 0.2750001
v -0.125 0 0.275
v -0.125 0 0
v -0.125 0.1 2.2
v -0.125 0.1 0

vt 1.1 0
vt 0.55 0
vt 0.55 0.1
vt 1.1 0.1
vt 0.55 0.1409118
vt 1.1 0.1409118
vt -0.768751 -0.6001002
vt -0.768751 -0.5205915
vt -0.3444296 -0.276142
vt -0.3444296 -0.3556507
vt -0.8486426 -0.3868203
vt -0.4243212 -0.1212031
vt 1.65 0
vt 1.65 0.1
vt 1.65 0.1409118
vt -1.392802 -0.566547
vt -1.392802 -0.4870384
vt -1.472694 -0.3585851
vt 2.2 0
vt 1.925 0
vt 1.925 0.1
vt 2.265672 0.1
vt 1.925 0.1409118
vt 2.2 0.1409118
vt -2.200203 -0.5814478
vt -2.056798 -0.3978847
vt -1.764746 -0.386861
vt -1.764746 -0.4663696
vt -1.965123 -0.3576945
vt -1.804692 -0.298732
vt 0.275 0
vt 0.275 0.1
vt 0.2750001 0.1409118
vt 0 0
vt 0 0.1
vt 0 0.1409118
vt 0.06746037 -0.4319201
vt 0.06746037 -0.5114287
vt -0.01243135 -0.2881905
vt 0.3595129 -0.4208964
vt 0.3595129 -0.500405
vt 0.319567 -0.3327674
vt 0.5007719 0.5492835
vt 0.3758366 0.5492218
vt 0.3756814 1.099359
vt 0.5007719 1.099276
vt 0.2507758 0.5492764
vt 0.2507758 1.099269
vt -0.5 0.55
vt -0.5 1.1
vt -0.375 1.1
vt -0.375 0.55
vt -0.25 1.1
vt -0.25 0.55
vt 0.3757738 1.649266
vt 0.5007719 1.649269
vt 0.2509823 1.649071
vt -0.5 1.65
vt -0.375 1.65
vt -0.25 1.65
vt 0.3757738 1.924262
vt 0.5007719 1.924266
vt 0.2505188 1.924497
vt 0.3757738 2.032114
vt 0.5007719 2.199262
vt 0.2556192 2.099256
vt -0.5 2.2
vt -0.375 2.5
vt -0.375 1.925
vt -0.5 1.925
vt -0.25 2.3
vt -0.25 1.925
vt 0.5007719 -0.0007091826
vt 0.3757738 -0.0007127327
vt 0.3757738 0.2742837
vt 0.5007719 0.2742873
vt 0.2507758 -0.0007162829
vt 0.2505749 0.2744666
vt -0.375 0.275
vt -0.5 0.275
vt -0.25 0.275
vt -0.375 0
vt -0.5 0
vt -0.25 0
vt 0.248238 1.9566
vt 0.372357 2.120439
vt 0.3605053 1.812127
vt 0.2363863 1.819753
vt 0.496476 1.855615
vt 0.4846242 1.860803
vt 0.3556565 1.647915
vt 0.2363468 1.712813
vt 0.4797755 1.783589
vt 0.25 0
vt 0.25 0.1
vt 0.375 0.1
vt 0.375 0
vt 0.5 0.1
vt 0.5 0
vt 0.25 0.1409118
vt 0.375 0.1409118
vt 0.5 0.1409118
vt 0.1257777 0.5492729
vt 0.1255142 1.09951
vt -0.1991397 0.5491913
vt -0.3992837 1.099315
vt -0.125 1.1
vt -0.125 0.55
vt 0.5999999 1.1
vt 0.4000001 0.55
vt 0.1257777 1.649258
vt -0.09932533 1.649351
vt -0.125 1.65
vt 0.3 1.65
vt 0.1257777 1.924255
vt 0.100778 1.924254
vt 0.1641797 2.099313
vt 0.1006627 2.099359
vt -0.125 2.3
vt -0.125 1.925
vt 0 2.4
vt 0 1.925
vt 0.1257777 -0.0007198331
vt 0.1260292 0.2740432
vt -0.7992083 -0.0007461045
vt -0.5992114 0.2742561
vt -0.125 0.275
vt 0.8000001 0.2750001
vt -0.125 0
vt 0.9000001 0
vt 0 2.057585
vt 0.124119 1.964226
vt 0.1122673 1.827379
vt 0.08744337 1.828904
vt 0.1469817 1.724287
vt 0.08506386 1.732909
vt -0.9000001 0
vt -0.9000001 0.1
vt 0.125 0.1
vt 0.125 0
vt -0.8000001 0.1409118
vt 0.125 0.1409118

vn -1 0 0
vn 0.9397935 0 -0.3417428
vn 0.1403437 0.9887867 -0.05103404
vn 0.2026094 0.9758939 -0.0503686
vn 0.264875 0.963001 -0.04970317
vn 0.8778957 0 0.478852
vn 0.1076742 0.9924499 0.05873135
vn 0.1238258 0.9893278 0.07353778
vn 0.1399774 0.9862057 0.08834422
vn 0.746461 0.4257051 0.08962212
vn 0.4929221 0.8514102 0.1792442
vn 1 0 0
vn 0.6875576 0.4584436 0.06820272
vn 0.3751153 0.9168872 0.1364054
vn 0.6757247 0 0.7371541
vn 0.2388195 0.946502 0.1615266
vn 0.3705177 0.9056494 0.2061934
vn 0.1071214 0.9873545 0.1168597
vn 0.5665287 0 0.8240421
vn 0.2218843 0.9272284 0.2993144
vn 0.2513675 0.9138919 0.3187727
vn 0.192401 0.9405649 0.2798562
vn 0.9397935 0 0.3417431
vn 0.2867143 0.9431782 0.1403167
vn 0.1983136 0.969469 0.144228
vn 0.02120175 0.9929048 0.02536169
vn -0.09015828 0.9946349 0.05072338
vn 0.1325618 0.9911748 0
vn -0.02105914 0.992914 0.02524124
vn 0.09027449 0.9959169 0
vn -0.1323928 0.989911 0.05048247
vn 0 -1 0
vn 0.06625083 0.9953626 -0.015057
vn 0.1325017 0.9907252 -0.030114
vn 0 1 0
vn -0.2091284 0.9733646 -0.04811274
vn -0.1322629 0.9889401 -0.06711261
vn -0.285994 0.9577891 -0.02911288
vn 0.03680465 0.9286069 0.1400887
vn -0.2746558 0.9198178 0.2801774
vn 0.3482651 0.937396 0
vn 0.169358 0.9558467 -0.1162828
vn 0.3387159 0.9116933 -0.2325655
vn 0.1394987 0.9758421 0.06546203
vn 0 0.9913924 0.1309241
vn 0.2789973 0.9602919 0
vn -0.04513724 0.9975346 -0.02058359
vn 0 0.9991523 -0.04116718
vn -0.09027448 0.9959169 0
vn 0.1834895 0.9738706 -0.08340438
vn 0.2767805 0.9526618 -0.1258094
vn 0.09019858 0.9950795 -0.04099938
vn 0.2257329 0.7768033 0.4946364
vn 0.4514658 0.8464991 0.2821664
vn 0 0.7071073 0.7071063
vn -0.3655384 0.3454807 0.3424278
vn -0.8949691 -0.244894 0.3729039
vn 0.1638924 0.9358554 0.3119518
vn -0.1058524 0.9361254 0.3082923
vn 0 0.9713271 0.2377473
vn -0.2117047 0.9009237 0.3788373
vn 0.2853152 0.8717389 0.3680199
vn 0.2676621 0.8178025 0.5094665
vn 0.3029683 0.9256753 0.2265733
vn 0 0 -1
vn 0.1779978 0.9653802 0.04312875
vn 0 0.9962729 0.0862575
vn 0.3559957 0.9344876 0
vn -0.0548502 0.9955419 0.07502778
vn -0.04325037 0.997013 0.06398872
vn -0.06645003 0.9940709 0.08606685
vn 0.3201742 0.9438099 -0.07276684
vn 0.3548362 0.9314439 -0.08064456
vn 0.2855122 0.9561758 -0.06488912
vn 0.009044643 0.9950836 -0.05509336
vn -0.06667793 0.9974801 -0.02423971
vn 0.08476721 0.992687 -0.08594701
vn -0.02438308 0.9297837 0.1372794
vn 0.2861152 0.9581952 0
vn -0.3348814 0.9013723 0.2745588
vn 0.04253975 0.998172 -0.003867265
vn 0.08507951 0.9963441 -0.007734531
vn -0.1134714 0.9487658 -0.1330964
vn -0.3482274 0.9372944 -0.01472713
vn 0.1212845 0.960237 -0.2514656
vn 0.07210001 0.9889026 0.1074332
vn 0 0.9929875 0.1182196
vn 0.1442 0.9848176 0.09664684
vn -0.2721035 0.9091666 -0.02664884
vn 0 0.9866036 -0.1631366
vn -0.544207 0.8317296 0.1098389
vn 0.03088063 0.99236 -0.08141256
vn 0.06176126 0.9847201 -0.1628251
vn -0.2711764 0.9101441 0.00306762
vn -0.5423529 0.8288957 0.1370594
vn 0 0.9913924 -0.1309242
vn 0.009893611 0.9914736 0.1014193
vn 0.06254689 0.9972461 0.03985121
vn -0.04275966 0.9857011 0.1629875
vn -0.2461827 0.7549427 0.5313354
vn -0.4923654 0.6154581 0.6154573
vn 0 0.8944272 0.4472135
vn 0.07105073 0.9649794 0.238323
vn 0 0.9594734 0.2817992
vn 0.1421015 0.9704854 0.1948467
vn 0.06088127 0.94478 0.3074756
vn 0 0.9255384 0.3786538
vn 0.1217625 0.9640215 0.2362974

usemtl Brown
f 4/4/1 3/3/1 2/2/1 1/1/1
f 6/6/1 5/5/1 3/3/1 4/4/1
f 7/7/2 10/10/2 9/9/2 8/8/2
f 8/8/3 9/9/4 12/12/5 11/11/4
f 14/14/1 4/4/1 1/1/1 13/13/1
f 15/15/1 6/6/1 4/4/1 14/14/1
f 16/16/6 7/7/6 8/8/6 17/17/6
f 17/17/7 8/8/8 11/11/9 18/18/8
f 22/22/1 21/21/1 20/20/1 19/19/1
f 24/24/1 23/23/1 21/21/1 22/22/1
f 21/21/1 14/14/1 13/13/1 20/20/1
f 23/23/1 15/15/1 14/14/1 21/21/1
f 28/28/12 27/27/10 26/26/11 25/25/10
f 27/27/14 30/30/13 29/29/12 26/26/13
f 16/16/15 17/17/15 27/27/15 28/28/15
f 17/17/18 18/18/16 30/30/17 27/27/16
f 3/3/1 32/32/1 31/31/1 2/2/1
f 5/5/1 33/33/1 32/32/1 3/3/1
f 32/32/1 35/35/1 34/34/1 31/31/1
f 33/33/1 36/36/1 35/35/1 32/32/1
f 38/38/19 37/37/19 9/9/19 10/10/19
f 37/37/22 39/39/20 12/12/21 9/9/20
f 41/41/23 40/40/23 37/37/23 38/38/23
f 40/40/14 42/42/24 39/39/25 37/37/24
f 6/46/28 44/45/26 43/44/27 5/43/26
f 44/45/31 46/48/29 45/47/30 43/44/29
f 48/52/32 47/51/32 1/50/32 2/49/32
f 50/54/32 49/53/32 47/51/32 48/52/32
f 15/56/35 51/55/33 44/45/34 6/46/33
f 51/55/38 52/57/36 46/48/37 44/45/36
f 47/51/32 53/59/32 13/58/32 1/50/32
f 49/53/32 54/60/32 53/59/32 47/51/32
f 23/62/35 55/61/35 51/55/35 15/56/35
f 55/61/41 56/63/39 52/57/40 51/55/39
f 24/65/35 57/64/35 55/61/35 23/62/35
f 57/64/35 58/66/42 56/63/43 55/61/42
f 60/69/32 59/68/32 19/67/32 20/70/32
f 62/72/32 61/71/32 59/68/32 60/69/32
f 53/59/32 60/69/32 20/70/32 13/58/32
f 54/60/32 62/72/32 60/69/32 53/59/32
f 33/76/35 64/75/35 63/74/35 36/73/35
f 64/75/46 66/78/44 65/77/45 63/74/44
f 5/43/49 43/44/47 64/75/48 33/76/47
f 43/44/52 45/47/50 66/78/51 64/75/50
f 67/79/32 48/52/32 2/49/32 31/80/32
f 68/81/32 50/54/32 48/52/32 67/79/32
f 69/82/32 67/79/32 31/80/32 34/83/32
f 70/84/32 68/81/32 67/79/32 69/82/32
f 72/88/55 71/87/53 59/86/54 61/85/53
f 71/87/58 22/90/56 19/89/57 59/86/56
f 58/92/61 57/91/59 71/87/60 72/88/59
f 57/91/64 24/93/62 22/90/63 71/87/62
f 69/97/65 74/96/65 73/95/65 70/94/65
f 34/99/65 35/98/65 74/96/65 69/97/65
f 74/96/65 63/101/65 65/100/65 73/95/65
f 35/98/65 36/102/65 63/101/65 74/96/65
f 46/48/68 76/104/66 75/103/67 45/47/66
f 76/104/71 11/106/69 12/105/70 75/103/69
f 78/108/32 77/107/32 49/53/32 50/54/32
f 10/110/32 7/109/32 77/107/32 78/108/32
f 52/57/74 79/111/72 76/104/73 46/48/72
f 79/111/77 18/112/75 11/106/76 76/104/75
f 77/107/32 80/113/32 54/60/32 49/53/32
f 7/109/32 16/114/32 80/113/32 77/107/32
f 56/63/80 81/115/78 79/111/79 52/57/78
f 81/115/35 30/116/81 18/112/82 79/111/81
f 58/66/85 82/117/83 81/115/84 56/63/83
f 82/117/88 29/118/86 30/116/87 81/115/86
f 84/120/32 83/119/32 61/71/32 62/72/32
f 28/122/32 25/121/32 83/119/32 84/120/32
f 80/113/32 84/120/32 62/72/32 54/60/32
f 16/114/32 28/122/32 84/120/32 80/113/32
f 66/78/91 86/124/89 85/123/90 65/77/89
f 86/124/93 39/126/92 42/125/35 85/123/92
f 45/47/96 75/103/94 86/124/95 66/78/94
f 75/103/99 12/105/97 39/126/98 86/124/97
f 87/127/32 78/108/32 50/54/32 68/81/32
f 38/128/32 10/110/32 78/108/32 87/127/32
f 88/129/32 87/127/32 68/81/32 70/84/32
f 41/130/32 38/128/32 87/127/32 88/129/32
f 26/134/102 89/133/100 83/132/101 25/131/100
f 89/133/55 72/88/55 61/85/55 83/132/55
f 29/136/105 82/135/103 89/133/104 26/134/103
f 82/135/108 58/92/106 72/88/107 89/133/106
f 88/140/65 90/139/65 40/138/65 41/137/65
f 70/94/65 73/95/65 90/139/65 88/140/65
f 90/139/65 85/142/65 42/141/65 40/138/65
f 73/95/65 65/100/65 85/142/65 90/139/65

