# ProBuilder 5.2.4
# https://unity3d.com/unity/features/worldbuilding/probuilder
# 3.06.2026 17:47:11

mtllib ./DirtB.mtl
o DirtB

g DirtB (1)
v 0 0 1
v -1.1 0 1
v 0 7.450581E-09 1.3
v -1 7.450581E-09 1.3
v -1 0 -1.9
v 0 0 -1.9
v -1 0.1 -1.8
v 0 0.1 -1.8
v -0.8 0.3 0.8
v -0.2 0.3 0.8
v -0.2 0.3 -1.6
v -0.8 0.3 -1.6
v -1.4 0 -1
v -1.3 0.1 -1
v -0.3000002 0 -1
v -0.3000002 0.1 -1
v -1.1 0.3 -1
v -0.5 0.3 -1
v -1 0 -5.960464E-08
v -0.8000002 0.1 -5.960464E-08
v 0.1999998 0.1 -5.960464E-08
v 0.1999998 0 -5.960464E-08
v 0 0.3 -0.1000001
v -0.6000004 0.3 -0.1000001

vt 0 0
vt -1 0
vt 0 0.1
vt -1 0.1
vt 1 0
vt 1 0.1
vt 1 1.114741
vt 0 1.114741
vt 0.8 0.5316456
vt 0.2 0.5316456
vt 0 -1.202082
vt 1 -1.202082
vt 0.2 -0.919239
vt 0.8 -0.919239
vt -0.4000001 0
vt -1.8 0
vt -1.8 0.1
vt -0.4000001 0.1
vt 1.8 0
vt 0.4000001 0
vt 0.4000001 0.1
vt 1.8 0.1
vt 0.8 -0.4000001
vt 0.8 -1.6
vt 0.2 -1.6
vt 0.2 -0.4000001
vt 0 -1.9
vt -1 -1.9
vt -1.4 -1
vt -0.3000002 -1
vt 1.798497 0.1240398
vt 0.9869065 0.2906078
vt 0.9787343 0.5715767
vt 1.590492 0.3999116
vt 0.8804933 -0.9954515
vt 0.6615278 -1.79641
vt 0.3788368 -1.596369
vt 0.5978025 -0.9954078
vt 0.3 0
vt 0.3 0.1
vt -0.3 0.1
vt -0.3 0
vt 0.2 0.2
vt 0.8 0.2
vt 0.2 0.8
vt 0.8 0.8
vt 0.1999998 -5.960464E-08
vt -1.1 1
vt 0 1
vt -0.8075042 0.3387461
vt 0.09991653 0.2370456
vt 0.008172331 -0.04647182
vt -1.298914 -0.03313131
vt 0.2328601 -0.09703048
vt 0.515551 0.002924688
vt 0.3788368 0.8036047
vt 0.7298848 1.303211

vn 0 -1 2.483526E-08
vn 0 0.7071064 -0.7071071
vn 0 0.8574929 0.5144957
vn -0.7650676 0.5298869 -0.316298
vn -0.8466488 0.3762881 -0.3762885
vn -0.6834864 0.6834857 -0.2563075
vn 0.904534 -0.3015112 0.3015116
vn 0.9204316 -0.1507556 0.3263176
vn 0.9363291 0 0.3511236
vn 0 1 0
vn 0.8081221 0.5050761 0.303046
vn 0.7373945 0.5858712 0.3181897
vn 0.6666669 0.6666663 0.3333335
vn -0.6205167 0.7282102 -0.2743607
vn -0.5743665 0.789754 -0.2153876
vn -0.6666669 0.6666663 -0.3333338
vn -0.3012599 0.9399824 0.003620349
vn -0.4467674 0.8935339 -0.0446767
vn -0.1557525 0.9864308 0.0519174
vn -0.5584251 0.7766424 0.2451919
vn -0.6804141 0.6804134 0.2721657
vn -0.4364361 0.8728713 0.2182181
vn 0.7138973 -0.4472135 0.09805799
vn 0.4472141 -0.894427 2.221332E-08
vn 0.9805807 0 0.196116
vn 0.8944272 0 -0.4472136
vn 0.669764 0.7264606 0.1532667
vn 0.6616935 0.7352144 0.147043
vn 0.6778345 0.7177069 0.1594903
vn 0.7004635 0.6076152 -0.3685136
vn 0.6581455 0.6581448 -0.3656363
vn 0.7427816 0.5570855 -0.3713908
vn -0.6272153 0.7017503 0.3318895
vn -0.6581455 0.6581448 0.3656363
vn -0.5962851 0.7453557 0.2981426
vn -0.7373091 0.6553853 -0.1638462
vn -0.8185222 0.5393952 -0.1348486
vn -0.8997353 0.4234051 -0.1058511

usemtl Brown
f 3/3/1 4/4/1 2/2/1 1/1/1
f 7/6/2 8/3/2 6/1/2 5/5/2
f 10/10/3 9/9/3 4/7/3 3/8/3
f 12/14/2 11/13/2 8/11/2 7/12/2
f 14/18/6 7/17/4 5/16/5 13/15/4
f 6/19/7 8/22/8 16/21/9 15/20/8
f 17/23/10 18/26/10 11/25/10 12/24/10
f 6/27/1 15/30/1 13/29/1 5/28/1
f 18/33/13 16/32/12 8/31/11 11/34/12
f 17/38/16 12/37/14 7/36/15 14/35/14
f 4/6/19 20/40/17 19/39/18 2/5/17
f 20/40/22 14/18/20 13/15/21 19/39/20
f 22/42/25 21/41/23 3/4/24 1/2/23
f 15/20/26 16/21/26 21/41/26 22/42/26
f 23/43/10 18/26/10 17/23/10 24/44/10
f 23/43/10 24/44/10 9/46/10 10/45/10
f 15/30/1 22/47/1 19/2/1 13/29/1
f 22/47/1 1/49/1 2/48/1 19/2/1
f 23/51/28 10/50/27 3/53/29 21/52/27
f 16/32/30 18/33/31 23/51/30 21/52/32
f 20/55/35 24/54/33 17/38/34 14/35/33
f 4/57/38 9/56/37 24/54/36 20/55/37

