# ProBuilder 5.2.4
# https://unity3d.com/unity/features/worldbuilding/probuilder
# 28.05.2026 00:44:03

mtllib ./Parapet_WoodA-Corner.mtl
o Parapet_WoodA-Corner

g Parapet_WoodA-Corner
v 0 0 0
v -0.2001953 0 0
v -0.2001953 1.25 0
v 0 1.049805 0
v -0.25 0 0
v -0.25 1.25 0
v -0.25 0 -0.25
v -0.2001953 0 -0.25
v -0.2001953 1.049805 -0.25
v -0.25 1.049805 -0.25
v 0 0 -0.25
v 0 0.7998047 -0.25
v -0.25 0 -0.04978943
v -0.25 1.25 -0.04978943
v 0 0 -0.04978943
v 0 1.049805 -0.04978943
v -0.2001953 1.25 -0.04978943
v -0.2001953 0 -0.04978943

vt 80.8168 75.53107
vt 80.61661 75.53107
vt 80.61661 76.78107
vt 80.8168 76.58087
vt 80.5668 75.53107
vt 80.5668 76.78107
vt -80.5668 75.53107
vt -80.61661 75.53107
vt -80.61661 76.58087
vt -80.5668 76.58087
vt -80.8168 75.53107
vt -80.8168 76.33087
vt -32.00077 75.53107
vt -32.05056 75.53107
vt -32.05056 76.78107
vt -32.00077 76.78107
vt -32.25077 75.53107
vt -32.25077 76.58087
vt 32.25077 75.53107
vt 32.05056 75.53107
vt 32.05056 76.58087
vt 32.25077 76.33087
vt 32.00077 75.53107
vt 32.00077 76.58087
vt 2.353179 42.70541
vt 2.249663 42.97744
vt 2.53542 42.9221
vt 2.618314 42.66742
vt 2.58074 42.92999
vt 2.663634 42.6753
vt 2.663634 42.62929
vt 2.618314 42.6214
vt 2.353179 42.6594
vt 32.25078 80.61661
vt 32.05057 80.61661
vt 32.05057 80.8168
vt 32.25078 80.8168
vt 32.00078 80.61661
vt 32.00078 80.8168
vt 32.25078 80.5668
vt 32.05057 80.5668
vt 32.00078 80.5668

vn 0 0 1
vn 0 0 -1
vn -1 0 0
vn 1 0 0
vn 0.5963472 0.5350546 -0.5963018
vn 0.6153295 0.4927443 -0.6152826
vn 0.5773649 0.5773649 -0.5773209
vn 0.7071068 0.7071068 0
vn 0 1 0
vn 0 0.7071337 -0.7070798
vn 0 -1 0

usemtl Wood
f 3/3/1 2/2/1 1/1/1 4/4/1
f 6/6/1 5/5/1 2/2/1 3/3/1
f 7/7/2 10/10/2 9/9/2 8/8/2
f 8/8/2 9/9/2 12/12/2 11/11/2
f 6/16/3 14/15/3 13/14/3 5/13/3
f 14/15/3 10/18/3 7/17/3 13/14/3
f 11/19/4 12/22/4 16/21/4 15/20/4
f 15/20/4 16/21/4 4/24/4 1/23/4
f 17/28/7 16/27/5 12/26/6 9/25/5
f 3/30/8 4/29/8 16/27/8 17/28/8
f 3/30/9 17/28/9 14/32/9 6/31/9
f 17/28/10 9/25/10 10/33/10 14/32/10
f 11/37/11 15/36/11 18/35/11 8/34/11
f 15/36/11 1/39/11 2/38/11 18/35/11
f 8/34/11 18/35/11 13/41/11 7/40/11
f 18/35/11 2/38/11 5/42/11 13/41/11

