# ProBuilder 5.2.4
# https://unity3d.com/unity/features/worldbuilding/probuilder
# 28.05.2026 00:44:11

mtllib ./Parapet_WoodA.mtl
o Parapet_WoodA

g Parapet_WoodA
v 0 1.25 0.25
v -0.25 1.25 0.25
v 0 1.25 0.1999969
v -0.25 1.25 0.1999969
v 0 0 0
v -0.25 0 0
v 0 0 0.25
v -0.25 0 0.25
v -0.25 1 0.25
v 0 1 0.25
v 0 1 0
v 0 1.05 0
v -0.25 1.05 0
v -0.25 1 0
v -1.5 1 0.25
v -1.5 1 0
v -1.5 1.05 0
v -1.5 1.25 0.25
v -1.5 1.25 0.1999969
v -0.25 0.125 0.25
v 0 0.125 0.25
v -1.5 0 0.25
v -1.5 0 0
v -1.5 0.125 0
v -1.5 0.125 0.25
v -0.25 0.125 0
v 0 0.125 0

vt -32.00078 80.5619
vt -32.00078 80.31191
vt -32.05078 80.5619
vt -32.05078 80.31191
vt 32.25078 80.5668
vt 32.25078 80.3168
vt 32.00078 80.5668
vt 32.00078 80.3168
vt 80.3168 76.53107
vt 80.3168 76.78107
vt 80.5668 76.78107
vt 80.5668 76.53107
vt -79.72037 76.3671
vt -79.67036 76.3671
vt -79.67036 76.1171
vt -79.72037 76.1171
vt 32.00078 79.0668
vt 32.25078 79.0668
vt -79.7168 76.93079
vt -79.6668 76.93079
vt -79.7168 75.68079
vt -79.6668 75.68079
vt 95.17233 76.03111
vt 94.92233 76.03111
vt 95.17233 77.28111
vt 94.92233 77.28111
vt -32.05078 79.06199
vt -32.00078 79.06199
vt 80.5668 75.53107
vt 80.3168 75.53107
vt 80.3168 75.65607
vt 80.5668 75.65607
vt -32.00077 75.53107
vt -32.25077 75.53107
vt -32.25077 75.65607
vt -32.00077 75.65607
vt -32.25077 76.53107
vt -32.00077 76.53107
vt -80.5668 75.53107
vt -80.5668 75.65607
vt -80.3168 75.65607
vt -80.3168 75.53107
vt -80.5668 76.53107
vt -80.3168 76.53107
vt 32.00077 75.53107
vt 32.00077 75.65607
vt 32.25077 75.65607
vt 32.25077 75.53107
vt 32.00077 76.53107
vt 32.25077 76.53107
vt -79.7543 76.21857
vt -79.6293 76.21857
vt -79.7543 74.96857
vt -79.6293 74.96857
vt 79.7543 74.96857
vt 79.6293 74.96857
vt 79.7543 76.21857
vt 79.6293 76.21857
vt -32.25078 82.51044
vt -32.00078 82.51044
vt -32.25078 81.26044
vt -32.00078 81.26044
vt 31.62964 80.31681
vt 31.62964 80.56681
vt 31.3468 80.31681
vt 31.3468 80.56681
vt 31.3468 79.06681
vt 31.62964 79.06681
vt 32.00077 76.78107
vt 32.05077 76.78107
vt 32.25077 76.58107
vt -32.25077 76.58107
vt -32.05078 76.78107
vt -32.00077 76.78107

vn 0 1 0
vn 0 -1 0
vn 0 0 1
vn 0 0 -1
vn -1 0 0
vn 1 0 0
vn 0 0.7071017 -0.7071118

usemtl Wood
f 10/49/6 12/71/6 3/70/6
f 10/49/6 11/50/6 12/71/6
f 1/69/6 10/49/6 3/70/6
f 19/73/5 15/38/5 18/74/5
f 17/72/5 16/37/5 15/38/5
f 19/73/5 17/72/5 15/38/5
f 4/4/1 2/2/1 1/1/1
f 1/1/1 3/3/1 4/4/1
f 8/8/2 6/6/2 5/5/2
f 5/5/2 7/7/2 8/8/2
f 2/10/3 9/9/3 10/12/3
f 10/12/3 1/11/3 2/10/3
f 13/15/4 12/14/4 11/13/4
f 11/13/4 14/16/4 13/15/4
f 16/18/2 14/6/2 9/8/2
f 9/8/2 15/17/2 16/18/2
f 17/22/4 13/20/4 14/19/4
f 14/19/4 16/21/4 17/22/4
f 15/26/3 9/24/3 2/23/3
f 2/23/3 18/25/3 15/26/3
f 18/28/1 2/2/1 4/4/1
f 4/4/1 19/27/1 18/28/1
f 20/31/3 8/30/3 7/29/3
f 7/29/3 21/32/3 20/31/3
f 9/9/3 20/31/3 21/32/3
f 21/32/3 10/12/3 9/9/3
f 24/35/5 23/34/5 22/33/5
f 22/33/5 25/36/5 24/35/5
f 14/37/5 26/35/5 20/36/5
f 20/36/5 9/38/5 14/37/5
f 26/41/4 27/40/4 5/39/4
f 5/39/4 6/42/4 26/41/4
f 14/44/4 11/43/4 27/40/4
f 27/40/4 26/41/4 14/44/4
f 27/47/6 21/46/6 7/45/6
f 7/45/6 5/48/6 27/47/6
f 11/50/6 10/49/6 21/46/6
f 21/46/6 27/47/6 11/50/6
f 23/18/2 6/6/2 8/8/2
f 8/8/2 22/17/2 23/18/2
f 24/54/4 26/52/4 6/51/4
f 6/51/4 23/53/4 24/54/4
f 22/58/3 8/56/3 20/55/3
f 20/55/3 25/57/3 22/58/3
f 25/62/1 20/60/1 26/59/1
f 26/59/1 24/61/1 25/62/1
f 13/65/7 4/63/7 3/64/7
f 3/64/7 12/66/7 13/65/7
f 4/63/7 13/65/7 17/67/7
f 17/67/7 19/68/7 4/63/7

