# ProBuilder 5.2.4
# https://unity3d.com/unity/features/worldbuilding/probuilder
# 28.05.2026 00:44:37

mtllib ./Parapet_WoodA-Single.mtl
o Parapet_WoodA-Single

g Parapet_WoodA-Single
v 0 1.25 0.25
v -0.25 1.25 0.25
v 0 1.25 0.1999969
v -0.25 1.25 0.1999969
v 0 0 0
v -0.25 0 0
v 0 0 0.25
v -0.25 0 0.25
v -0.25 1 0.25
v 0 1 0.25
v 0 1 0
v 0 1.05 0
v -0.25 1.05 0
v -0.25 1 0
v -0.25 0.125 0.25
v 0 0.125 0.25
v -0.25 0.125 0
v 0 0.125 0

vt -64.0496 157.6288
vt -64.2996 157.6288
vt -64.0496 157.6788
vt -64.2996 157.6788
vt 64.25156 157.8836
vt 64.50156 157.8836
vt 64.25156 157.6336
vt 64.50156 157.6336
vt 157.8836 152.0621
vt 157.8836 152.3121
vt 158.1336 152.3121
vt 158.1336 152.0621
vt -158.1336 151.8162
vt -158.1336 151.8662
vt -157.8836 151.8662
vt -157.8836 151.8162
vt 158.1336 151.0621
vt 157.8836 151.0621
vt 157.8836 151.1871
vt 158.1336 151.1871
vt -64.50155 151.1871
vt -64.50155 152.0621
vt -64.25155 152.0621
vt -64.25155 151.1871
vt -158.1336 151.0621
vt -158.1336 151.1871
vt -157.8836 151.1871
vt -157.8836 151.0621
vt -158.1336 152.0621
vt -157.8836 152.0621
vt 64.25154 151.0621
vt 64.25154 151.1871
vt 64.50154 151.1871
vt 64.50154 151.0621
vt 64.25154 152.0621
vt 64.50154 152.0621
vt 65.26087 157.1578
vt 65.51087 157.1578
vt 65.26087 157.4407
vt 65.51087 157.4407
vt 64.25154 152.3121
vt 64.30154 152.3121
vt 64.50154 152.1121
vt -64.50155 151.0621
vt -64.25155 151.0621
vt -64.25155 152.3121
vt -64.30155 152.3121
vt -64.50155 152.1121

vn 0 1 0
vn 0 -1 0
vn 0 0 1
vn 0 0 -1
vn -1 0 0
vn 1 0 0
vn 0 0.7071017 -0.7071118

usemtl Wood
f 10/35/6 12/43/6 3/42/6
f 10/35/6 11/36/6 12/43/6
f 1/41/6 10/35/6 3/42/6
f 4/47/5 9/23/5 2/46/5
f 13/48/5 14/22/5 9/23/5
f 4/47/5 13/48/5 9/23/5
f 4/4/1 2/2/1 1/1/1
f 1/1/1 3/3/1 4/4/1
f 8/8/2 6/6/2 5/5/2
f 5/5/2 7/7/2 8/8/2
f 2/10/3 9/9/3 10/12/3
f 10/12/3 1/11/3 2/10/3
f 13/15/4 12/14/4 11/13/4
f 11/13/4 14/16/4 13/15/4
f 15/19/3 8/18/3 7/17/3
f 7/17/3 16/20/3 15/19/3
f 9/9/3 15/19/3 16/20/3
f 16/20/3 10/12/3 9/9/3
f 14/22/5 17/21/5 15/24/5
f 15/24/5 9/23/5 14/22/5
f 17/27/4 18/26/4 5/25/4
f 5/25/4 6/28/4 17/27/4
f 14/30/4 11/29/4 18/26/4
f 18/26/4 17/27/4 14/30/4
f 18/33/6 16/32/6 7/31/6
f 7/31/6 5/34/6 18/33/6
f 11/36/6 10/35/6 16/32/6
f 16/32/6 18/33/6 11/36/6
f 13/39/7 4/37/7 3/38/7
f 3/38/7 12/40/7 13/39/7
f 17/21/5 6/44/5 8/45/5
f 8/45/5 15/24/5 17/21/5

