# ProBuilder 5.2.4
# https://unity3d.com/unity/features/worldbuilding/probuilder
# 3.06.2026 12:42:28

mtllib ./Rock.mtl
o Rock

g Rock
v -0.5 0.9336541 0.25
v -0.25 0.75 0.25
v -0.25 0.9432797 0.5
v -0.5 1 0.5
v -0.25 0.9263134 0.70893
v -0.5 1 0.75
v -0.7085996 0.898947 0.25
v -0.75 0.9660769 0.5
v -0.7015679 0.9175038 0.7054424
v -0.5 0 0
v -0.5 0 0.5
v 0.1432281 0 0.5
v -0.25 0 0.05646515
v -0.5 0 1.07298
v -0.09197998 0 0.9592352
v -0.7068539 0 0.05733967
v -1 0 0.5
v -0.8757789 0 0.9086723
v -0.05671716 0.5 0.9354095
v -0.5 0.5 1.050533
v -0.5 0.75 0.9324303
v -0.125 0.75 0.875
v -0.9019623 0.5 0.8539743
v -0.7227721 0.75 0.7572956
v -0.5 0.5 0
v -0.5 0.75 0.125
v -0.75 0.75 0.125
v -0.75 0.5 0
v -0.1028104 0.5 0
v -0.125 0.625 0.125
v -1 0.5 0.5
v -0.875 0.75 0.5
v 0 0.5 0.5
v -0.125 0.75 0.5
v -0.5 0.25 1.105
v 0 0.25 1
v -0.9246376 0.25 0.9226885
v -0.5 0.25 0
v -0.7284269 0.25 0.02866983
v -0.1166065 0.25 0.02823257
v -1 0.25 0.5
v 0.07161403 0.25 0.5

vt 0.6071203 0.4105928
vt 0.3371179 0.3815249
vt 0.3600227 0.6634809
vt 0.6149827 0.6685612
vt 0.3580121 0.8653859
vt 0.6149827 0.9139919
vt 0.810137 0.3993292
vt 0.859201 0.6565121
vt 0.8053539 0.8501127
vt -0.5 0
vt -0.5 0.5
vt 0.1432281 0.5
vt -0.25 0.05646515
vt -0.5 1.07298
vt -0.09197998 0.9592352
vt -0.7068539 0.05733967
vt -1 0.5
vt -0.8757789 0.9086723
vt 0.07676578 0.2103276
vt -0.3456624 0.1594502
vt -0.3624431 0.4325072
vt 0.000592418 0.4641739
vt -0.3883636 0.7238733
vt -0.1467354 0.6752018
vt -0.7714747 0.1989733
vt -0.607839 0.4732533
vt -0.5942175 0.6493081
vt 0.49931 0.492695
vt 0.4927454 0.7646597
vt 0.7424004 0.7676709
vt 0.748965 0.4957061
vt 0.4861807 0.972047
vt 0.6944925 0.9407775
vt 0.1026685 0.487911
vt 0.1182629 0.6384749
vt 0.2365257 0.790277
vt 0.9091743 0.2724982
vt 0.5620898 0.2424486
vt 0.5542041 0.5157009
vt 0.8013838 0.557749
vt 0.5463184 0.7561079
vt 0.7482962 0.7244052
vt 0.04731432 0.2969499
vt 0.1720653 0.5409798
vt 0.2942046 0.6974986
vt -0.4992963 0.4853727
vt -0.4926667 0.7611436
vt -0.1181945 0.6358684
vt 0.005452739 0.5079542
vt -0.4860371 0.9827457
vt -0.2363889 0.7942282
vt -0.9310849 0.5090167
vt -0.8671389 0.7670416
vt -0.694673 0.9698286
vt 0.04524598 -0.2767787
vt -0.3424731 -0.3258228
vt -0.3379236 -0.09549426
vt 0.1420848 -0.04518133
vt -0.7377852 -0.2944095
vt -0.7841566 -0.06095289
vt 0.49931 0.006022238
vt 0.49931 0.2493586
vt 0.7259161 0.2586761
vt 0.7028671 0.02164602
vt 0.2466896 0.01594317
vt 0.1149629 0.2512068
vt 0.9621115 -0.2042208
vt 0.5620898 -0.2416675
vt 0.5620898 0.0003905138
vt 0.9791821 0.0258654
vt 0.1018179 -0.1754943
vt 0.07456609 0.06072778
vt -0.5068926 -0.03455047
vt -0.5030944 0.2254111
vt -0.0220084 0.2737294
vt -0.04312646 0.07492126
vt -0.9530068 0.04232521
vt -0.9985926 0.2544824

vn 0.3583411 0.8140575 -0.3896845
vn 0.5024818 0.6840057 -0.5288178
vn 0.2142005 0.9441093 -0.2505512
vn 0.2205673 0.9721716 0.07894604
vn 0.2516443 0.9656869 0.03947302
vn 0.2827214 0.9592021 0
vn -0.1439857 0.9532047 -0.2651554
vn -0.1587747 0.9542822 -0.253251
vn -0.1291966 0.9521272 -0.2770598
vn -0.1344604 0.990919 0
vn -0.275958 0.9241372 0.1505594
vn -0.4174557 0.8573554 0.3011189
vn 0 -1 0
vn 0.2405987 0.2895741 0.9264227
vn 0.1888815 0.3563418 0.9110295
vn 0.1371643 0.4231094 0.8956363
vn 0.1990039 0.6419425 0.7290106
vn 0.2929979 0.5635948 0.7723427
vn 0.1050098 0.7202903 0.6856784
vn -0.4728128 0.4501553 0.7429752
vn -0.3662527 0.5521594 0.7489854
vn -0.5793729 0.3481513 0.7369652
vn -0.5883608 0.3061574 0.7483978
vn -0.4877255 0.4248342 0.746609
vn -0.3870902 0.543511 0.7448202
vn 0 0.4472136 -0.8944272
vn -0.04660466 0.6015295 -0.7945418
vn -0.09320933 0.5602151 -0.8230863
vn 0 0.6428438 -0.7659973
vn 0 0.7071068 -0.7071068
vn 0.07372098 0.5747163 -0.7958792
vn 0.147442 0.4423259 -0.8846517
vn 0.2672613 0.8017837 -0.5345225
vn 0.3246288 0.660889 -0.6492575
vn 0.3819963 0.5199943 -0.7639926
vn -0.7547516 0.6218144 0.2090381
vn -0.772655 0.5085468 0.3383843
vn -0.7905583 0.3952792 0.4677306
vn -0.8277161 0.3670823 0.3994542
vn -0.8238252 0.4765811 0.3068917
vn -0.831607 0.2575835 0.4920168
vn -0.8650072 0.3233947 -0.361075
vn -0.8728716 0.2182179 -0.4364358
vn -0.8571429 0.4285714 -0.2857143
vn -0.838551 0.4676563 -0.279517
vn -0.8362808 0.4750648 -0.2735921
vn -0.8340106 0.4824733 -0.2676671
vn 0.9008535 0.3968422 -0.1680038
vn 0.8846517 0.4423259 -0.147442
vn 0.9170552 0.3513584 -0.1885656
vn 0.6543745 0.65125 -0.3271872
vn 0.7742265 0.5007163 -0.3871132
vn 0.5345225 0.8017837 -0.2672613
vn 0.9492633 0.2891528 0.1236526
vn 0.9218452 0.3681832 0.06182629
vn 0.8944272 0.4472136 0
vn 0.8157814 0.5783603 0
vn 0.8273308 0.5604451 0.02202831
vn 0.8388804 0.5425299 0.04405661
vn 0.2332852 -0.1756955 0.954341
vn 0.2665126 -0.1224458 0.956022
vn 0.2000577 -0.2289452 0.95266
vn 0.2009984 0.2085272 0.9571395
vn 0.2206457 0.2510452 0.9411927
vn 0.240293 0.2935632 0.9252459
vn -0.3945518 -0.1227357 0.9106147
vn -0.3972971 -0.1285879 0.9086365
vn -0.3918066 -0.1168835 0.9125929
vn -0.3790669 0.2770581 0.8829197
vn -0.4050885 0.234566 0.8822692
vn -0.4311102 0.1920739 0.8816187
vn -0.267126 0 -0.9636616
vn -0.1953521 -0.06178914 -0.9741358
vn -0.1235783 -0.1235783 -0.98461
vn -0.1245328 0 -0.9922155
vn -0.06226642 -0.0569663 -0.992852
vn 0 -0.1139326 -0.9934885
vn 0.2148124 -0.2220245 -0.951084
vn 0.1441261 -0.1110123 -0.9741918
vn 0.07343978 0 -0.9972997
vn 0.07294493 -0.1158919 -0.9905797
vn 0.03647247 -0.05794594 -0.9952898
vn 0 0 -1
vn -0.9608577 -0.09911395 0.2314331
vn -0.9567765 0 0.2908242
vn -0.964939 -0.1982279 0.172042
vn -0.984475 0 0.1755251
vn -0.9679881 0.07936765 0.2195278
vn -0.9515014 0.1587353 0.2635305
vn -0.8337508 0 -0.5521408
vn -0.8463798 -0.06544302 -0.5235441
vn -0.8590087 -0.130886 -0.4949474
vn -0.8767995 -0.06371056 -0.4714052
vn -0.8871365 -0.1274211 -0.4435682
vn -0.8664625 0 -0.4992421
vn 0.7316487 0.2095852 -0.6486634
vn 0.7748932 -0.1319068 -0.4875374
vn 0.8181376 -0.4733988 -0.3264114
vn 0.8975803 0.2571174 -0.3581066
vn 0.9371061 0.09027219 -0.2794612
vn 0.9766318 -0.07657299 -0.2008158
vn 0.8927689 -0.05705981 0.2869699
vn 0.9230773 -0.3611767 0.1322106
vn 0.8624605 0.2470571 0.4417293
vn 0.9562258 0.2614676 0.1307338
vn 0.9601013 0.2501287 0.1250644
vn 0.9523501 0.2728065 0.1364033

usemtl zemin1
f 4/4/3 3/3/1 2/2/2 1/1/1
f 6/6/6 5/5/5 3/3/4 4/4/5
f 8/8/9 4/4/7 1/1/8 7/7/7
f 9/9/12 6/6/11 4/4/10 8/8/11
f 13/13/13 12/12/13 11/11/13 10/10/13
f 12/12/13 15/15/13 14/14/13 11/11/13
f 10/10/13 11/11/13 17/17/13 16/16/13
f 11/11/13 14/14/13 18/18/13 17/17/13
f 21/21/16 20/20/15 19/19/14 22/22/15
f 6/23/18 21/21/17 22/22/19 5/24/17
f 23/25/21 20/20/20 21/21/22 24/26/20
f 24/26/23 21/21/24 6/23/25 9/27/24
f 28/31/26 27/30/26 26/29/26 25/28/26
f 27/30/29 7/33/27 1/32/28 26/29/27
f 30/35/31 29/34/30 25/28/31 26/29/32
f 2/36/34 30/35/33 26/29/34 1/32/35
f 24/40/37 32/39/38 31/38/37 23/37/36
f 9/42/39 8/41/40 32/39/39 24/40/41
f 28/43/43 31/38/42 32/39/44 27/44/42
f 27/44/45 32/39/46 8/41/47 7/45/46
f 34/47/49 33/46/48 29/49/50 30/48/48
f 3/50/52 34/47/51 30/48/53 2/51/51
f 19/52/54 33/46/55 34/47/56 22/53/55
f 22/53/57 34/47/58 3/50/59 5/54/58
f 36/58/62 35/57/60 14/56/61 15/55/60
f 19/19/65 20/20/64 35/57/63 36/58/64
f 18/59/67 14/56/66 35/57/68 37/60/66
f 37/60/69 35/57/70 20/20/71 23/25/70
f 38/62/73 10/61/72 16/64/73 39/63/74
f 25/28/76 38/62/75 39/63/76 28/31/77
f 13/65/78 10/61/79 38/62/80 40/66/79
f 40/66/81 38/62/82 25/28/83 29/34/82
f 37/70/86 41/69/84 17/68/85 18/67/84
f 23/37/89 31/38/88 41/69/87 37/70/88
f 39/72/92 16/71/91 17/68/90 41/69/91
f 28/43/94 39/72/93 41/69/95 31/38/93
f 42/74/97 12/73/96 13/76/97 40/75/98
f 33/46/100 42/74/99 40/75/100 29/49/101
f 36/78/103 15/77/102 12/73/104 42/74/102
f 19/52/106 36/78/105 42/74/107 33/46/105

