# ProBuilder 5.2.4
# https://unity3d.com/unity/features/worldbuilding/probuilder
# 25.05.2026 22:16:27

mtllib ./Shield.mtl
o Shield

g Shield
v -0.1516634 -1.209665 0.4674011
v -0.1516634 -1.472553 -5.849899E-06
v -0.1516634 -1.209665 -0.4674128
v -0.1516634 -1.023775 0.7011017
v -0.1516634 -1.023775 -0.7011134
v -0.1516634 -0.5749982 0.9348052
v -0.1516634 -0.5749982 -0.9348168
v -0.1516636 0.8890496 0.9348052
v -0.1516635 0.7610229 0.7011017
v -0.1516635 0.70525 0.4674011
v -0.1516635 0.70525 -0.4674128
v -0.1516635 0.7610229 0.2336976
v -0.1516635 0.7610229 -0.7011134
v -0.1516636 0.8890496 -0.9348168
v -0.1516635 0.7610229 -0.2337093
v -0.1516636 0.9640413 -5.849899E-06
v 0.0002613042 -0.5749982 -0.9348168
v 0.0002611899 0.8890496 -0.9348168
v 0.0002612013 0.7610229 -0.7011134
v 0.0002613042 -0.5749982 0.9348052
v 0.0002613384 -1.023775 0.7011017
v 0.0002612013 0.70525 -0.4674128
v 0.0002613499 -1.209665 0.4674011
v 0.0002612013 0.7610229 -0.2337093
v 0.0002611899 0.9640413 -5.849899E-06
v 0.0002612013 0.7610229 0.7011017
v 0.0002611899 0.8890496 0.9348052
v 0.0002612013 0.7610229 0.2336976
v 0.0002613727 -1.472553 -5.849899E-06
v 0.0002612013 0.70525 0.4674011
v 0.0002613384 -1.023775 -0.7011134
v 0.0002613499 -1.209665 -0.4674128
v 0.1514023 -1.067715 -0.4051348
v 0.1514023 -1.295575 -5.849899E-06
v 0.1514023 -1.067715 0.4051231
v 0.1514023 -0.9065931 -0.6076993
v 0.1514023 -0.9065931 0.6076875
v 0.1514023 -0.5176111 -0.8102638
v 0.1514023 -0.5176111 0.810252
v 0.1514022 0.7513667 -0.8102638
v 0.1514022 0.6403982 -0.6076993
v 0.1514022 0.5920565 -0.4051348
v 0.1514022 0.5920565 0.4051231
v 0.1514022 0.6403982 -0.2025703
v 0.1514022 0.6403982 0.6076875
v 0.1514022 0.7513667 0.810252
v 0.1514022 0.6403982 0.2025586
v 0.1514022 0.8163664 -5.849899E-06

vt 0.1152471 0.4881265
vt 0.2173899 0.5455756
vt 0.3195327 0.4881265
vt 0.06417637 0.4475039
vt 0.3706034 0.4475039
vt 0.01310498 0.3494324
vt 0.4216748 0.3494324
vt 0.01310498 0.02949297
vt 0.06417637 0.05747073
vt 0.1152471 0.06965883
vt 0.3195327 0.06965883
vt 0.1663185 0.05747073
vt 0.3706034 0.05747073
vt 0.4216748 0.02949297
vt 0.2684613 0.05747073
vt 0.2173899 0.01310498
vt 0.8282272 0.3238699
vt 0.8614272 0.3238699
vt 0.8614272 0.01310496
vt 0.8282272 0.01310496
vt 0.01516845 0.9694888
vt 0.0481043 0.9684886
vt 0.0516271 0.9255413
vt 0.01869125 0.9265415
vt 0.986895 0.3238699
vt 0.9536949 0.3238699
vt 0.9536949 0.4312719
vt 0.986895 0.4312719
vt 0.05316176 0.8788468
vt 0.0202259 0.879847
vt 0.9536949 0.4828721
vt 0.986895 0.4828721
vt 0.0516271 0.8263658
vt 0.01869125 0.8273661
vt 0.04604082 0.7662473
vt 0.01310496 0.7672475
vt 0.01869125 0.6290145
vt 0.05162711 0.6280143
vt 0.0481043 0.5717856
vt 0.01516844 0.5727857
vt 0.0516271 0.7271898
vt 0.01869125 0.7281899
vt 0.9536949 0.562959
vt 0.986895 0.562959
vt 0.986895 0.01310497
vt 0.9536949 0.01310497
vt 0.05316177 0.6804947
vt 0.02022591 0.6814949
vt 0.8282272 0.4312719
vt 0.8614272 0.4312719
vt 0.8282272 0.4828721
vt 0.8614272 0.4828721
vt 0.8282272 0.562959
vt 0.8614272 0.562959
vt 0.5364179 0.4571061
vt 0.624951 0.5069006
vt 0.7134841 0.4571061
vt 0.4921513 0.421896
vt 0.7577507 0.421896
vt 0.4478848 0.3368916
vt 0.8020172 0.3368916
vt 0.4478848 0.0595809
vt 0.4921513 0.08383095
vt 0.5364179 0.0943951
vt 0.7134841 0.0943951
vt 0.5806844 0.08383095
vt 0.7577507 0.08383095
vt 0.8020172 0.0595809
vt 0.6692175 0.08383095
vt 0.624951 0.04537647
vt 0.08771218 0.8250204
vt 0.08287021 0.7729121
vt 0.08771217 0.653097
vt 0.08465876 0.6043602
vt 0.624951 0.01310498
vt 0.6760224 0.05747073
vt 0.624951 0.5455756
vt 0.7270938 0.4881265
vt 0.9206662 0.04880157
vt 0.9206662 0.3181602
vt 0.08771218 0.7390587
vt 0.08904236 0.6985853
vt 0.8944561 0.4112518
vt 0.8944561 0.3181602
vt 0.5228082 0.4881265
vt 0.4717375 0.4475039
vt 0.8944561 0.04880159
vt 0.08465874 0.948207
vt 0.08771218 0.9109821
vt 0.9206662 0.4112518
vt 0.08904236 0.8705087
vt 0.7781645 0.4475039

vn -1 -9.676326E-08 0
vn 0 0 -1
vn 0 0.8770231 0.4804482
vn 0 -0.4618807 0.8869421
vn 0 0.9726842 0.2321324
vn 0 -0.7826148 0.6225063
vn 0 0.9726849 -0.2321297
vn 0 0.7549286 -0.655807
vn 0 0.8770232 -0.4804481
vn 0 0.7549286 0.655807
vn 0 -0.8715984 0.4902206
vn 0 0 1
vn 0 -0.4618806 -0.8869421
vn 0 -0.7826149 -0.6225063
vn 0 -0.8715984 -0.4902206
vn 1 1.251819E-07 0
vn 0.5936029 0.6075347 -0.5277663
vn 0.3737883 0.8134511 -0.4456228
vn 0.5936028 0.6075348 0.5277663
vn 0.714276 -0.6100004 0.343088
vn 0.6359631 4.722055E-08 0.7717195
vn 0.6359783 0.7506276 0.1791362
vn 0.6715348 -0.3422409 -0.6572003
vn 0.534743 0.8219328 -0.1961543
vn 0.7040915 -0.5557431 -0.4420459
vn 0.635963 4.722054E-08 -0.7717196
vn 0.3737882 0.8134511 0.4456229
vn 0.671535 -0.3422409 0.6572002
vn 0.5347432 0.8219327 0.1961542
vn 0.7040913 -0.5557433 0.4420461
vn 0.6359783 0.7506276 -0.1791362
vn 0.714276 -0.6100004 -0.343088

usemtl kalkan
f 4/4/1 5/5/1 3/3/1
f 4/4/1 6/6/1 5/5/1
f 11/11/1 10/10/1 12/12/1
f 13/13/1 14/14/1 7/7/1
f 36/58/16 37/59/16 35/57/16
f 36/58/16 38/60/16 37/59/16
f 43/65/16 42/64/16 44/66/16
f 45/67/16 46/68/16 39/61/16
f 3/3/1 2/2/1 1/1/1
f 1/1/1 4/4/1 3/3/1
f 8/8/1 7/7/1 5/5/1
f 5/5/1 6/6/1 8/8/1
f 7/7/1 8/8/1 9/9/1
f 9/9/1 10/10/1 7/7/1
f 7/7/1 10/10/1 11/11/1
f 11/11/1 13/13/1 7/7/1
f 16/16/1 15/15/1 11/11/1
f 11/11/1 12/12/1 16/16/1
f 35/57/16 34/56/16 33/55/16
f 33/55/16 36/58/16 35/57/16
f 40/62/16 39/61/16 37/59/16
f 37/59/16 38/60/16 40/62/16
f 39/61/16 40/62/16 41/63/16
f 41/63/16 42/64/16 39/61/16
f 39/61/16 42/64/16 43/65/16
f 43/65/16 45/67/16 39/61/16
f 48/70/16 47/69/16 43/65/16
f 43/65/16 44/66/16 48/70/16

usemtl Metal
f 14/20/2 18/19/2 17/18/2 7/17/2
f 13/24/3 19/23/3 18/22/3 14/21/3
f 4/28/4 21/27/4 20/26/4 6/25/4
f 11/30/5 22/29/5 19/23/5 13/24/5
f 1/32/6 23/31/6 21/27/6 4/28/6
f 15/34/7 24/33/7 22/29/7 11/30/7
f 16/36/8 25/35/8 24/33/8 15/34/8
f 8/40/9 27/39/9 26/38/9 9/37/9
f 12/42/10 28/41/10 25/35/10 16/36/10
f 2/44/11 29/43/11 23/31/11 1/32/11
f 6/25/12 20/26/12 27/46/12 8/45/12
f 10/48/5 30/47/5 28/41/5 12/42/5
f 7/17/13 17/18/13 31/50/13 5/49/13
f 9/37/7 26/38/7 30/47/7 10/48/7
f 5/49/14 31/50/14 32/52/14 3/51/14
f 3/51/15 32/52/15 29/54/15 2/53/15
f 25/35/17 48/72/17 44/71/17 24/33/17
f 27/39/18 46/74/18 45/73/18 26/38/18
f 28/76/19 47/69/19 48/70/19 25/75/19
f 34/56/20 35/57/20 23/78/20 29/77/20
f 20/26/21 39/80/21 46/79/21 27/46/21
f 30/47/22 43/82/22 47/81/22 28/41/22
f 17/18/23 38/84/23 36/83/23 31/50/23
f 26/38/24 45/73/24 43/82/24 30/47/24
f 31/86/25 36/58/25 33/55/25 32/85/25
f 18/19/26 40/87/26 38/84/26 17/18/26
f 19/23/27 41/89/27 40/88/27 18/22/27
f 21/27/28 37/90/28 39/80/28 20/26/28
f 22/29/29 42/91/29 41/89/29 19/23/29
f 23/78/30 35/57/30 37/59/30 21/92/30
f 24/33/31 44/71/31 42/91/31 22/29/31
f 32/85/32 33/55/32 34/56/32 29/77/32

