# ProBuilder 5.2.4
# https://unity3d.com/unity/features/worldbuilding/probuilder
# 28.05.2026 01:12:36

mtllib ./WoodPipe.mtl
o WoodPipe

g WoodPipe
v -29.5073 -0.01192093 2.997559
v -30.0188 -0.01192093 -2.195765
v -29.5073 1.011921 2.997559
v -30.0188 1.011921 -2.195765
v -27.25787 -0.2597427 -2.203846
v -26.79933 -0.2597427 2.451755
v -27.25787 1.009743 -2.203846
v -26.79933 1.009743 2.451755
v -27.99247 -0.01192093 7.991303
v -27.99247 1.011921 7.991303
v -25.44134 -0.2597427 6.928444
v -25.44134 1.009743 6.928444
v -25.5325 -0.01192093 12.59357
v -25.5325 1.011921 12.59357
v -23.23609 -0.2597427 11.05419
v -23.23609 1.009743 11.05419
v -22.22195 -0.01192093 16.62748
v -22.22195 1.011921 16.62748
v -20.26831 -0.2597427 14.67043
v -20.26831 1.009743 14.67043
v -18.18803 -0.01192093 19.93803
v -18.18803 1.011921 19.93803
v -16.65208 -0.2597427 17.6382
v -16.65208 1.009743 17.6382
v -13.58577 -0.01192093 22.39799
v -13.58577 1.011921 22.39799
v -12.52634 -0.2597427 19.84345
v -12.52634 1.009743 19.84345
v -8.592038 -0.01192093 23.91282
v -8.592038 1.011921 23.91282
v -8.049645 -0.2597427 21.20144
v -8.049645 1.009743 21.20144
v -3.398708 -0.01192093 24.42433
v -3.398708 1.011921 24.42433
v -3.394044 -0.2597427 21.65998
v -3.394043 1.009743 21.65998
v 1.794598 -0.01192093 23.91282
v 1.794598 1.011921 23.91282
v 1.261561 -0.2597427 21.20144
v 1.261561 1.009743 21.20144
v 6.788358 -0.01192093 22.39799
v 6.788358 1.011921 22.39799
v 5.738241 -0.2597427 19.84345
v 5.738241 1.009743 19.84345
v 11.39062 -0.01192093 19.93803
v 11.39062 1.011921 19.93803
v 9.863984 -0.2597427 17.6382
v 9.863985 1.009743 17.6382
v 15.42452 -0.01192093 16.62747
v 15.42452 1.011921 16.62747
v 13.48023 -0.2597427 14.67043
v 13.48023 1.009743 14.67043
v 18.73508 -0.01192093 12.59356
v 18.73508 1.011921 12.59356
v 16.448 -0.2597427 11.05418
v 16.448 1.009743 11.05418
v 21.19504 -0.01192093 7.991303
v 21.19504 1.011921 7.991303
v 18.65325 -0.2597427 6.928447
v 18.65325 1.009743 6.928446
v 22.70988 -0.01192093 2.997559
v 22.70988 1.011921 2.997559
v 20.01124 -0.2597427 2.451755
v 20.01124 1.009743 2.451754
v 23.22138 -0.01192093 -2.195767
v 23.22138 1.011921 -2.195767
v 20.46978 -0.2597427 -2.203847
v 20.46978 1.009743 -2.203848
v 22.70987 -0.01192093 -7.389088
v 22.70987 1.011921 -7.389088
v 20.01125 -0.2597427 -6.859443
v 20.01125 1.009743 -6.859443
v 21.19504 -0.01192093 -12.38284
v 21.19504 1.011921 -12.38284
v 18.73508 -0.01192093 -16.9851
v 18.73508 1.011921 -16.9851
v 15.42453 -0.01192093 -21.01901
v 15.42453 1.011921 -21.01901
v 11.39061 -0.01192093 -24.32956
v 11.39061 1.011921 -24.32956
v 6.78835 -0.01192093 -26.78952
v 6.78835 1.011921 -26.78952
v 1.794609 -0.01192093 -28.30436
v 1.794609 1.011921 -28.30436
v -3.398711 -0.01192093 -28.81586
v -3.398711 1.011921 -28.81586
v 1.261559 -0.2597427 -25.60913
v -3.394043 -0.2597427 -26.06767
v 1.261559 1.009743 -25.60913
v -3.394043 1.009743 -26.06767
v -8.592037 -0.01192093 -28.30435
v -8.592037 1.011921 -28.30435
v -8.049645 -0.2597427 -25.60913
v -8.049645 1.009743 -25.60913
v -13.58579 -0.01192093 -26.78952
v -13.58579 1.011921 -26.78952
v -12.52634 -0.2597427 -24.25114
v -12.52634 1.009743 -24.25114
v -18.18804 -0.01192093 -24.32956
v -18.18804 1.011921 -24.32956
v -16.65207 -0.2597427 -22.04589
v -16.65207 1.009743 -22.04589
v -22.22195 -0.01192093 -21.01901
v -22.22195 1.011921 -21.01901
v -20.26831 -0.2597427 -19.07812
v -20.26831 1.009743 -19.07812
v -25.53251 -0.01192093 -16.9851
v -25.53251 1.011921 -16.9851
v -23.23609 -0.2597427 -15.46188
v -23.23609 1.009743 -15.46188
v -27.99247 -0.01192093 -12.38283
v -27.99247 1.011921 -12.38283
v -25.44134 -0.2597427 -11.33613
v -25.44134 1.009743 -11.33613
v -29.5073 -0.01192093 -7.389083
v -29.5073 1.011921 -7.389083
v -26.79933 -0.2597427 -6.859443
v -26.79933 1.009743 -6.859443
v -27.39871 -0.25 -2.19577
v -26.93756 -0.25 2.486398
v -26.93755 1 2.486399
v -27.39871 1 -2.195769
v -25.57182 -0.25 6.988634
v -25.57182 1 6.988635
v -23.35398 -0.25 11.13792
v -23.35398 1 11.13792
v -20.36927 -0.25 14.77479
v -20.36927 1 14.77479
v -16.7324 -0.25 17.7595
v -16.7324 1 17.7595
v -12.58311 -0.25 19.97734
v -12.58311 1 19.97734
v -8.080879 -0.25 21.34308
v -8.080877 1 21.34308
v -3.39871 -0.25 21.80423
v -3.398707 1 21.80423
v 1.28346 -0.25 21.34308
v 1.28346 1 21.34308
v 5.785692 -0.25 19.97734
v 5.785693 1 19.97734
v 9.934976 -0.25 17.7595
v 9.934977 1 17.7595
v 13.57185 -0.25 14.77479
v 13.57185 1 14.77479
v 16.55656 -0.25 11.13792
v 16.55656 1 11.13792
v 18.7744 -0.25 6.988636
v 18.7744 1 6.988636
v 20.14014 -0.25 2.486399
v 20.14014 1 2.486399
v 20.60129 -0.25 -2.195772
v 20.60129 1 -2.195771
v 20.14014 -0.25 -6.877935
v 20.14014 1 -6.877935
v 18.7744 -0.25 -11.38017
v 18.7744 1 -11.38017
v 16.55655 -0.25 -15.52946
v 16.55656 1 -15.52946
v 13.57185 -0.25 -19.16633
v 13.57186 1 -19.16633
v 9.934978 -0.25 -22.15104
v 9.934981 1 -22.15104
v 5.785697 -0.25 -24.36887
v 5.785697 1 -24.36888
v 1.283458 -0.25 -25.73462
v 1.283461 1 -25.73461
v -3.398711 -0.25 -26.19577
v -3.398709 1 -26.19577
v -8.080878 -0.25 -25.73461
v -8.080878 1 -25.73461
v -12.58312 -0.25 -24.36888
v -12.58311 1 -24.36888
v -16.73239 -0.25 -22.15104
v -16.73239 1 -22.15104
v -20.36927 -0.25 -19.16633
v -20.36927 1 -19.16633
v -23.35398 -0.25 -15.52946
v -23.35398 1 -15.52946
v -25.57182 -0.25 -11.38017
v -25.57182 1 -11.38017
v -26.93756 -0.25 -6.877935
v -26.93756 1 -6.877934

vt 1.265319 -20.90054
vt 1.265329 -18.4136
vt 1.753246 -20.90054
vt 1.753255 -18.41361
vt 0.9012523 -0.9359999
vt 0.9012524 1.293422
vt 1.506242 -0.9359999
vt 1.506242 1.293422
vt 1.265319 -23.38746
vt 1.753246 -23.38746
vt 1.172094 -0.9360357
vt 1.172094 1.293387
vt 1.777083 -0.9360352
vt 1.777083 1.293387
vt 1.265319 -25.87439
vt 1.753246 -25.87439
vt 1.386223 -0.9360002
vt 1.386223 1.293422
vt 1.991213 -0.9360002
vt 1.991213 1.293422
vt 1.265319 -28.36131
vt 1.753246 -28.36131
vt 1.535493 -0.9360105
vt 1.535493 1.293411
vt 2.140482 -0.9360113
vt 2.140482 1.29341
vt 1.265319 -30.84824
vt 1.753245 -30.84824
vt 1.614113 -0.9360121
vt 1.614113 1.293408
vt 2.219103 -0.9360126
vt 2.219103 1.293408
vt 1.265318 -33.33516
vt 1.753247 -33.33516
vt 1.619096 -0.9359993
vt 1.619096 1.293421
vt 2.224085 -0.9359993
vt 2.224085 1.293421
vt 1.265321 -35.82209
vt 1.753247 -35.82209
vt 1.550209 -0.9360003
vt 1.55021 1.293423
vt 2.155199 -0.9360003
vt 2.155199 1.293423
vt 1.265323 -38.30902
vt 1.753249 -38.30902
vt 1.410129 -0.936
vt 1.410129 1.293422
vt 2.015119 -0.936
vt 2.015119 1.293422
vt 1.265325 -40.79594
vt 1.753251 -40.79594
vt 1.204244 -0.9360151
vt 1.204244 1.293409
vt 1.809234 -0.9360146
vt 1.809234 1.293409
vt 1.265326 -43.28287
vt 1.753253 -43.28287
vt 0.9404674 -0.935998
vt 0.9404675 1.29342
vt 1.545457 -0.935998
vt 1.545457 1.29342
vt 1.265328 -45.7698
vt 1.753255 -45.7698
vt 0.6288836 -0.9360001
vt 0.6288837 1.293421
vt 1.233873 -0.9360002
vt 1.233873 1.293422
vt 1.26533 -48.25672
vt 1.753257 -48.25672
vt 0.2815439 -0.9360076
vt 0.281544 1.293417
vt 0.8865334 -0.9360066
vt 0.8865336 1.293417
vt 1.265332 -50.74364
vt 1.753258 -50.74364
vt -0.08825032 -0.9360001
vt -0.0882502 1.293422
vt 0.5167392 -0.9360001
vt 0.5167393 1.293422
vt 1.265334 -53.23057
vt 1.75326 -53.23057
vt -0.4662691 -0.9360021
vt -0.466269 1.293417
vt 0.1387204 -0.9360018
vt 0.1387205 1.293418
vt 1.265336 -55.71749
vt 1.753262 -55.71749
vt -0.8380103 -0.9360027
vt -0.8380102 1.29342
vt -0.2330208 -0.9360023
vt -0.2330207 1.293421
vt 1.265337 -58.20442
vt 1.753264 -58.20442
vt -1.189171 -0.9360014
vt -1.189171 1.293421
vt -0.5841817 -0.9360007
vt -0.5841816 1.293421
vt 1.265339 -60.69135
vt 1.753266 -60.69135
vt -1.506256 -0.9359832
vt -1.506256 1.293436
vt -0.9012666 -0.9359827
vt -0.9012665 1.293436
vt 1.265341 -63.17827
vt 1.753268 -63.17827
vt 1.265341 -65.66519
vt 1.753272 -65.66519
vt 1.265341 -68.15213
vt 1.753272 -68.15213
vt 1.265341 -70.63907
vt 1.753272 -70.63907
vt 1.265341 -73.12601
vt 1.753271 -73.12601
vt 1.265341 -75.61295
vt 1.265341 -73.126
vt 1.753271 -75.61295
vt 1.753271 -73.126
vt 1.265341 -78.09988
vt 1.753271 -78.09988
vt -2.015124 -0.9360002
vt -2.015123 1.293422
vt -1.410134 -0.9360002
vt -1.410134 1.293422
vt 1.265341 -80.58682
vt 1.753271 -80.58682
vt -1.809233 -0.9359999
vt -1.809233 1.293422
vt -1.204244 -0.9359999
vt -1.204244 1.293422
vt 1.265341 -83.07376
vt 1.753271 -83.07376
vt -1.545453 -0.9360011
vt -1.545453 1.293423
vt -0.9404631 -0.9360011
vt -0.940463 1.293421
vt 1.265341 -85.5607
vt 1.753271 -85.5607
vt -1.233877 -0.9360147
vt -1.233877 1.293401
vt -0.6288874 -0.9360163
vt -0.6288873 1.2934
vt 1.265341 -88.04764
vt 1.753271 -88.04764
vt -0.8865386 -0.9359964
vt -0.8865385 1.293426
vt -0.2815491 -0.9359977
vt -0.281549 1.293424
vt 1.265358 -10.95285
vt 1.265363 -8.465933
vt 1.753283 -10.95286
vt 1.753288 -8.465935
vt -0.5167536 -0.9360019
vt -0.5167534 1.29342
vt 0.08823597 -0.9360032
vt 0.08823609 1.29342
vt 1.265349 -13.43977
vt 1.753273 -13.43977
vt -0.1386988 -0.9360005
vt -0.1386987 1.293423
vt 0.4662907 -0.9360005
vt 0.4662908 1.293423
vt 1.265339 -15.92669
vt 1.753264 -15.92669
vt 0.2330303 -0.9359999
vt 0.2330304 1.293422
vt 0.8380198 -0.936
vt 0.83802 1.293422
vt 0.5841677 -0.9359988
vt 0.5841678 1.293421
vt 1.189157 -0.9359988
vt 1.189157 1.293421
vt -29.89456 -2.219995
vt -29.38515 2.973536
vt -27.26367 -2.22
vt -26.80441 2.462354
vt 29.5116 2.997952
vt 30.0231 -2.195373
vt 26.94182 2.486792
vt 27.40297 -2.195376
vt -29.39427 2.928408
vt -27.88519 7.923892
vt -26.81356 2.417069
vt -25.453 6.920874
vt 27.99662 7.992476
vt 29.51145 2.998728
vt 25.57594 6.989807
vt 26.94167 2.487568
vt -27.90119 7.887143
vt -25.44917 12.49364
vt -25.46924 6.883552
vt -23.25857 11.03665
vt 25.53638 12.5955
vt 27.99632 7.993222
vt 23.35782 11.13984
vt 25.57564 6.990551
vt -25.4683 12.46821
vt -22.16597 16.50886
vt -23.27843 11.01014
vt -20.30112 14.65308
vt 22.22539 16.63012
vt 25.53592 12.59619
vt 20.37268 14.77742
vt 23.35737 11.14053
vt -22.18408 16.4952
vt -18.15691 19.81396
vt -20.32073 14.63792
vt -16.68995 17.63002
vt 18.19089 19.9413
vt 22.22479 16.63073
vt 16.73522 17.76275
vt 20.37208 14.77803
vt -18.1707 19.81015
vt -13.57269 22.27805
vt -16.70617 17.62458
vt -12.56072 19.84958
vt 13.58792 22.40177
vt 18.19017 19.9418
vt 12.58524 19.9811
vt 16.73451 17.76324
vt -13.58069 22.28068
vt -8.588706 23.80128
vt -12.57207 19.85081
vt -8.071419 21.22175
vt 8.593373 23.91697
vt 13.5871 22.40212
vt 8.082197 21.3472
vt 12.58443 19.98145
vt -8.591587 23.80667
vt -3.398465 24.32029
vt -8.078319 21.22635
vt -3.396337 21.6894
vt 3.399161 24.42867
vt 8.59249 23.91716
vt 3.399155 21.80855
vt 8.081325 21.34739
vt -3.398678 24.3258
vt 1.79442 23.81219
vt -3.400812 21.69491
vt 1.281172 21.23185
vt -1.795052 23.91718
vt 3.398254 24.42869
vt -1.283908 21.3474
vt 3.398259 21.80856
vt 1.793653 23.81695
vt 6.785659 22.29635
vt 1.276386 21.23742
vt 5.777037 19.86649
vt -6.789695 22.40216
vt -1.79594 23.91701
vt -5.787015 19.98149
vt -1.284786 21.34724
vt 6.781566 22.30149
vt 11.37957 19.83359
vt 5.76959 19.87302
vt 9.915035 17.64802
vt -11.39277 19.94185
vt -6.790523 22.40183
vt -9.937109 17.76331
vt -5.787835 19.98116
vt 11.37086 19.84158
vt 15.39802 16.52281
vt 9.903893 17.65766
vt 13.53468 14.66555
vt -15.42739 16.63078
vt -11.3935 19.94136
vt -13.5747 14.7781
vt -9.937835 17.76283
vt 15.38541 16.53645
vt 18.68775 12.49581
vt 13.52057 14.68069
vt 16.49788 11.03774
vt -18.73854 12.59625
vt -15.428 16.63018
vt -16.56 11.1406
vt -13.5753 14.77749
vt 18.67367 12.51702
vt 21.1257 7.910529
vt 16.48308 11.06004
vt 18.69375 6.906939
vt -21.19895 7.993281
vt -18.73901 12.59555
vt -18.77828 6.990611
vt -16.56046 11.1399
vt 21.11356 7.93951
vt 22.62265 2.944024
vt 18.68138 6.936492
vt 20.04194 2.432687
vt -22.71409 2.998767
vt -21.19926 7.992516
vt -20.14432 2.487607
vt -18.77859 6.989847
vt 22.61562 2.979018
vt 23.12502 -2.214514
vt 20.03488 2.467838
vt 20.49414 -2.21452
vt -23.22574 -2.195361
vt -22.71425 2.997965
vt -20.60563 -2.195365
vt -20.14448 2.486805
vt 23.12502 -2.176845
vt 22.61562 -7.370372
vt 20.49414 -2.176851
vt 20.03488 -6.859199
vt -22.71424 -7.389494
vt -23.22574 -2.196173
vt -20.14448 -6.878341
vt -20.60563 -2.196177
vt 22.62264 -7.334023
vt 21.11355 -12.32951
vt 20.04193 -6.822692
vt 18.68138 -11.3265
vt -21.19926 -12.38405
vt -22.71408 -7.390292
vt -18.77859 -11.38138
vt -20.14432 -6.879139
vt 21.12569 -12.29803
vt 18.67367 -16.90452
vt 18.69375 -11.29444
vt 16.48307 -15.44754
vt -18.739 -16.98708
vt -21.19894 -12.3848
vt -16.56046 -15.53143
vt -18.77828 -11.38214
vt 18.68774 -16.88004
vt 15.38542 -20.92068
vt 16.49787 -15.42197
vt 13.52057 -19.06491
vt -15.42801 -21.0217
vt -18.73853 -16.98777
vt -13.5753 -19.16901
vt -16.55999 -15.53212
vt 15.39803 -20.90349
vt 11.37086 -24.22225
vt 13.53468 -19.04622
vt 9.903896 -22.03833
vt -11.3935 -24.33287
vt -15.4274 -21.0223
vt -9.93784 -22.15433
vt -13.5747 -19.16961
vt 11.37957 -24.21097
vt 6.781558 -26.67888
vt 9.915038 -22.02541
vt 5.769595 -24.25041
vt -6.790514 -26.79333
vt -11.39277 -24.33335
vt -5.787838 -24.37266
vt -9.937114 -22.1548
vt 6.785651 -26.67123
vt 1.793663 -28.19183
vt 5.777042 -24.24136
vt 1.276384 -25.6123
vt -1.795951 -28.3085
vt -6.789687 -26.79366
vt -1.284787 -25.73873
vt -5.787019 -24.37298
vt 1.794431 -28.1857
vt -3.398681 -28.69931
vt 1.28117 -25.60537
vt -3.400812 -26.06843
vt 3.398257 -28.82017
vt -1.795063 -28.30866
vt 3.39826 -26.20005
vt -1.283909 -25.73889
vt -3.398468 -28.6938
vt -8.591586 -28.18019
vt -3.396338 -26.06292
vt -8.078318 -25.59987
vt 8.592489 -28.30865
vt 3.399164 -28.82015
vt 8.081326 -25.73888
vt 3.399156 -26.20004
vt -8.588705 -28.17616
vt -13.5807 -26.65555
vt -8.071418 -25.59663
vt -12.57207 -24.22569
vt 13.58712 -26.79361
vt 8.593372 -28.30846
vt 12.58443 -24.37294
vt 8.082198 -25.7387
vt -13.57271 -26.65544
vt -18.1707 -24.18754
vt -12.56073 -24.22697
vt -16.70617 -22.00197
vt 18.19018 -24.33329
vt 13.58794 -26.79326
vt 16.73451 -22.15475
vt 12.58524 -24.3726
vt -18.15691 -24.19463
vt -22.18408 -20.87587
vt -16.68994 -22.0107
vt -20.32073 -19.01859
vt 22.22479 -21.02223
vt 18.1909 -24.3328
vt 20.37208 -19.16954
vt 16.73522 -22.15426
vt -22.16597 -20.89308
vt -25.46831 -16.85243
vt -20.30112 -19.03731
vt -23.27843 -15.39437
vt 25.53592 -16.9877
vt 22.22539 -21.02163
vt 23.35737 -15.53205
vt 20.37267 -19.16895
vt -25.44917 -16.88113
vt -27.9012 -12.27464
vt -23.25856 -15.42416
vt -25.46925 -11.27105
vt 27.99632 -12.38474
vt 25.53638 -16.98701
vt 25.57564 -11.38208
vt 23.35782 -15.53137
vt -27.88519 -12.31389
vt -29.39427 -7.318402
vt -25.453 -11.31088
vt -26.81356 -6.807076
vt 29.51145 -7.390248
vt 27.99663 -12.384
vt 26.94167 -6.879099
vt 25.57595 -11.38134
vt -29.38515 -7.364885
vt -29.89456 -2.171361
vt -26.80441 -6.853717
vt -27.26367 -2.171365
vt 30.0231 -2.196157
vt 29.5116 -7.389475
vt 27.40297 -2.196161
vt 26.94183 -6.878327
vt -23.29161 -15.46248
vt -25.50502 -11.31083
vt -23.17334 -15.39487
vt -25.37419 -11.26677
vt 23.26107 -15.4068
vt 20.28106 -19.04753
vt 23.14282 -15.33915
vt 20.17971 -18.95922
vt 25.45767 -11.28559
vt 23.24426 -15.43724
vt 25.32684 -11.24153
vt 23.12599 -15.36962
vt -25.49646 -11.33725
vt -26.85908 -6.834067
vt -25.36563 -11.2932
vt -26.72051 -6.815571
vt 26.80839 -6.818729
vt 25.44578 -11.32191
vt 26.66982 -6.800234
vt 25.31494 -11.27787
vt -26.85526 -6.863293
vt -27.31531 -2.181017
vt -26.71669 -6.8448
vt -27.17413 -2.189095
vt 27.26325 -2.175902
vt 26.80321 -6.858177
vt 27.12207 -2.18398
vt 26.66463 -6.839685
vt -27.31697 -2.210113
vt -26.8569 2.472162
vt -27.17579 -2.21819
vt -26.71833 2.437518
vt 26.80542 2.467105
vt 27.26549 -2.21517
vt 26.66686 2.43246
vt 27.12431 -2.223248
vt -26.86361 2.446058
vt -25.50079 6.949179
vt -26.72504 2.411408
vt -25.36995 6.888977
vt 25.45177 6.934344
vt 26.81458 2.431224
vt 25.32093 6.874142
vt 26.67602 2.396573
vt -25.51112 6.928255
vt -23.29725 11.07966
vt -25.38029 6.868033
vt -23.17898 10.99588
vt 23.2524 11.05574
vt 25.46627 6.904336
vt 23.13414 10.97196
vt 25.33544 6.844115
vt -23.30919 11.06501
vt -20.32853 14.70521
vt -23.19094 10.9812
vt -20.22721 14.60075
vt 20.28943 14.67319
vt 23.27007 11.03299
vt 20.1881 14.56873
vt 23.15184 10.94918
vt -20.34005 14.69677
vt -16.7065 17.68551
vt -20.23877 14.59226
vt -16.62583 17.56404
vt 16.67449 17.6466
vt 20.30805 14.65786
vt 16.59383 17.52514
vt 20.20677 14.55336
vt -16.71607 17.68219
vt -12.56887 19.90392
vt -16.63548 17.56067
vt -12.51181 19.7698
vt 12.5451 19.85955
vt 16.6923 17.63782
vt 12.48804 19.72543
vt 16.61171 17.51631
vt -12.57582 19.90406
vt -8.074446 21.27263
vt -12.51886 19.76989
vt -8.043027 21.1307
vt 8.059778 21.22439
vt 12.56115 19.85582
vt 8.028361 21.08246
vt 12.5042 19.72165
vt -8.079043 21.27448
vt -3.396978 21.73668
vt -8.047746 21.13252
vt -3.392247 21.5921
vt 3.392002 21.6863
vt 8.074069 21.2241
vt 3.387274 21.54172
vt 8.042773 21.08215
vt -3.400303 21.73899
vt 1.281764 21.27678
vt -3.395702 21.5944
vt 1.2598 21.13482
vt -1.276758 21.22608
vt 3.405305 21.68829
vt -1.254795 21.08412
vt 3.400706 21.5437
vt 1.278224 21.27911
vt 5.779562 19.91043
vt 1.256135 21.13717
vt 5.731925 19.77625
vt -5.764617 19.86128
vt -1.263278 21.22996
vt -5.71698 19.7271
vt -1.24119 21.08802
vt 5.774431 19.91331
vt 9.921497 17.69133
vt 5.726686 19.77917
vt 9.850225 17.56981
vt -9.896985 17.64558
vt -5.749919 19.86756
vt -9.825713 17.52405
vt -5.702173 19.73342
vt 9.91402 17.69603
vt 13.5473 14.70694
vt 9.842665 17.57455
vt 13.45533 14.60242
vt -13.51393 14.66639
vt -9.880656 17.65548
vt -13.42197 14.56187
vt -9.809302 17.534
vt 13.53768 14.7151
vt 16.51789 11.07453
vt 13.44566 14.61062
vt 16.40897 10.99072
vt -16.47674 11.04084
vt -13.49653 14.68141
vt -16.36781 10.95703
vt -13.40451 14.57694
vt 16.50738 11.08749
vt 18.72075 6.935832
vt 16.39842 11.00372
vt 18.59923 6.875608
vt -18.67319 6.910478
vt -16.45982 11.06214
vt -18.55167 6.850254
vt -16.35086 10.97836
vt 18.71128 6.954123
vt 20.0737 2.450881
vt 18.58975 6.893921
vt 19.94444 2.416229
vt -20.02142 2.435063
vt -18.659 6.938306
vt -19.89215 2.40041
vt -18.53747 6.878103
vt 20.0674 2.473834
vt 20.5273 -2.20846
vt 19.93813 2.439189
vt 20.39543 -2.216535
vt -20.47223 -2.21387
vt -20.01232 2.468422
vt -20.34035 -2.221947
vt -19.88305 2.433777
vt 20.52572 -2.182679
vt 20.06585 -6.864967
vt 20.39385 -2.190754
vt 19.93659 -6.846475
vt -20.0101 -6.859491
vt -20.46998 -2.177202
vt -19.88084 -6.840999
vt -20.3381 -2.18528
vt 1.281543 -25.64022
vt -3.400494 -26.10271
vt 1.259571 -25.51437
vt -3.3959 -25.97424
vt 3.40613 -26.04564
vt -1.275907 -25.58314
vt 3.401538 -25.91716
vt -1.253933 -25.45729
vt -3.39675 -26.10007
vt -8.078788 -25.63759
vt -3.39201 -25.9716
vt -8.047482 -25.51174
vt 8.07319 -25.58092
vt 3.39115 -26.04339
vt 8.041884 -25.45507
vt 3.386412 -25.91492
vt -8.073468 -25.63712
vt -12.57463 -24.26783
vt -8.042029 -25.51131
vt -12.51765 -24.14979
vt 12.55821 -24.21385
vt 8.057048 -25.58314
vt 12.50123 -24.09581
vt 8.025609 -25.45733
vt -12.56656 -24.27096
vt -16.71327 -22.04834
vt -12.50947 -24.15297
vt -16.63265 -21.94296
vt 16.68691 -21.99916
vt 12.5402 -24.22178
vt 16.60629 -21.89378
vt 12.48311 -24.1038
vt -16.70247 -22.05673
vt -20.33538 -19.0672
vt -16.62178 -21.95141
vt -20.23408 -18.97884
vt 20.30037 -19.02464
vt 16.66745 -22.01417
vt 20.19906 -18.93628
vt 16.58677 -21.90885
vt -20.32315 -19.08198
vt -23.30316 -15.44125
vt -20.2218 -18.99367
vt -23.1849 -15.3736
vt 25.57203 0.9999893
vt 25.44465 1.009732
vt 25.57203 -0.2500108
vt 25.44468 -0.2597535
vt -20.78255 1.009743
vt -20.91277 1
vt -20.78255 -0.2597427
vt -20.91277 -0.25

vn -0.9807852 0 0.1950908
vn -1 0 -5.614973E-08
vn 1 0 6.588235E-07
vn 0.9807852 -2.163933E-06 -0.1950908
vn -0.9238794 0 0.3826837
vn 0.9238796 -7.08664E-07 -0.3826834
vn -0.8314694 0 0.5555706
vn 0.8314698 -6.568008E-07 -0.55557
vn -0.7071068 0 0.7071067
vn 0.7071068 -1.062398E-06 -0.7071068
vn -0.5555699 0 0.8314698
vn 0.5555701 -2.917588E-07 -0.8314697
vn -0.3826826 0 0.9238799
vn 0.3826832 0 -0.9238797
vn -0.1950912 0 0.9807851
vn 0.1950907 0 -0.9807852
vn -3.144386E-07 0 1
vn 3.44385E-07 -1.108346E-06 -1
vn 0.1950904 0 0.9807853
vn -0.1950907 -3.571172E-07 -0.9807852
vn 0.3826829 0 0.9238797
vn -0.3826833 0 -0.9238796
vn 0.5555715 0 0.8314688
vn -0.5555696 -5.879832E-07 -0.8314701
vn 0.7071072 0 0.7071064
vn -0.7071067 -1.720388E-07 -0.7071069
vn 0.8314691 0 0.5555711
vn -0.83147 -2.9764E-07 -0.5555698
vn 0.9238792 0 0.3826842
vn -0.9238798 -2.874825E-07 -0.3826829
vn 0.9807853 0 0.1950906
vn -0.9807853 -1.924456E-07 -0.1950903
vn -0.9951848 7.844281E-07 0.09801655
vn -0.098017 0 0.9951848
vn -0.09049024 -0.9958575 0.008912606
vn 0.004549763 0.9999896 -0.0004481173
vn -0.08701283 -0.9958575 0.02639505
vn 0.004374918 0.9999896 -0.001327117
vn -0.08019139 -0.9958575 0.04286326
vn 0.004031952 0.9999896 -0.002155127
vn -0.07028847 -0.9958574 0.05768429
vn 0.003534035 0.9999896 -0.002900309
vn -0.05768422 -0.9958575 0.07028837
vn 0.002900308 0.9999896 -0.003534033
vn -0.04286312 -0.9958575 0.08019149
vn 0.00215512 0.9999896 -0.004031956
vn -0.02639501 -0.9958575 0.08701287
vn 0.001327118 0.9999896 -0.00437493
vn -0.00891275 -0.9958574 0.09049046
vn 0.000448123 0.9999896 -0.004549758
vn 0.00891265 -0.9958575 0.09049004
vn 0.02639495 -0.9958574 0.08701301
vn -0.00132711 0.9999896 -0.004374922
vn 0.04286324 -0.9958575 0.08019138
vn -0.002155127 0.9999896 -0.004031954
vn 0.05768446 -0.9958574 0.07028836
vn -0.002900332 0.9999896 -0.003534046
vn 0.07028871 -0.9958574 0.0576846
vn -0.003534046 0.9999896 -0.002900324
vn 0.08019172 -0.9958574 0.04286344
vn -0.004031959 0.9999896 -0.002155131
vn 0.08701293 -0.9958574 0.02639517
vn -0.004374926 0.9999896 -0.001327124
vn 0.09049044 -0.9958574 0.008912489
vn -0.004549778 0.9999896 -0.0004481119
vn 0.09049039 -0.9958574 -0.008912628
vn 0.0870132 -0.9958574 -0.02639517
vn -0.00437494 0.9999896 0.001327124
vn 0.08019168 -0.9958574 -0.04286332
vn -0.004031968 0.9999896 0.002155131
vn 0.07028861 -0.9958574 -0.05768433
vn -0.003534047 0.9999896 0.002900315
vn 0.05768431 -0.9958574 -0.07028855
vn -0.002900315 0.9999896 0.003534045
vn 0.04286333 -0.9958574 -0.08019163
vn -0.002155128 0.9999896 0.00403196
vn 0.02639505 -0.9958575 -0.08701288
vn -0.00132712 0.9999896 0.00437493
vn 0.008912534 -0.9958574 -0.09049046
vn -0.0004481138 0.9999896 0.004549775
vn -0.008912588 -0.9958574 -0.09049045
vn -0.02639507 -0.9958574 -0.08701297
vn 0.001327119 0.9999896 0.004374929
vn -0.04286326 -0.9958575 -0.08019155
vn 0.002155123 0.9999896 0.004031953
vn -0.05768429 -0.9958575 -0.07028842
vn 0.002900315 0.9999896 0.003534039
vn -0.07028842 -0.9958575 -0.05768433
vn 0.003534034 0.9999896 0.002900312
vn -0.08019151 -0.9958575 -0.04286326
vn 0.004031948 0.9999896 0.002155121
vn -0.08701283 -0.9958575 -0.02639494
vn 0.004374927 0.9999896 0.001327114
vn -0.09049039 -0.9958575 -0.008912631
vn -0.06309702 -0.9974374 -0.03372603
vn -0.05605488 0.9973673 -0.04600309
vn -0.0630966 0.9974374 -0.03372581
vn -0.0675657 -0.9975043 -0.02049582
vn -0.06756565 0.9975043 -0.02049581
vn -0.06939644 -0.9975657 -0.00683498
vn -0.06939928 0.9975656 -0.006835232
vn -0.06862156 -0.9976199 0.006758658
vn -0.06862351 0.9976197 0.00675885
vn -0.06535212 -0.9976653 0.01982437
vn -0.06535123 0.9976654 0.01982408
vn -0.05976226 -0.9977014 0.03194354
vn -0.05976368 0.9977013 0.03194434
vn -0.0520905 -0.9977269 0.04274964
vn -0.05209097 0.9977269 0.04274997
vn -0.04261139 -0.9977416 0.05192203
vn -0.04261104 0.9977417 0.05192166
vn -0.03163655 -0.9977454 0.05918791
vn -0.03163642 0.9977455 0.05918764
vn -0.01951354 -0.9977381 0.06432748
vn -0.01951364 0.9977381 0.06432782
vn -0.006615714 -0.9977196 0.06717054
vn -0.006615741 0.9977196 0.06717053
vn 0.006657971 -0.9976903 0.0675996
vn 0.006658027 0.9976903 0.06759983
vn 0.01988495 -0.997651 0.06555194
vn 0.01988393 0.9976512 0.0655486
vn 0.03262166 -0.9976027 0.06103088
vn 0.03262251 0.9976025 0.06103248
vn 0.0444192 -0.9975457 0.0541249
vn 0.04442 0.9975456 0.05412587
vn 0.05482043 -0.9974821 0.04498998
vn 0.05481897 0.9974823 0.04498881
vn 0.06338345 -0.9974141 0.03387912
vn 0.06338114 0.9974142 0.03387789
vn 0.06970318 -0.9973437 0.02114428
vn 0.06970082 0.9973439 0.02114353
vn 0.07343452 -0.9972738 0.0072326
vn 0.07343647 0.9972737 0.007232854
vn 0.07432631 -0.9972071 -0.007320448
vn 0.07432649 0.9972071 -0.007320522
vn 0.00749573 -0.9970716 -0.07610549
vn 0.007495728 0.9970716 -0.07610516
vn -0.007442449 -0.9971131 -0.07556418
vn -0.007442469 0.9971132 -0.07556443
vn -0.02183667 -0.9971666 -0.07198589
vn -0.02183676 0.9971666 -0.07198617
vn -0.03506959 -0.9972289 -0.06561061
vn -0.03506925 0.9972289 -0.06560992
vn -0.04661212 -0.997297 -0.05679698
vn -0.04661305 0.9972969 -0.05679821
vn -0.05605402 -0.9973674 -0.04600246
vn 0.9851071 -3.401576E-06 0.1719418
vn -0.1420119 0 -0.9898649
vn -0.1419975 -1.510417E-06 -0.989867

usemtl woodcorner_(2)
f 3/3/1 4/4/2 2/2/2 1/1/1
f 7/7/3 8/8/4 6/6/4 5/5/3
f 10/10/5 3/3/1 1/1/1 9/9/5
f 8/13/4 12/14/6 11/12/6 6/11/4
f 14/16/7 10/10/5 9/9/5 13/15/7
f 12/19/6 16/20/8 15/18/8 11/17/6
f 18/22/9 14/16/7 13/15/7 17/21/9
f 16/25/8 20/26/10 19/24/10 15/23/8
f 22/28/11 18/22/9 17/21/9 21/27/11
f 20/31/10 24/32/12 23/30/12 19/29/10
f 26/34/13 22/28/11 21/27/11 25/33/13
f 24/37/12 28/38/14 27/36/14 23/35/12
f 30/40/15 26/34/13 25/33/13 29/39/15
f 28/43/14 32/44/16 31/42/16 27/41/14
f 34/46/17 30/40/15 29/39/15 33/45/17
f 32/49/16 36/50/18 35/48/18 31/47/16
f 38/52/19 34/46/17 33/45/17 37/51/19
f 36/55/18 40/56/20 39/54/20 35/53/18
f 42/58/21 38/52/19 37/51/19 41/57/21
f 40/61/20 44/62/22 43/60/22 39/59/20
f 46/64/23 42/58/21 41/57/21 45/63/23
f 44/67/22 48/68/24 47/66/24 43/65/22
f 50/70/25 46/64/23 45/63/23 49/69/25
f 48/73/24 52/74/26 51/72/26 47/71/24
f 54/76/27 50/70/25 49/69/25 53/75/27
f 52/79/26 56/80/28 55/78/28 51/77/26
f 58/82/29 54/76/27 53/75/27 57/81/29
f 56/85/28 60/86/30 59/84/30 55/83/28
f 62/88/31 58/82/29 57/81/29 61/87/31
f 60/91/30 64/92/32 63/90/32 59/89/30
f 66/94/3 62/88/31 61/87/31 65/93/3
f 64/97/32 68/98/2 67/96/2 63/95/32
f 70/100/4 66/94/3 65/93/3 69/99/4
f 68/103/2 72/104/33 71/102/33 67/101/2
f 74/106/6 70/100/4 69/99/4 73/105/6
f 76/108/8 74/106/6 73/105/6 75/107/8
f 78/110/10 76/108/8 75/107/8 77/109/10
f 80/112/12 78/110/10 77/109/10 79/111/12
f 82/114/14 80/112/12 79/111/12 81/113/14
f 84/117/16 82/118/14 81/116/14 83/115/16
f 86/120/18 84/117/16 83/115/16 85/119/18
f 89/123/34 90/124/17 88/122/17 87/121/34
f 92/126/20 86/120/18 85/119/18 91/125/20
f 90/129/17 94/130/19 93/128/19 88/127/17
f 96/132/22 92/126/20 91/125/20 95/131/22
f 94/135/19 98/136/21 97/134/21 93/133/19
f 100/138/24 96/132/22 95/131/22 99/137/24
f 98/141/21 102/142/23 101/140/23 97/139/21
f 104/144/26 100/138/24 99/137/24 103/143/26
f 102/147/23 106/148/25 105/146/25 101/145/23
f 108/151/28 104/152/26 103/150/26 107/149/28
f 106/155/25 110/156/27 109/154/27 105/153/25
f 112/158/30 108/151/28 107/149/28 111/157/30
f 110/161/27 114/162/29 113/160/29 109/159/27
f 116/164/32 112/158/30 111/157/30 115/163/32
f 114/167/29 118/168/31 117/166/31 113/165/29
f 4/4/2 116/164/32 115/163/32 2/2/2
f 118/171/31 7/172/3 5/170/3 117/169/31
f 119/175/35 120/176/35 1/174/35 2/173/35
f 121/179/36 122/180/36 4/178/36 3/177/36
f 120/183/37 123/184/37 9/182/37 1/181/37
f 124/187/38 121/188/38 3/186/38 10/185/38
f 123/191/39 125/192/39 13/190/39 9/189/39
f 126/195/40 124/196/40 10/194/40 14/193/40
f 125/199/41 127/200/41 17/198/41 13/197/41
f 128/203/42 126/204/42 14/202/42 18/201/42
f 127/207/43 129/208/43 21/206/43 17/205/43
f 130/211/44 128/212/44 18/210/44 22/209/44
f 129/215/45 131/216/45 25/214/45 21/213/45
f 132/219/46 130/220/46 22/218/46 26/217/46
f 131/223/47 133/224/47 29/222/47 25/221/47
f 134/227/48 132/228/48 26/226/48 30/225/48
f 133/231/49 135/232/49 33/230/49 29/229/49
f 136/235/50 134/236/50 30/234/50 34/233/50
f 135/239/51 137/240/51 37/238/51 33/237/51
f 138/243/50 136/244/50 34/242/50 38/241/50
f 137/247/52 139/248/52 41/246/52 37/245/52
f 140/251/53 138/252/53 38/250/53 42/249/53
f 139/255/54 141/256/54 45/254/54 41/253/54
f 142/259/55 140/260/55 42/258/55 46/257/55
f 141/263/56 143/264/56 49/262/56 45/261/56
f 144/267/57 142/268/57 46/266/57 50/265/57
f 143/271/58 145/272/58 53/270/58 49/269/58
f 146/275/59 144/276/59 50/274/59 54/273/59
f 145/279/60 147/280/60 57/278/60 53/277/60
f 148/283/61 146/284/61 54/282/61 58/281/61
f 147/287/62 149/288/62 61/286/62 57/285/62
f 150/291/63 148/292/63 58/290/63 62/289/63
f 149/295/64 151/296/64 65/294/64 61/293/64
f 152/299/65 150/300/65 62/298/65 66/297/65
f 151/303/66 153/304/66 69/302/66 65/301/66
f 154/307/65 152/308/65 66/306/65 70/305/65
f 153/311/67 155/312/67 73/310/67 69/309/67
f 156/315/68 154/316/68 70/314/68 74/313/68
f 155/319/69 157/320/69 75/318/69 73/317/69
f 158/323/70 156/324/70 74/322/70 76/321/70
f 157/327/71 159/328/71 77/326/71 75/325/71
f 160/331/72 158/332/72 76/330/72 78/329/72
f 159/335/73 161/336/73 79/334/73 77/333/73
f 162/339/74 160/340/74 78/338/74 80/337/74
f 161/343/75 163/344/75 81/342/75 79/341/75
f 164/347/76 162/348/76 80/346/76 82/345/76
f 163/351/77 165/352/77 83/350/77 81/349/77
f 166/355/78 164/356/78 82/354/78 84/353/78
f 165/359/79 167/360/79 85/358/79 83/357/79
f 168/363/80 166/364/80 84/362/80 86/361/80
f 167/367/81 169/368/81 91/366/81 85/365/81
f 170/371/80 168/372/80 86/370/80 92/369/80
f 169/375/82 171/376/82 95/374/82 91/373/82
f 172/379/83 170/380/83 92/378/83 96/377/83
f 171/383/84 173/384/84 99/382/84 95/381/84
f 174/387/85 172/388/85 96/386/85 100/385/85
f 173/391/86 175/392/86 103/390/86 99/389/86
f 176/395/87 174/396/87 100/394/87 104/393/87
f 175/399/88 177/400/88 107/398/88 103/397/88
f 178/403/89 176/404/89 104/402/89 108/401/89
f 177/407/90 179/408/90 111/406/90 107/405/90
f 180/411/91 178/412/91 108/410/91 112/409/91
f 179/415/92 181/416/92 115/414/92 111/413/92
f 182/419/93 180/420/93 112/418/93 116/417/93
f 181/423/94 119/424/94 2/422/94 115/421/94
f 122/427/36 182/428/36 116/426/36 4/425/36
f 109/431/95 113/432/95 179/430/95 177/429/95
f 110/435/96 106/436/96 176/434/96 178/433/96
f 114/439/97 110/440/97 178/438/97 180/437/97
f 113/443/98 117/444/98 181/442/98 179/441/98
f 118/447/99 114/448/99 180/446/99 182/445/99
f 117/451/100 5/452/100 119/450/100 181/449/100
f 7/455/101 118/456/101 182/454/101 122/453/101
f 5/459/102 6/460/102 120/458/102 119/457/102
f 8/463/103 7/464/103 122/462/103 121/461/103
f 6/467/104 11/468/104 123/466/104 120/465/104
f 12/471/105 8/472/105 121/470/105 124/469/105
f 11/475/106 15/476/106 125/474/106 123/473/106
f 16/479/107 12/480/107 124/478/107 126/477/107
f 15/483/108 19/484/108 127/482/108 125/481/108
f 20/487/109 16/488/109 126/486/109 128/485/109
f 19/491/110 23/492/110 129/490/110 127/489/110
f 24/495/111 20/496/111 128/494/111 130/493/111
f 23/499/112 27/500/112 131/498/112 129/497/112
f 28/503/113 24/504/113 130/502/113 132/501/113
f 27/507/114 31/508/114 133/506/114 131/505/114
f 32/511/115 28/512/115 132/510/115 134/509/115
f 31/515/116 35/516/116 135/514/116 133/513/116
f 36/519/117 32/520/117 134/518/117 136/517/117
f 35/523/118 39/524/118 137/522/118 135/521/118
f 40/527/119 36/528/119 136/526/119 138/525/119
f 39/531/120 43/532/120 139/530/120 137/529/120
f 44/535/121 40/536/121 138/534/121 140/533/121
f 43/539/122 47/540/122 141/538/122 139/537/122
f 48/543/123 44/544/123 140/542/123 142/541/123
f 47/547/124 51/548/124 143/546/124 141/545/124
f 52/551/125 48/552/125 142/550/125 144/549/125
f 51/555/126 55/556/126 145/554/126 143/553/126
f 56/559/127 52/560/127 144/558/127 146/557/127
f 55/563/128 59/564/128 147/562/128 145/561/128
f 60/567/129 56/568/129 146/566/129 148/565/129
f 59/571/130 63/572/130 149/570/130 147/569/130
f 64/575/131 60/576/131 148/574/131 150/573/131
f 63/579/132 67/580/132 151/578/132 149/577/132
f 68/583/133 64/584/133 150/582/133 152/581/133
f 67/587/134 71/588/134 153/586/134 151/585/134
f 72/591/135 68/592/135 152/590/135 154/589/135
f 87/595/136 88/596/136 167/594/136 165/593/136
f 90/599/137 89/600/137 166/598/137 168/597/137
f 88/603/138 93/604/138 169/602/138 167/601/138
f 94/607/139 90/608/139 168/606/139 170/605/139
f 93/611/140 97/612/140 171/610/140 169/609/140
f 98/615/141 94/616/141 170/614/141 172/613/141
f 97/619/142 101/620/142 173/618/142 171/617/142
f 102/623/143 98/624/143 172/622/143 174/621/143
f 101/627/144 105/628/144 175/626/144 173/625/144
f 106/631/145 102/632/145 174/630/145 176/629/145
f 105/635/146 109/636/146 177/634/146 175/633/146
f 87/640/147 165/639/147 166/637/147 89/638/147
f 153/644/149 71/643/148 72/641/148 154/642/148

