# ProBuilder 5.2.4
# https://unity3d.com/unity/features/worldbuilding/probuilder
# 3.06.2026 18:27:53

mtllib ./Arena_Wall_Low.mtl
o Arena_Wall_Low

g Arena_Wall_Low
v 17 0 0.9999917
v -3 0 0.9999917
v 17 1.5 0.9999917
v -3 1.5 0.9999917
v -3 0 -8.34465E-06
v -3 1.5 -8.34465E-06
v 17 0 -8.34465E-06
v 17 1.5 -8.34465E-06

vt 17 0
vt -3 0
vt 17 1.5
vt -3 1.5
vt 0.9999917 0
vt -8.34465E-06 0
vt 0.9999917 1.5
vt -8.34465E-06 1.5
vt 3 0
vt -17 0
vt 3 1.5
vt -17 1.5
vt -0.9999917 0
vt -0.9999917 1.5
vt -17 0.9999917
vt 3 0.9999917
vt 17 0.9999917
vt -3 0.9999917

vn 0 0 1
vn -1 0 0
vn 0 0 -1
vn 1 0 0
vn 0 1 0
vn 0 -1 0

usemtl Grey
f 3/3/1 4/4/1 2/2/1 1/1/1
f 4/7/2 6/8/2 5/6/2 2/5/2
f 6/11/3 8/12/3 7/10/3 5/9/3
f 8/8/4 3/14/4 1/13/4 7/6/4
f 8/10/5 6/9/5 4/16/5 3/15/5
f 1/17/6 2/18/6 5/2/6 7/1/6

