# ProBuilder 5.2.4
# https://unity3d.com/unity/features/worldbuilding/probuilder
# 23.05.2026 22:17:58

mtllib ./Floor_Platform.mtl
o Floor_Platform

g Floor_Platform
v 0 -1 0
v -10 -1 0
v 0 0 0
v -10 0 0
v -10 -1 -10
v -10 0 -10
v 0 -1 -10
v 0 0 -10

vt -3.25 -2
vt -13.25 -2
vt -3.25 -1
vt -13.25 -1
vt -40.93201 -2
vt -50.93201 -2
vt -40.93201 -1
vt -50.93201 -1
vt 13.25 -2
vt 3.25 -2
vt 13.25 -1
vt 3.25 -1
vt 50.93201 -2
vt 40.93201 -2
vt 50.93201 -1
vt 40.93201 -1
vt 3.25 -40.93201
vt 13.25 -40.93201
vt 3.25 -50.93201
vt 13.25 -50.93201
vt -3.25 -50.93201
vt -13.25 -50.93201
vt -3.25 -40.93201
vt -13.25 -40.93201

vn 0 0 1
vn -1 0 0
vn 0 0 -1
vn 1 0 0
vn 0 1 0
vn 0 -1 0

usemtl zemin1
f 3/3/1 4/4/1 2/2/1 1/1/1
f 4/7/2 6/8/2 5/6/2 2/5/2
f 6/11/3 8/12/3 7/10/3 5/9/3
f 8/15/4 3/16/4 1/14/4 7/13/4
f 8/19/5 6/20/5 4/18/5 3/17/5
f 1/23/6 2/24/6 5/22/6 7/21/6

