# ProBuilder 5.2.4
# https://unity3d.com/unity/features/worldbuilding/probuilder
# 25.05.2026 16:04:34

mtllib ./Floor_Platform-3x20x3.mtl
o Floor_Platform-3x20x3

g Floor_Platform-3x20x3
v -3.5 -10.5 -3.5
v -6.5 -10.5 -3.5
v -3.5 9.5 -3.5
v -6.5 9.5 -3.5
v -6.5 -10.5 -6.5
v -6.5 9.5 -6.5
v -3.5 -10.5 -6.5
v -3.5 9.5 -6.5

vt 13.27286 -11.5
vt 10.27286 -11.5
vt 13.27286 8.499998
vt 10.27286 8.499998
vt -60.30971 -11.5
vt -63.30971 -11.5
vt -60.30971 8.499998
vt -63.30971 8.499998
vt -10.27286 -11.5
vt -13.27286 -11.5
vt -10.27286 8.499998
vt -13.27286 8.499998
vt 63.30971 -11.5
vt 60.30971 -11.5
vt 63.30971 8.499998
vt 60.30971 8.499998
vt -13.27286 -60.30971
vt -10.27286 -60.30971
vt -13.27286 -63.30971
vt -10.27286 -63.30971
vt 13.27286 -63.30971
vt 10.27286 -63.30971
vt 13.27286 -60.30971
vt 10.27286 -60.30971

vn 0 0 1
vn -1 0 0
vn 0 0 -1
vn 1 0 0
vn 0 1 0
vn 0 -1 0

usemtl zemin1
f 3/3/1 4/4/1 2/2/1 1/1/1
f 4/7/2 6/8/2 5/6/2 2/5/2
f 6/11/3 8/12/3 7/10/3 5/9/3
f 8/15/4 3/16/4 1/14/4 7/13/4
f 8/19/5 6/20/5 4/18/5 3/17/5
f 1/23/6 2/24/6 5/22/6 7/21/6

