# ProBuilder 5.2.4
# https://unity3d.com/unity/features/worldbuilding/probuilder
# 25.05.2026 19:42:00

mtllib ./Floor_Platform-4x20x4.mtl
o Floor_Platform-4x20x4

g Floor_Platform-4x20x4
v -3 -10.5 -3
v -7 -10.5 -3
v -3 9.5 -3
v -7 9.5 -3
v -7 -10.5 -7
v -7 9.5 -7
v -3 -10.5 -7
v -3 9.5 -7

vt -202.6433 -1.096868
vt -206.6433 -1.096868
vt -202.6433 18.90313
vt -206.6433 18.90313
vt 100.6746 -1.096868
vt 96.67462 -1.096868
vt 100.6746 18.90313
vt 96.67462 18.90313
vt 206.6433 -1.096868
vt 202.6433 -1.096868
vt 206.6433 18.90313
vt 202.6433 18.90313
vt -96.67462 -1.096868
vt -100.6746 -1.096868
vt -96.67462 18.90313
vt -100.6746 18.90313
vt 202.6433 100.6746
vt 206.6433 100.6746
vt 202.6433 96.67462
vt 206.6433 96.67462
vt -202.6433 96.67462
vt -206.6433 96.67462
vt -202.6433 100.6746
vt -206.6433 100.6746

vn 0 0 1
vn -1 0 0
vn 0 0 -1
vn 1 0 0
vn 0 1 0
vn 0 -1 0

usemtl zemin1
f 3/3/1 4/4/1 2/2/1 1/1/1
f 4/7/2 6/8/2 5/6/2 2/5/2
f 6/11/3 8/12/3 7/10/3 5/9/3
f 8/15/4 3/16/4 1/14/4 7/13/4
f 8/19/5 6/20/5 4/18/5 3/17/5
f 1/23/6 2/24/6 5/22/6 7/21/6

