# ProBuilder 5.2.4
# https://unity3d.com/unity/features/worldbuilding/probuilder
# 25.05.2026 19:43:57

mtllib ./Floor_Platform4x4.mtl
o Floor_Platform4x4

g Floor_Platform4x4
v -3 -1 -3
v -7 -1 -3
v -3 0 -3
v -7 0 -3
v -7 -1 -7
v -7 0 -7
v -3 -1 -7
v -3 0 -7

vt -3 -1
vt -7 -1
vt -3 0
vt -7 0
vt 7 -1
vt 3 -1
vt 7 0
vt 3 0
vt 3 -3
vt 7 -3
vt 3 -7
vt 7 -7
vt -3 -7
vt -7 -7
vt -3 -3
vt -7 -3

vn 0 0 1
vn -1 0 0
vn 0 0 -1
vn 1 0 0
vn 0 1 0
vn 0 -1 0

usemtl zemin1
f 3/3/1 4/4/1 2/2/1 1/1/1
f 4/3/2 6/4/2 5/2/2 2/1/2
f 6/7/3 8/8/3 7/6/3 5/5/3
f 8/7/4 3/8/4 1/6/4 7/5/4
f 8/11/5 6/12/5 4/10/5 3/9/5
f 1/15/6 2/16/6 5/14/6 7/13/6

