# ProBuilder 5.2.4
# https://unity3d.com/unity/features/worldbuilding/probuilder
# 25.05.2026 17:56:21

mtllib ./Floor_Platform-5x20x5.mtl
o Floor_Platform-5x20x5

g Floor_Platform-5x20x5
v -2.5 -10.5 -2.5
v -7.5 -10.5 -2.5
v -2.5 9.5 -2.5
v -7.5 9.5 -2.5
v -7.5 -10.5 -7.5
v -7.5 9.5 -7.5
v -2.5 -10.5 -7.5
v -2.5 9.5 -7.5

vt 4.961319 -90.50003
vt -0.03868103 -90.50003
vt 4.961319 -70.50003
vt -0.03868103 -70.50003
vt 134.5682 -90.50003
vt 129.5682 -90.50003
vt 134.5682 -70.50003
vt 129.5682 -70.50003
vt 0.03868103 -90.50003
vt -4.961319 -90.50003
vt 0.03868103 -70.50003
vt -4.961319 -70.50003
vt -129.5682 -90.50003
vt -134.5682 -90.50003
vt -129.5682 -70.50003
vt -134.5682 -70.50003
vt -4.961319 134.5682
vt 0.03868103 134.5682
vt -4.961319 129.5682
vt 0.03868103 129.5682
vt 4.961319 129.5682
vt -0.03868103 129.5682
vt 4.961319 134.5682
vt -0.03868103 134.5682

vn 0 0 1
vn -1 0 0
vn 0 0 -1
vn 1 0 0
vn 0 1 0
vn 0 -1 0

usemtl zemin1
f 3/3/1 4/4/1 2/2/1 1/1/1
f 4/7/2 6/8/2 5/6/2 2/5/2
f 6/11/3 8/12/3 7/10/3 5/9/3
f 8/15/4 3/16/4 1/14/4 7/13/4
f 8/19/5 6/20/5 4/18/5 3/17/5
f 1/23/6 2/24/6 5/22/6 7/21/6

