# ProBuilder 5.2.4
# https://unity3d.com/unity/features/worldbuilding/probuilder
# 25.05.2026 13:47:20

mtllib ./Floor_Platform-3x3.mtl
o Floor_Platform-3x3

g Floor_Platform-3x3
v -3.5 -1 -3.5
v -6.5 -1 -3.5
v -3.5 0 -3.5
v -6.5 0 -3.5
v -6.5 -1 -6.5
v -6.5 0 -6.5
v -3.5 -1 -6.5
v -3.5 0 -6.5

vt -3.436306 -2
vt -6.436306 -2
vt -3.436306 -1
vt -6.436306 -1
vt -52.26713 -2
vt -55.26713 -2
vt -52.26713 -1
vt -55.26713 -1
vt 6.436306 -2
vt 3.436306 -2
vt 6.436306 -1
vt 3.436306 -1
vt 55.26713 -2
vt 52.26713 -2
vt 55.26713 -1
vt 52.26713 -1
vt 3.436306 -52.26713
vt 6.436306 -52.26713
vt 3.436306 -55.26713
vt 6.436306 -55.26713
vt -3.436306 -55.26713
vt -6.436306 -55.26713
vt -3.436306 -52.26713
vt -6.436306 -52.26713

vn 0 0 1
vn -1 0 0
vn 0 0 -1
vn 1 0 0
vn 0 1 0
vn 0 -1 0

usemtl zemin1
f 3/3/1 4/4/1 2/2/1 1/1/1
f 4/7/2 6/8/2 5/6/2 2/5/2
f 6/11/3 8/12/3 7/10/3 5/9/3
f 8/15/4 3/16/4 1/14/4 7/13/4
f 8/19/5 6/20/5 4/18/5 3/17/5
f 1/23/6 2/24/6 5/22/6 7/21/6

