# ProBuilder 5.2.4
# https://unity3d.com/unity/features/worldbuilding/probuilder
# 25.05.2026 16:00:49

mtllib ./Floor_Platform10x20x10.mtl
o Floor_Platform10x20x10

g Floor_Platform10x20x10
v 0 -1 0
v -10 -1 0
v 0 19 0
v -10 19 0
v -10 -1 -10
v -10 19 -10
v 0 -1 -10
v 0 19 -10

vt 17.48819 -2.000004
vt 7.488194 -2.000004
vt 17.48819 18
vt 7.488194 18
vt -58.77593 -2.000004
vt -68.77593 -2.000004
vt -58.77593 18
vt -68.77593 18
vt -7.488194 -2.000004
vt -17.48819 -2.000004
vt -7.488194 18
vt -17.48819 18
vt 68.77593 -2.000004
vt 58.77593 -2.000004
vt 68.77593 18
vt 58.77593 18
vt -17.48819 -58.77593
vt -7.488194 -58.77593
vt -17.48819 -68.77593
vt -7.488194 -68.77593
vt 17.48819 -68.77593
vt 7.488194 -68.77593
vt 17.48819 -58.77593
vt 7.488194 -58.77593

vn 0 0 1
vn -1 0 0
vn 0 0 -1
vn 1 0 0
vn 0 1 0
vn 0 -1 0

usemtl zemin1
f 3/3/1 4/4/1 2/2/1 1/1/1
f 4/7/2 6/8/2 5/6/2 2/5/2
f 6/11/3 8/12/3 7/10/3 5/9/3
f 8/15/4 3/16/4 1/14/4 7/13/4
f 8/19/5 6/20/5 4/18/5 3/17/5
f 1/23/6 2/24/6 5/22/6 7/21/6

