# ProBuilder 5.2.4
# https://unity3d.com/unity/features/worldbuilding/probuilder
# 3.06.2026 20:25:24

mtllib ./Platform_Broken_(11).mtl
o Platform_Broken (11)

g Platform_Broken (11)
v -2.020088 -2.000002 -4.293236
v -2.020088 1.999997 -4.293235
v -2.020086 2 0.9193322
v -2.020086 -2 0.9193322
v -0.2501554 2 -3.080668
v -0.05018646 2 -2.649328
v 0.3994386 2 -1.809474
v 1.347438 2 -0.888012
v 1.618407 2 -0.2653205
v 1.800997 2 0.7122883
v 1.734153 2 0.9193322
v -0.05018247 -2 -2.649328
v -0.250155 -2 -3.080668
v 0.3994358 -2 -1.809474
v 1.347432 -2 -0.8880119
v 1.618405 -2 -0.2653205
v 1.800992 -2 0.7122883
v 1.734157 -2 0.9193322
v -0.3647572 -0.9094707 -3.071017
v -0.1468446 0.1130881 -3.080668
v -0.08700399 1.078442 -3.080668
v 0.8687493 -1.038239 -1.152177
v 1.513676 -1.370034 -0.2653205
v 1.351642 1.005312 -0.888012
v 1.521448 -0.004269857 -0.591753
v 1.603914 1.099034 -0.1822231
v 0.8724128 0.2252139 -1.367891
v 0.633223 -1.573028 -1.720292
v 0.6187993 0.3957385 -1.615687
v 1.8462 -1 0.9193322
v 1.979914 -1.000466 0.7064249
v -0.02124421 0.2415904 -2.384095
v -0.1051181 1.678589 -2.612672
v -0.2101167 -1.116073 -2.812026
v 1.717102 0 0.9193322
v 1.825553 -0.0006747539 0.5234991
v 1.833648 1 0.9193322
v 1.708948 0.6143698 0.4148436
v 0.2511785 1.618206 -1.706728

vt 3.040103 13.03748
vt -0.9598977 13.03748
vt -0.9599018 18.25005
vt 3.040098 18.25005
vt -207.75 13.03743
vt -209.52 14.25
vt -209.7199 14.68134
vt -207.75 18.25
vt -210.1696 15.52119
vt -211.1176 16.44265
vt -211.3885 17.06534
vt -211.5711 18.04295
vt -211.5043 18.25
vt 209.7199 14.68134
vt 209.52 14.25
vt 207.75 13.03743
vt 207.75 18.25
vt 207.75 18.25
vt 210.1696 15.52119
vt 211.1176 16.44265
vt 211.3885 17.06534
vt 211.5711 18.04295
vt 211.5043 18.25
vt -1.981543 179.0315
vt -1.883852 181.1747
vt -0.7960904 181.036
vt 0.9579773 174.8738
vt -3.042023 174.8737
vt -1.951514 176.9314
vt 0.9579563 177.0179
vt -0.9288655 209.6233
vt 0.03648756 209.6831
vt 0.9580475 209.52
vt 0.93056 208.8882
vt -1.978923 208.7735
vt -0.9563496 208.9916
vt -76.45466 88.98344
vt -77.52356 89.26865
vt -77.61942 89.94094
vt -76.99313 89.98802
vt -12.87506 87.67346
vt -13.8931 87.98883
vt -12.79685 88.42476
vt 17.74832 149.4821
vt 16.93063 148.8498
vt 16.75663 149.8725
vt 10.72157 84.86119
vt 11.27021 85.46387
vt 12.53136 85.23504
vt -15.11148 158.1025
vt -13.33063 158.5961
vt -13.14534 158.249
vt 20.53633 -47.14814
vt 20.52888 -46.9307
vt 21.53514 -46.9307
vt 21.54956 -47.17404
vt 13.01127 48.83571
vt 12.04406 48.8357
vt 12.18009 49.54211
vt 13.60915 49.28802
vt -35.57994 51.659
vt -36.51583 51.659
vt -35.92171 52.13497
vt -35.6148 52.11901
vt 0.06778748 86.63725
vt -0.9269098 86.63725
vt -0.8342543 87.3869
vt 0.06664272 87.31483
vt -24.66816 99.99194
vt -25.76469 99.98131
vt -25.78639 100.4563
vt -24.89033 100.2821
vt 44.21283 134.8203
vt 43.16734 134.8324
vt 42.99886 135.1569
vt 17.32014 47.78659
vt 16.09014 48.05881
vt 17.45909 48.49243
vt 27.52287 140.1481
vt 26.27041 140.4205
vt 26.02837 141.5403
vt 27.38277 141.1743
vt -29.13529 -95.54455
vt -29.11771 -95.29375
vt -28.10941 -95.29375
vt -28.12396 -95.68658
vt -0.95803 211.5043
vt 0.04197099 211.6038
vt 1.04197 211.4872
vt -0.9580631 207.75
vt 3.041937 207.75
vt 3.04197 211.5043
vt 2.041971 211.6163
vt 22.13466 99.19948
vt 20.77628 99.55549
vt 21.19475 100.6153
vt 22.17158 100.3426
vt 35.34315 93.8892
vt 34.77459 94.94365
vt 35.79 94.93732
vt 34.742 93.96996
vt -49.36245 -35.74027
vt -49.98778 -35.62783
vt -49.96202 -35.21822
vt 24.05849 50.12408
vt 23.44919 50.63476
vt 24.45596 50.63476
vt 25.43772 50.60147
vt 28.02227 -46.96839
vt 29.3987 -46.43871
vt 29.40769 -46.65609
vt -13.908 89.14063
vt -38.40278 22.39586
vt -39.52446 23.10181
vt -38.89846 22.99312
vt 8.337768 58.96965
vt 7.436844 59.05447
vt 6.956142 59.66385
vt 8.344141 59.96401
vt 0.1993173 163.1651
vt 0.387914 164.4736
vt 1.275248 163.8129
vt 101.9577 -4.466414
vt 103.0255 -3.805233
vt 102.4444 -4.376706
vt -12.05847 137.3349
vt -12.55477 138.7008
vt -10.58752 138.8316
vt -10.71125 137.8289
vt 0.6253791 177.7008
vt 0.01505272 179.0735
vt 1.009736 179.0683
vt -7.99934 171.1963
vt -8.123269 172.6114
vt -7.62294 171.3877
vt -0.4803341 160.9812
vt -0.6482362 161.337
vt 0.1368786 162.0094
vt -0.5967996 178.0522
vt 80.98663 98.42193
vt 81.16623 99.35748
vt 81.65105 99.45683
vt -11.835 137.819
vt -11.43707 138.9826
vt -10.94514 137.6152
vt 94.81291 80.37424
vt 94.91912 81.34381
vt 95.32682 81.23385
vt 95.12472 80.30601
vt -48.79483 144.0742
vt -48.7913 145.0861
vt -47.51713 144.9662
vt -47.37679 144.0616

vn -1 -2.181014E-14 3.659135E-07
vn -1.471375E-06 1 2.40323E-07
vn 7.006583E-07 -1 -1.144455E-07
vn 0.5793681 0.03329704 -0.8143856
vn 0.5639266 0.06654668 -0.8231394
vn 0.3873532 0.01821877 -0.9217514
vn 0.5796305 -0.01249817 -0.8147836
vn 0.1843725 -0.00936792 -0.9828118
vn -0.01760905 -0.0009641185 -0.9998445
vn 0 0 -1
vn 0.8455759 0.2323796 -0.4627548
vn 0.8663303 0.3276362 -0.3769964
vn 0.8248215 0.137123 -0.5485132
vn 0.8624631 -0.003454489 -0.5061082
vn 0.8728634 -0.01154095 -0.4878282
vn 0.9795846 0.1130718 -0.1662194
vn 0.7561747 -0.06392026 -0.6512403
vn 0.8478227 -0.008867423 -0.5302057
vn 0.9407514 -0.05971827 -0.333797
vn 0.7126741 0.04242501 -0.7002112
vn 0.8918994 -0.1264283 0.4158889
vn 0.9462829 -0.1060238 0.305463
vn 0.8375159 -0.1468327 0.5263148
vn 0.9911601 -0.00375873 -0.09808594
vn 0.9842016 -0.06100892 -0.1662085
vn 0.9981186 0.05349146 -0.02996339
vn 0.9286447 -0.01377913 -0.2972612
vn 0.9681813 0.1714055 -0.1823327
vn 0.889108 -0.1989638 -0.4121898
vn 0.9286045 -0.02375239 -0.3677648
vn 0.9414804 0.003978476 -0.3370443
vn 0.9157286 -0.05148325 -0.3984853
vn 0.8918868 0.08596401 -0.4430244
vn 0.9028248 0.09858064 -0.4185562
vn 0.8809488 0.07334739 -0.4674926
vn 0.9093955 -0.1329481 -0.3941126
vn 0.7794545 -0.1717916 -0.6024438
vn 0.9831401 -0.08588908 -0.1614272
vn 0.7588246 -0.1343105 -0.6356641
vn 0.784783 -0.106517 -0.6105488
vn 0.7328663 -0.162104 -0.6607794
vn 0.8941224 0.1510867 0.3937354
vn 0.8419293 0.1086912 0.5285275
vn 0.9463155 0.1934822 0.2589433
vn 0 0 1
vn 0.935618 -0.0001575723 -0.3305448
vn 0.9114022 -0.1005616 -0.3990407
vn 0.9598339 0.1002464 -0.2620488
vn 0.9411852 -0.002106726 -0.2779686
vn 0.9122372 -0.165494 -0.3747467
vn 0.9701333 0.1612805 -0.1811904
vn 0.992864 0.02980842 0.1154666
vn 0.9401186 0.2236705 0.257194
vn 0.9969844 0.05671978 0.05296116
vn 0.9725117 -0.01014118 -0.2326331
vn 0.9998395 -0.01789933 -0.0007899382
vn 0.9437933 -0.1281052 0.304702
vn 0.9837689 0.1047991 -0.1456563
vn 0.9829926 0.1818977 -0.02527182
vn 0.9809337 -0.03004014 -0.1917772
vn 0.9791951 -0.03419927 -0.2000187
vn 0.9826723 -0.025881 -0.1835356
vn 0.9129287 -0.203849 -0.353563
vn 0.6892939 0.1482926 -0.7091426
vn 0.8622712 -0.4947436 0.1082457
vn 0.7765317 0.06860505 -0.6247374
vn 0.7984036 0.03777839 -0.6009364
vn 0.7546597 0.09943171 -0.6485384
vn 0.6473657 -0.1819293 -0.7401482
vn 0.6620376 0.03845769 -0.7484832
vn 0.6313072 -0.2145673 -0.7452598
vn 0.6323413 -0.4206254 -0.6505527
vn 0.6720552 0.07183991 -0.737008
vn 0.7014204 0.007528355 -0.7127081
vn 0.8292484 -0.166348 -0.53355
vn 0.8229793 -0.358595 -0.4405844
vn 0.7976698 0.03349126 -0.6021639
vn 0.8492035 -0.3101764 -0.409335
vn 0.8346734 -0.4199984 -0.3562607
vn 0.8637336 -0.2003543 -0.4624093
vn 0.8348772 0.08495383 -0.5084221
vn 0.7392361 0.1738494 -0.65062
vn 0.9305183 -0.003941727 -0.3662242

usemtl zemin1
f 3/8/2 7/9/2 6/7/2
f 12/14/3 14/19/3 4/18/3
f 35/89/45 37/88/45 11/87/45
f 35/104/54 36/103/53 38/102/52
f 10/111/57 11/110/56 38/109/52
f 3/3/1 2/2/1 1/1/1
f 1/1/1 4/4/1 3/3/1
f 6/7/2 5/6/2 2/5/2
f 2/5/2 3/8/2 6/7/2
f 9/11/2 8/10/2 7/9/2
f 7/9/2 3/8/2 9/11/2
f 11/13/2 10/12/2 9/11/2
f 9/11/2 3/8/2 11/13/2
f 1/16/3 13/15/3 12/14/3
f 12/14/3 4/17/3 1/16/3
f 4/18/3 14/19/3 15/20/3
f 15/20/3 16/21/3 4/18/3
f 4/18/3 16/21/3 17/22/3
f 17/22/3 18/23/3 4/18/3
f 30/55/21 18/54/22 17/53/21
f 17/53/21 31/56/23 30/55/21
f 35/85/42 30/84/43 31/83/42
f 31/83/42 36/86/44 35/85/42
f 35/89/45 11/87/45 3/90/45
f 3/90/45 4/91/45 35/89/45
f 35/89/45 4/91/45 18/92/45
f 18/92/45 30/93/45 35/89/45
f 37/107/55 35/106/54 38/105/52
f 38/105/52 11/108/56 37/107/55

usemtl Stone_1
f 19/26/6 13/25/5 1/24/4
f 5/33/8 21/32/10 20/31/9
f 20/36/9 19/35/6 5/34/8
f 25/46/15 27/45/17 24/44/14
f 27/49/18 22/48/19 28/47/18
f 29/52/20 27/51/18 28/50/18
f 34/75/36 19/74/37 20/73/36
f 32/78/38 34/77/36 20/76/36
f 38/115/59 36/114/58 26/113/16
f 22/122/63 15/121/64 14/120/63
f 28/125/65 22/124/63 14/123/63
f 7/135/72 8/134/71 39/133/69
f 24/138/70 27/137/74 29/136/73
f 28/142/75 14/141/76 12/140/75
f 34/145/77 28/144/75 12/143/75
f 19/29/6 1/28/4 2/27/7
f 2/27/7 5/30/8 19/29/6
f 16/39/11 15/38/12 22/37/11
f 22/37/11 23/40/13 16/39/11
f 36/112/58 25/42/15 24/41/14
f 24/41/14 26/43/16 36/112/58
f 32/59/24 20/58/25 21/57/24
f 21/57/24 33/60/26 32/59/24
f 33/63/27 21/62/28 5/61/27
f 5/61/27 6/64/29 33/63/27
f 26/67/30 24/66/31 8/65/30
f 8/65/30 9/68/32 26/67/30
f 12/71/33 13/70/34 19/69/33
f 19/69/33 34/72/35 12/71/33
f 23/81/39 22/80/40 27/79/39
f 27/79/39 25/82/41 23/81/39
f 31/96/46 23/95/47 25/94/46
f 25/94/46 36/97/48 31/96/46
f 23/98/49 31/100/50 17/99/49
f 17/99/49 16/101/51 23/98/49
f 38/118/60 26/117/61 9/116/60
f 9/116/60 10/119/62 38/118/60
f 29/128/66 28/127/67 34/126/66
f 34/126/66 32/129/68 29/128/66
f 39/130/69 8/132/71 24/131/70
f 24/131/70 29/139/73 39/130/69
f 7/148/78 39/147/79 33/146/78
f 33/146/78 6/149/80 7/148/78
f 39/152/81 29/151/82 32/150/81
f 32/150/81 33/153/83 39/152/81

