# ProBuilder 5.2.4
# https://unity3d.com/unity/features/worldbuilding/probuilder
# 25.05.2026 15:18:13

mtllib ./SurHeadSingle.mtl
o SurHeadSingle

g SurHeadSingle
v -0.6957092 -1 -24.3338
v 2.304291 -1 -24.3338
v -0.6957092 2 -24.3338
v 2.304291 2 -24.3338
v -0.6957092 -1 -13.0838
v -0.6957092 -1 -18.7088
v -0.6957092 2 -18.7088
v -0.6957092 2 -13.0838
v 2.304291 -1 -13.0838
v 2.304291 2 -13.0838
v 2.304291 2 -18.7088
v 2.304291 -1 -18.7088
v -0.6957092 5 -24.3338
v 2.304291 5 -24.3338
v 2.304291 5 -18.7088
v -0.6957092 5 -18.7088

vt 0.6957092 -1
vt -2.304291 -1
vt 0.6957092 2
vt -2.304291 2
vt -13.0838 -1
vt -18.7088 -1
vt -18.7088 2
vt -13.0838 2
vt -24.3338 -1
vt -24.3338 2
vt 13.0838 -1
vt 13.0838 2
vt 18.7088 2
vt 18.7088 -1
vt 24.3338 2
vt 24.3338 -1
vt 0.6957092 -24.3338
vt -2.304291 -24.3338
vt -2.304291 -18.7088
vt 0.6957092 -18.7088
vt -2.304291 -13.0838
vt 0.6957092 -13.0838
vt -0.6957092 -24.3338
vt -0.6957092 -18.7088
vt 2.304291 -18.7088
vt 2.304291 -24.3338
vt -0.6957092 -13.0838
vt 2.304291 -13.0838
vt 0.6957092 5
vt -2.304291 5
vt 24.3338 5
vt 18.7088 5
vt -18.7088 5
vt -24.3338 5
vt 2.304291 2
vt -0.6957092 2
vt 2.304291 5
vt -0.6957092 5

vn 0 0 -1
vn -1 0 0
vn 1 0 0
vn 0 1 0
vn 0 -1 0
vn 0 0 1

usemtl SurStone
f 3/3/1 4/4/1 2/2/1 1/1/1
f 8/8/2 7/7/2 6/6/2 5/5/2
f 7/7/2 3/10/2 1/9/2 6/6/2
f 12/14/3 11/13/3 10/12/3 9/11/3
f 2/16/3 4/15/3 11/13/3 12/14/3
f 16/20/4 15/19/4 14/18/4 13/17/4
f 8/22/4 10/21/4 11/19/4 7/20/4
f 2/26/5 12/25/5 6/24/5 1/23/5
f 12/25/5 9/28/5 5/27/5 6/24/5
f 13/29/1 14/30/1 4/4/1 3/3/1
f 14/31/3 15/32/3 11/13/3 4/15/3
f 16/33/2 13/34/2 3/10/2 7/7/2
f 15/37/6 16/38/6 7/36/6 11/35/6

