# ProBuilder 5.2.4
# https://unity3d.com/unity/features/worldbuilding/probuilder
# 25.05.2026 15:10:48

mtllib ./SurTop.mtl
o SurTop

g SurTop
v 2.304291 -1 20.6662
v -0.6957092 -1 20.6662
v 2.304291 2 20.6662
v -0.6957092 2 20.6662
v -0.6957092 -1 -24.8338
v 2.304283 -1 -24.8338
v -0.6957092 2 -24.8338
v 2.304283 2 -24.8338
v -0.6957092 -1 -13.0838
v -0.6957092 -1 -18.7088
v -0.6957092 2 -18.7088
v -0.6957092 2 -13.0838
v 2.304291 -1 -13.0838
v 2.304291 2 -13.0838
v 2.304291 2 -18.7088
v 2.304291 -1 -18.7088
v -0.6957092 5 -24.8338
v 2.304283 5 -24.8338
v 2.304291 5 -18.7088
v -0.6957092 5 -18.7088
v -0.6957092 -1 -1.833801
v -0.6957092 -1 -7.458801
v -0.6957092 2 -7.458801
v -0.6957092 2 -1.833801
v 2.304291 -1 -1.833801
v 2.304291 2 -1.833801
v 2.304291 2 -7.458801
v 2.304291 -1 -7.458801
v -0.6957092 5 -13.0838
v 2.304291 5 -13.0838
v 2.304291 5 -7.458801
v -0.6957092 5 -7.458801
v -0.6957092 -1 9.416199
v -0.6957092 -1 3.791199
v -0.6957092 2 3.791199
v -0.6957092 2 9.416199
v 2.304291 -1 9.416199
v 2.304291 2 9.416199
v 2.304291 2 3.791199
v 2.304291 -1 3.791199
v -0.6957092 5 -1.833801
v 2.304291 5 -1.833801
v 2.304291 5 3.791199
v -0.6957092 5 3.791199
v -0.6957092 -1 15.0412
v -0.6957092 2 15.0412
v 2.304291 2 15.0412
v 2.304291 -1 15.0412
v -0.6957092 5 9.416199
v 2.304291 5 9.416199
v 2.304291 5 15.0412
v -0.6957092 5 15.0412

vt 2.304291 -1
vt -0.6957092 -1
vt 2.304291 2
vt -0.6957092 2
vt 0.6957092 -1
vt -2.304283 -1
vt 0.6957092 2
vt -2.304283 2
vt -13.0838 -1
vt -18.7088 -1
vt -18.7088 2
vt -13.0838 2
vt -24.8338 -1
vt -24.8338 2
vt 13.0838 -1
vt 13.0838 2
vt 18.7088 2
vt 18.7088 -1
vt 24.8338 2
vt 24.8338 -1
vt 0.6957092 -24.8338
vt -2.304283 -24.8338
vt -2.304291 -18.7088
vt 0.6957092 -18.7088
vt -2.304291 -13.0838
vt 0.6957092 -13.0838
vt -0.6957092 -24.8338
vt -0.6957092 -18.7088
vt 2.304291 -18.7088
vt 2.304283 -24.8338
vt -0.6957092 -13.0838
vt 2.304291 -13.0838
vt -1.833801 -1
vt -7.458801 -1
vt -7.458801 2
vt -1.833801 2
vt 1.833801 -1
vt 1.833801 2
vt 7.458801 2
vt 7.458801 -1
vt -2.304291 -7.458801
vt 0.6957092 -7.458801
vt -2.304291 -1.833801
vt 0.6957092 -1.833801
vt -0.6957092 -7.458801
vt 2.304291 -7.458801
vt -0.6957092 -1.833801
vt 2.304291 -1.833801
vt 9.416199 -1
vt 3.791199 -1
vt 3.791199 2
vt 9.416199 2
vt -9.416199 -1
vt -9.416199 2
vt -3.791199 2
vt -3.791199 -1
vt -2.304291 3.791199
vt 0.6957092 3.791199
vt -2.304291 9.416199
vt 0.6957092 9.416199
vt -0.6957092 3.791199
vt 2.304291 3.791199
vt -0.6957092 9.416199
vt 2.304291 9.416199
vt 20.6662 -1
vt 15.0412 -1
vt 15.0412 2
vt 20.6662 2
vt -20.6662 -1
vt -20.6662 2
vt -15.0412 2
vt -15.0412 -1
vt -2.304291 15.0412
vt 0.6957092 15.0412
vt -2.304291 20.6662
vt 0.6957092 20.6662
vt -0.6957092 15.0412
vt 2.304291 15.0412
vt -0.6957092 20.6662
vt 2.304291 20.6662
vt 0.6957092 5
vt -2.304283 5
vt 24.8338 5
vt 18.7088 5
vt -18.7088 5
vt -24.8338 5
vt 2.304291 5
vt -0.6957092 5
vt 13.0838 5
vt 7.458801 5
vt -7.458801 5
vt -13.0838 5
vt 1.833801 5
vt -3.791199 5
vt 3.791199 5
vt -1.833801 5
vt -9.416199 5
vt -15.0412 5
vt 15.0412 5
vt 9.416199 5

vn 0 0 1
vn 0 0 -1
vn -1 0 0
vn 1 0 0
vn 0 1 0
vn 0 -1 0

usemtl SurStone
f 3/3/1 4/4/1 2/2/1 1/1/1
f 7/7/2 8/8/2 6/6/2 5/5/2
f 12/12/3 11/11/3 10/10/3 9/9/3
f 11/11/3 7/14/3 5/13/3 10/10/3
f 16/18/4 15/17/4 14/16/4 13/15/4
f 6/20/4 8/19/4 15/17/4 16/18/4
f 20/24/5 19/23/5 18/22/5 17/21/5
f 12/26/5 14/25/5 15/23/5 11/24/5
f 6/30/6 16/29/6 10/28/6 5/27/6
f 16/29/6 13/32/6 9/31/6 10/28/6
f 24/36/3 23/35/3 22/34/3 21/33/3
f 23/35/3 12/12/3 9/9/3 22/34/3
f 28/40/4 27/39/4 26/38/4 25/37/4
f 13/15/4 14/16/4 27/39/4 28/40/4
f 32/42/5 31/41/5 30/25/5 29/26/5
f 24/44/5 26/43/5 27/41/5 23/42/5
f 13/32/6 28/46/6 22/45/6 9/31/6
f 28/46/6 25/48/6 21/47/6 22/45/6
f 36/52/3 35/51/3 34/50/3 33/49/3
f 35/51/3 24/36/3 21/33/3 34/50/3
f 40/56/4 39/55/4 38/54/4 37/53/4
f 25/37/4 26/38/4 39/55/4 40/56/4
f 44/58/5 43/57/5 42/43/5 41/44/5
f 36/60/5 38/59/5 39/57/5 35/58/5
f 25/48/6 40/62/6 34/61/6 21/47/6
f 40/62/6 37/64/6 33/63/6 34/61/6
f 4/68/3 46/67/3 45/66/3 2/65/3
f 46/67/3 36/52/3 33/49/3 45/66/3
f 48/72/4 47/71/4 3/70/4 1/69/4
f 37/53/4 38/54/4 47/71/4 48/72/4
f 52/74/5 51/73/5 50/59/5 49/60/5
f 4/76/5 3/75/5 47/73/5 46/74/5
f 37/64/6 48/78/6 45/77/6 33/63/6
f 48/78/6 1/80/6 2/79/6 45/77/6
f 17/81/2 18/82/2 8/8/2 7/7/2
f 18/83/4 19/84/4 15/17/4 8/19/4
f 20/85/3 17/86/3 7/14/3 11/11/3
f 19/87/1 20/88/1 11/4/1 15/3/1
f 29/81/2 30/82/2 14/8/2 12/7/2
f 30/89/4 31/90/4 27/39/4 14/16/4
f 32/91/3 29/92/3 12/12/3 23/35/3
f 31/87/1 32/88/1 23/4/1 27/3/1
f 41/81/2 42/82/2 26/8/2 24/7/2
f 42/93/4 43/94/4 39/55/4 26/38/4
f 44/95/3 41/96/3 24/36/3 35/51/3
f 43/87/1 44/88/1 35/4/1 39/3/1
f 49/81/2 50/82/2 38/8/2 36/7/2
f 50/97/4 51/98/4 47/71/4 38/54/4
f 52/99/3 49/100/3 36/52/3 46/67/3
f 51/87/1 52/88/1 46/4/1 47/3/1

