# ProBuilder 5.2.4
# https://unity3d.com/unity/features/worldbuilding/probuilder
# 2.06.2026 15:00:06

mtllib ./Wall_Castle.mtl
o Wall_Castle

g Wall_Castle
v 0 -1.5 3
v -13 -1.5 3
v 0 27 3
v -13 27 3
v -13 -1.5 -21
v -13 27 -21
v 0 -1.5 -21
v 0 27 -21

vt 0 -1.5
vt -13 -1.5
vt 0 27
vt -13 27
vt 3 -1.5
vt -21 -1.5
vt 3 27
vt -21 27
vt 13 -1.5
vt 13 27
vt 21 -1.5
vt -3 -1.5
vt 21 27
vt -3 27
vt 0 3
vt 13 3
vt 0 -21
vt 13 -21
vt -13 -21
vt -13 3

vn 0 0 1
vn -1 0 0
vn 0 0 -1
vn 1 0 0
vn 0 1 0
vn 0 -1 0

usemtl ProBuilderDefault
f 3/3/1 4/4/1 2/2/1 1/1/1
f 4/7/2 6/8/2 5/6/2 2/5/2
f 6/10/3 8/3/3 7/1/3 5/9/3
f 8/13/4 3/14/4 1/12/4 7/11/4
f 8/17/5 6/18/5 4/16/5 3/15/5
f 1/15/6 2/20/6 5/19/6 7/17/6

