# ProBuilder 5.2.4
# https://unity3d.com/unity/features/worldbuilding/probuilder
# 23.05.2026 21:31:12

mtllib ./Wall_Base-10x10.mtl
o Wall_Base-10x10

g Wall_Base-10x10 (1)
v -5.960464E-07 6.5 6.5
v -5.960464E-07 -3.5 6.5
v -1.000001 -3.5 6.5
v -1.000001 6.5 6.5
v -1.000001 -3.5 -3.5
v -1.000001 6.5 -3.5
v -5.960464E-07 -3.5 -3.5
v -5.960464E-07 6.5 -3.5

vt -43.69357 8.000004
vt -43.69357 -1.999996
vt -44.69357 -1.999996
vt -44.69357 8.000004
vt -69.33949 8.000004
vt -69.33949 -1.999996
vt -79.33949 -1.999996
vt -79.33949 8.000004
vt 44.69362 8.000004
vt 44.69362 -1.999996
vt 43.69362 -1.999996
vt 43.69362 8.000004
vt 79.33949 8.000004
vt 79.33949 -1.999996
vt 69.33949 -1.999996
vt 69.33949 8.000004
vt -79.3396 -43.69356
vt -69.33958 -43.69356
vt -69.33958 -44.69356
vt -79.3396 -44.69356
vt 69.3395 -43.69356
vt 79.3395 -43.69356
vt 79.3395 -44.69356
vt 69.3395 -44.69356

vn 0 0 1
vn -1 0 0
vn 0 0 -1
vn 1 0 0
vn 0 1 0
vn 0 -1 0

usemtl CastleWall1
f 4/4/1 3/3/1 2/2/1 1/1/1
f 6/8/2 5/7/2 3/6/2 4/5/2
f 8/12/3 7/11/3 5/10/3 6/9/3
f 1/16/4 2/15/4 7/14/4 8/13/4
f 6/20/5 4/19/5 1/18/5 8/17/5
f 3/24/6 5/23/6 7/22/6 2/21/6

