# ProBuilder 5.2.4
# https://unity3d.com/unity/features/worldbuilding/probuilder
# 25.05.2026 14:14:00

mtllib ./WoodCornerColumn-1x20.mtl
o WoodCornerColumn-1x20

g WoodCornerColumn-1x20
v -14.17987 1.25 5.745834
v -14.17987 0.2500002 5.745832
v -15.17987 0.2500012 5.745831
v -15.17987 1.250001 5.745833
v -15.17987 0.2500019 -14.25417
v -15.17987 1.25 -14.25417
v -14.17987 0.2500009 -14.25417
v -14.17987 1.25 -14.25417

vt 29.28725 1.955456
vt 28.03726 1.955456
vt 28.03726 3.205456
vt 29.28726 3.205456
vt 18.05429 38.93829
vt 18.05428 37.93829
vt -6.946653 37.93829
vt -6.946648 38.93829
vt -29.28734 3.205535
vt -28.03735 3.205535
vt -28.03735 1.955535
vt -29.28734 1.955535
vt 6.946571 38.93816
vt 6.946575 37.93817
vt -18.0542 37.93816
vt -18.05421 38.93816
vt -20.98835 49.25418
vt -20.98835 29.25418
vt -22.23841 29.25418
vt -22.23841 49.25418
vt 20.98831 29.25418
vt 20.98831 49.25418
vt 22.23837 49.25418
vt 22.23837 29.25418

vn -1.430513E-06 -1.907349E-06 1
vn -1 0 0
vn 9.536757E-07 1.907351E-06 -1
vn 1 0 0
vn 5.960464E-07 1 -5.960463E-09
vn -9.536742E-07 -1 -3.576278E-08

usemtl woodcorner_(2)
f 4/4/1 3/3/1 2/2/1 1/1/1
f 6/8/2 5/7/2 3/6/2 4/5/2
f 8/12/3 7/11/3 5/10/3 6/9/3
f 1/16/4 2/15/4 7/14/4 8/13/4
f 6/20/5 4/19/5 1/18/5 8/17/5
f 3/24/6 5/23/6 7/22/6 2/21/6

