# ProBuilder 5.2.4
# https://unity3d.com/unity/features/worldbuilding/probuilder
# 25.05.2026 14:06:13

mtllib ./WoodCornerColumn-1.25x20.mtl
o WoodCornerColumn-1.25x20

g WoodCornerColumn-1.25x20
v -14.17987 0 5.745834
v -15.42987 0 5.745834
v -14.17987 1.25 5.745834
v -15.42987 1.25 5.745834
v -15.42987 0 -14.25417
v -15.42987 1.25 -14.25417
v -14.17987 0 -14.25417
v -14.17987 1.25 -14.25417

vt 7.500002 -6.075231
vt 7.500002 -7.325231
vt 6.250002 -6.075231
vt 6.250002 -7.325231
vt -7.500002 7.500021
vt -7.500002 27.50002
vt -6.250002 7.500021
vt -6.250002 27.50002
vt -7.500002 -7.325235
vt -7.500002 -6.075235
vt -6.250002 -7.325235
vt -6.250002 -6.075235
vt 7.500002 27.50002
vt 7.500002 7.500021
vt 6.250002 27.50002
vt 6.250002 7.500021
vt -6.075253 7.500004
vt -7.325253 7.5
vt -6.075314 27.5
vt -7.325314 27.5
vt 6.075314 27.5
vt 7.325314 27.5
vt 6.075253 7.500004
vt 7.325253 7.5

vn 0 0 1
vn -1 0 0
vn 0 0 -1
vn 1 0 0
vn 0 1 0
vn 0 -1 0

usemtl woodcorner_(2)
f 3/3/1 4/4/1 2/2/1 1/1/1
f 4/7/2 6/8/2 5/6/2 2/5/2
f 6/11/3 8/12/3 7/10/3 5/9/3
f 8/15/4 3/16/4 1/14/4 7/13/4
f 8/19/5 6/20/5 4/18/5 3/17/5
f 1/23/6 2/24/6 5/22/6 7/21/6

