# ProBuilder 5.2.4
# https://unity3d.com/unity/features/worldbuilding/probuilder
# 25.05.2026 15:05:32

mtllib ./Balcony-Floor2.mtl
o Balcony-Floor2

g Balcony-Floor2
v 4.429193E-07 -1.999997 13.10031
v -0.7999997 -1.999998 13
v -0.7999997 1.000001 13
v -1.531263E-07 1.000011 13.30086
v -0.7999997 4.000001 13
v 2.045012E-07 4.000008 13.20055
v -0.7999997 -1.999998 4.768372E-07
v 2.980232E-07 -1.999998 4.768372E-07
v 2.980232E-07 1.000001 4.768372E-07
v -0.7999997 1.000001 4.768372E-07
v 2.980232E-07 4.000001 4.768372E-07
v -0.7999997 4.000001 4.768372E-07
v -1.25 0.9955027 12.425
v -1.25 3.300004 12.05
v -1.25 -1.999999 12.8
v -0.9999997 3.800001 0.2000005
v -1.5 0.9000019 0.1999995
v -2.25 -1.999993 0.1999903
v -0.7999997 4.000001 6.5
v 2.980232E-07 4.000001 6.5
v -1.375 3.550003 6.125001
v -0.7999972 -7.999999 12.99999
v 2.588687E-06 -7.999995 13.1003
v 2.588687E-06 -7.999997 6.499988
v -3.099557 -7.999996 6.499957
v -1.249998 -7.999999 12.79999
v 2.588686E-06 -8.000002 -1.333707E-05
v -0.7999972 -8.000002 -1.333707E-05
v -1.749998 -7.999998 0.1999836
v -2.865243 -1.999991 6.499979
v -2.087806 0.9477593 6.312475
v 2.980232E-07 1.000001 6.5
v 2.980232E-07 -1.999998 6.5

vt 2.980232E-07 -1.999998
vt -0.7999997 -1.999998
vt -0.7999997 1.000001
vt 2.980232E-07 1.000001
vt -0.7999997 4.000001
vt 2.980232E-07 4.000001
vt 0.7999997 -1.999998
vt 0.7999997 1.000001
vt 0.7999997 4.000001
vt 7.370596 2.795399
vt 7.370596 -0.1864223
vt 6.662028 -0.1715228
vt 6.431227 2.151502
vt 7.370596 -3.168243
vt 6.89283 -3.18136
vt 1.019709 3.796069
vt 1.508622 0.8942308
vt 0.7822595 0.9920867
vt 0.7822595 3.989442
vt 2.241989 -2.009801
vt 0.7822595 -2.005269
vt -2.980232E-07 13
vt 0.7999997 13
vt 0.7999997 6.5
vt -2.980232E-07 6.5
vt 0.7999997 4.768372E-07
vt -2.980232E-07 4.768372E-07
vt 12.05469 1.62369
vt 6.130212 1.70862
vt 6.50301 2.429666
vt 13.00296 2.446427
vt 0.2038212 2.130865
vt 0.003058195 2.412906
vt -0.8000003 12.99999
vt -5.024833E-07 13.1003
vt -5.024843E-07 6.49999
vt -3.09956 6.499959
vt -1.250001 12.79999
vt -0.7999921 -1.808339E-05
vt -1.749992 0.1999789
vt 12.8 -1.999998
vt 6.5 -1.999998
vt 6.5 0.9000013
vt 12.8 0.9000013
vt 0.2000005 -1.999998
vt 0.2000005 0.9000013
vt 6.5 3.800001
vt 12.8 3.800001
vt 0.2000005 3.800001
vt -13.10031 -1.999997
vt -13.30086 1.000011
vt -6.5 1.000001
vt -6.5 -1.999998
vt -13.20055 4.000008
vt -6.5 4.000001
vt 0.8235328 -1.999973
vt 1.629797 -1.999972
vt 0.8235338 -7.999974
vt 1.629798 -7.999969
vt 4.056304 -1.999981
vt 4.548747 -1.99998
vt 4.056302 -7.999981
vt 4.548744 -7.999981
vt -13.1003 -7.999995
vt -6.499988 -7.999997
vt 1.333707E-05 -8.000002
vt 5.584735 -2.164499
vt 12.08852 -2.164506
vt 5.526521 -8.168795
vt 12.08852 -8.160218
vt 0.4177329 -1.809662
vt 6.747692 -1.809661
vt 0.3691283 -7.830269
vt 6.770444 -7.769859
vt 0.7999972 -8.000002
vt 0.7924975 -1.999998
vt 2.256225 -1.999993
vt 0.7924931 -8.000002
vt 1.76091 -7.999998

vn -0.2378651 -0.03122563 0.9632004
vn -0.124409 0 0.9922311
vn -0.3513212 -0.06245125 0.9341699
vn -0.352009 0 0.9359967
vn -0.2975213 0.01620888 0.9527364
vn -0.2430336 0.03241776 0.969476
vn 0 0 -1
vn -0.9037378 0 0.4280864
vn -0.8438482 0.04985516 0.5204198
vn -0.7839587 0.09971032 0.6127533
vn -0.7875048 0 0.6163085
vn -0.5955057 0.05682835 0.7620994
vn -0.4035065 0.1136567 0.9078903
vn -0.4939463 0.02420583 -0.8328278
vn -0.2807857 0.04841166 -0.9585488
vn -0.7071068 0 -0.7071068
vn -0.2056325 0.01765832 -0.9757642
vn -0.1365452 0.03531663 -0.9900041
vn -0.2747199 0 -0.9615242
vn -8.673102E-06 1 -1.067459E-06
vn -0.7376224 0.6563354 0.02297345
vn -0.6340675 0.7719115 0.04594691
vn -0.8411774 0.5407593 0
vn -0.614045 0.7892514 -0.005562117
vn -0.6605759 0.7481791 -0.002781059
vn -0.7071069 0.7071066 0
vn 7.47269E-06 -1 -1.681382E-05
vn -0.9682015 0.03107584 0.2482342
vn -0.9624947 0.1458151 0.1886701
vn -0.9567879 0.2605544 0.129106
vn -0.9641014 0.248282 -0.094152
vn -0.9639517 0.248771 -0.09439179
vn -0.963802 0.24926 -0.09463158
vn -0.990519 0.02206427 0.1355921
vn -0.9769642 0.1441174 0.08357396
vn -0.9634094 0.2661705 0.03155586
vn -0.9618686 0.2566668 -0.09450353
vn -0.9729154 0.2131578 -0.07481074
vn -0.9839621 0.1696488 -0.05511796
vn 1 9.712327E-08 2.219194E-08
vn -0.4061381 -1.452464E-06 0.9138117
vn -0.9679769 0.03780085 0.2481767
vn -0.9637411 0.01890005 0.2649338
vn -0.9595053 -7.461077E-07 0.2816908
vn -0.9918597 -0.08265523 -0.09686273
vn -0.9844819 -0.02224813 -0.1530874
vn -0.9771041 0.03815896 -0.209312
vn -0.1366306 2.22372E-06 -0.9906221
vn -0.1713038 -0.008580761 -0.9845142
vn -0.2059771 -0.01716375 -0.9784063

usemtl zemin1
f 26/38/27 23/35/27 22/34/27
f 26/38/27 24/36/27 23/35/27
f 26/38/27 25/37/27 24/36/27
f 25/37/27 29/40/27 24/36/27
f 27/27/27 24/36/27 29/40/27
f 28/39/27 27/27/27 29/40/27
f 3/3/1 2/2/2 1/1/1
f 1/1/1 4/4/3 3/3/1
f 5/5/5 3/3/4 4/4/5
f 4/4/5 6/6/6 5/5/5
f 10/8/7 9/4/7 8/1/7
f 8/1/7 7/7/7 10/8/7
f 12/9/7 11/6/7 9/4/7
f 9/4/7 10/8/7 12/9/7
f 14/13/9 13/12/10 3/11/9
f 3/11/9 5/10/8 14/13/9
f 13/12/12 15/15/13 2/14/12
f 2/14/12 3/11/11 13/12/12
f 10/18/14 17/17/15 16/16/14
f 16/16/14 12/19/16 10/18/14
f 7/21/17 18/20/18 17/17/17
f 17/17/17 10/18/19 7/21/17
f 6/22/20 20/25/20 19/24/20
f 19/24/20 5/23/20 6/22/20
f 20/25/20 11/27/20 12/26/20
f 12/26/20 19/24/20 20/25/20
f 21/29/22 14/28/21 5/31/23
f 5/31/23 19/30/21 21/29/22
f 12/33/26 16/32/25 21/29/24
f 21/29/24 19/30/25 12/33/26
f 31/43/30 30/42/29 15/41/28
f 15/41/28 13/44/29 31/43/30
f 18/45/32 30/42/31 31/43/32
f 31/43/32 17/46/33 18/45/32
f 21/47/36 31/43/35 13/44/34
f 13/44/34 14/48/35 21/47/36
f 16/49/39 17/46/38 31/43/37
f 31/43/37 21/47/38 16/49/39
f 32/52/40 4/51/40 1/50/40
f 1/50/40 33/53/40 32/52/40
f 9/4/40 32/52/40 33/53/40
f 33/53/40 8/1/40 9/4/40
f 20/55/40 6/54/40 4/51/40
f 4/51/40 32/52/40 20/55/40
f 11/6/40 20/55/40 32/52/40
f 32/52/40 9/4/40 11/6/40
f 23/59/2 1/57/2 2/56/2
f 2/56/2 22/58/2 23/59/2
f 22/63/41 2/61/41 15/60/41
f 15/60/41 26/62/41 22/63/41
f 24/65/40 33/53/40 1/50/40
f 1/50/40 23/64/40 24/65/40
f 27/66/40 8/1/40 33/53/40
f 33/53/40 24/65/40 27/66/40
f 26/70/44 15/68/43 30/67/42
f 30/67/42 25/69/43 26/70/44
f 25/74/47 30/72/46 18/71/45
f 18/71/45 29/73/46 25/74/47
f 28/75/7 7/7/7 8/1/7
f 8/1/7 27/66/7 28/75/7
f 29/79/50 18/77/49 7/76/48
f 7/76/48 28/78/49 29/79/50

