# ProBuilder 5.2.4
# https://unity3d.com/unity/features/worldbuilding/probuilder
# 25.05.2026 14:58:54

mtllib ./Balcony-Floor.mtl
o Balcony-Floor

g Balcony
v 2.980232E-07 -1.999998 13
v -0.7999997 -1.999998 13
v -0.7999997 1.000001 13
v 2.980232E-07 1.000001 13
v -0.7999997 4.000001 13
v 2.980232E-07 4.000001 13
v -0.7999997 -1.999998 4.768372E-07
v 2.980232E-07 -1.999998 4.768372E-07
v 2.980232E-07 1.000001 4.768372E-07
v -0.7999997 1.000001 4.768372E-07
v 2.980232E-07 4.000001 4.768372E-07
v -0.7999997 4.000001 4.768372E-07
v -1.25 0.9955027 12.425
v -1.25 3.300004 12.05
v -1.25 -1.999999 12.8
v -0.9999997 3.800001 0.2000005
v -1.5 0.9000019 0.1999995
v -1.75 -1.999998 0.1999995
v -0.7999997 4.000001 6.5
v 2.980232E-07 4.000001 6.5
v -1.375 3.550003 6.125001
v 2.980232E-07 -1.999998 6.5
v -2.5 -1.999999 6.5
v -1.75 0.9477518 6.3125
v 2.980232E-07 1.000001 6.5

vt 2.980232E-07 -1.999998
vt -0.7999997 -1.999998
vt -0.7999997 1.000001
vt 2.980232E-07 1.000001
vt -0.7999997 4.000001
vt 2.980232E-07 4.000001
vt 0.7999997 -1.999998
vt 0.7999997 1.000001
vt 0.7999997 4.000001
vt 7.370596 2.795399
vt 7.370596 -0.1864223
vt 6.662028 -0.1715228
vt 6.431227 2.151502
vt 7.370596 -3.168243
vt 6.89283 -3.18136
vt 1.018589 3.79627
vt 1.503511 0.8938255
vt 0.7758751 0.9929967
vt 0.7758751 3.991351
vt 1.745972 -2.006602
vt 0.7758751 -2.005358
vt -2.980232E-07 13
vt 0.7999997 13
vt 0.7999997 6.5
vt -2.980232E-07 6.5
vt 0.7999997 4.768372E-07
vt -2.980232E-07 4.768372E-07
vt 12.05469 1.62369
vt 6.130212 1.70862
vt 6.50301 2.429666
vt 13.00296 2.446427
vt 0.2038212 2.130865
vt 0.003058195 2.412906
vt -0.8000003 13
vt -2.500001 6.5
vt -1.25 12.8
vt -0.8000003 5.318302E-07
vt -1.75 0.1999996
vt 12.8 -1.999998
vt 6.5 -1.999998
vt 6.5 0.9000013
vt 12.8 0.9000013
vt 0.2000005 -1.999998
vt 0.2000005 0.9000013
vt 6.5 3.800001
vt 12.8 3.800001
vt 0.2000005 3.800001
vt -13 -1.999998
vt -13 1.000001
vt -6.5 1.000001
vt -6.5 -1.999998
vt -13 4.000001
vt -6.5 4.000001

vn 0 0 1
vn 0 0 -1
vn -0.9037378 0 0.4280864
vn -0.8438482 0.04985516 0.5204198
vn -0.7839587 0.09971032 0.6127533
vn -0.7875048 0 0.6163085
vn -0.5955057 0.05682835 0.7620994
vn -0.4035065 0.1136567 0.9078903
vn -0.4939463 0.02420583 -0.8328278
vn -0.2807857 0.04841166 -0.9585488
vn -0.7071068 0 -0.7071068
vn -0.2403484 0.008878319 -0.96996
vn -0.205977 0.01775664 -0.9783957
vn -0.2747199 0 -0.9615242
vn 0 1 0
vn -0.7376224 0.6563354 0.02297345
vn -0.6340675 0.7719115 0.04594691
vn -0.8411774 0.5407593 0
vn -0.614045 0.7892514 -0.005562117
vn -0.6605759 0.7481791 -0.002781059
vn -0.7071069 0.7071066 0
vn 0 -1 2.384188E-06
vn -0.980588 0.02435663 0.1945612
vn -0.9728271 0.1373983 0.1357734
vn -0.9650663 0.25044 0.0769856
vn -0.9644356 0.2380796 -0.1148138
vn -0.9799434 0.1619472 -0.07809894
vn -0.9954513 0.08581474 -0.04138412
vn -0.996592 0.01324869 0.08141733
vn -0.9928659 0.07886627 0.0541908
vn -0.9891397 0.1444839 0.02696427
vn -0.9893391 0.1395757 -0.0415541
vn -0.9866506 0.1546122 -0.04833603
vn -0.9839621 0.1696488 -0.05511796
vn 1 0 0

usemtl zemin1
f 15/36/22 1/22/22 2/34/22
f 15/36/22 22/25/22 1/22/22
f 15/36/22 23/35/22 22/25/22
f 23/35/22 18/38/22 22/25/22
f 8/27/22 22/25/22 18/38/22
f 7/37/22 8/27/22 18/38/22
f 3/3/1 2/2/1 1/1/1
f 1/1/1 4/4/1 3/3/1
f 5/5/1 3/3/1 4/4/1
f 4/4/1 6/6/1 5/5/1
f 10/8/2 9/4/2 8/1/2
f 8/1/2 7/7/2 10/8/2
f 12/9/2 11/6/2 9/4/2
f 9/4/2 10/8/2 12/9/2
f 14/13/4 13/12/5 3/11/4
f 3/11/4 5/10/3 14/13/4
f 13/12/7 15/15/8 2/14/7
f 2/14/7 3/11/6 13/12/7
f 10/18/9 17/17/10 16/16/9
f 16/16/9 12/19/11 10/18/9
f 7/21/12 18/20/13 17/17/12
f 17/17/12 10/18/14 7/21/12
f 6/22/15 20/25/15 19/24/15
f 19/24/15 5/23/15 6/22/15
f 20/25/15 11/27/15 12/26/15
f 12/26/15 19/24/15 20/25/15
f 21/29/17 14/28/16 5/31/18
f 5/31/18 19/30/16 21/29/17
f 12/33/21 16/32/20 21/29/19
f 21/29/19 19/30/20 12/33/21
f 24/41/25 23/40/24 15/39/23
f 15/39/23 13/42/24 24/41/25
f 18/43/27 23/40/26 24/41/27
f 24/41/27 17/44/28 18/43/27
f 21/45/31 24/41/30 13/42/29
f 13/42/29 14/46/30 21/45/31
f 16/47/34 17/44/33 24/41/32
f 24/41/32 21/45/33 16/47/34
f 25/50/35 4/49/35 1/48/35
f 1/48/35 22/51/35 25/50/35
f 9/4/35 25/50/35 22/51/35
f 22/51/35 8/1/35 9/4/35
f 20/53/35 6/52/35 4/49/35
f 4/49/35 25/50/35 20/53/35
f 11/6/35 20/53/35 25/50/35
f 25/50/35 9/4/35 11/6/35

