# ProBuilder 5.2.4
# https://unity3d.com/unity/features/worldbuilding/probuilder
# 25.05.2026 19:23:04

mtllib ./Platform_Broken.mtl
o Platform_Broken

g Platform_Broken
v -2.020088 -2.000002 -4.293236
v -2.020088 1.999997 -4.293235
v -2.020086 2 0.9193322
v -2.020086 -2 0.9193322
v -0.2501554 2 -3.080668
v -0.05018646 2 -2.649328
v 0.3994386 2 -1.809474
v 1.347438 2 -0.888012
v 1.618407 2 -0.2653205
v 1.800997 2 0.7122883
v 1.734153 2 0.9193322
v -0.05018247 -2 -2.649328
v -0.250155 -2 -3.080668
v 0.3994358 -2 -1.809474
v 1.347432 -2 -0.8880119
v 1.618405 -2 -0.2653205
v 1.800992 -2 0.7122883
v 1.734157 -2 0.9193322
v -0.3647572 -0.9094707 -3.071017
v -0.1468446 0.1130881 -3.080668
v -0.08700399 1.078442 -3.080668
v 0.8687493 -1.038239 -1.152177
v 1.513676 -1.370034 -0.2653205
v 1.351642 1.005312 -0.888012
v 1.521448 -0.004269857 -0.591753
v 1.603914 1.099034 -0.1822231
v 0.8724128 0.2252139 -1.367891
v 0.633223 -1.573028 -1.720292
v 0.6187993 0.3957385 -1.615687
v 1.8462 -1 0.9193322
v 1.979914 -1.000466 0.7064249
v -0.02124421 0.2415904 -2.384095
v -0.1051181 1.678589 -2.612672
v -0.2101167 -1.116073 -2.812026
v 1.717102 0 0.9193322
v 1.825553 -0.0006747539 0.5234991
v 1.833648 1 0.9193322
v 1.708948 0.6143698 0.4148436
v 0.2511785 1.618206 -1.706728

vt 237.0157 9.787441
vt 233.0157 9.787441
vt 233.0157 15.00001
vt 237.0157 15.00001
vt -64.97334 9.787612
vt -66.74328 11.00018
vt -66.94324 11.43152
vt -64.97334 15.00018
vt -66.94373 11.4313
vt -67.39335 12.27115
vt -64.97382 14.99996
vt -68.34135 13.19261
vt -68.61232 13.8153
vt -68.79491 14.79291
vt -68.72807 14.99996
vt 66.94326 11.43151
vt 66.74329 11.00017
vt 64.97336 9.787601
vt 64.97336 15.00017
vt 64.97382 14.99996
vt 67.39335 12.27115
vt 66.94373 11.4313
vt 68.34135 13.19261
vt 68.61232 13.8153
vt 68.79489 14.79286
vt 68.72805 14.9999
vt 59.13298 238.3967
vt 61.27843 238.3967
vt 61.18935 237.3038
vt 58.08341 233.0157
vt 58.08341 237.0157
vt 60.14106 235.9252
vt 60.22752 233.0157
vt 66.84707 234.9026
vt 66.90691 233.9372
vt 66.74376 233.0157
vt 66.31503 233.041
vt 66.20016 235.9505
vt 66.41827 234.9279
vt -244.7974 4.42484
vt -245.8663 4.71005
vt -245.9621 5.382348
vt -245.3359 5.429428
vt -237.7339 30.89731
vt -238.752 31.21267
vt -237.6557 31.64861
vt -227.422 67.19923
vt -228.2397 66.56688
vt -228.4137 67.58963
vt -231.8292 39.18288
vt -231.2805 39.78556
vt -230.0194 39.55672
vt -240.1893 46.2498
vt -238.4084 46.7434
vt -238.2232 46.39631
vt -227.8819 -14.8591
vt -227.8893 -14.64166
vt -226.883 -14.64166
vt -226.8686 -14.885
vt -229.3496 24.3518
vt -230.3168 24.3518
vt -230.1808 25.0582
vt -228.7517 24.80411
vt -241.083 15.39226
vt -242.0188 15.39226
vt -241.4247 15.86823
vt -241.1178 15.85227
vt -233.3024 35.12271
vt -234.2971 35.12271
vt -234.2044 35.87236
vt -233.3035 35.8003
vt -241.7635 27.00342
vt -242.86 26.99279
vt -242.8817 27.46773
vt -241.9857 27.29359
vt -215.0093 78.56648
vt -216.0548 78.57858
vt -216.2233 78.90305
vt -228.1936 24.90587
vt -229.4236 25.17809
vt -228.0546 25.6117
vt -223.5296 70.40743
vt -224.782 70.67981
vt -225.0241 71.79961
vt -223.6697 71.43363
vt -242.9047 -7.630274
vt -242.8871 -7.379476
vt -241.8789 -7.379477
vt -241.8934 -7.772309
vt -68.72807 233.0157
vt -68.82756 234.0157
vt -68.71101 235.0157
vt -64.97382 233.0157
vt -64.97382 237.0157
vt -68.72807 237.0157
vt -68.84011 236.0157
vt -226.0881 49.8292
vt -227.4465 50.18521
vt -227.028 51.24499
vt -226.0511 50.97228
vt -220.3605 53.88179
vt -220.9291 54.93624
vt -219.9137 54.92992
vt -220.9617 53.96255
vt -243.9379 10.77147
vt -244.5633 10.88391
vt -244.5375 11.29352
vt -224.8722 29.11549
vt -225.4815 29.62616
vt -224.4747 29.62616
vt -223.493 29.59287
vt -223.0308 -16.54388
vt -221.6544 -16.0142
vt -221.6454 -16.23158
vt -238.7669 32.36448
vt -242.4936 14.52301
vt -243.6153 15.22896
vt -242.9893 15.12027
vt -230.4788 28.87836
vt -231.3797 28.96317
vt -231.8604 29.57255
vt -230.4724 29.87271
vt 56.87882 240.056
vt 58.20086 240.056
vt 57.67349 239.0835
vt -172.0403 -6.896551
vt -170.9725 -6.23537
vt -171.5536 -6.806842
vt -239.0244 42.3881
vt -239.5207 43.75397
vt -237.5534 43.88484
vt -237.6771 42.88208
vt 61.30359 233.4732
vt 62.67519 234.0861
vt 62.67183 233.0914
vt 56.8442 195.7638
vt 58.20094 195.343
vt 56.8789 195.343
vt 56.93291 234.9035
vt 57.28749 235.074
vt 57.96565 234.2939
vt 61.65271 234.6961
vt -190.5438 79.0143
vt -190.3642 79.94985
vt -189.8794 80.04919
vt -239.6153 43.41496
vt -239.2174 44.57862
vt -238.7254 43.21117
vt -178.3706 69.36802
vt -178.2644 70.33758
vt -177.8567 70.22762
vt -178.0588 69.29978
vt -243.8712 16.3304
vt -243.8677 17.34226
vt -242.5935 17.22237
vt -242.4532 16.31773

vn -1 -2.181014E-14 3.659135E-07
vn -1.471375E-06 1 2.40323E-07
vn 7.006583E-07 -1 -1.144455E-07
vn 0.5793681 0.03329704 -0.8143856
vn 0.5639266 0.06654668 -0.8231394
vn 0.3873532 0.01821877 -0.9217514
vn 0.5796305 -0.01249817 -0.8147836
vn 0.1843725 -0.00936792 -0.9828118
vn -0.01760905 -0.0009641185 -0.9998445
vn 0 0 -1
vn 0.8455759 0.2323796 -0.4627548
vn 0.8663303 0.3276362 -0.3769964
vn 0.8248215 0.137123 -0.5485132
vn 0.8624631 -0.003454489 -0.5061082
vn 0.8728634 -0.01154095 -0.4878282
vn 0.9795846 0.1130718 -0.1662194
vn 0.7561747 -0.06392026 -0.6512403
vn 0.8478227 -0.008867423 -0.5302057
vn 0.9407514 -0.05971827 -0.333797
vn 0.7126741 0.04242501 -0.7002112
vn 0.8918994 -0.1264283 0.4158889
vn 0.9462829 -0.1060238 0.305463
vn 0.8375159 -0.1468327 0.5263148
vn 0.9911601 -0.00375873 -0.09808594
vn 0.9842016 -0.06100892 -0.1662085
vn 0.9981186 0.05349146 -0.02996339
vn 0.9286447 -0.01377913 -0.2972612
vn 0.9681813 0.1714055 -0.1823327
vn 0.889108 -0.1989638 -0.4121898
vn 0.9286045 -0.02375239 -0.3677648
vn 0.9414804 0.003978476 -0.3370443
vn 0.9157286 -0.05148325 -0.3984853
vn 0.8918868 0.08596401 -0.4430244
vn 0.9028248 0.09858064 -0.4185562
vn 0.8809488 0.07334739 -0.4674926
vn 0.9093955 -0.1329481 -0.3941126
vn 0.7794545 -0.1717916 -0.6024438
vn 0.9831401 -0.08588908 -0.1614272
vn 0.7588246 -0.1343105 -0.6356641
vn 0.784783 -0.106517 -0.6105488
vn 0.7328663 -0.162104 -0.6607794
vn 0.8941224 0.1510867 0.3937354
vn 0.8419293 0.1086912 0.5285275
vn 0.9463155 0.1934822 0.2589433
vn 0 0 1
vn 0.935618 -0.0001575723 -0.3305448
vn 0.9114022 -0.1005616 -0.3990407
vn 0.9598339 0.1002464 -0.2620488
vn 0.9411852 -0.002106726 -0.2779686
vn 0.9122372 -0.165494 -0.3747467
vn 0.9701333 0.1612805 -0.1811904
vn 0.992864 0.02980842 0.1154666
vn 0.9401186 0.2236705 0.257194
vn 0.9969844 0.05671978 0.05296116
vn 0.9725117 -0.01014118 -0.2326331
vn 0.9998395 -0.01789933 -0.0007899382
vn 0.9437933 -0.1281052 0.304702
vn 0.9837689 0.1047991 -0.1456563
vn 0.9829926 0.1818977 -0.02527182
vn 0.9809337 -0.03004014 -0.1917772
vn 0.9791951 -0.03419927 -0.2000187
vn 0.9826723 -0.025881 -0.1835356
vn 0.9129287 -0.203849 -0.353563
vn 0.6892939 0.1482926 -0.7091426
vn 0.8622712 -0.4947436 0.1082457
vn 0.7765317 0.06860505 -0.6247374
vn 0.7984036 0.03777839 -0.6009364
vn 0.7546597 0.09943171 -0.6485384
vn 0.6473657 -0.1819293 -0.7401482
vn 0.6620376 0.03845769 -0.7484832
vn 0.6313072 -0.2145673 -0.7452598
vn 0.6323413 -0.4206254 -0.6505527
vn 0.6720552 0.07183991 -0.737008
vn 0.7014204 0.007528355 -0.7127081
vn 0.8292484 -0.166348 -0.53355
vn 0.8229793 -0.358595 -0.4405844
vn 0.7976698 0.03349126 -0.6021639
vn 0.8492035 -0.3101764 -0.409335
vn 0.8346734 -0.4199984 -0.3562607
vn 0.8637336 -0.2003543 -0.4624093
vn 0.8348772 0.08495383 -0.5084221
vn 0.7392361 0.1738494 -0.65062
vn 0.9305183 -0.003941727 -0.3662242

usemtl zemin1
f 3/11/2 7/10/2 6/9/2
f 12/22/3 14/21/3 4/20/3
f 35/92/45 37/91/45 11/90/45
f 35/107/54 36/106/53 38/105/52
f 10/114/57 11/113/56 38/112/52
f 3/3/1 2/2/1 1/1/1
f 1/1/1 4/4/1 3/3/1
f 6/7/2 5/6/2 2/5/2
f 2/5/2 3/8/2 6/7/2
f 9/13/2 8/12/2 7/10/2
f 7/10/2 3/11/2 9/13/2
f 11/15/2 10/14/2 9/13/2
f 9/13/2 3/11/2 11/15/2
f 1/18/3 13/17/3 12/16/3
f 12/16/3 4/19/3 1/18/3
f 4/20/3 14/21/3 15/23/3
f 15/23/3 16/24/3 4/20/3
f 4/20/3 16/24/3 17/25/3
f 17/25/3 18/26/3 4/20/3
f 30/58/21 18/57/22 17/56/21
f 17/56/21 31/59/23 30/58/21
f 35/88/42 30/87/43 31/86/42
f 31/86/42 36/89/44 35/88/42
f 35/92/45 11/90/45 3/93/45
f 3/93/45 4/94/45 35/92/45
f 35/92/45 4/94/45 18/95/45
f 18/95/45 30/96/45 35/92/45
f 37/110/55 35/109/54 38/108/52
f 38/108/52 11/111/56 37/110/55

usemtl Stone_1
f 19/29/6 13/28/5 1/27/4
f 5/36/8 21/35/10 20/34/9
f 20/39/9 19/38/6 5/37/8
f 25/49/15 27/48/17 24/47/14
f 27/52/18 22/51/19 28/50/18
f 29/55/20 27/54/18 28/53/18
f 34/78/36 19/77/37 20/76/36
f 32/81/38 34/80/36 20/79/36
f 38/118/59 36/117/58 26/116/16
f 22/125/63 15/124/64 14/123/63
f 28/128/65 22/127/63 14/126/63
f 7/138/72 8/137/71 39/136/69
f 24/141/70 27/140/74 29/139/73
f 28/145/75 14/144/76 12/143/75
f 34/148/77 28/147/75 12/146/75
f 19/32/6 1/31/4 2/30/7
f 2/30/7 5/33/8 19/32/6
f 16/42/11 15/41/12 22/40/11
f 22/40/11 23/43/13 16/42/11
f 36/115/58 25/45/15 24/44/14
f 24/44/14 26/46/16 36/115/58
f 32/62/24 20/61/25 21/60/24
f 21/60/24 33/63/26 32/62/24
f 33/66/27 21/65/28 5/64/27
f 5/64/27 6/67/29 33/66/27
f 26/70/30 24/69/31 8/68/30
f 8/68/30 9/71/32 26/70/30
f 12/74/33 13/73/34 19/72/33
f 19/72/33 34/75/35 12/74/33
f 23/84/39 22/83/40 27/82/39
f 27/82/39 25/85/41 23/84/39
f 31/99/46 23/98/47 25/97/46
f 25/97/46 36/100/48 31/99/46
f 23/101/49 31/103/50 17/102/49
f 17/102/49 16/104/51 23/101/49
f 38/121/60 26/120/61 9/119/60
f 9/119/60 10/122/62 38/121/60
f 29/131/66 28/130/67 34/129/66
f 34/129/66 32/132/68 29/131/66
f 39/133/69 8/135/71 24/134/70
f 24/134/70 29/142/73 39/133/69
f 7/151/78 39/150/79 33/149/78
f 33/149/78 6/152/80 7/151/78
f 39/155/81 29/154/82 32/153/81
f 32/153/81 33/156/83 39/155/81

