# ProBuilder 5.2.4
# https://unity3d.com/unity/features/worldbuilding/probuilder
# 23.05.2026 20:28:34

mtllib ./Wall_Base-5x5.mtl
o Wall_Base-5x5

g Wall_Base-5x5
v -5.960464E-07 -1 4
v -1.000001 -1 4
v -5.960464E-07 4 4
v -1.000001 4 4
v -1.000001 -1 -1
v -1.000001 4 -1
v -5.960464E-07 -1 -1
v -5.960464E-07 4 -1

vt -5.960464E-07 -1
vt -1.000001 -1
vt -5.960464E-07 4
vt -1.000001 4
vt 4 -1
vt 4 4
vt 1.000001 -1
vt 1.000001 4
vt -4 -1
vt -4 4

vn 0 0 1
vn -1 0 0
vn 0 0 -1
vn 1 0 0
vn 0 1 0
vn 0 -1 0

usemtl CastleWall1
f 3/3/1 4/4/1 2/2/1 1/1/1
f 4/6/2 6/4/2 5/2/2 2/5/2
f 6/8/3 8/3/3 7/1/3 5/7/3
f 8/8/4 3/10/4 1/9/4 7/7/4
f 8/1/5 6/7/5 4/8/5 3/3/5
f 1/3/6 2/4/6 5/2/6 7/1/6

