# ProBuilder 5.2.4
# https://unity3d.com/unity/features/worldbuilding/probuilder
# 23.05.2026 20:19:26

mtllib ./Wall_Base-10x10.mtl
o Wall_Base-10x10

g Wall_Base-10x10
v -5.960464E-07 -3.5 6.5
v -1.000001 -3.5 6.5
v -5.960464E-07 6.5 6.5
v -1.000001 6.5 6.5
v -1.000001 -3.5 -3.5
v -1.000001 6.5 -3.5
v -5.960464E-07 -3.5 -3.5
v -5.960464E-07 6.5 -3.5

vt -5.960464E-07 -3.5
vt -1.000001 -3.5
vt -5.960464E-07 6.5
vt -1.000001 6.5
vt 6.5 -3.5
vt -3.5 -3.5
vt 6.5 6.5
vt -3.5 6.5
vt 1.000001 -3.5
vt 1.000001 6.5
vt 3.5 -3.5
vt -6.5 -3.5
vt 3.5 6.5
vt -6.5 6.5

vn 0 0 1
vn -1 0 0
vn 0 0 -1
vn 1 0 0
vn 0 1 0
vn 0 -1 0

usemtl CastleWall1
f 3/3/1 4/4/1 2/2/1 1/1/1
f 4/7/2 6/8/2 5/6/2 2/5/2
f 6/10/3 8/3/3 7/1/3 5/9/3
f 8/13/4 3/14/4 1/12/4 7/11/4
f 8/1/5 6/9/5 4/10/5 3/3/5
f 1/3/6 2/4/6 5/2/6 7/1/6

